<svg width="210" height="158" viewBox="0 0 210 158" fill="#c6561a" xmlns="http://www.w3.org/2000/svg">
    <path fill-rule="evenodd" clip-rule="evenodd" d="M183.101 1.05736C183.101 1.63787 182.34 1.83535 181.41 1.49599C180.329 1.09989 179.231 1.89974 178.364 3.7122C176.962 6.64641 175.086 7.52486 175.086 5.24755C175.086 4.53282 174.33 4.90055 173.406 6.06594C171.938 7.91551 171.72 7.95041 171.688 6.342C171.645 4.1258 167.072 4.08211 167.072 6.29831C167.072 7.10579 167.587 7.46373 168.217 7.09273C168.846 6.72172 169.362 7.18436 169.362 8.11951C169.362 9.05466 168.846 9.8207 168.217 9.8207C167.587 9.8207 167.108 11.416 167.152 13.3671C167.219 16.3395 167.392 16.5599 168.217 14.731C168.758 13.5307 169.237 13.1946 169.282 13.9847C169.325 14.7736 168.791 16.4355 168.094 17.6761C167.173 19.3195 167.167 22.6389 168.073 29.8811C168.757 35.3523 169.579 42.1985 169.899 45.0956C170.219 47.9927 170.759 50.7905 171.097 51.3142C171.436 51.8369 172.001 58.2596 172.352 65.5859C172.704 72.9132 173.131 79.935 173.303 81.1921C174.024 86.468 175.314 92.3506 176.198 94.3878C176.719 95.5881 177.807 98.2397 178.616 100.281C179.828 103.339 180.218 103.639 180.827 101.983C181.467 100.245 181.866 100.453 183.759 103.507C184.964 105.451 187.341 107.704 189.041 108.512C191.987 109.912 192.148 109.847 192.483 107.105C192.682 105.462 193.655 104.079 194.747 103.881C196.187 103.621 196.505 104.103 196.034 105.821C195.449 107.952 195.619 108.015 198.543 106.744C200.268 105.995 201.107 105.2 200.405 104.977C199.704 104.754 199.13 103.326 199.13 101.801C199.13 99.607 199.45 99.284 200.667 100.246C201.512 100.914 202.439 101.237 202.727 100.963C203.434 100.289 200.572 68.6587 199.102 60.9025C198.068 55.4487 197.617 49.0697 196.591 25.3701C196.455 22.2188 195.884 19.6414 195.325 19.6414C194.764 19.6414 194.63 18.8361 195.027 17.8508C195.423 16.8665 195.161 13.2208 194.444 9.74977C193.491 5.13295 192.716 3.59436 191.557 4.01883C190.515 4.39965 189.971 3.80933 189.971 2.29913C189.971 0.472479 189.265 0 186.536 0C184.647 0 183.101 0.475752 183.101 1.05736ZM41.7037 18.2632C40.4454 18.5666 38.2848 19.9775 36.9017 21.3993C35.3308 23.0154 33.6868 23.729 32.5201 23.3023C31.3076 22.8582 30.7293 23.1496 30.8724 24.1306C31.4162 27.8395 30.5942 29.3246 27.4124 30.382C25.537 31.0051 23.0456 33.015 21.8755 34.8493C20.7042 36.6836 19.3783 37.8326 18.9272 37.4026C18.4761 36.9727 18.4464 37.4616 18.8597 38.4884C19.3337 39.6669 18.9604 40.5933 17.8475 41.0003C16.8777 41.3549 16.3488 42.3032 16.6717 43.1074C16.9957 43.9116 16.287 45.4982 15.0974 46.6319C13.9066 47.7668 13.1178 49.2202 13.3422 49.8629C13.5678 50.5067 13.0846 51.7038 12.2694 52.5232C11.4542 53.3427 10.7786 54.5049 10.7694 55.105C10.7317 57.6028 6.51946 67.6297 5.70998 67.1529C4.58564 66.4905 2.19953 74.0022 2.19953 78.2011C2.19953 79.9623 1.61677 81.9581 0.904614 82.6368C-0.821965 84.2823 0.134101 107.587 2.00036 109.365C2.74 110.07 3.34447 111.758 3.34447 113.119C3.34447 114.479 4.92452 117.131 6.85604 119.015C8.78757 120.898 10.0916 123.124 9.75503 123.962C9.41727 124.803 9.83295 125.487 10.6825 125.487C13.2563 125.487 15.3469 128.686 15.8507 133.398C15.8999 133.848 16.4873 134.216 17.1582 134.216C17.8291 134.216 20.7911 136.561 23.7416 139.427C29.5362 145.055 45.3021 153.095 53.224 154.459C55.7017 154.887 58.1989 155.494 58.7714 155.81C59.345 156.126 66.1757 156.606 73.9499 156.877C85.1165 157.267 89.6563 156.964 95.5654 155.44C99.6792 154.379 103.312 153.097 103.64 152.593C103.967 152.088 105.106 151.674 106.171 151.673C111.908 151.666 133.709 134.041 137.593 126.269C146.4 108.64 146.859 106.51 146.831 83.3122C146.81 64.6354 146.626 62.9747 143.614 54.1524C141.858 49.0064 140.026 45.0301 139.542 45.3149C139.057 45.5997 138.931 44.85 139.261 43.6486C139.678 42.1297 139.297 41.4652 138.01 41.4652C136.991 41.4652 136.158 40.5824 136.158 39.5043C136.158 37.0939 128.565 29.9848 124.852 28.9187C123.004 28.3873 122.381 28.5204 122.908 29.3322C123.393 30.0808 123.02 30.2859 121.913 29.8811C120.938 29.5243 120.428 28.7932 120.777 28.2542C121.514 27.1182 115.83 24.8038 114.387 25.6527C113.854 25.967 113.125 25.7739 112.768 25.2228C112.411 24.6718 109.026 23.8785 105.247 23.4606C98.2685 22.6891 96.2706 21.2705 100.951 20.4118C102.367 20.151 100.694 19.9295 97.2301 19.9186C92.1213 19.9033 91.5809 20.0571 94.3677 20.7326C96.5992 21.2738 92.7866 21.6536 83.4907 21.815C66.5215 22.1119 63.579 21.9406 63.0729 20.629C62.521 19.2028 60.9937 19.4134 59.1492 21.1723C57.2337 22.9979 49.8328 23.9188 49.4389 22.3814C49.2866 21.7867 50.0148 21.2956 51.0567 21.2902C52.0997 21.2836 53.1966 20.5416 53.4943 19.6414C53.792 18.7412 53.626 18.3691 53.1256 18.8132C52.6253 19.2584 51.6257 19.1558 50.9043 18.5862C50.0559 17.9141 48.46 18.1105 46.375 19.1406C42.2967 21.1571 41.6315 21.1472 43.4176 19.0958C44.2019 18.1956 44.6507 17.5158 44.4159 17.5856C44.1824 17.6555 42.9608 17.9599 41.7037 18.2632ZM82.0595 20.3637C82.8473 20.6671 84.1353 20.6671 84.9219 20.3637C85.7096 20.0615 85.065 19.8138 83.4907 19.8138C81.9164 19.8138 81.273 20.0615 82.0595 20.3637ZM104.958 21.4549C105.746 21.7583 107.034 21.7583 107.821 21.4549C108.609 21.1527 107.964 20.905 106.39 20.905C104.815 20.905 104.172 21.1527 104.958 21.4549ZM130.434 34.2393C130.434 34.4652 131.335 35.325 132.437 36.1489C134.253 37.5052 134.293 37.4671 132.87 35.7364C131.374 33.9185 130.434 33.3413 130.434 34.2393ZM68.9866 48.9693C65.1029 49.3436 61.7322 49.8946 61.4975 50.1947C61.2616 50.4948 59.6666 52.8277 57.9515 55.3778C56.2375 57.9279 53.9968 60.0154 52.9733 60.0154C51.9497 60.0154 50.4671 60.8567 49.6782 61.8835C48.4508 63.4853 47.9745 63.5388 46.3556 62.2578C44.1619 60.5228 43.4737 61.0749 40.316 67.1081C37.2143 73.0322 35.4247 77.9807 33.8046 85.1127C31.9933 93.0817 33.9719 104.139 37.6483 106.593C39.0165 107.506 39.8797 108.891 39.566 109.67C39.2465 110.464 40.0195 111.342 41.3281 111.667C42.6093 111.987 43.4348 112.89 43.16 113.675C42.5326 115.47 44.9506 117.835 47.9813 118.391C51.4894 119.035 52.797 120.093 52.1306 121.748C51.7997 122.571 52.6516 123.995 54.0244 124.912C56.9818 126.885 58.7668 127.087 57.6207 125.318C57.1101 124.531 57.307 124.355 58.144 124.848C58.8813 125.283 59.2213 126.043 58.8995 126.539C58.0855 127.793 61.0601 128.724 63.745 128.055C65.0228 127.737 66.8512 128.335 68.0247 129.453C70.1165 131.447 74.6643 131.664 81.7733 130.108C84.9231 129.419 84.733 129.302 79.4834 128.685L73.7587 128.012L80.8917 127.84C96.3645 127.468 105.371 120.683 112.26 104.209C113.013 102.408 113.546 100.567 113.444 100.117C113.343 99.6659 113.767 99.2982 114.386 99.2982C116.168 99.2982 115.545 74.2346 113.676 70.709C112.817 69.0875 112.114 66.0191 112.114 63.8891C112.114 61.758 111.599 60.0154 110.969 60.0154C110.34 60.0154 109.825 59.5626 109.825 59.0082C109.825 57.6453 103.567 51.7638 101.007 50.7206C99.8737 50.2591 96.8866 49.7484 94.3677 49.5858C91.8488 49.4232 86.6966 49.0653 82.9183 48.7903C79.1399 48.5154 72.8714 48.595 68.9866 48.9693ZM116.785 72.6546C116.84 73.9259 117.111 74.1845 117.476 73.3148C117.807 72.5269 117.766 71.5852 117.386 71.223C117.006 70.8607 116.735 71.5045 116.785 72.6546ZM196.341 100.709C196.772 101.785 197.412 102.391 197.764 102.055C198.117 101.72 197.766 100.839 196.982 100.098C195.851 99.0286 195.721 99.1542 196.341 100.709ZM3.34447 101.962C3.34447 102.827 3.8597 103.838 4.48942 104.209C5.11914 104.58 5.63437 103.871 5.63437 102.636C5.63437 101.401 5.11914 100.389 4.48942 100.389C3.8597 100.389 3.34447 101.096 3.34447 101.962ZM4.58795 106.936C4.6223 107.837 5.09281 109.555 5.63437 110.756L6.61789 112.938L6.68078 110.756C6.71627 109.555 6.24462 107.837 5.63437 106.936C4.64742 105.482 4.53185 105.482 4.58795 106.936ZM12.069 121.616C12.4399 122.538 13.2047 123.021 13.7692 122.688C14.3325 122.356 14.7939 122.58 14.7939 123.184C14.7939 123.79 17.3701 126.886 20.5187 130.065C28.0604 137.681 27.9333 135.747 20.3709 127.822C13.9478 121.091 10.9584 118.857 12.069 121.616ZM187.912 119.825C186.811 120.413 184.89 120.585 183.643 120.208C180.879 119.372 180.741 120.465 183.271 123.129C185.069 125.022 184.981 125.125 181.554 125.125C177.431 125.125 177.305 125.367 179.651 128.78C181.063 130.833 181.113 131.778 179.937 134.19C179.155 135.796 177.853 137.115 177.047 137.119C172.717 137.144 175.613 146.535 180.985 149.891C184.93 152.355 204.742 152.895 207.146 150.604C208.996 148.841 208.217 145.858 205.906 145.858C204.999 145.858 204.62 145.181 204.998 144.24C205.491 143.017 206.178 142.894 207.825 143.733C209.63 144.655 210 144.466 210 142.622C210 141.401 209.564 140.402 209.031 140.402C208.498 140.402 208.048 137.258 208.03 133.416C207.999 126.877 207.749 126.218 204.132 123.128C201.28 120.69 199.172 119.838 196.081 119.874C193.778 119.901 191.448 119.661 190.905 119.341C190.36 119.02 189.013 119.238 187.912 119.825ZM27.3884 135.815C27.3884 136.093 28.5482 136.91 29.9645 137.631C32.3002 138.817 32.3941 138.769 30.9698 137.123C29.5066 135.433 27.3884 134.659 27.3884 135.815Z"/>
</svg>
