<?xml version="1.0" encoding="UTF-8"?>
<svg xmlns="http://www.w3.org/2000/svg" viewBox="0 0 94.68 82.62" fill="#f07e44">
    <path class="cls-1" d="M4.81,70.3l3.88-6.81c-1.29-1-2.73-2.38-4.06-4.21-3.09-4.24-6.23-11.89-3.68-24.27C3.66,21.8,11.89,11.61,24.74,5.55,35.5.49,48.96-1.22,61.68.87c21.58,3.55,34.76,16.63,32.8,32.54-1.98,15.99-12.38,27.44-30.08,33.11-10.56,3.38-20.64,3.71-24.18,3.71h-.13l-22.76,10.81c-3.39,1.27-4.57,1.57-6.31,1.57-2.34,0-4.13-.64-4.96-1.56-3.09-3.41-3.22-6.81-1.26-10.75ZM11.38,74.24s-.91,1.72,2.02.24l24.64-11.96,1.15.04c.11,0,11.46.36,23.05-3.39,14.75-4.77,23.04-13.76,24.64-26.7.73-5.93-1.39-11.13-6.31-15.46-4.76-4.19-11.91-7.24-20.13-8.59-11.23-1.85-23.05-.37-32.43,4.05-7.38,3.48-16.77,10.48-19.57,24.08-3.58,17.35,6.26,21.85,6.97,22.15l3.23,1.6-7.25,13.94M11.38,74.24"/>
    <path class="cls-1" d="M45.21,53.33c-1,0-1.99-.41-2.69-1.2l-13.11-14.74c-1.93-2.34-2.51-5.12-1.62-7.81,1.32-4.03,5.67-7.13,9.1-8l.23-.05c3.79-.66,7.35,1.44,9.68,3.35,1.52-1.82,3.6-3.93,5.69-4.81l.18-.07c6.62-2.32,11.29-1.8,13.87,1.54,2.77,3.59,1.48,8.94.62,10.42h0c-8.49,13.98-19,20.24-20.17,20.9-.55.31-1.16.47-1.77.47ZM43.89,47.46s0,0,0,0t0,0ZM34.18,33.39l11.49,12.92c3.21-2.23,10.17-7.78,16.07-17.43.28-.85.48-2.92-.2-3.63-.59-.61-2.7-.82-6.7.57-1.36.64-3.8,3.55-5.07,5.45l-2.3,3.45-2.67-3.17c-1.48-1.74-4.54-4.15-6.5-3.92-1.51.44-4.03,2.15-4.6,3.87-.16.48-.2,1.04.48,1.89ZM61.71,28.98h0Z"/>
</svg>