<?xml version="1.0" encoding="UTF-8"?>
<svg id="_Слой_1" data-name="Слой 1" xmlns="http://www.w3.org/2000/svg" viewBox="0 0 199.24 185.64">
    <defs>
        <style>
            .cls-1 {
            fill: #c6561a;
            fill-rule: evenodd;
            isolation: isolate;
            }

            .cls-2 {
            fill: none;
            stroke: #c6561a;
            stroke-miterlimit: 10;
            stroke-width: 16px;
            }
        </style>
    </defs>
    <path class="cls-2" d="M24.7,174.32l58.26-35.55s98.84,3.71,107.93-69.91C199.98-4.75,31.01-21.63,11.13,74.81c-9.18,44.55,19.54,55.38,19.54,55.38l-21.35,32.9c-3.36,6.63-1.06,21.03,15.37,11.24Z"/>
    <path class="cls-1" d="M136.06,35.1c0,.27-.33.36-.72.2-.46-.18-.93.19-1.3,1.02-.6,1.35-1.4,1.75-1.4.7,0-.33-.32-.16-.72.38-.63.85-.72.86-.73.13-.02-1.02-1.97-1.04-1.97-.02,0,.37.22.53.49.36.27-.17.49.04.49.47s-.22.78-.49.78-.47.73-.46,1.63c.03,1.36.1,1.47.46.63.23-.55.44-.71.46-.34.02.36-.21,1.12-.51,1.69-.39.75-.4,2.28,0,5.6.29,2.51.64,5.65.78,6.98.14,1.33.37,2.61.51,2.85.14.24.39,3.19.54,6.55.15,3.36.33,6.59.41,7.16.31,2.42.86,5.12,1.24,6.06.22.55.69,1.77,1.03,2.7.52,1.4.69,1.54.95.78.27-.8.44-.7,1.25.7.51.89,1.53,1.93,2.26,2.3,1.26.64,1.33.61,1.47-.65.09-.75.5-1.39.97-1.48.62-.12.75.1.55.89-.25.98-.18,1.01,1.07.42.74-.34,1.1-.71.8-.81-.3-.1-.54-.76-.54-1.46,0-1.01.14-1.16.66-.71.36.31.76.45.88.33.3-.31-.92-14.83-1.55-18.39-.44-2.5-.63-5.43-1.07-16.31-.06-1.45-.3-2.63-.54-2.63s-.3-.37-.13-.82c.17-.45.06-2.12-.25-3.72-.41-2.12-.74-2.82-1.23-2.63-.45.17-.68-.1-.68-.79,0-.84-.3-1.06-1.47-1.06-.81,0-1.47.22-1.47.49ZM75.61,43c-.54.14-1.46.79-2.05,1.44-.67.74-1.37,1.07-1.87.87-.52-.2-.77-.07-.7.38.23,1.7-.12,2.38-1.48,2.87-.8.29-1.87,1.21-2.37,2.05-.5.84-1.07,1.37-1.26,1.17s-.21.03-.03.5c.2.54.04.97-.43,1.15-.41.16-.64.6-.5.97.14.37-.16,1.1-.67,1.62-.51.52-.85,1.19-.75,1.48.1.3-.11.84-.46,1.22-.35.38-.64.91-.64,1.18-.02,1.15-1.82,5.75-2.16,5.53-.48-.3-1.5,3.14-1.5,5.07,0,.81-.25,1.72-.55,2.04-.74.76-.33,11.45.47,12.27.32.32.57,1.1.57,1.72s.68,1.84,1.5,2.71c.83.86,1.38,1.89,1.24,2.27-.14.39.03.7.4.7,1.1,0,1.99,1.47,2.21,3.63.02.21.27.38.56.38s1.55,1.08,2.81,2.39c2.48,2.58,9.22,6.27,12.61,6.9,1.06.2,2.13.48,2.37.62.25.15,3.17.37,6.49.49,4.77.18,6.72.04,9.24-.66,1.76-.49,3.31-1.08,3.45-1.31.14-.23.63-.42,1.08-.42,2.45,0,11.77-8.09,13.43-11.66,3.77-8.09,3.96-9.07,3.95-19.71,0-8.57-.09-9.33-1.38-13.38-.75-2.36-1.53-4.19-1.74-4.06-.21.13-.26-.21-.12-.76.18-.7.02-1-.54-1-.44,0-.79-.41-.79-.9,0-1.11-3.25-4.37-4.83-4.86-.79-.24-1.06-.18-.83.19.21.34.05.44-.43.25-.42-.16-.63-.5-.49-.75.32-.52-2.12-1.58-2.73-1.19-.23.14-.54.06-.69-.2-.15-.25-1.6-.62-3.22-.81-2.98-.35-3.84-1.01-1.84-1.4.61-.12-.11-.22-1.59-.23-2.18,0-2.42.06-1.22.37.95.25-.68.42-4.65.5-7.26.14-8.51.06-8.73-.54-.24-.65-.89-.56-1.68.25-.82.84-3.98,1.26-4.15.55-.07-.27.25-.5.69-.5.45,0,.91-.34,1.04-.76.13-.41.06-.58-.16-.38-.21.2-.64.16-.95-.1-.36-.31-1.05-.22-1.94.25-1.74.93-2.03.92-1.26-.02.34-.41.53-.73.43-.69-.1.03-.62.17-1.16.31ZM92.86,43.96c.34.14.89.14,1.22,0,.34-.14.06-.25-.61-.25s-.95.11-.61.25ZM102.65,44.46c.34.14.89.14,1.22,0,.34-.14.06-.25-.61-.25s-.95.11-.61.25ZM113.54,50.33c0,.1.39.5.86.88.78.62.79.6.19-.19-.64-.83-1.04-1.1-1.04-.69ZM87.27,57.09c-1.66.17-3.1.42-3.2.56-.1.14-.78,1.21-1.52,2.38-.73,1.17-1.69,2.13-2.13,2.13s-1.07.39-1.41.86c-.52.74-.73.76-1.42.17-.94-.8-1.23-.54-2.58,2.23-1.33,2.72-2.09,4.99-2.78,8.26-.77,3.66.07,8.73,1.64,9.86.58.42.95,1.05.82,1.41-.14.36.19.77.75.92.55.15.9.56.78.92-.27.82.77,1.91,2.06,2.16,1.5.3,2.06.78,1.77,1.54-.14.38.22,1.03.81,1.45,1.26.91,2.03,1,1.54.19-.22-.36-.13-.44.22-.22.32.2.46.55.32.78-.35.58.92,1,2.07.7.55-.15,1.33.13,1.83.64.89.91,2.84,1.01,5.88.3,1.35-.32,1.27-.37-.98-.65l-2.45-.31,3.05-.08c6.62-.17,10.47-3.28,13.41-10.85.32-.83.55-1.67.51-1.88-.04-.21.14-.38.4-.38.76,0,.5-11.5-.3-13.12-.37-.74-.67-2.15-.67-3.13s-.22-1.78-.49-1.78-.49-.21-.49-.46c0-.63-2.68-3.32-3.77-3.8-.48-.21-1.76-.45-2.84-.52-1.08-.07-3.28-.24-4.9-.37-1.62-.13-4.3-.09-5.96.08ZM107.71,67.96c.02.58.14.7.3.3.14-.36.12-.79-.04-.96-.16-.17-.28.13-.26.66ZM141.72,80.84c.18.49.46.77.61.62.15-.15,0-.56-.33-.9-.48-.49-.54-.43-.27.28ZM59.21,81.41c0,.4.22.86.49,1.03.27.17.49-.15.49-.72s-.22-1.03-.49-1.03-.49.32-.49.72ZM59.74,83.69c.01.41.22,1.2.45,1.75l.42,1,.03-1c.02-.55-.19-1.34-.45-1.75-.42-.67-.47-.67-.45,0ZM62.94,90.43c.16.42.49.64.73.49.24-.15.44-.05.44.23s1.1,1.7,2.45,3.16c3.22,3.5,3.17,2.61-.06-1.03-2.75-3.09-4.02-4.11-3.55-2.85ZM136.41,93.28c-.47.27-1.29.35-1.83.18-1.18-.38-1.24.12-.16,1.34.77.87.73.92-.73.92-1.76,0-1.82.11-.81,1.68.6.94.63,1.38.12,2.48-.33.74-.89,1.34-1.24,1.34-1.85.01-.61,4.32,1.68,5.86,1.69,1.13,10.16,1.38,11.19.33.79-.81.46-2.18-.53-2.18-.39,0-.55-.31-.39-.74.21-.56.5-.62,1.21-.23.77.42.93.34.93-.51,0-.56-.19-1.02-.41-1.02s-.42-1.44-.43-3.21c-.01-3-.12-3.3-1.67-4.72-1.22-1.12-2.12-1.51-3.44-1.49-.98.01-1.98-.1-2.21-.24-.23-.15-.81-.05-1.28.22ZM69.49,96.95c0,.13.5.5,1.1.83,1,.54,1.04.52.43-.23-.63-.78-1.53-1.13-1.53-.6Z"/>
</svg>