<svg width="327" height="473" viewBox="0 0 327 473" fill="none" xmlns="http://www.w3.org/2000/svg">
<path opacity="0.7" d="M304.243 0C316.376 0 326.211 9.83527 326.211 21.9678V390.649C326.211 402.782 316.375 412.617 304.243 412.617H246.307C234.174 412.617 224.339 422.453 224.339 434.585V451.032C224.339 463.165 214.503 473 202.371 473H21.9678C9.83543 473 0.000224498 463.165 0 451.032V82.3509C0 70.2183 9.83545 60.3828 21.9681 60.3828H79.905C92.0376 60.3828 101.873 50.5474 101.873 38.4147V21.9681C101.873 9.83544 111.708 0 123.841 0H304.243Z" fill="#F3BA77" fill-opacity="0.15"/>
</svg>
