<svg width="164" height="81" viewBox="0 0 164 81" fill="none" xmlns="http://www.w3.org/2000/svg">
<path d="M117.323 22.5986L113.569 22.5986C113.569 22.5986 95.0098 22.5728 95.0032 22.5664L85.7932 2.60586C84.8007 0.464699 81.7108 0.464699 80.725 2.60586L71.5215 22.5599C71.5215 22.5599 59.9758 22.5857 59.9758 22.5922L13.5001 22.5922C6.61236 22.5921 1.03467 28.4481 1.03467 35.6713L1.03465 66.9208C1.03465 74.144 6.61896 80 13.5 80L150.5 80C157.387 80 162.965 74.1441 162.965 66.9209L162.965 35.6713C162.965 28.4481 157.381 22.5922 150.499 22.5922L117.323 22.5986Z" stroke="#783E19" stroke-width="2" stroke-miterlimit="10"/>
</svg>
