<svg width="559" height="253" viewBox="0 0 559 253" fill="none" xmlns="http://www.w3.org/2000/svg">
<g filter="url(#filter0_d_3657_23698)">
<path d="M514.426 24.9102L81.1962 24.9102C67.1158 24.9102 55.7096 36.71 55.7096 51.2496V51.7903L22.1306 68.5769C17.9565 70.6678 17.9565 77.2046 22.1306 79.2834L55.7096 96.07V134.354C55.7096 148.905 67.1274 160.693 81.1962 160.693H514.426C528.506 160.693 539.912 148.893 539.912 134.354V51.2496C539.912 36.698 528.495 24.9102 514.426 24.9102Z" fill="#FFF5E4"/>
</g>
<mask id="mask0_3657_23698" style="mask-type:alpha" maskUnits="userSpaceOnUse" x="315" y="17" width="207" height="206">
<path fill-rule="evenodd" clip-rule="evenodd" d="M389.374 27.2259C388.892 27.5548 388.056 28.125 387.516 28.4934C386.976 28.8617 386.417 29.2135 386.275 29.2756C386.133 29.3377 384.609 30.4868 382.889 31.8298C379.42 34.5371 376.403 38.1464 376.669 39.2704C376.765 39.672 376.599 40.0595 376.302 40.1312C375.506 40.3232 372.961 45.0399 372.904 46.4291C372.877 47.0868 372.567 48.9979 372.215 50.676C371.864 52.354 371.56 55.9252 371.541 58.6117C371.508 63.2341 371.641 64.742 372.67 71.4227C372.907 72.9588 373.268 75.6091 373.473 77.3122C373.782 79.8858 374.282 83.7968 374.487 85.2438C374.566 85.8052 372.756 85.8674 370.291 85.3884C368.429 85.0264 367.153 85.212 363.676 86.3495C361.306 87.1249 358.354 88.3521 357.114 89.0769C355.874 89.8016 353.987 90.7695 352.919 91.227C351.852 91.6849 351.04 92.3209 351.116 92.641C351.192 92.961 350.884 93.1725 350.432 93.1111C349.385 92.9686 344.731 95.7323 339.882 99.3768C339.349 99.7769 337.795 100.797 336.428 101.644C335.06 102.491 333.552 103.708 333.077 104.349C331.851 105.998 330.247 107.435 329.402 107.639C329.005 107.734 328.278 108.527 327.787 109.401C327.296 110.274 325.734 112.264 324.316 113.823C322.898 115.382 321.559 116.981 321.339 117.377C321.119 117.774 320.102 119.165 319.078 120.469C318.054 121.774 317.296 123.175 317.393 123.583C317.49 123.991 317.028 125.319 316.366 126.534C313.896 131.07 315.034 135.347 318.799 135.675C321.228 135.887 322.9 137.139 322.53 138.47C322.347 139.133 322.448 139.441 322.819 139.352C323.194 139.262 323.516 140.279 323.756 142.312C324.058 144.869 324.265 145.376 324.943 145.213C325.394 145.104 326.007 145.477 326.305 146.043C326.667 146.729 327.301 146.961 328.214 146.741C328.966 146.56 329.79 146.622 330.045 146.879C330.3 147.136 331.449 147.12 332.599 146.842C333.749 146.565 335.335 146.424 336.124 146.528C336.913 146.634 338.898 146.549 340.536 146.341C351.891 144.901 359.654 143.704 360.367 143.285C360.825 143.015 361.403 142.998 361.65 143.248C361.897 143.497 363.347 143.294 364.87 142.796C367.961 141.787 371.244 141.457 371.406 142.14C371.465 142.386 370.364 143.522 368.961 144.665C367.557 145.809 366.188 147.201 365.918 147.759C365.647 148.317 365.035 148.886 364.557 149.022C364.079 149.159 362.643 150.277 361.367 151.508C360.09 152.738 358.314 154.375 357.419 155.146C356.524 155.915 354.606 158.108 353.157 160.018C351.707 161.928 350.026 163.838 349.422 164.264C348.816 164.689 348.411 165.413 348.52 165.872C348.629 166.332 348.484 166.764 348.199 166.833C347.466 167.01 344.383 172.477 344.57 173.266C344.656 173.626 344.395 174.149 343.991 174.43C343.587 174.711 343.352 175.344 343.469 175.838C343.586 176.331 343.175 177.847 342.554 179.205C341.934 180.564 341.459 182.53 341.499 183.573C341.539 184.617 341.398 186.176 341.186 187.038C340.974 187.899 340.978 189.357 341.194 190.277C341.41 191.197 341.414 192.239 341.202 192.592C340.99 192.946 341.209 194.261 341.688 195.514C342.378 197.321 342.915 197.882 344.277 198.227C345.222 198.465 346.177 198.583 346.399 198.489C347.423 198.053 347.737 198.299 347.302 199.196C346.92 199.985 347.006 200.196 347.751 200.298C348.259 200.366 348.92 200.171 349.222 199.863C349.619 199.457 349.783 199.762 349.82 200.971C349.847 201.888 349.928 202.299 350 201.883C350.292 200.194 351.143 201.02 351.307 203.151C351.452 205.042 351.663 205.441 352.584 205.559C353.19 205.638 354.039 205.999 354.469 206.361C355.03 206.834 355.317 206.817 355.484 206.299C355.653 205.777 356.255 205.721 357.662 206.095C358.731 206.379 359.799 206.503 360.035 206.369C360.272 206.235 360.868 206.328 361.36 206.575C361.852 206.822 362.571 206.803 362.959 206.533C363.347 206.263 364.033 206.325 364.484 206.668C365.082 207.123 365.541 207.079 366.18 206.503C366.739 205.999 368.212 205.623 370.255 205.462C372.146 205.312 374.083 204.845 374.991 204.317C375.836 203.827 378.046 203.027 379.901 202.539C381.756 202.051 383.351 201.412 383.447 201.118C383.542 200.823 384.207 200.441 384.924 200.268C385.641 200.095 386.87 199.307 387.655 198.516C388.44 197.726 389.566 197.09 390.157 197.104C390.748 197.118 391.825 196.437 392.551 195.592C393.277 194.746 394.319 193.945 394.866 193.812C395.413 193.679 396.56 192.816 397.414 191.894C400.084 189.013 400.864 188.33 401.735 188.111C402.2 187.994 403.643 186.604 404.942 185.022C406.24 183.44 407.774 181.865 408.349 181.523C408.924 181.18 410.21 179.823 411.205 178.506C412.2 177.19 413.26 176.053 413.561 175.981C413.862 175.908 414.146 175.318 414.191 174.67C414.236 174.022 414.724 173.383 415.274 173.25C415.825 173.118 417.261 171.533 418.466 169.729C419.671 167.924 421.108 165.948 421.661 165.337C422.213 164.726 423.647 162.523 424.847 160.443C426.047 158.362 427.507 156.241 428.091 155.729C428.676 155.218 429.109 154.612 429.055 154.383C428.901 153.732 433.014 146.755 434.749 144.725C435.7 143.614 437.162 142.644 438.483 142.25L440.655 141.603L444.304 148.127C446.311 151.715 448.31 155.478 448.746 156.488C449.182 157.498 449.853 158.577 450.237 158.886C450.621 159.195 451.394 160.443 451.953 161.658C452.513 162.874 453.72 165.383 454.635 167.233C456.324 170.647 458.432 178.264 458.695 181.897C458.774 182.993 459.047 184.706 459.301 185.704C459.556 186.701 459.579 188.26 459.353 189.167C457.383 197.085 455.678 202.673 454.933 203.66C454.785 203.855 453.936 206.626 453.045 209.819C451.135 216.666 451.523 217.958 455.398 217.664C456.877 217.551 457.973 217.839 458.541 218.488C459.288 219.342 459.265 219.49 458.377 219.524C457.1 219.574 456.378 221.804 457.374 222.624C457.748 222.933 458.659 223.038 459.399 222.86C460.492 222.597 460.64 222.337 460.187 221.478C459.769 220.684 459.866 220.413 460.576 220.391C461.141 220.374 461.549 220.788 461.587 221.419C461.638 222.239 461.886 222.348 462.701 221.907C463.362 221.55 463.812 221.601 463.918 222.047C464.158 223.06 466.968 222.833 467.103 221.789C467.162 221.331 467.494 220.923 467.841 220.883C469.25 220.719 469.779 220.313 469.595 219.537C469.489 219.087 469.961 217.838 470.646 216.761C472.017 214.603 473.701 210.395 473.512 209.599C473.253 208.508 474.651 204.119 475.307 203.961C475.69 203.868 476.187 202.771 476.411 201.522C476.636 200.273 477.225 197.796 477.721 196.018C478.244 194.146 478.369 192.699 478.018 192.581C477.12 192.278 477.056 191.372 477.919 191.164C478.582 191.004 478.833 189.701 478.737 186.912C478.551 181.487 478.301 179.411 477.165 173.843C476.106 168.651 475.65 167.254 474.85 166.755C474.139 166.31 473.966 165.89 474.246 165.285C474.707 164.286 471.685 157.022 469.724 154.417C469.046 153.516 468.241 152.015 467.935 151.083C467.629 150.15 466.816 148.61 466.126 147.661C465.438 146.712 464.902 145.627 464.935 145.25C464.968 144.873 464.702 144.465 464.343 144.345C463.984 144.224 463.485 143.257 463.233 142.196C462.783 140.298 462.806 140.267 464.629 140.267C467.271 140.267 471.54 139.021 472.266 138.037C472.738 137.397 473.099 137.307 473.797 137.658C474.318 137.919 474.79 137.869 474.896 137.541C474.999 137.225 475.724 136.938 476.509 136.903C477.294 136.867 479.017 136.263 480.339 135.562C481.661 134.859 483.81 133.918 485.115 133.469C488.523 132.298 490.322 131.376 490.2 130.863C490.142 130.617 490.977 130.08 492.056 129.67C494.127 128.883 496.659 127.314 498.676 125.568C499.343 124.99 500.453 124.261 501.143 123.947C503.523 122.866 509.233 118.484 509.554 117.491C509.666 117.145 510.213 116.752 510.769 116.617C511.325 116.483 511.817 115.843 511.862 115.195C511.908 114.547 512.407 113.905 512.971 113.769C513.536 113.633 514.355 112.665 514.792 111.617C515.229 110.569 516.239 109.289 517.036 108.771C517.833 108.253 518.495 107.3 518.508 106.652C518.52 106.006 518.75 105.423 519.02 105.358C519.289 105.293 519.594 104.568 519.698 103.746C519.801 102.925 520.104 102.2 520.371 102.136C520.844 102.021 521.036 98.7105 520.622 97.8023C520.508 97.5512 520.661 96.8624 520.964 96.2715C521.299 95.6164 521.243 94.374 520.819 93.0876C520.437 91.9273 520.263 90.6655 520.434 90.2837C521.212 88.5435 517.477 78.1286 515.67 77.0006C515.281 76.7574 514.875 76.1924 514.769 75.7452C514.5 74.6114 511.3 70.7214 510.746 70.855C510.496 70.9153 510.041 70.5446 509.736 70.0319C508.765 68.3976 502.715 64.6809 501.503 64.9734C500.875 65.1248 500.082 64.9407 499.739 64.5644C498.819 63.5507 490.721 63.7235 484.627 64.8866C482.789 65.2372 481.927 64.2488 482.701 62.6791C483.253 61.5605 484.61 55.6004 484.964 52.7406C485.065 51.9195 485.342 50.4647 485.579 49.5078C485.816 48.551 485.793 46.862 485.528 45.7543C485.264 44.6466 485.218 43.3861 485.425 42.9533C485.632 42.5202 485.557 41.754 485.258 41.2509C484.959 40.7477 484.512 38.5821 484.265 36.4384C483.821 32.5926 482.237 28.1923 480.998 27.366C480.665 27.1439 480.286 26.5179 480.158 25.9754C479.884 24.8202 479.298 24.8515 478.467 26.0645C477.966 26.7965 477.945 26.764 478.333 25.8571C479.042 24.1976 477.355 21.3974 475.603 21.328C474.828 21.2969 474.419 21.1923 474.693 21.0945C475.251 20.8948 469.546 18.8018 468.88 18.9623C468.645 19.0189 467.806 18.6327 467.016 18.1043C465.71 17.2311 465.147 17.2586 460.859 18.4087C454.718 20.0554 452.865 20.701 452.489 21.3222C452.32 21.6017 451.373 22.0259 450.384 22.2645C449.395 22.5029 448.636 22.9107 448.698 23.1705C448.76 23.4308 447.469 24.1406 445.831 24.7489C444.192 25.3567 442.642 26.1235 442.386 26.4529C442.13 26.7823 441.043 27.5926 439.97 28.2539C437.537 29.7543 434.897 32.3064 435.061 32.9996C435.129 33.2867 434.536 33.9438 433.742 34.4596C432.948 34.9754 432.249 35.7818 432.189 36.2523C432.129 36.7223 431.727 37.1922 431.298 37.2957C430.868 37.3994 430.48 37.6888 430.434 37.9386C430.212 39.1659 425.766 44.4233 424.742 44.6704C424.098 44.8256 423.653 44.7 423.753 44.3909C423.971 43.7185 421.684 40.4253 420.791 40.1245C420.446 40.0081 420.025 39.3315 419.856 38.6208C419.688 37.9106 419.348 37.2908 419.102 37.2437C418.855 37.1971 418.053 36.3913 417.318 35.4533C414.81 32.2519 410.533 28.9968 409.235 29.3007C408.518 29.4684 407.939 29.2476 407.824 28.7632C407.625 27.9236 406.205 27.933 405.972 28.7754C405.901 29.0311 405.844 28.9151 405.845 28.5162C405.848 27.3279 404.327 28.0621 403.979 29.4171C403.802 30.1058 403.371 30.5734 403.022 30.4565C402.651 30.3311 402.774 29.8009 403.32 29.1751C404.065 28.3216 404.088 27.922 403.439 27.1796C402.383 25.9736 401.514 26.2018 401.845 27.5981C402.11 28.7144 401.594 29.034 398.739 29.5238C397.729 29.6967 397.349 30.0067 397.586 30.4648C397.779 30.8405 397.792 30.9869 397.614 30.7911C397.436 30.5953 396.972 30.5113 396.584 30.605C395.898 30.7703 394.951 29.7897 394.676 28.6295C394.584 28.2388 394.795 28.1848 395.348 28.4581C396.45 29.0029 399.79 27.9449 399.868 27.0264C399.902 26.6178 399.691 25.9295 399.398 25.4967C398.983 24.8841 398.732 24.8913 398.262 25.5285C397.808 26.1438 397.526 26.2135 397.126 25.8094C396.813 25.4938 395.982 25.5568 395.115 25.9618C394.302 26.3416 393.588 26.4471 393.529 26.1966C393.404 25.6689 390.663 26.3479 389.374 27.2259ZM472.951 22.036C473.022 22.3374 473.323 22.5255 473.62 22.4539C473.917 22.3824 474.101 22.0772 474.03 21.7758C473.958 21.4744 473.657 21.2863 473.36 21.3579C473.064 21.4295 472.879 21.7346 472.951 22.036ZM395.764 46.445C395.652 46.7906 395.106 47.1831 394.55 47.3172C393.441 47.5846 390.709 52.7833 391.01 54.053C391.113 54.4892 391.036 55.133 390.838 55.483C390.453 56.1676 390.383 60.7867 390.715 63.6775C391.38 69.4692 391.609 73.0419 391.341 73.4835C391.257 73.6238 391.511 74.2201 391.906 74.8092C392.315 75.4195 392.818 78.0872 393.076 81.0173C393.324 83.843 393.85 87.887 394.243 90.0041C394.822 93.1187 394.789 93.9314 394.068 94.2615C393.451 94.5443 393.355 94.9653 393.757 95.6407C394.432 96.7778 393.067 97.3893 392.094 96.386C391.107 95.368 389.56 95.445 389.031 96.5384C388.683 97.2554 387.922 97.6145 386.429 97.7662C385.267 97.8841 384.233 98.2406 384.13 98.5581C384.027 98.8759 383.106 99.8606 382.083 100.747C380.73 101.919 380.304 102.702 380.522 103.621C380.786 104.733 380.603 104.907 379.01 105.062C378.014 105.16 376.76 105.01 376.223 104.73C373.827 103.48 368.643 104.324 365.742 106.435C365.05 106.939 364.245 107.335 363.954 107.315C363.381 107.276 357.425 110.768 353.484 113.454C352.134 114.374 350.342 115.474 349.502 115.898C348.662 116.323 347.248 117.397 346.362 118.287C345.475 119.177 343.746 120.759 342.52 121.804C341.294 122.848 339.905 124.389 339.434 125.227C338.625 126.665 338.637 126.755 339.634 126.799C341.435 126.879 345.605 126.487 348.468 125.969C367.725 122.482 378.968 119.896 386.006 117.335C389.301 116.135 392.355 114.945 392.792 114.689C393.228 114.433 394.862 113.763 396.422 113.2C397.982 112.636 399.652 111.821 400.132 111.387C401.305 110.331 405.242 109.628 407.295 110.108C408.505 110.392 409.052 110.906 409.313 112.005C409.674 113.529 411.551 115.635 412.372 115.437C412.618 115.377 413.141 113.854 413.536 112.051C413.931 110.249 414.701 107.966 415.247 106.98C415.793 105.993 416.246 104.555 416.253 103.784C416.262 102.853 416.832 102.03 417.956 101.326C418.886 100.744 419.569 99.9455 419.476 99.5509C419.028 97.662 425.992 93.0451 431.261 91.7384L434.808 90.8587L432.678 90.2909C431.506 89.9785 430.35 89.9751 430.11 90.2839C429.869 90.5922 428.133 91.158 426.252 91.5417C424.085 91.9831 422.747 92.5097 422.601 92.9784C422.441 93.4884 421.798 93.7026 420.528 93.6671C418.581 93.6129 417.64 92.2832 416.917 88.5599C416.739 87.6468 415.596 83.3602 414.376 79.0341C413.157 74.708 411.106 67.1051 409.819 62.1383C407.714 54.0159 407.283 52.8536 405.521 50.5742C404.444 49.1805 403.39 48.0817 403.18 48.1325C402.97 48.1832 402.189 47.4589 401.447 46.5228C400.25 45.0149 399.861 44.8776 398.032 45.3187C396.896 45.5926 395.876 46.0994 395.764 46.445ZM454.063 42.504C446.776 47.3262 440.651 55.0778 439.535 60.8888C438.228 67.702 437.515 72.1285 437.514 73.4539C437.512 74.2508 437.416 75.5122 437.298 76.2578C437.181 77.0032 436.992 78.2214 436.878 78.966C436.765 79.7105 436.697 81.0953 436.728 82.0439C436.902 87.475 436.798 88.4512 435.927 89.6028L434.969 90.8685L436.539 90.4898C437.403 90.2815 438.394 90.2824 438.741 90.4911C439.089 90.7005 440.767 90.798 442.471 90.708C444.175 90.6186 446.034 90.6105 446.603 90.6906C447.415 90.8042 447.623 90.4619 447.571 89.102C447.523 87.8587 448.212 86.516 450.007 84.3548C453.15 80.5715 458.243 73.0475 458.092 72.4112C458.03 72.1477 458.88 69.9694 459.981 67.5702C461.082 65.1703 462.302 62.0877 462.692 60.719C463.082 59.3503 463.694 57.9515 464.051 57.6104C464.409 57.2693 464.623 56.6631 464.528 56.2631C464.433 55.8625 464.635 55.1575 464.975 54.6953C465.316 54.2337 465.578 53.0343 465.559 52.0304C465.539 51.0261 465.753 49.5503 466.036 48.7504C466.728 46.7898 465.567 39.7638 464.404 38.8779C463.013 37.8184 459.039 39.2121 454.063 42.504ZM372.533 87.9669C372.402 88.3728 372.595 88.8928 372.964 89.1226C373.41 89.4014 373.713 89.2948 373.872 88.8027C374.003 88.3968 373.81 87.8768 373.442 87.647C372.995 87.3683 372.693 87.4748 372.533 87.9669ZM479.769 86.2664C478.834 86.6256 478.112 87.0969 478.163 87.3134C478.215 87.5298 477.185 88.3252 475.874 89.0805C472.692 90.9138 466.151 96.7769 466.349 97.6159C466.437 97.9836 466.085 98.6651 465.568 99.131C464.354 100.224 464.556 101.094 465.86 100.389C466.496 100.045 467.063 100.139 467.406 100.646C467.704 101.087 468.132 101.259 468.359 101.027C468.585 100.797 468.892 101.124 469.041 101.754C469.202 102.43 468.864 103.223 468.217 103.688C467.141 104.462 467.146 104.471 468.529 104.174C470.464 103.758 472.267 105.101 472.25 106.947C472.243 107.748 472.512 108.496 472.848 108.61C473.596 108.861 473.61 111.104 472.871 112.329C472.575 112.822 472.471 113.811 472.641 114.529C472.811 115.245 472.584 116.174 472.137 116.593C470.703 117.934 471.969 117.853 475.395 116.383C477.228 115.596 479.081 114.812 479.51 114.639C479.94 114.467 480.625 114.109 481.032 113.843C481.439 113.576 482.549 112.846 483.499 112.22C484.448 111.594 486.259 110.573 487.523 109.951C488.787 109.329 490.881 107.937 492.176 106.856C493.471 105.776 494.817 104.822 495.168 104.738C495.519 104.653 496.002 104.177 496.244 103.679C496.485 103.182 497.352 102.461 498.171 102.079C498.99 101.697 499.838 101.004 500.055 100.541C500.272 100.078 500.985 98.6021 501.641 97.2621C502.729 95.0393 502.747 94.6039 501.851 92.287C501.312 90.8905 500.038 88.4465 499.02 86.8559C497.218 84.0371 497.096 83.961 494.232 83.861C492.615 83.8044 489.585 84.1336 487.498 84.5923C485.411 85.0515 483.201 85.4688 482.585 85.5198C481.97 85.5714 480.703 85.9072 479.769 86.2664ZM435.17 112.585C434.107 114.046 433.941 114.824 434.353 116.415C435.042 119.076 436.953 121.951 437.909 121.762C438.331 121.679 439.412 121.648 440.31 121.694C441.276 121.744 442.366 121.435 442.982 120.938C443.554 120.475 445.043 119.533 446.291 118.843C448.7 117.51 451.286 115.363 452.723 113.502C453.591 112.378 453.588 112.367 452.119 111.642C451.307 111.24 449.213 110.839 447.467 110.751C445.722 110.663 443.571 110.483 442.688 110.351C441.806 110.219 440.053 110.255 438.794 110.431C436.937 110.691 436.251 111.099 435.17 112.585ZM413.873 128.832C412.789 130.215 411.011 132.045 409.922 132.899C408.833 133.753 407.726 134.897 407.462 135.443C407.198 135.988 406.745 136.491 406.457 136.561C406.168 136.631 405.297 137.427 404.522 138.33C403.747 139.233 402.541 140.502 401.843 141.148C401.145 141.795 399.462 143.375 398.104 144.659C396.745 145.942 394.446 147.918 392.994 149.049C391.543 150.18 389.475 152.048 388.399 153.199C387.324 154.35 386.106 155.373 385.693 155.473C385.28 155.572 384.851 155.937 384.739 156.282C384.627 156.628 384.095 157.017 383.555 157.147C383.015 157.277 382.382 157.781 382.147 158.266C381.912 158.751 380.175 160.487 378.287 162.124C376.399 163.761 373.93 166.071 372.8 167.257C371.67 168.444 370.446 169.507 370.081 169.62C369.716 169.734 369.475 170.073 369.547 170.374C369.618 170.676 369.321 171.008 368.887 171.113C368.452 171.218 367.954 171.856 367.781 172.533C367.607 173.208 366.888 174.27 366.181 174.892C364.58 176.303 361.292 181.256 361.467 181.994C361.538 182.296 361.246 183.229 360.818 184.067C360.389 184.904 360.089 185.805 360.152 186.068C360.59 187.918 370.73 185.772 376.44 182.62C377.687 181.932 379.084 181.196 379.545 180.985C380.26 180.657 381.667 179.685 385.855 176.623C386.256 176.329 387.629 175.083 388.905 173.853C390.182 172.623 392.207 170.714 393.406 169.611C394.606 168.508 395.611 167.309 395.642 166.946C395.699 166.27 400.185 161.734 402.572 159.939C403.304 159.389 403.808 158.538 403.692 158.05C403.576 157.562 404.022 156.735 404.682 156.213C405.343 155.69 405.796 154.897 405.69 154.449C405.583 154.001 405.973 153.208 406.555 152.687C407.764 151.605 413.537 143.514 413.671 142.714C413.72 142.424 414.072 141.746 414.455 141.209C414.837 140.672 416.228 138.54 417.546 136.472C419.564 133.305 419.838 132.509 419.281 131.426C418.917 130.719 418.371 130.057 418.068 129.956C417.764 129.853 417.348 129.059 417.142 128.19C416.936 127.322 416.56 126.545 416.305 126.464C416.051 126.384 414.956 127.449 413.873 128.832ZM462.027 135.904C462.281 136.162 462.597 136.346 462.728 136.315C462.859 136.283 462.907 136.011 462.836 135.709C462.764 135.408 462.448 135.223 462.134 135.299C461.821 135.375 461.772 135.647 462.027 135.904Z" fill="url(#paint0_linear_3657_23698)" fill-opacity="0.7"/>
</mask>
<g mask="url(#mask0_3657_23698)">
<path d="M504.551 24.9062L71.3212 24.9063C57.2408 24.9063 45.8346 36.7061 45.8346 51.2457V51.7864L12.2556 68.573C8.08147 70.6639 8.08147 77.2007 12.2556 79.2795L45.8346 96.0661V134.35C45.8346 148.901 57.2524 160.689 71.3212 160.689H504.551C518.631 160.689 530.037 148.889 530.037 134.35V51.2457C530.037 36.6941 518.62 24.9062 504.551 24.9062Z" fill="url(#paint1_linear_3657_23698)"/>
</g>
<path d="M173.047 80.3537C173.101 80.3537 173.155 80.4077 173.263 80.4617C173.263 80.4617 173.101 80.4617 173.047 80.3537ZM179.689 92.8277C181.957 95.4737 183.145 99.1997 183.145 102.656C183.145 106.328 181.795 109.73 178.771 111.944C172.939 116.264 163.975 114.752 159.439 109.19C158.683 108.272 159.439 107.354 160.357 106.976C161.383 106.544 163.003 106.706 163.759 107.624C164.029 107.894 164.245 108.218 164.569 108.488C164.677 108.596 164.785 108.758 164.947 108.866C165.001 108.92 165.109 109.028 165.163 109.028C165.487 109.298 165.757 109.514 166.081 109.73C166.243 109.838 166.405 109.892 166.513 110C166.567 110 166.621 110.054 166.729 110.108C166.999 110.27 167.323 110.378 167.647 110.54C167.863 110.594 168.025 110.702 168.241 110.756C168.349 110.81 168.457 110.81 168.565 110.864C168.457 110.81 168.403 110.81 168.295 110.756C168.511 110.918 168.943 110.972 169.213 111.026C169.429 111.026 169.645 111.08 169.861 111.08C169.861 111.134 169.861 111.134 169.915 111.134C170.239 111.134 170.617 111.134 170.995 111.134C171.049 111.134 171.319 111.08 171.427 111.134C171.697 111.08 171.967 111.026 172.237 110.972C172.345 110.972 172.615 110.972 172.723 110.864C172.399 110.972 172.345 110.972 172.561 110.918C172.615 110.918 172.669 110.864 172.723 110.864C173.101 110.756 173.479 110.648 173.803 110.486C173.857 110.486 173.857 110.432 173.911 110.432C174.019 110.432 174.127 110.324 174.235 110.27C174.559 110.108 174.883 109.892 175.153 109.676C175.315 109.568 175.423 109.514 175.531 109.406C175.585 109.352 175.801 109.19 175.801 109.136C176.125 108.866 176.395 108.542 176.665 108.218C176.665 108.164 176.827 107.948 176.827 107.948C176.881 107.84 176.935 107.786 176.935 107.732C177.313 107.138 177.583 106.49 177.745 105.842C177.853 105.626 177.907 105.464 177.961 105.248C177.961 105.194 178.015 104.924 178.015 104.924C178.069 104.6 178.123 104.33 178.123 104.006C178.177 103.304 178.231 102.602 178.177 101.846C178.069 100.388 177.853 99.3617 177.313 97.9037C177.097 97.2017 176.773 96.4997 176.395 95.9057C176.395 95.9057 176.233 95.6357 176.233 95.5817C176.125 95.4737 176.071 95.3117 175.963 95.2037C175.747 94.9337 175.531 94.6637 175.315 94.3937C175.099 94.1237 174.883 93.9077 174.667 93.7457C174.613 93.6917 174.451 93.5297 174.397 93.5297C174.289 93.4217 174.127 93.3137 173.965 93.2057C173.911 93.1517 173.803 93.0977 173.695 92.9897C173.641 92.9897 173.371 92.8817 173.371 92.8277C173.209 92.7737 172.993 92.7197 172.831 92.6657C172.831 92.6657 172.831 92.6117 172.777 92.6117C172.777 92.6117 172.777 92.6117 172.723 92.6117C172.561 92.6117 172.345 92.5577 172.183 92.5037C172.129 92.5037 172.129 92.5037 172.129 92.5037C172.075 92.5037 171.967 92.5037 171.859 92.5037C171.805 92.5037 171.805 92.5037 171.697 92.5037C171.643 92.5037 171.589 92.5037 171.535 92.5037C171.481 92.5037 171.373 92.5577 171.265 92.5577C171.211 92.5577 171.157 92.6117 171.103 92.6117C171.049 92.6657 170.995 92.6657 170.941 92.6657C170.563 92.8817 170.779 92.7737 170.887 92.7197C170.671 92.8277 170.509 92.9357 170.293 93.0437C169.213 93.6377 167.863 93.6917 166.783 92.9897C165.865 92.3957 165.919 91.2617 166.837 90.6677C167.377 90.2897 167.971 90.0197 168.565 89.8037C168.727 89.6957 168.889 89.6417 169.105 89.5337C169.429 89.3717 169.753 89.2637 170.077 89.1017C170.239 88.9937 170.401 88.9397 170.563 88.8857C170.617 88.8317 170.725 88.7777 170.833 88.7237C171.319 88.5077 171.805 88.2377 172.237 87.9137C172.507 87.7517 172.723 87.5897 172.993 87.3737C173.047 87.3737 173.047 87.3197 173.101 87.3197C173.101 87.3197 173.101 87.2657 173.155 87.2657C173.263 87.1577 173.317 87.1037 173.425 86.9957C174.721 85.6997 175.585 83.7557 174.883 82.0277C174.829 81.8657 174.775 81.7037 174.667 81.5417C174.721 81.5957 174.883 81.7577 174.667 81.4877C174.505 81.3257 174.397 81.1637 174.235 81.0017C174.235 80.9477 174.235 80.9477 174.235 80.9477C174.127 80.8937 174.073 80.8397 173.965 80.7857C173.911 80.7317 173.803 80.6777 173.695 80.6237C173.641 80.5697 173.641 80.5697 173.587 80.5697C173.479 80.5157 173.371 80.4617 173.263 80.4617C173.263 80.4077 173.209 80.4077 173.101 80.3537H173.047H172.993H173.047C172.939 80.3537 172.885 80.2997 172.831 80.2997C172.615 80.2457 172.453 80.2457 172.237 80.1917C172.183 80.1917 172.075 80.1917 171.967 80.1917C171.697 80.1917 171.427 80.1917 171.103 80.1917C171.103 80.1917 171.049 80.1917 170.941 80.1917C170.455 80.2457 169.969 80.2997 169.483 80.4077C169.483 80.4077 169.483 80.4077 169.429 80.4077C169.429 80.4077 169.429 80.4077 169.483 80.4077C169.375 80.5157 169.213 80.5157 169.321 80.4617C169.267 80.4617 169.159 80.5157 169.159 80.5157C168.889 80.5697 168.673 80.6777 168.403 80.7317C168.187 80.8397 167.971 80.8937 167.755 81.0017C167.647 81.0557 167.539 81.1097 167.431 81.1637C166.999 81.3797 166.513 81.6497 166.081 81.9737C165.919 82.0817 165.703 82.2437 165.541 82.3517C165.433 82.4597 165.325 82.5137 165.271 82.5677C165.217 82.5677 165.217 82.6217 165.217 82.6217C165.217 82.6217 165.163 82.6217 165.163 82.6757C164.407 83.3237 163.705 84.0797 163.057 84.9437C161.869 86.6177 157.225 85.3757 158.845 83.2157C160.519 80.8937 162.949 79.1117 165.595 78.0317C168.133 77.0057 170.995 76.6817 173.695 77.0597C176.233 77.4377 179.041 78.8957 179.797 81.5417C180.553 84.2417 179.473 87.0497 177.475 88.8857C176.989 89.3717 176.503 89.7497 175.963 90.1277C177.367 90.7217 178.663 91.6937 179.689 92.8277ZM172.183 80.1917C171.859 80.1377 172.021 80.1917 172.183 80.1917V80.1917ZM173.587 80.5697C173.641 80.5697 173.749 80.6777 173.749 80.6237C173.749 80.6237 173.695 80.5697 173.587 80.5697ZM174.181 80.9477C174.019 80.7857 174.127 80.8937 174.181 80.9477V80.9477ZM171.589 92.5037C171.697 92.5037 171.805 92.5037 171.859 92.5037C171.751 92.4497 171.643 92.4497 171.589 92.5037ZM209.029 76.5737C209.137 77.5997 209.191 78.5717 209.191 79.6517C209.137 83.3777 209.083 87.1577 208.975 90.8837C208.867 95.6897 208.597 100.442 208.381 105.194C208.327 106.49 208.273 107.84 208.057 109.136C207.841 110.108 207.517 111.08 207.031 111.998C206.383 113.24 205.519 113.186 204.871 111.944C204.169 110.648 203.953 109.298 204.007 107.948C204.169 104.816 204.385 101.684 204.439 98.5517C204.547 98.0117 204.439 97.4717 204.439 96.7697C199.957 97.0397 195.529 97.3097 190.993 97.5257C190.885 98.9297 190.777 100.226 190.723 101.468C190.669 103.682 190.723 105.896 190.615 108.002C190.453 109.73 190.129 111.35 189.859 113.024C189.805 113.402 189.751 113.726 189.535 113.996C189.265 114.32 188.941 114.752 188.563 114.806C188.347 114.806 187.861 114.428 187.753 114.158C187.267 112.916 186.835 111.62 186.619 110.432C186.349 109.136 186.349 107.786 186.349 106.49C186.349 104.168 186.565 101.846 186.619 99.4697C186.619 98.4977 186.889 97.3637 186.133 96.3377C185.971 96.1757 186.079 95.5817 186.295 95.3117C186.943 94.6637 186.835 93.8537 186.943 93.0977C187.483 86.9957 188.077 80.8397 188.617 74.7917C188.671 73.9817 188.941 73.1717 189.319 72.5237C190.075 71.2817 191.533 71.3897 192.127 72.7397C192.343 73.3337 192.451 74.0357 192.397 74.7377C192.289 77.5997 192.073 80.4617 191.803 83.3777C191.587 86.9957 191.317 90.6137 191.101 94.5017C195.583 94.2857 200.011 94.0697 204.601 93.8537C204.601 93.6917 204.709 93.3137 204.709 92.8817C205.033 87.8597 205.303 82.8377 205.627 77.9237C205.735 77.4377 205.735 76.9517 205.789 76.5197C206.059 75.4937 206.653 75.0617 207.463 75.0617C208.273 75.1157 208.867 75.6017 209.029 76.5737ZM237.861 101.9C238.671 102.494 238.779 103.304 238.023 104.06C237.429 104.708 237.483 105.41 237.537 106.22C237.753 108.488 237.915 110.756 237.969 113.024C237.969 114.05 237.753 115.076 237.267 115.94C236.565 117.29 235.269 117.236 234.567 115.886C234.243 115.4 234.081 114.806 234.027 114.32C233.811 113.024 233.757 111.674 233.757 110.432C233.649 108.758 233.487 107.192 233.379 105.41C227.979 105.41 222.579 105.41 217.125 105.41C216.855 106.706 216.531 107.894 216.315 109.19C216.045 110.216 215.829 111.296 215.613 112.376C215.505 112.754 215.343 113.24 215.127 113.564C214.479 114.428 213.399 114.32 213.129 113.348C212.859 112.43 212.913 111.404 213.075 110.486C213.237 108.812 213.507 107.246 213.777 105.464C212.967 105.032 211.617 105.086 211.779 103.628C211.941 102.17 213.399 102.332 214.587 101.738C215.235 99.0917 215.937 96.4997 216.639 93.8537C217.719 90.3437 218.853 86.7257 220.095 83.2157C220.635 81.7037 221.391 80.3537 222.093 78.9497C222.525 78.1937 222.957 77.5457 223.497 77.0057C225.117 75.2777 227.115 75.2237 228.843 76.6277C230.301 77.6537 231.165 79.2737 231.921 80.7857C233.541 84.3497 234.513 87.9677 235.269 91.7477C235.917 94.3397 236.295 97.0937 236.835 99.7937C236.943 100.55 237.051 101.306 237.861 101.9ZM217.989 101.468C222.957 101.252 227.763 101.09 232.785 100.928C232.677 100.28 232.785 99.7937 232.623 99.2537C231.975 95.9057 231.381 92.5037 230.571 89.2637C229.977 86.7257 229.059 84.2417 228.141 81.8117C227.763 80.7857 227.223 79.8137 226.143 79.1117C225.117 79.8677 224.631 80.8937 224.199 81.8657C222.363 85.7537 221.175 89.7497 220.041 93.7997C219.339 96.2297 218.691 98.7677 217.989 101.468ZM263.976 110C264.408 110.918 264.138 111.836 263.328 112.376C262.518 112.916 261.6 112.862 260.844 112.16C260.52 111.782 260.196 111.404 259.926 110.918C256.47 105.788 253.068 100.712 249.666 95.6897C249.45 95.4737 249.342 95.2037 249.018 94.9337C247.938 95.7437 246.858 96.4997 245.94 97.4177C245.616 97.6877 245.454 98.3357 245.454 98.8757C245.292 102.008 245.238 104.978 245.076 108.11C245.022 109.676 244.698 111.242 244.428 112.808C244.374 113.24 244.104 113.726 243.726 114.428C243.132 113.726 242.7 113.294 242.376 112.862C241.512 111.404 240.972 109.784 240.972 108.056C240.972 106.004 240.972 103.898 241.026 101.846C241.62 94.0697 242.7 86.2937 244.428 78.6797C244.59 77.8157 244.806 76.9517 245.13 76.2497C245.562 75.1697 246.156 74.6837 246.804 74.7917C247.506 74.8997 247.938 75.5477 247.884 76.6817C247.614 79.1657 247.29 81.5417 247.02 83.9717C246.642 86.5637 246.318 89.1557 246.048 91.7477C246.156 91.8017 246.21 91.8557 246.318 91.9637C246.804 91.5857 247.29 91.3157 247.668 90.9377C252.69 86.9957 257.118 82.4057 261.438 77.7617C261.708 77.4377 261.924 76.9517 262.356 76.7357C262.68 76.5197 263.112 76.4117 263.382 76.5737C263.706 76.6817 263.922 77.2217 263.922 77.4917C263.868 78.0857 263.706 78.7337 263.328 79.2737C262.572 80.5157 261.816 81.7577 260.844 82.8917C258.144 85.8617 255.336 88.8857 252.528 91.8557C252.15 92.1797 251.718 92.3957 251.34 92.7197C255.876 97.7417 259.332 103.088 263.004 108.38C263.328 108.92 263.706 109.406 263.976 110ZM286.784 79.9757C288.782 83.0537 289.646 86.6177 289.376 90.2897C289.106 95.5817 287.432 100.388 284.624 104.654C283.328 106.598 281.87 108.326 279.98 109.568C275.444 112.538 270.53 111.404 267.668 106.598C266.48 104.6 265.994 102.332 265.508 100.064C265.238 98.3897 265.022 96.7157 264.698 94.9877C263.348 88.3997 266.534 80.5697 272.096 77.1137C273.932 75.8177 276.092 75.2777 278.954 75.2777C281.924 75.2777 284.732 76.8437 286.784 79.9757ZM285.434 91.0457C285.704 87.8597 285.218 84.8897 283.706 82.2977C282.464 80.0837 280.736 78.9497 278.414 78.9497C276.254 78.9497 274.256 79.6517 272.744 81.5417C271.88 82.6757 270.962 83.9717 270.206 85.2137C269.558 86.4017 268.91 87.5357 269.45 89.0477C269.558 89.4257 269.396 89.9117 269.234 90.3437C269.234 91.7477 269.126 93.1517 269.072 94.3937C269.126 95.7977 269.126 96.9317 269.234 98.1197C269.558 100.442 269.882 102.764 270.962 104.816C272.744 107.948 275.174 108.542 278.036 106.49C278.846 105.842 279.656 105.086 280.412 104.168C283.274 100.388 284.948 95.9597 285.434 91.0457ZM322.849 81.0557C323.227 85.3217 322.903 89.6417 322.525 93.7997C322.147 98.2817 321.607 102.764 321.229 107.192C321.013 109.028 320.311 110.594 318.799 111.89C317.503 110.702 316.855 109.244 316.963 107.624C317.017 106.004 317.125 104.33 317.341 102.71C317.773 98.2277 318.205 93.9077 318.529 89.4797C318.745 87.3737 318.745 85.2677 318.529 83.0537C318.313 83.3237 317.989 83.7017 317.827 84.0257C315.343 88.6157 312.859 93.1517 310.429 97.6877C310.051 98.5517 309.511 99.4157 308.971 100.172C307.783 101.684 305.407 101.468 304.435 99.8477C304.003 98.9837 303.679 98.0117 303.355 97.1477C301.735 92.1797 299.953 87.2117 297.685 82.5137C297.469 81.9197 297.145 81.4877 296.821 80.9477C296.713 80.9477 296.551 80.9477 296.497 81.0017C296.389 82.7297 296.065 84.4577 296.065 86.1317C296.011 93.5837 296.011 100.928 295.903 108.326C295.903 109.298 295.849 110.162 295.633 111.026C295.633 111.35 295.093 111.89 294.769 111.89C294.445 111.89 293.905 111.458 293.851 111.188C293.581 110.27 293.311 109.244 293.257 108.326C292.447 99.0917 292.393 89.9117 293.257 80.6777C293.311 79.2737 293.527 77.8157 293.797 76.5197C294.445 74.4677 296.443 73.8737 297.955 75.4397C298.873 76.4117 299.575 77.6537 300.331 78.8957C302.653 82.7837 304.327 86.9957 305.839 91.1537C306.217 92.2877 306.595 93.4217 307.135 94.7717C307.567 93.9617 307.783 93.4757 308.107 92.9357C310.537 88.4537 313.075 84.0257 315.613 79.4897C316.099 78.6257 316.747 77.7077 317.503 76.8977C319.339 75.2777 321.337 75.8177 322.255 78.0857C322.579 79.0037 322.741 80.0297 322.849 81.0557ZM335.148 81.7037C334.23 82.6757 333.366 83.8097 332.772 84.9977C330.342 89.8577 329.478 94.9337 330.882 100.28C331.26 101.9 332.016 103.574 333.204 104.924C334.932 106.706 337.092 107.138 339.252 106.112C340.818 105.41 341.898 104.33 342.978 103.196C344.058 102.116 345.246 101.144 346.434 100.118C346.704 99.8477 347.136 99.7937 347.784 99.4697C348.108 101.576 348 103.304 347.028 104.87C345.138 107.732 342.492 109.784 339.09 110.648C335.85 111.458 333.042 110.54 330.612 108.272C328.344 106.112 327.156 103.412 326.562 100.388C325.212 93.7997 326.292 87.5897 329.694 81.8117C331.476 78.6797 334.014 76.4657 337.74 75.7097C341.25 75.0077 344.328 75.8717 346.704 78.6797C347.46 79.5437 347.946 80.7317 348.432 81.8117C348.594 82.1897 348.594 82.7297 348.486 83.1077C348.378 83.5397 348 84.1337 347.676 84.2957C347.352 84.3497 346.704 84.0257 346.38 83.5937C345.354 82.7297 344.328 81.7037 343.194 80.8937C340.494 79.1117 337.416 79.4357 335.148 81.7037ZM381.914 74.9537C382.94 75.8177 382.94 76.4117 381.86 76.9517C380.834 77.4917 379.646 77.9777 378.512 78.1397C375.272 78.4637 372.086 78.6797 368.792 78.9497C368.198 79.0037 367.442 79.0577 366.794 79.1117C366.47 82.0817 366.146 84.9977 365.984 87.8597C365.66 94.1237 365.444 102.116 365.12 108.434C365.066 109.676 364.85 110.918 364.094 111.944C363.446 112.97 362.69 113.024 361.934 112.052C361.178 110.918 360.8 109.622 360.854 108.326C361.016 104.114 361.124 98.2277 361.34 94.0157C361.664 89.3177 362.15 84.6737 362.528 79.9217C362.528 79.7597 362.474 79.5977 362.42 79.3277C361.826 79.3277 361.286 79.3277 360.746 79.3277C358.154 79.4897 355.616 79.5977 353.078 79.5977C352.214 79.5977 351.35 79.5437 350.54 79.3277C349.622 79.1657 349.19 78.4097 349.19 77.5997C349.19 76.7897 349.622 76.2497 350.432 75.9257C350.864 75.8717 351.35 75.8177 351.728 75.7097C356.426 75.4397 361.07 75.1157 365.714 74.7917C369.872 74.5217 373.976 74.2517 378.134 73.9277C379.538 73.8197 380.834 74.0357 381.914 74.9537ZM400.259 94.1237C405.551 96.3377 407.333 100.982 404.957 106.112C403.715 108.812 401.663 110.756 399.233 112.322C396.263 114.05 393.077 114.86 389.621 114.914C386.759 114.968 384.491 113.834 382.439 111.35C383.681 111.188 384.545 111.08 385.571 110.918C385.031 101.522 385.193 92.1257 385.679 82.8917C385.571 82.7297 385.517 82.6217 385.355 82.6217C384.653 82.6217 383.843 82.4597 383.627 81.5957C383.357 80.7317 383.843 80.0297 384.545 79.5437C385.625 78.8957 386.705 78.3557 387.839 77.7617C387.947 77.5997 388.163 77.5997 388.271 77.5997C390.647 78.3557 392.969 77.5457 395.237 77.9237C396.965 78.3017 398.693 78.5177 400.367 79.0577C403.877 80.4077 404.795 83.6477 402.635 86.7797C401.393 88.6157 399.611 89.8577 397.883 91.1537C397.235 91.5857 396.533 92.1257 395.615 92.7737C396.479 92.9897 397.019 93.0437 397.559 93.2597C398.477 93.5297 399.395 93.7997 400.259 94.1237ZM389.837 81.3257C389.567 84.6737 389.297 87.9137 388.973 91.5857C389.621 91.2617 389.891 91.2077 390.215 91.0457C392.375 89.6417 394.535 88.3457 396.533 86.7797C397.397 86.1857 398.207 85.4837 398.963 84.6197C399.989 83.4317 399.827 82.7837 398.369 82.1897C396.101 81.1637 393.671 80.9477 391.241 81.0557C390.809 81.1637 390.377 81.2717 389.837 81.3257ZM400.745 104.978C402.689 101.738 401.771 99.1457 398.207 97.7957C395.291 96.7157 392.213 96.4997 388.811 96.7697C388.703 101.414 388.541 105.896 388.433 110.648C389.945 110.864 391.295 110.648 392.591 110.324C395.939 109.568 398.963 108.11 400.745 104.978ZM430.538 79.9757C432.536 83.0537 433.4 86.6177 433.13 90.2897C432.86 95.5817 431.186 100.388 428.378 104.654C427.082 106.598 425.624 108.326 423.734 109.568C419.198 112.538 414.284 111.404 411.422 106.598C410.234 104.6 409.748 102.332 409.262 100.064C408.992 98.3897 408.776 96.7157 408.452 94.9877C407.102 88.3997 410.288 80.5697 415.85 77.1137C417.686 75.8177 419.846 75.2777 422.708 75.2777C425.678 75.2777 428.486 76.8437 430.538 79.9757ZM429.188 91.0457C429.458 87.8597 428.972 84.8897 427.46 82.2977C426.218 80.0837 424.49 78.9497 422.168 78.9497C420.008 78.9497 418.01 79.6517 416.498 81.5417C415.634 82.6757 414.716 83.9717 413.96 85.2137C413.312 86.4017 412.664 87.5357 413.204 89.0477C413.312 89.4257 413.15 89.9117 412.988 90.3437C412.988 91.7477 412.88 93.1517 412.826 94.3937C412.88 95.7977 412.88 96.9317 412.988 98.1197C413.312 100.442 413.636 102.764 414.716 104.816C416.498 107.948 418.928 108.542 421.79 106.49C422.6 105.842 423.41 105.086 424.166 104.168C427.028 100.388 428.702 95.9597 429.188 91.0457Z" fill="#517C68"/>
<defs>
<filter id="filter0_d_3657_23698" x="0.484161" y="11.3319" width="557.944" height="172.814" filterUnits="userSpaceOnUse" color-interpolation-filters="sRGB">
<feFlood flood-opacity="0" result="BackgroundImageFix"/>
<feColorMatrix in="SourceAlpha" type="matrix" values="0 0 0 0 0 0 0 0 0 0 0 0 0 0 0 0 0 0 127 0" result="hardAlpha"/>
<feOffset dy="4.93756"/>
<feGaussianBlur stdDeviation="9.25792"/>
<feComposite in2="hardAlpha" operator="out"/>
<feColorMatrix type="matrix" values="0 0 0 0 0.435294 0 0 0 0 0.666667 0 0 0 0 0.662745 0 0 0 1 0"/>
<feBlend mode="normal" in2="BackgroundImageFix" result="effect1_dropShadow_3657_23698"/>
<feBlend mode="normal" in="SourceGraphic" in2="effect1_dropShadow_3657_23698" result="shape"/>
</filter>
<linearGradient id="paint0_linear_3657_23698" x1="397.526" y1="24.8242" x2="513.274" y2="328.324" gradientUnits="userSpaceOnUse">
<stop offset="0.135926" stop-color="#B7DBCA"/>
<stop offset="0.576923" stop-color="#B7DBCA" stop-opacity="0"/>
</linearGradient>
<linearGradient id="paint1_linear_3657_23698" x1="570.719" y1="126.466" x2="277.273" y2="24.6447" gradientUnits="userSpaceOnUse">
<stop offset="0.30925" stop-color="#B7DBCA"/>
<stop offset="1" stop-color="#B7DBCA" stop-opacity="0"/>
</linearGradient>
</defs>
</svg>
