<svg width="552" height="300" viewBox="0 0 552 300" fill="none" xmlns="http://www.w3.org/2000/svg">
<g filter="url(#filter0_d_3665_23700)">
<path d="M514.141 119.958L93.6282 15.7599C79.9612 12.3734 66.0518 21.0835 62.5548 35.1963L62.4247 35.7211L25.794 43.9387C21.2395 44.9642 19.6673 51.3091 23.2189 54.3308L51.7748 78.701L42.567 115.861C39.0671 129.985 47.3145 144.173 60.9703 147.557L481.483 251.755C495.15 255.142 509.059 246.432 512.556 232.319L532.544 151.655C536.044 137.53 527.796 123.342 514.141 119.958Z" fill="#FFF5E4"/>
</g>
<mask id="mask0_3665_23700" style="mask-type:alpha" maskUnits="userSpaceOnUse" x="371" y="112" width="129" height="158">
<path d="M436.826 198.263C439.644 187.974 441.723 178.743 442.614 169.253C442.922 165.974 441.987 163.588 439.255 161.7C433.201 157.509 429.097 151.656 425.811 145.188C420.438 134.613 422.309 124.541 428.164 114.822C429.695 112.284 431.401 111.608 434.494 113.26C441.542 117.03 443.193 124.106 445.789 130.527C449.244 139.077 448.319 148.207 448.123 157.142C447.819 171.332 445.952 185.303 440.861 198.697C440.047 200.838 439.684 203.154 439.635 205.612C443.066 198.406 446.382 191.143 449.949 184.004C456.037 171.829 464.103 161.533 476.621 155.171C481.04 152.926 484.786 149.392 488.991 146.697C494.262 143.319 496.449 144.365 497.647 150.577C498.809 156.596 500.605 162.542 499.305 168.818C496.05 184.522 480.413 195.325 463.103 193.708C460.183 193.433 457.24 193.288 454.564 191.725C452.788 190.69 451.582 191.326 450.736 193.365C447.824 200.353 444.821 207.308 441.671 214.19C440.108 217.607 440.692 221.227 440.092 224.715C439.087 230.539 437.858 236.328 436.634 242.11C436.04 244.924 436.783 245.798 439.776 245.295C448.089 243.907 456.555 243.557 464.764 241.346C468.826 240.252 470.393 241.472 471.207 245.704C472.282 251.273 472.417 256.912 471.686 262.544C471.525 263.786 471.386 265.385 469.962 265.713C468.547 266.04 466.968 265.028 466.431 263.981C465.381 261.935 464.153 262.359 462.384 262.577C445.882 264.601 429.471 267.482 412.82 268.14C411.675 268.185 410.518 268.244 409.402 268.476C402.925 269.803 402.817 269.753 400.884 263.303C397.631 252.437 398.338 251.326 409.504 249.138C415.672 247.93 421.908 247.334 428.158 246.962C431.039 246.79 431.857 245.771 431.293 242.845C430.277 237.557 432.084 232.393 432.764 227.206C434.209 216.201 433.025 205.473 430.443 194.797C429.583 191.237 428.199 189.492 423.829 190.161C412.895 191.828 402.727 188.848 393.255 183.412C390.045 181.569 387.007 179.419 383.881 177.421C371.609 169.577 370.367 157.421 371.265 144.548C371.498 141.196 372.947 140.891 375.66 143.134C377.014 144.255 378.747 144.581 380.357 144.633C388.395 144.885 395.158 148.659 401.757 152.545C410.447 157.663 419.278 162.736 425.25 171.327C430.078 178.27 432.842 186.125 435.371 194.092C435.708 195.15 436.092 196.194 436.815 198.274L436.826 198.263ZM411.235 186.366C415.326 187.035 419.381 187.564 423.507 187.045C426.28 186.697 427.328 185.606 425.943 182.708C423.603 177.815 421.049 173.088 417.275 169.142C410.732 162.296 402.457 157.873 394.499 153.024C391.088 150.944 387.393 149.485 383.461 148.65C377.485 147.387 376.84 147.852 376.842 153.659C376.845 155.581 376.777 157.517 376.921 159.431C377.145 162.401 377.715 165.306 379.748 167.658C388.168 177.411 398.952 183.164 411.235 186.366ZM494.479 168.982C496.787 163.303 494.246 157.665 493.357 151.897C492.955 149.287 491.744 149.346 490.112 150.612C487.491 152.646 484.948 154.782 482.424 156.935C478.029 160.685 472.68 163.102 468.241 166.656C462.306 171.417 458.511 178.129 454.797 184.736C453.651 186.774 454.292 187.573 456.543 188.036C461.634 189.083 466.732 189.438 471.782 188.241C482.441 185.716 491.848 181.529 494.479 168.982ZM403.018 253.681C403.446 255.767 403.974 257.747 404.244 259.765C404.713 263.203 406.265 264.36 409.928 263.925C425.529 262.084 441.169 260.618 456.785 258.911C466.197 257.885 466.075 257.8 466.18 248.55C466.211 245.902 465.208 245.938 463.214 246.279C458.054 247.168 452.887 248.051 447.686 248.661C432.867 250.4 418.034 252.001 403.019 253.677L403.018 253.681ZM428.632 125.047C426.083 135.27 432.329 150.921 440.978 156.987C442.697 158.193 443.445 157.925 443.478 155.723C443.634 145.1 443.807 134.494 438.259 124.833C436.784 122.268 435.408 118.562 432.511 118.797C429.792 119.02 429.545 123.075 428.632 125.047Z" fill="url(#paint0_linear_3665_23700)"/>
<path d="M420.108 229.208C416.82 224.662 412.985 224.149 408.081 225.901C402.713 227.817 397.265 230.006 391.303 229.286C388.154 228.908 384.94 228.342 383.916 224.839C382.924 221.443 384.997 218.895 387.403 216.855C391.148 213.677 395.693 212.729 400.398 213.478C408.304 214.736 414.635 218.828 419.432 225.223C420.133 226.158 421.05 227.266 420.111 229.214L420.108 229.208ZM410.77 221.701C407.354 220.151 405.129 218.92 402.754 218.114C398.066 216.528 393.424 216.555 389.33 219.797C387.953 220.889 386.55 222.313 387.004 224.319C387.469 226.383 389.509 226.284 391.051 226.548C397.885 227.725 403.64 224.422 410.766 221.7L410.77 221.701Z" fill="url(#paint1_linear_3665_23700)"/>
<path d="M463.9 220.501C464.83 215.9 467.194 213.71 469.872 211.96C475.995 207.955 482.695 206.195 489.991 207.729C493.255 208.416 495.192 211.265 494.896 214.53C494.566 218.208 492.031 218.608 489.096 218.501C483.6 218.296 478.103 218.149 472.604 217.939C469.794 217.833 466.973 217.561 463.895 220.504L463.9 220.501ZM473.051 214.205C478.599 214.734 484.154 214.076 489.694 214.742C491.39 214.947 491.548 213.7 490.868 212.454C490.103 211.052 488.682 210.86 487.254 210.71C482.161 210.181 477.526 211.619 473.05 214.21L473.051 214.205Z" fill="url(#paint2_linear_3665_23700)"/>
</mask>
<g mask="url(#mask0_3665_23700)">
<path d="M540.504 126.519L119.991 22.3205C106.324 18.9339 92.415 27.6441 88.918 41.7568L88.788 42.2817L52.1572 50.4993C47.6028 51.5248 46.0306 57.8697 49.5822 60.8914L78.138 85.2615L68.9302 122.421C65.4303 136.546 73.6778 150.734 87.3336 154.117L507.846 258.316C521.513 261.703 535.422 252.992 538.919 238.88L558.907 158.215C562.407 144.091 554.159 129.903 540.504 126.519Z" fill="url(#paint3_linear_3665_23700)"/>
</g>
<path d="M172.888 93.7773C171.764 94.5 170.652 95.3929 169.79 96.4031C166.262 100.536 164.203 105.255 164.28 110.782C164.257 112.445 164.588 114.252 165.417 115.848C166.665 117.993 168.658 118.932 171.001 118.456C172.69 118.151 173.998 117.363 175.319 116.522C176.628 115.733 178.014 115.075 179.414 114.365C179.741 114.168 180.174 114.22 180.881 114.061C180.689 116.183 180.168 117.834 178.848 119.121C176.325 121.444 173.263 122.799 169.753 122.82C166.414 122.827 163.909 121.26 162.096 118.474C160.414 115.832 159.91 112.926 160.061 109.848C160.335 103.128 162.877 97.3605 167.569 92.5703C170.052 89.9589 173.048 88.4203 176.846 88.5826C180.422 88.7455 183.202 90.3244 184.833 93.6214C185.359 94.6419 185.545 95.9119 185.757 97.0771C185.823 97.483 185.693 98.0071 185.497 98.3481C185.289 98.7414 184.779 99.2271 184.425 99.3064C184.098 99.2809 183.547 98.8105 183.336 98.3133C182.548 97.2279 181.799 95.9852 180.893 94.9262C178.701 92.5472 175.635 92.1213 172.888 93.7773ZM207.775 116.441C208.988 120.302 208.891 124.061 206.947 127.641C204.155 132.846 198.057 135.23 192.121 133.592C189.644 132.811 187.336 131.572 185.355 129.912C185.237 129.939 185.067 129.952 185.002 129.992C184.753 130.097 184.675 130.189 184.491 130.255C183.091 130.965 181.977 130.522 181.686 129.003C181.567 128.362 181.722 127.51 181.891 126.829C184.06 118.298 186.581 108.352 188.92 99.8082C189.427 97.9867 189.514 95.8386 189.617 94.974C189.861 92.4196 192.247 93.5671 196.702 94.6711C196.702 94.6711 205.783 96.8656 210.749 98.1518C211.483 98.3337 212.139 98.6073 212.663 98.9599C214.093 99.9261 213.82 101.027 212.093 101.711C210.941 102.094 209.828 102.096 208.622 101.797L194.051 98.1866C193.815 98.0168 193.487 97.9913 193.186 98.0836C193.114 101.07 192.23 104.189 191.567 106.862C194.118 105.324 196.319 105.647 198.482 106.573C203.005 108.528 206.22 111.717 207.775 116.441ZM198.531 129.95C202.13 128.673 204.337 125.603 204.381 121.609C204.357 116.318 200.981 111.754 195.805 110.193C194.507 109.816 193.132 109.53 191.821 109.206C191.611 109.154 191.376 109.207 191.101 109.194C190.944 109.601 190.801 109.954 190.71 110.321C189.462 114.908 188.267 119.507 187.006 124.146C186.812 124.933 186.748 125.64 187.286 126.385C189.321 128.948 194.683 131.334 198.531 129.95ZM235.036 135.38C234.907 136.349 234.699 137.188 234.479 138.079C234.257 138.748 233.708 139.168 233.014 139.051C232.542 138.934 231.913 138.556 231.741 138.124C231.426 137.378 231.254 136.501 231.239 135.663C231.311 132.454 231.686 123.98 231.758 120.771C231.789 116.828 231.807 112.939 231.825 109.049C231.876 108.394 231.717 107.687 231.664 107.006C231.506 106.967 231.349 106.928 231.297 106.915C230.46 107.82 229.572 108.713 228.762 109.736C224.647 114.892 216.889 125.097 212.826 130.266C212.056 131.355 211.206 132.313 209.924 132.774C209.57 132.853 209.269 132.945 208.864 133.012C208.196 133.013 207.763 132.739 207.84 131.979C207.771 130.46 208.306 129.202 209.194 128.086C211.127 125.673 216.704 118.209 218.585 115.782C220.845 112.948 223.065 110.049 225.338 107.163C226.213 106.101 227.141 105.051 228.174 104.027C228.683 103.541 229.298 103.082 229.913 102.622C232.11 101.164 234.521 101.984 235.339 104.523C235.787 105.858 236.078 107.377 236.107 108.83C236.066 113.938 235.958 119.085 235.772 124.102C235.698 126.198 235.307 133.389 235.036 135.38ZM262.708 145.686C262.565 146.485 262.384 147.219 262.031 147.966C261.875 148.373 261.261 148.832 260.933 148.807C260.475 148.86 260.068 148.481 259.818 148.141C259.582 147.749 259.555 147.186 259.593 146.806C259.565 145.797 259.523 144.841 259.692 143.937C260.775 135.972 261.885 128.125 263.021 120.172C263.151 119.648 263.085 119.242 263.097 118.522C262.352 119.283 261.829 119.821 261.371 120.32C257.19 125.07 253.192 129.754 248.945 134.32C246.267 137.273 243.365 140.003 240.411 142.72C239.613 143.468 238.606 143.942 237.596 143.525C236.574 142.938 236.114 142.1 236.426 141.065C236.854 139.335 237.309 137.724 237.882 136.085C239.886 129.572 241.981 123.137 244.154 116.61C245.078 113.779 245.924 111.04 246.913 108.17C247.174 107.567 247.592 106.78 248.101 106.295C249.016 105.297 250.038 105.439 250.341 106.46C250.592 107.468 250.673 108.49 250.334 109.407C248.032 117.126 245.468 124.78 242.983 132.565C242.567 134.019 242.046 135.448 241.525 136.877C241.63 136.903 241.669 136.968 241.826 137.007C242.127 136.692 242.676 136.272 243.055 135.865C245.499 133.188 247.89 130.498 250.333 127.821C253.731 123.99 257.102 120.263 260.578 116.563C261.296 115.684 262.212 114.909 263.127 114.357C264.971 113.201 266.61 113.774 266.889 115.567C267.021 116.379 266.931 117.191 266.841 118.004C266.208 122.353 265.536 126.637 264.838 131.026C264.089 135.847 263.47 140.812 262.708 145.686ZM305.273 157.735C305.759 158.245 305.839 158.821 305.513 159.464C305.121 160.146 304.546 160.448 303.812 160.266C303.039 160.019 302.2 159.811 301.636 159.393C300.39 158.361 297.87 156.179 296.899 154.937C293.327 150.269 292.411 144.757 293.278 139.687C292.295 139.387 291.26 139.075 290.277 138.776C289.524 141.816 288.758 144.909 287.939 147.988C287.341 150.177 286.35 152.156 285.083 153.901C284.77 154.491 284.221 154.911 283.489 155.62C283.29 154.625 283.014 153.944 283.091 153.407C283.205 151.377 283.214 149.321 283.694 147.381C284.604 144.158 285.514 140.934 286.477 137.723C285.494 137.424 284.551 137.19 283.607 136.956C282.085 141.976 278.676 146.527 273.207 149.066C271.768 149.711 268.521 150.465 266.937 150.795C266.243 150.901 265.352 150.681 264.606 150.551C263.872 150.369 263.504 149.833 263.424 149.034C263.488 148.327 263.827 147.855 264.495 147.631C264.887 147.394 265.371 147.236 265.777 147.17C271.263 146.359 277.488 142.116 279.82 136.074C279.663 136.035 279.558 136.009 279.453 135.983C278.353 135.71 277.735 134.611 278.309 133.641C278.739 132.802 279.708 132.485 280.651 132.496C280.767 131.579 280.765 130.689 280.671 129.72C280.217 125.268 278.258 121.5 274.31 119.02C273.3 118.38 272.499 117.347 271.502 116.432C273.633 114.791 275.153 114.722 277.133 115.936C280.215 117.868 282.25 120.653 283.41 124.056C284.437 126.87 284.758 130.065 284.359 133.248C285.42 133.456 286.469 133.715 287.504 134.028C288.687 129.926 289.87 125.824 291.054 121.722C291.21 121.316 291.392 120.805 291.653 120.424C292.032 119.572 292.672 119.008 293.498 119.268C294.219 119.502 294.547 120.196 294.497 121.073C294.459 121.676 294.434 122.226 294.291 122.803C293.278 126.891 292.212 130.966 291.212 135.002C292.248 135.314 293.283 135.627 294.318 135.939C295.464 132.885 297.266 130.104 299.501 128.044C302.168 125.589 305.216 124.063 308.896 123.807C311.214 123.658 312.525 124.428 313.591 126.862C312.335 127.218 311.144 127.757 309.952 127.852C305.304 128.202 301.708 131.038 299.214 134.815C298.692 135.576 298.287 136.31 297.975 137.123C298.342 137.214 298.696 137.357 299.063 137.448C300.085 137.813 300.807 138.715 300.259 139.803C299.672 140.826 298.075 141.209 296.987 140.884C296.319 147.172 299.882 153.451 304.302 156.716C304.682 156.977 305.037 157.343 305.273 157.735ZM322.173 131.213C320.482 130.628 320.116 130.759 319.543 132.398C318.658 135.071 317.917 137.836 317.072 140.575C316.851 141.466 316.761 142.501 316.541 143.615C318.821 144.069 320.943 144.483 323.131 144.859C324.559 145.157 325.844 145.809 326.92 146.854C327.196 147.09 327.275 147.443 327.551 147.678C326.427 148.846 325.026 149.111 323.559 148.97C321.725 148.738 319.943 148.297 318.095 147.894C317.309 147.7 316.523 147.505 315.579 147.271C314.762 151.018 313.866 154.635 313.298 158.5C314.975 158.693 316.494 158.847 318.001 159.053C320.228 159.271 322.441 159.319 324.642 159.642C325.507 159.745 326.346 160.175 327.067 160.632C328.339 161.559 328.171 162.686 326.863 163.252C326.182 163.528 325.384 163.609 324.559 163.571C320.799 163.251 317.053 162.879 313.358 162.52C312.494 162.417 311.708 162.223 310.869 162.015C309.873 161.768 309.111 160.8 309.044 159.727C309.055 159.006 309.106 158.351 309.236 157.605C309.844 154.25 310.479 150.792 311.14 147.45C311.243 146.809 311.15 146.062 311.031 145.421C310.82 144.701 310.805 144.085 311.407 143.678C312.179 143.257 312.269 142.445 312.451 141.711C313.36 138.265 314.218 134.806 315.284 131.398C316.82 126.772 319.319 125.666 323.671 127.19C326.122 128.075 328.415 128.922 330.932 129.768C332.111 130.171 333.252 130.509 334.313 130.939C335.807 131.421 336.753 132.545 336.598 133.619C336.338 134.668 335.095 135.417 333.588 134.988C330.941 134.221 328.215 133.323 325.607 132.398C324.48 132.008 323.366 131.565 322.173 131.213ZM362.048 135.364C361.906 136.386 361.725 137.342 361.465 138.391C360.517 141.994 359.555 145.65 358.554 149.241C357.293 153.88 355.888 158.427 354.536 162.988C354.172 164.233 353.795 165.53 353.273 166.736C352.83 167.628 352.282 168.493 351.589 169.268C350.661 170.317 349.836 170.057 349.505 168.696C349.136 167.269 349.251 165.907 349.628 164.609C350.538 161.608 351.501 158.62 352.307 155.593C352.542 155.095 352.567 154.545 352.736 153.863C348.32 153.047 343.957 152.244 339.503 151.363C339.06 152.7 338.643 153.932 338.292 155.124C337.707 157.26 337.227 159.422 336.616 161.441C336.043 163.079 335.339 164.573 334.674 166.133C334.531 166.487 334.401 166.789 334.126 166.999C333.786 167.248 333.368 167.59 332.988 167.551C332.778 167.499 332.397 167.016 332.357 166.727C332.184 165.405 332.077 164.043 332.153 162.838C332.202 161.515 332.527 160.205 332.839 158.947C333.397 156.693 334.165 154.491 334.789 152.198C335.023 151.254 335.558 150.219 335.071 149.041C334.953 148.845 335.2 148.294 335.475 148.084C336.26 147.611 336.35 146.799 336.636 146.091C338.628 140.298 340.685 134.465 342.664 128.725C342.911 127.952 343.368 127.23 343.891 126.692C344.924 125.669 346.313 126.124 346.565 127.577C346.631 128.206 346.567 128.913 346.346 129.582C345.553 132.334 344.655 135.06 343.692 137.825C342.612 141.285 341.479 144.732 340.335 148.454C344.737 149.322 349.087 150.177 353.594 151.072C353.633 150.914 353.829 150.574 353.933 150.154C355.455 145.358 356.925 140.548 358.422 135.856C358.643 135.41 358.76 134.939 358.916 134.532C359.425 133.601 360.106 133.325 360.892 133.52C361.665 133.767 362.125 134.382 362.048 135.364ZM383.712 175.67C383.57 176.469 383.388 177.203 383.036 177.95C382.88 178.356 382.265 178.816 381.938 178.79C381.479 178.844 381.073 178.465 380.823 178.125C380.586 177.732 380.559 177.169 380.598 176.789C380.569 175.781 380.528 174.825 380.696 173.921C381.78 165.956 382.89 158.108 384.026 150.156C384.156 149.632 384.09 149.226 384.101 148.506C383.356 149.267 382.833 149.805 382.376 150.304C378.195 155.053 374.197 159.737 369.95 164.304C367.271 167.256 364.369 169.987 361.415 172.704C360.618 173.452 359.61 173.926 358.601 173.509C357.578 172.921 357.118 172.084 357.43 171.049C357.859 169.319 358.314 167.707 358.887 166.069C360.89 159.556 362.985 153.121 365.159 146.594C366.083 143.763 366.929 141.024 367.918 138.154C368.179 137.551 368.596 136.764 369.106 136.278C370.021 135.281 371.042 135.423 371.346 136.444C371.597 137.452 371.677 138.473 371.339 139.391C369.037 147.11 366.473 154.764 363.987 162.548C363.571 164.003 363.05 165.432 362.529 166.86C362.634 166.886 362.674 166.952 362.831 166.991C363.131 166.676 363.681 166.255 364.06 165.849C366.503 163.172 368.894 160.482 371.338 157.805C374.735 153.974 378.106 150.247 381.582 146.546C382.301 145.667 383.216 144.893 384.132 144.341C385.976 143.185 387.614 143.757 387.893 145.551C388.026 146.363 387.936 147.175 387.846 147.987C387.213 152.337 386.541 156.621 385.843 161.01C385.093 165.831 384.475 170.796 383.712 175.67ZM400.898 150.721C399.207 150.135 398.84 150.267 398.268 151.905C397.383 154.578 396.642 157.343 395.796 160.082C395.575 160.974 395.486 162.008 395.266 163.122C397.545 163.576 399.668 163.99 401.856 164.366C403.284 164.664 404.569 165.316 405.645 166.362C405.921 166.597 406 166.95 406.275 167.185C405.152 168.353 403.751 168.618 402.284 168.477C400.45 168.245 398.667 167.804 396.82 167.402C396.034 167.207 395.247 167.012 394.304 166.778C393.487 170.526 392.591 174.142 392.022 178.007C393.699 178.2 395.219 178.354 396.725 178.56C398.952 178.778 401.166 178.826 403.367 179.149C404.231 179.252 405.07 179.682 405.792 180.139C407.064 181.067 406.896 182.193 405.588 182.759C404.907 183.036 404.108 183.116 403.283 183.078C399.524 182.759 395.777 182.387 392.083 182.028C391.218 181.925 390.432 181.73 389.594 181.522C388.598 181.275 387.836 180.308 387.768 179.234C387.78 178.513 387.831 177.859 387.96 177.112C388.569 173.758 389.204 170.299 389.865 166.958C389.968 166.316 389.875 165.569 389.756 164.928C389.544 164.208 389.53 163.592 390.132 163.185C390.904 162.764 390.994 161.952 391.175 161.218C392.085 157.772 392.942 154.313 394.009 150.905C395.545 146.279 398.044 145.173 402.395 146.697C404.846 147.582 407.14 148.429 409.657 149.275C410.836 149.678 411.976 150.017 413.038 150.447C414.532 150.928 415.477 152.052 415.322 153.127C415.063 154.175 413.82 154.924 412.313 154.495C409.666 153.728 406.94 152.83 404.332 151.905C403.204 151.515 402.09 151.072 400.898 150.721Z" fill="#9A4E1D"/>
<defs>
<filter id="filter0_d_3665_23700" x="2.75662" y="1.45101" width="549.108" height="274.488" filterUnits="userSpaceOnUse" color-interpolation-filters="sRGB">
<feFlood flood-opacity="0" result="BackgroundImageFix"/>
<feColorMatrix in="SourceAlpha" type="matrix" values="0 0 0 0 0 0 0 0 0 0 0 0 0 0 0 0 0 0 127 0" result="hardAlpha"/>
<feOffset dy="4.93756"/>
<feGaussianBlur stdDeviation="9.25792"/>
<feComposite in2="hardAlpha" operator="out"/>
<feColorMatrix type="matrix" values="0 0 0 0 0.984314 0 0 0 0 0.733333 0 0 0 0 0.431373 0 0 0 1 0"/>
<feBlend mode="normal" in2="BackgroundImageFix" result="effect1_dropShadow_3665_23700"/>
<feBlend mode="normal" in="SourceGraphic" in2="effect1_dropShadow_3665_23700" result="shape"/>
</filter>
<linearGradient id="paint0_linear_3665_23700" x1="483.206" y1="111.382" x2="365.262" y2="249.32" gradientUnits="userSpaceOnUse">
<stop offset="0.0381614" stop-color="#FBBB6E"/>
<stop offset="1" stop-color="#FBBB6E" stop-opacity="0"/>
</linearGradient>
<linearGradient id="paint1_linear_3665_23700" x1="483.206" y1="111.382" x2="365.262" y2="249.32" gradientUnits="userSpaceOnUse">
<stop offset="0.0381614" stop-color="#FBBB6E"/>
<stop offset="1" stop-color="#FBBB6E" stop-opacity="0"/>
</linearGradient>
<linearGradient id="paint2_linear_3665_23700" x1="483.206" y1="111.382" x2="365.262" y2="249.32" gradientUnits="userSpaceOnUse">
<stop offset="0.0381614" stop-color="#FBBB6E"/>
<stop offset="1" stop-color="#FBBB6E" stop-opacity="0"/>
</linearGradient>
<linearGradient id="paint3_linear_3665_23700" x1="510.164" y1="119.001" x2="82.0408" y2="152.806" gradientUnits="userSpaceOnUse">
<stop stop-color="#FBBB6E"/>
<stop offset="1" stop-color="#FBBB6E" stop-opacity="0"/>
</linearGradient>
</defs>
</svg>
