<svg width="560" height="271" viewBox="0 0 560 271" fill="none" xmlns="http://www.w3.org/2000/svg">
<g filter="url(#filter0_d_3665_23701)">
<path d="M491.051 18.4469L68.5974 114.472C54.8672 117.593 46.3602 131.627 49.5829 145.805L49.7027 146.332L20.6796 170.144C17.0728 173.108 18.5217 179.482 23.0527 180.584L59.5172 189.511L68.0027 226.842C71.2281 241.031 84.9746 249.995 98.6935 246.877L521.147 150.852C534.877 147.731 543.384 133.697 540.162 119.519L521.742 38.4822C518.516 24.2925 504.77 15.3286 491.051 18.4469Z" fill="#FFF5E4"/>
</g>
<mask id="mask0_3665_23701" style="mask-type:alpha" maskUnits="userSpaceOnUse" x="376" y="32" width="136" height="150">
<path d="M497.15 33.2814C505.126 32.3465 509.186 33.7198 509.064 37.3091C509.028 38.3698 509.626 39.6032 510.393 40.0492C511.516 40.7011 511.654 41.617 511.103 44.731C509.509 53.7213 483.7 126.998 481.066 130.008C480.626 130.51 479.952 132.333 479.568 134.059C478.866 137.211 472.899 151.305 467.673 162.151C465.9 165.83 463.51 169.158 461.168 171.207C457.416 174.489 451.714 177.732 449.797 177.675C449.22 177.657 447.592 178.541 446.178 179.637C443.141 181.994 443.763 181.916 440.793 180.304C439.462 179.581 436.727 178.936 434.718 178.871C430.873 178.747 430.08 177.763 432.653 176.31C433.915 175.597 433.674 175.484 431.302 175.68C428.974 175.871 428.259 175.557 427.609 174.052C427.05 172.758 426.279 172.3 425.1 172.558C420.286 173.612 395.825 141.255 387.752 123.156C377.081 99.2286 374.626 88.0606 378.887 82.8281C382.898 77.9024 395.546 74.3988 407.929 74.7841C416.53 75.0514 423.585 77.0488 424.452 79.4613C424.693 80.1306 425.586 80.7003 426.437 80.7268C427.289 80.7532 429.808 82.3246 432.035 84.2185C434.261 86.1116 436.367 87.6695 436.716 87.6814C437.065 87.6921 439.414 84.6853 441.938 80.9992C451.385 67.1986 461.744 55.4852 473.177 45.6763C482.036 38.0748 489.596 34.1655 497.15 33.2814ZM488.406 67.3555C488.185 67.1218 496.85 42.0378 485.669 50.2163C477.899 58.4937 465.91 75.2148 459.576 84.5812C451.188 96.9855 448.884 104.146 453.479 111.039C452.926 110.609 453.865 112.693 453.184 113.07C452.485 113.457 452.368 114.61 452.803 116.805C453.084 118.22 453.433 119.255 453.879 119.818L453.937 120.804C452.766 123.806 451.76 124.22 449.773 122.3C447.814 120.407 445.73 120.622 447.581 122.525C448.122 123.082 448.546 124.08 448.524 124.743C448.491 125.7 448.138 125.629 446.813 124.396C445.896 123.542 445.131 123.234 445.115 123.711C445.098 124.188 444.489 124.779 443.761 125.022C442.852 125.324 437.105 113.537 429.896 107.111C419.329 96.1324 408.922 90.5015 408.867 90.4714C408.867 90.4714 400.893 88.4858 396.774 91.162C393.83 93.0752 393.242 97.7044 393.596 99.3646C394.577 103.957 400.954 117.092 407.579 128.165C413.096 137.386 416.175 141.409 423.629 149.135C436.061 162.019 441.803 166.869 455.752 164.936C465.181 163.629 478.361 101.997 478.981 100.105C479.599 98.2185 486.455 74.2955 487.828 70.4907C488.368 68.9945 488.628 67.5839 488.406 67.3555Z" fill="url(#paint0_linear_3665_23701)" fill-opacity="0.3"/>
</mask>
<g mask="url(#mask0_3665_23701)">
<path d="M499.679 10.757L59.5662 110.796C45.2621 114.047 36.3995 128.668 39.7568 143.439L39.8817 143.988L9.64544 168.795C5.88779 171.883 7.39723 178.524 12.1177 179.672L50.1065 188.971L58.9467 227.863C62.3069 242.646 76.6281 251.985 90.9203 248.736L531.033 148.697C545.337 145.446 554.2 130.825 550.843 116.054L531.653 31.6298C528.293 16.847 513.972 7.50834 499.679 10.757Z" fill="url(#paint1_linear_3665_23701)"/>
</g>
<path d="M171.704 149.22C174.334 151.779 175.967 155.063 176.517 158.703C177.427 163.923 176.86 168.981 175.067 173.763C174.234 175.946 173.196 177.954 171.628 179.584C167.863 183.486 162.82 183.469 158.964 179.417C157.362 177.732 156.386 175.628 155.409 173.524C154.775 171.952 154.193 170.367 153.494 168.754C150.718 162.629 152.089 154.288 156.747 149.685C158.25 148.014 160.236 147.009 163.027 146.375C165.923 145.716 169.008 146.621 171.704 149.22ZM172.841 160.314C172.398 157.147 171.266 154.359 169.217 152.167C167.515 150.283 165.579 149.56 163.314 150.075C161.208 150.554 159.415 151.681 158.36 153.859C157.769 155.156 157.161 156.624 156.699 158.002C156.33 159.304 155.95 160.554 156.811 161.909C157.001 162.253 156.95 162.763 156.888 163.22C157.199 164.589 157.405 165.982 157.628 167.205C157.992 168.563 158.243 169.668 158.612 170.803C159.442 172.995 160.273 175.188 161.781 176.949C164.213 179.608 166.714 179.649 169.05 177.014C169.696 176.202 170.318 175.286 170.852 174.223C172.805 169.902 173.456 165.214 172.841 160.314ZM205.452 136.399C206.644 137.014 206.775 137.593 205.842 138.359C204.961 139.113 203.91 139.851 202.841 140.26C199.753 141.294 196.694 142.211 193.542 143.204C192.975 143.388 192.249 143.609 191.629 143.805C191.972 146.773 192.302 149.688 192.779 152.515C193.851 158.695 195.412 166.536 196.496 172.769C196.719 173.992 196.784 175.251 196.274 176.419C195.869 177.563 195.144 177.783 194.191 177.003C193.203 176.065 192.547 174.885 192.312 173.609C191.537 169.466 190.337 163.702 189.615 159.547C188.889 154.894 188.334 150.258 187.649 145.54C187.613 145.382 187.525 145.236 187.412 144.985C186.833 145.117 186.306 145.236 185.78 145.356C183.288 146.089 180.837 146.756 178.362 147.319C177.52 147.511 176.665 147.649 175.828 147.618C174.897 147.664 174.308 147.022 174.128 146.232C173.949 145.443 174.25 144.82 174.968 144.325C175.378 144.176 175.839 144.016 176.184 143.827C180.705 142.522 185.162 141.177 189.619 139.832C193.613 138.647 197.556 137.474 201.538 136.236C202.883 135.82 204.195 135.743 205.452 136.399ZM237.211 165.12C237.835 165.92 237.775 166.875 237.105 167.581C236.435 168.287 235.528 168.438 234.635 167.921C234.235 167.624 233.836 167.327 233.465 166.913C228.958 162.677 224.515 158.481 220.085 154.338C219.826 154.175 219.661 153.936 219.285 153.744C218.412 154.774 217.526 155.75 216.834 156.849C216.578 157.184 216.564 157.852 216.684 158.378C217.22 161.468 217.826 164.376 218.362 167.466C218.656 169.005 218.687 170.604 218.771 172.191C218.814 172.624 218.659 173.158 218.446 173.926C217.711 173.374 217.194 173.048 216.782 172.699C215.617 171.468 214.731 170.008 214.348 168.323C213.893 166.322 213.426 164.269 213.024 162.256C211.88 154.542 211.209 146.72 211.207 138.912C211.173 138.034 211.192 137.143 211.353 136.387C211.535 135.238 212.006 134.632 212.662 134.594C213.37 134.544 213.935 135.08 214.134 136.198C214.421 138.68 214.632 141.068 214.907 143.498C215.113 146.109 215.372 148.708 215.683 151.296C215.8 151.325 215.865 151.365 215.994 151.447C216.384 150.97 216.798 150.599 217.083 150.147C221.106 145.19 224.407 139.733 227.59 134.247C227.782 133.871 227.885 133.349 228.258 133.043C228.526 132.76 228.923 132.559 229.223 132.657C229.562 132.691 229.893 133.169 229.953 133.433C230.032 134.024 230.017 134.692 229.768 135.302C229.306 136.681 228.844 138.059 228.148 139.381C226.173 142.875 224.106 146.446 222.026 149.965C221.729 150.365 221.356 150.671 221.059 151.071C226.595 154.962 231.15 159.409 235.904 163.756C236.339 164.211 236.816 164.601 237.211 165.12ZM258.219 132.878C260.093 136.494 260.064 140.266 258.777 144.103C257.183 148.785 253.853 151.923 249.294 153.79C247.101 154.621 244.907 154.953 242.439 153.355C243.308 157.421 244.821 162.615 243.124 166.6C242.506 166.076 241.948 165.815 241.788 165.353C241.024 163.699 240.038 162.041 239.655 160.356C237.429 151.78 235.102 141.787 233.151 133.204C232.996 132.519 232.804 131.677 232.989 131.026C233.257 129.525 234.432 129.092 235.765 129.841C236 129.898 236.076 129.992 236.27 130.114C236.335 130.155 236.505 130.171 236.675 130.188C238.687 128.568 240.966 127.385 243.51 126.641C249.425 125.13 255.475 127.631 258.219 132.878ZM255.483 138.871C255.516 134.876 253.369 131.765 249.796 130.417C246.028 128.948 240.621 131.229 238.484 133.764C237.931 134.499 237.982 135.207 238.161 135.997C239.332 140.66 240.438 145.281 241.649 149.879C241.733 150.248 241.869 150.605 241.965 151.026C242.293 151.007 242.475 151.076 242.738 151.016C244.002 150.729 245.383 150.47 246.687 150.119C251.893 148.658 255.356 144.161 255.483 138.871ZM272.466 129.639C277.397 129.405 281.756 130.795 285.217 134.328C288.024 137.178 289.681 140.567 289.566 144.691C289.348 150.556 284.973 155.427 278.999 156.674C276.383 157.102 273.805 156.968 271.301 156.43C271.155 156.518 271.009 156.607 270.969 156.672C270.835 156.813 270.818 156.983 270.631 157.136C269.753 158.388 268.506 158.505 267.616 157.268C267.156 156.708 266.976 155.918 266.821 155.233C264.858 146.597 262.648 136.633 260.949 127.938C260.554 126.2 260.726 124.278 260.712 122.509C260.657 122.023 261.047 121.547 261.365 120.755C264.63 123.668 265.511 129.005 266.473 132.995C268.019 130.539 270.13 129.838 272.466 129.639ZM283.034 150.551C285.662 147.739 286.265 144.057 284.508 140.469C282.108 135.754 277.04 133.196 271.703 134.077C270.387 134.376 269.017 134.687 267.754 134.974C267.49 135.034 267.356 135.176 267.064 135.353C267.148 135.721 267.179 136.102 267.275 136.523C268.158 141.14 269.171 145.839 270.131 150.549C270.31 151.339 270.571 151.999 271.376 152.37C274.411 153.785 280.272 153.505 283.034 150.551ZM291.789 117.439C292.612 121.793 293.436 126.146 294.235 130.395C295.205 135.878 296.033 141.228 296.991 146.659C297.063 146.975 297.376 148.842 297.613 150.615C297.886 152.547 295.045 153.691 293.702 152.169C293.319 151.702 292.965 151.118 292.721 150.287C292.376 149.258 292.113 148.1 291.979 147.023C290.631 137.195 289.376 127.291 288.069 117.398C287.926 116.766 288.033 116.022 288.323 115.347C288.45 114.931 289.063 114.459 289.484 114.363C289.917 114.32 290.657 114.651 290.846 114.995C291.289 115.725 291.597 116.596 291.789 117.439ZM325.164 109.188C326.356 109.803 326.487 110.383 325.554 111.148C324.673 111.902 323.622 112.64 322.553 113.049C319.465 114.083 316.406 115 313.254 115.993C312.687 116.178 311.961 116.398 311.341 116.594C311.684 119.562 312.014 122.477 312.491 125.304C313.563 131.484 315.124 139.325 316.208 145.558C316.431 146.781 316.496 148.04 315.986 149.208C315.581 150.352 314.856 150.572 313.903 149.792C312.915 148.854 312.259 147.674 312.024 146.398C311.249 142.255 310.05 136.491 309.327 132.336C308.601 127.683 308.046 123.047 307.361 118.33C307.325 118.172 307.237 118.026 307.124 117.774C306.545 117.906 306.018 118.026 305.492 118.145C303 118.878 300.549 119.546 298.074 120.108C297.232 120.3 296.377 120.439 295.54 120.407C294.609 120.453 294.02 119.811 293.84 119.022C293.661 118.232 293.962 117.609 294.68 117.114C295.09 116.966 295.551 116.805 295.896 116.616C300.417 115.312 304.874 113.966 309.331 112.621C313.326 111.436 317.268 110.263 321.25 109.026C322.595 108.609 323.907 108.532 325.164 109.188ZM346.746 109.433C349.377 111.991 351.009 115.275 351.56 118.915C352.47 124.136 351.903 129.193 350.11 133.975C349.277 136.158 348.238 138.167 346.671 139.797C342.906 143.698 337.863 143.681 334.007 139.629C332.405 137.944 331.429 135.841 330.452 133.737C329.818 132.164 329.236 130.58 328.537 128.966C325.76 122.842 327.132 114.5 331.789 109.897C333.292 108.227 335.279 107.221 338.07 106.587C340.966 105.929 344.051 106.833 346.746 109.433ZM347.884 120.526C347.441 117.36 346.309 114.571 344.26 112.379C342.558 110.495 340.621 109.773 338.357 110.287C336.251 110.766 334.458 111.893 333.403 114.072C332.812 115.369 332.204 116.836 331.742 118.215C331.373 119.517 330.993 120.766 331.854 122.121C332.043 122.466 331.993 122.975 331.931 123.433C332.242 124.802 332.448 126.195 332.671 127.418C333.035 128.775 333.286 129.881 333.654 131.015C334.485 133.208 335.316 135.4 336.824 137.162C339.256 139.821 341.757 139.861 344.093 137.226C344.739 136.415 345.361 135.498 345.895 134.435C347.848 130.115 348.499 125.426 347.884 120.526ZM360.865 107.995C360.186 109.147 359.595 110.444 359.279 111.734C357.986 117.012 358.269 122.153 360.823 127.055C361.551 128.551 362.659 130.016 364.116 131.069C366.196 132.423 368.398 132.366 370.277 130.887C371.649 129.855 372.463 128.562 373.264 127.217C374.078 125.925 375.021 124.714 375.952 123.45C376.156 123.127 376.565 122.978 377.125 122.519C377.908 124.5 378.185 126.209 377.585 127.952C376.376 131.162 374.251 133.749 371.125 135.346C368.145 136.854 365.203 136.581 362.331 134.908C359.641 133.304 357.884 130.935 356.634 128.118C353.858 121.993 353.534 115.698 355.571 109.31C356.614 105.86 358.599 103.139 362.064 101.576C365.331 100.113 368.524 100.274 371.464 102.485C372.392 103.16 373.13 104.211 373.843 105.156C374.085 105.489 374.204 106.016 374.183 106.408C374.173 106.853 373.936 107.516 373.656 107.746C373.352 107.871 372.649 107.698 372.237 107.349C371.045 106.734 369.817 105.961 368.532 105.422C365.504 104.283 362.574 105.281 360.865 107.995ZM404.972 91.0477C406.164 91.6628 406.295 92.242 405.362 93.0079C404.481 93.7619 403.43 94.4992 402.361 94.9085C399.273 95.9426 396.214 96.8594 393.062 97.8527C392.495 98.0371 391.769 98.2573 391.149 98.4536C391.492 101.422 391.822 104.337 392.299 107.164C393.371 113.344 394.932 121.185 396.016 127.417C396.239 128.64 396.304 129.899 395.794 131.067C395.389 132.211 394.664 132.432 393.711 131.651C392.723 130.713 392.067 129.533 391.832 128.258C391.057 124.114 389.858 118.351 389.135 114.196C388.409 109.543 387.854 104.907 387.169 100.189C387.133 100.031 387.045 99.885 386.932 99.6337C386.353 99.7653 385.826 99.885 385.3 100.005C382.808 100.737 380.357 101.405 377.882 101.968C377.04 102.159 376.185 102.298 375.348 102.267C374.417 102.312 373.828 101.671 373.648 100.881C373.469 100.091 373.77 99.4689 374.488 98.9734C374.898 98.825 375.359 98.6646 375.704 98.4756C380.225 97.171 384.682 95.8257 389.139 94.4804C393.134 93.2955 397.076 92.1226 401.058 90.885C402.404 90.4685 403.715 90.3919 404.972 91.0477ZM433.057 100.723C435.865 103.574 437.521 106.963 437.406 111.087C437.189 116.951 432.813 121.822 426.839 123.069C424.223 123.498 421.645 123.364 419.142 122.825C418.996 122.914 418.85 123.002 418.809 123.067C418.675 123.208 418.658 123.378 418.472 123.531C417.593 124.783 416.346 124.901 415.456 123.663C414.996 123.103 414.817 122.313 414.661 121.629C412.698 112.993 410.489 103.029 408.789 94.3333C408.394 92.5956 408.566 90.6736 408.552 88.9048C408.497 88.419 408.887 87.9426 409.205 87.1504C412.47 90.0632 413.351 95.4007 414.313 99.3906C415.859 96.9349 417.971 96.2335 420.307 96.0348C425.237 95.8001 429.596 97.1906 433.057 100.723ZM430.875 116.947C433.503 114.134 434.106 110.453 432.349 106.865C429.948 102.15 424.881 99.5914 419.543 100.472C418.227 100.772 416.858 101.083 415.594 101.37C415.331 101.43 415.197 101.571 414.905 101.748C414.988 102.117 415.02 102.497 415.115 102.919C415.999 107.536 417.011 112.234 417.971 116.945C418.151 117.734 418.412 118.395 419.216 118.766C422.251 120.18 428.113 119.9 430.875 116.947Z" fill="#5A1E9C"/>
<defs>
<filter id="filter0_d_3665_23701" x="0.133575" y="4.24935" width="559.226" height="266.7" filterUnits="userSpaceOnUse" color-interpolation-filters="sRGB">
<feFlood flood-opacity="0" result="BackgroundImageFix"/>
<feColorMatrix in="SourceAlpha" type="matrix" values="0 0 0 0 0 0 0 0 0 0 0 0 0 0 0 0 0 0 127 0" result="hardAlpha"/>
<feOffset dy="4.93756"/>
<feGaussianBlur stdDeviation="9.25792"/>
<feComposite in2="hardAlpha" operator="out"/>
<feColorMatrix type="matrix" values="0 0 0 0 0.807843 0 0 0 0 0.611765 0 0 0 0 1 0 0 0 1 0"/>
<feBlend mode="normal" in2="BackgroundImageFix" result="effect1_dropShadow_3665_23701"/>
<feBlend mode="normal" in="SourceGraphic" in2="effect1_dropShadow_3665_23701" result="shape"/>
</filter>
<linearGradient id="paint0_linear_3665_23701" x1="510.54" y1="45.3396" x2="403.786" y2="253.107" gradientUnits="userSpaceOnUse">
<stop offset="0.330223" stop-color="#CE9CFF"/>
<stop offset="0.635491" stop-color="#CE9CFF" stop-opacity="0"/>
</linearGradient>
<linearGradient id="paint1_linear_3665_23701" x1="531.744" y1="25.9444" x2="547.762" y2="267.208" gradientUnits="userSpaceOnUse">
<stop offset="0.140215" stop-color="#C28AFA"/>
<stop offset="1" stop-color="#CE9CFF" stop-opacity="0"/>
</linearGradient>
</defs>
</svg>
