<svg width="565" height="652" viewBox="0 0 565 652" fill="none" xmlns="http://www.w3.org/2000/svg">
<g clip-path="url(#clip0_3494_23248)">
<path d="M430.014 314.924C429.492 324.218 429.26 332.457 428.577 340.674C426.127 370.326 417.785 398.249 402.751 423.898C385.992 452.599 362.786 475.116 333.988 491.82C299.672 511.706 262.37 521.217 222.898 522.705C178.822 524.389 136.64 515.723 96.0375 498.723C94.1957 497.948 92.308 497.247 90.653 496.587C88.0799 498.755 89.2385 500.806 90.3193 502.398C95.6947 510.235 100.774 518.302 106.833 525.533C114.801 535.019 123.581 543.772 131.996 552.867C133.936 554.988 136.043 557.006 137.747 559.342C139.926 562.33 139.428 565.982 136.86 568.308C134.704 570.219 131.475 570.44 128.854 568.67C127.518 567.744 126.176 566.66 125.098 565.482C113.383 552.709 101.456 540.113 90.1888 526.948C85.1159 521.045 80.8872 514.274 77.2617 507.36C74.8524 502.739 73.4597 497.304 72.8168 492.074C72.0644 485.851 75.0069 480.826 81.0071 478.199C85.1633 476.389 89.3856 474.723 93.6884 473.261C117.136 465.24 140.597 457.279 164.073 449.378C166.021 448.727 168.02 448.16 170.031 447.908C173.119 447.497 175.679 449.28 176.761 452.209C177.799 454.957 177.174 458.48 174.721 459.951C171.565 461.811 168.141 463.352 164.668 464.554C148.635 469.997 132.544 475.198 116.473 480.618C112.638 481.906 108.464 482.573 104.596 486.257C108.946 488.063 112.621 489.711 116.42 491.075C159.13 506.495 202.983 512.283 248.103 505.894C285.209 500.633 319.269 487.686 348.719 464.236C385.726 434.798 406.399 396.065 412.95 349.555C413.97 342.214 414.328 334.773 414.883 327.35C415.02 325.789 414.608 324.199 414.516 323.01C411.691 320.652 409.336 322.132 407.067 322.636C368.064 331.561 330.781 325.399 294.494 309.927C270.941 299.886 250.277 285.66 233.36 266.442C215.44 246.091 204.786 222.145 200.397 195.478C199.049 187.294 199.063 179.075 200.475 170.844C202.748 157.538 209.262 147.052 220.394 139.36C240.345 125.636 262.236 120.307 286.249 123.998C308.902 127.469 328.703 137.409 346.787 150.97C365.759 165.182 381.857 182.301 395.485 201.755C412.852 226.599 424.352 253.689 427.235 284.055C427.604 288.139 428.508 292.193 429.216 296.229C429.288 296.531 429.843 296.718 430.156 296.963C439.321 293.047 445.246 288.367 451.858 279.896C462.818 265.876 469.068 249.879 470.816 232.239C474.057 198.961 468.241 167.25 453.086 137.393C440.501 112.566 422.859 92.1809 399.15 77.2094C394.615 74.3636 390.273 71.122 386.144 67.7029C383.37 65.4283 383.041 61.1116 384.804 58.7529C386.613 56.3195 390.577 55.5744 393.772 57.0807C394.528 57.4435 395.238 57.8809 395.91 58.2953C439.01 84.2907 467.756 121.032 479.837 170.179C484.878 190.769 486.961 211.644 484.663 232.853C483.238 245.705 480.028 258.022 474.592 269.687C467.13 285.81 455.635 298.524 440.744 308.218C437.298 310.465 433.785 312.568 429.908 315.013L430.014 314.924ZM413.893 304.784C414.086 303.719 414.527 302.5 414.472 301.335C412.891 270.279 405.03 241.216 387.36 215.106C377.825 201.054 367.311 187.838 354.922 176.243C338.802 161.167 320.879 148.682 299.678 141.684C275.126 133.599 251.751 135.648 229.806 150.097C220.55 156.168 215.202 164.596 214.189 175.439C213.634 181.525 213.588 187.873 214.613 193.904C218.758 218.877 228.879 241.261 246.345 259.841C270.95 285.905 301.635 301.267 336.261 308.979C358.274 313.907 380.438 314.659 402.539 309.408C406.46 308.482 410.758 308.199 413.931 304.807L413.893 304.784Z" fill="#FFE6BD"/>
</g>
<defs>
<clipPath id="clip0_3494_23248">
<rect width="308.695" height="574.647" fill="white" transform="translate(301.483) rotate(31.6441)"/>
</clipPath>
</defs>
</svg>
