<svg width="879" height="678" viewBox="0 0 879 678" fill="none" xmlns="http://www.w3.org/2000/svg">
<g clip-path="url(#clip0_3494_23250)">
<path d="M269.702 446.584C277.778 456.278 284.686 465.057 292.067 473.449C318.686 503.743 350.321 527.394 387.404 543.167C428.828 560.866 472.273 566.627 517.111 561.545C570.524 555.469 618.805 535.688 662.967 505.423C712.3 471.651 751.209 428.145 781.668 376.844C783.046 374.512 784.535 372.225 785.803 370.17C790.355 370.451 790.751 373.619 790.86 376.224C791.341 389.097 792.328 401.98 791.575 414.744C790.566 431.505 788.081 448.124 786.268 464.82C785.87 468.696 785.207 472.594 785.239 476.513C785.282 481.526 788.774 485.098 793.447 485.556C797.338 485.893 801.031 483.525 802.454 479.483C803.16 477.395 803.745 475.131 803.966 472.978C806.399 449.613 809.206 426.269 810.833 402.839C811.586 392.317 810.719 381.531 809.08 371.078C807.969 364.102 805.095 357.062 801.57 350.85C797.362 343.47 790.1 340.377 781.448 342.364C775.462 343.752 769.521 345.35 763.657 347.234C731.658 357.445 699.692 367.732 667.759 378.097C665.114 378.962 662.479 379.959 660.087 381.309C656.394 383.356 655.048 387.366 656.237 391.427C657.327 395.257 660.853 398.586 664.71 398.206C669.648 397.68 674.619 396.592 679.37 395.095C701.217 388.067 722.932 380.73 744.802 373.646C750.015 371.95 755.097 369.305 762.283 370.19C759.008 375.67 756.339 380.432 753.306 384.985C719.277 436.268 676.224 477.992 621.955 507.486C577.321 531.734 529.791 545.155 478.795 543.423C414.738 541.276 360.95 515.821 316.25 470.492C309.209 463.324 302.808 455.516 296.209 447.885C294.798 446.297 293.962 444.233 293.102 442.865C294.272 438.017 298.031 437.725 300.908 436.441C350.567 414.648 386.168 377.825 413.164 331.673C430.687 301.719 441.686 269.544 444.574 234.961C447.639 198.336 439.891 163.667 423.127 131.098C417.983 121.102 411.329 112.167 403.142 104.35C389.92 91.7042 374.36 85.5529 356.031 86.1731C323.23 87.3532 295.099 99.2365 271.946 122.651C250.094 144.727 236.573 171.54 227.845 200.909C218.676 231.702 214.985 263.338 215.867 295.52C217.033 336.589 226.399 375.362 247.792 410.741C250.689 415.485 252.98 420.627 255.469 425.592C255.634 425.978 255.182 426.63 255.039 427.149C241.9 430.291 231.672 429.984 217.632 426.105C194.378 419.699 174.654 407.337 158.502 389.55C128.093 355.949 108.807 316.736 101.184 271.999C94.8252 234.812 97.5594 198.374 111.271 162.927C113.907 156.167 116.015 149.131 117.747 142.074C118.928 137.358 115.8 132.394 111.976 131.251C108.041 130.064 103.125 132.455 100.864 136.675C100.335 137.681 99.9154 138.73 99.5183 139.724C73.608 202.833 72.0003 266.042 98.5528 329.292C109.698 355.775 124.294 380.177 143.927 401.405C155.859 414.24 169.302 425.053 184.642 433.358C205.788 444.879 228.569 449.431 252.607 447.953C258.173 447.614 263.695 447.066 269.89 446.594L269.702 446.584ZM279.056 422.525C277.988 421.522 276.522 420.552 275.641 419.239C252.275 384.161 237.353 346.179 235.494 303.487C234.52 280.491 235.288 257.614 239.407 234.987C244.773 205.557 254.194 177.49 271.617 152.748C291.806 124.115 318.903 107.464 354.459 105.463C369.438 104.593 382.067 109.446 391.928 120.429C397.448 126.605 402.626 133.476 406.382 140.868C422.044 171.397 429.11 203.935 425.109 238.266C419.384 286.509 398.396 328.016 366.94 364.381C346.961 387.526 323.446 406.248 295.149 418.386C290.134 420.545 285.228 423.709 279.034 422.58L279.056 422.525Z" fill="#FFE6BD"/>
</g>
<defs>
<clipPath id="clip0_3494_23250">
<rect width="418.404" height="778.875" fill="white" transform="matrix(-0.370935 0.928659 0.928659 0.370935 155.2 0)"/>
</clipPath>
</defs>
</svg>
