<svg width="328" height="473" viewBox="0 0 328 473" fill="none" xmlns="http://www.w3.org/2000/svg">
<g opacity="0.5">
<mask id="path-1-inside-1_3494_23154" fill="white">
<path d="M305.142 0C317.274 0 327.109 9.83527 327.109 21.9678V390.649C327.109 402.782 317.274 412.617 305.141 412.617H247.205C235.073 412.617 225.237 422.453 225.237 434.585V451.032C225.237 463.165 215.402 473 203.269 473H22.8662C10.7339 473 0.898662 463.165 0.898438 451.032V82.3509C0.898438 70.2183 10.7339 60.3828 22.8665 60.3828H80.8034C92.936 60.3828 102.771 50.5474 102.771 38.4147V21.9681C102.771 9.83544 112.607 0 124.74 0H305.142Z"/>
</mask>
<path d="M327.109 21.9678H330.097V21.9677L327.109 21.9678ZM22.8662 473L22.8662 475.988H22.8662V473ZM0.898438 451.032H-2.08959V451.032L0.898438 451.032ZM305.142 0V2.98803C315.624 2.98803 324.121 11.4855 324.121 21.9678L327.109 21.9678L330.097 21.9677C330.097 8.18506 318.924 -2.98803 305.142 -2.98803V0ZM327.109 21.9678H324.121V390.649H327.109H330.097V21.9678H327.109ZM305.141 412.617V409.629H247.205V412.617V415.605H305.141V412.617ZM225.237 434.585H222.249V451.032H225.237H228.225V434.585H225.237ZM203.269 473V470.012H22.8662V473V475.988H203.269V473ZM22.8662 473L22.8663 470.012C12.3841 470.012 3.88666 461.514 3.88647 451.032L0.898438 451.032L-2.08959 451.032C-2.08934 464.815 9.0836 475.988 22.8662 475.988L22.8662 473ZM0.898438 451.032H3.88647V82.3509H0.898438H-2.08959V451.032H0.898438ZM22.8665 60.3828V63.3708H80.8034V60.3828V57.3948H22.8665V60.3828ZM102.771 38.4147H105.76V21.9681H102.771H99.7835V38.4147H102.771ZM124.74 0V2.98803H305.142V0V-2.98803H124.74V0ZM102.771 21.9681H105.76C105.76 11.4857 114.257 2.98803 124.74 2.98803V0V-2.98803C110.957 -2.98803 99.7835 8.1852 99.7835 21.9681H102.771ZM225.237 451.032H222.249C222.249 461.514 213.752 470.012 203.269 470.012V473V475.988C217.052 475.988 228.225 464.815 228.225 451.032H225.237ZM80.8034 60.3828V63.3708C94.5863 63.3708 105.76 52.1976 105.76 38.4147H102.771H99.7835C99.7835 48.8971 91.2858 57.3948 80.8034 57.3948V60.3828ZM247.205 412.617V409.629C233.423 409.629 222.249 420.802 222.249 434.585H225.237H228.225C228.225 424.103 236.723 415.605 247.205 415.605V412.617ZM0.898438 82.3509H3.88647C3.88647 71.8685 12.3841 63.3708 22.8665 63.3708V60.3828V57.3948C9.08364 57.3948 -2.08959 68.568 -2.08959 82.3509H0.898438ZM327.109 390.649H324.121C324.121 401.132 315.624 409.629 305.141 409.629V412.617V415.605C318.924 415.605 330.097 404.432 330.097 390.649H327.109Z" fill="#FBBB6E" mask="url(#path-1-inside-1_3494_23154)"/>
</g>
</svg>
