<svg width="649" height="924" viewBox="0 0 649 924" fill="none" xmlns="http://www.w3.org/2000/svg">
<path fill-rule="evenodd" clip-rule="evenodd" d="M45.5499 51.3789C43.3963 52.8984 39.6586 55.5331 37.2462 57.235C34.8337 58.9368 32.3375 60.5663 31.6995 60.8577C31.0616 61.1491 24.2627 66.4439 16.5917 72.6269C1.12224 85.0915 -12.2198 101.565 -10.9138 106.588C-10.447 108.383 -11.1614 110.137 -12.5009 110.485C-16.0892 111.418 -27.1967 132.822 -27.3332 139.064C-27.3979 142.019 -28.6297 150.627 -30.0754 158.193C-31.5187 165.758 -32.5772 181.819 -32.4277 193.882C-32.1693 214.639 -31.4345 221.397 -26.184 251.3C-24.975 258.175 -23.1064 270.042 -22.0286 277.671C-20.4015 289.198 -17.7909 306.713 -16.7344 313.191C-16.3249 315.704 -24.5158 316.145 -35.7191 314.214C-44.1834 312.755 -49.9457 313.702 -65.5893 319.119C-76.2515 322.811 -89.5133 328.584 -95.0622 331.949C-100.611 335.313 -109.072 339.827 -113.867 341.976C-118.66 344.127 -122.28 347.055 -121.908 348.485C-121.536 349.915 -122.909 350.892 -124.961 350.657C-129.715 350.11 -150.545 362.933 -172.181 379.728C-174.557 381.572 -181.505 386.292 -187.622 390.217C-193.739 394.142 -200.459 399.741 -202.556 402.657C-207.96 410.172 -215.098 416.766 -218.905 417.756C-220.697 418.222 -223.917 421.846 -226.063 425.811C-228.209 429.775 -235.105 438.849 -241.387 445.973C-247.67 453.1 -253.595 460.4 -254.555 462.198C-255.514 463.997 -259.997 470.334 -264.519 476.281C-269.04 482.231 -272.35 488.587 -271.875 490.412C-271.401 492.236 -273.375 498.239 -276.263 503.751C-287.048 524.339 -281.515 543.439 -264.44 544.576C-253.423 545.311 -245.742 550.785 -247.297 556.795C-248.068 559.785 -247.583 561.162 -245.911 560.727C-244.221 560.288 -242.675 564.827 -241.407 573.935C-239.812 585.388 -238.831 587.645 -235.777 586.851C-233.745 586.322 -230.935 587.945 -229.534 590.456C-227.835 593.507 -224.945 594.492 -220.829 593.421C-217.44 592.54 -213.704 592.745 -212.527 593.877C-211.35 595.009 -206.148 594.833 -200.965 593.485C-195.782 592.137 -188.612 591.363 -185.03 591.762C-181.45 592.165 -172.467 591.609 -165.067 590.529C-113.78 583.049 -78.7322 576.984 -75.5423 575.038C-73.4905 573.785 -70.8765 573.657 -69.7366 574.757C-68.5943 575.856 -62.0498 574.813 -55.1934 572.444C-41.2863 567.636 -26.4499 565.862 -25.6559 568.915C-25.3699 570.015 -30.2524 575.214 -36.5055 580.471C-42.7611 585.73 -48.8385 592.102 -50.0129 594.632C-51.1874 597.163 -53.9097 599.769 -56.0626 600.423C-58.2173 601.08 -64.618 606.229 -70.289 611.868C-75.9601 617.508 -83.8602 625.016 -87.8431 628.553C-91.829 632.089 -100.32 642.104 -106.713 650.809C-113.108 659.513 -120.551 668.241 -123.251 670.203C-125.954 672.166 -127.726 675.453 -127.192 677.505C-126.658 679.56 -127.273 681.513 -128.562 681.848C-131.863 682.707 -145.34 707.526 -144.422 711.055C-144.005 712.662 -145.139 715.035 -146.943 716.333C-148.747 717.628 -149.754 720.494 -149.18 722.7C-148.607 724.904 -150.337 731.747 -153.028 737.9C-155.717 744.055 -157.694 752.922 -157.419 757.604C-157.145 762.288 -157.645 769.299 -158.529 773.187C-159.413 777.074 -159.268 783.62 -158.21 787.729C-157.149 791.84 -157.04 796.518 -157.967 798.123C-158.896 799.732 -157.789 805.614 -155.509 811.199C-152.222 819.249 -149.744 821.721 -143.544 823.147C-139.246 824.134 -134.911 824.578 -133.912 824.135C-129.316 822.088 -127.874 823.164 -129.76 827.228C-131.42 830.805 -131.012 831.745 -127.63 832.136C-125.327 832.4 -122.349 831.463 -121.01 830.054C-119.246 828.196 -118.476 829.549 -118.204 834.976C-118.001 839.091 -117.596 840.928 -117.307 839.054C-116.133 831.444 -112.209 835.075 -111.279 844.632C-110.455 853.108 -109.463 854.879 -105.284 855.329C-102.53 855.628 -98.6558 857.172 -96.6773 858.762C-94.093 860.835 -92.7964 860.73 -92.0837 858.391C-91.3651 856.034 -88.6445 855.727 -82.2424 857.28C-77.3774 858.462 -72.529 858.922 -71.4705 858.301C-70.4102 857.678 -67.7047 858.041 -65.4528 859.105C-63.2033 860.17 -59.9483 860.022 -58.2165 858.776C-56.4847 857.531 -53.3718 857.744 -51.2998 859.245C-48.5524 861.236 -46.476 860.997 -43.6357 858.355C-41.1459 856.042 -34.5132 854.221 -25.2749 853.316C-16.7259 852.476 -7.99655 850.204 -3.93021 847.755C-0.146609 845.477 9.78739 841.689 18.1453 839.335C26.5001 836.98 33.6687 833.965 34.0757 832.636C34.4797 831.305 37.4569 829.529 40.6878 828.689C43.9187 827.849 49.4145 824.2 52.9016 820.582C56.388 816.962 61.4289 814.009 64.1066 814.016C66.7825 814.026 71.6005 810.875 74.8143 807.015C78.0256 803.155 82.6724 799.465 85.1387 798.819C87.6049 798.172 92.7222 794.196 96.508 789.98C108.339 776.809 111.813 773.671 115.737 772.611C117.833 772.045 124.243 765.675 129.986 758.456C135.726 751.235 142.531 744.028 145.106 742.44C147.68 740.851 153.379 734.642 157.768 728.643C162.159 722.644 166.861 717.447 168.217 717.094C169.574 716.742 170.805 714.069 170.953 711.154C171.101 708.24 173.253 705.327 175.732 704.683C178.212 704.038 184.577 696.796 189.873 688.587C195.17 680.378 201.504 671.38 203.952 668.586C206.399 665.793 212.697 655.776 217.946 646.327C223.195 636.878 229.618 627.224 232.221 624.876C234.823 622.527 236.732 619.769 236.467 618.747C235.71 615.836 253.719 584.143 261.395 574.876C265.601 569.801 272.139 565.317 278.085 563.433L287.861 560.332L304.96 589.3C314.367 605.231 323.75 621.944 325.815 626.44C327.879 630.935 331.013 635.721 332.779 637.073C334.544 638.429 338.152 643.961 340.794 649.368C343.439 654.777 349.125 665.934 353.431 674.161C361.379 689.336 371.599 723.348 373.109 739.633C373.564 744.547 374.951 752.216 376.192 756.672C377.432 761.129 377.675 768.124 376.734 772.218C368.512 807.943 361.286 833.184 357.996 837.682C357.347 838.569 353.745 851.088 349.995 865.501C341.949 896.412 343.819 902.177 361.342 900.512C368.028 899.876 373.018 901.07 375.644 903.933C379.105 907.699 379.011 908.367 374.995 908.601C369.217 908.937 366.145 919.012 370.726 922.608C372.448 923.959 376.584 924.353 379.919 923.485C384.842 922.205 385.49 921.025 383.364 917.209C381.398 913.684 381.814 912.457 385.027 912.296C387.584 912.169 389.468 913.993 389.699 916.819C389.999 920.498 391.135 920.963 394.786 918.913C397.748 917.249 399.788 917.44 400.306 919.431C401.483 923.959 414.19 922.689 414.708 917.992C414.934 915.928 416.402 914.066 417.969 913.855C424.333 912.995 426.696 911.123 425.795 907.658C425.272 905.647 427.301 899.998 430.305 895.099C436.322 885.289 443.576 866.247 442.652 862.691C441.383 857.813 447.322 837.983 450.281 837.214C452.007 836.765 454.161 831.794 455.065 826.166C455.971 820.539 458.423 809.366 460.511 801.338C462.711 792.888 463.149 786.38 461.55 785.88C457.457 784.602 457.089 780.541 460.976 779.53C463.967 778.753 464.987 772.877 464.306 760.364C462.983 736.022 461.668 726.725 456.033 701.829C450.779 678.612 448.59 672.381 444.924 670.21C441.666 668.278 440.846 666.405 442.059 663.664C444.06 659.141 429.731 626.793 420.623 615.274C417.471 611.288 413.693 604.623 412.227 600.463C410.76 596.301 406.939 589.462 403.735 585.262C400.532 581.062 398.009 576.239 398.126 574.543C398.243 572.847 397.002 571.039 395.367 570.531C393.732 570.02 391.384 565.723 390.151 560.982C387.945 552.5 388.046 552.358 396.302 552.196C408.266 551.963 427.483 545.986 430.686 541.503C432.767 538.588 434.391 538.155 437.584 539.665C439.967 540.794 442.099 540.528 442.551 539.045C442.987 537.617 446.248 536.262 449.799 536.034C453.349 535.803 461.1 532.941 467.024 529.672C472.947 526.401 482.595 521.981 488.465 519.851C503.794 514.291 511.856 509.991 511.259 507.696C510.973 506.597 514.709 504.114 519.557 502.176C528.867 498.456 540.191 491.19 549.17 483.168C552.139 480.514 557.102 477.142 560.198 475.673C570.882 470.607 596.348 450.422 597.715 445.938C598.193 444.371 600.633 442.557 603.14 441.905C605.644 441.254 607.815 438.337 607.963 435.422C608.111 432.508 610.314 429.582 612.857 428.921C615.403 428.259 619.029 423.839 620.915 419.095C622.802 414.353 627.261 408.514 630.824 406.118C634.388 403.722 637.301 399.383 637.3 396.476C637.298 393.572 638.291 390.934 639.504 390.619C640.719 390.303 642.036 387.019 642.431 383.322C642.827 379.624 644.134 376.343 645.337 376.03C647.471 375.475 648.048 360.593 646.091 356.553C645.551 355.435 646.187 352.329 647.504 349.649C648.966 346.678 648.602 341.105 646.567 335.367C644.734 330.192 643.838 324.542 644.577 322.813C647.944 314.93 630.112 268.503 621.832 263.6C620.046 262.542 618.161 260.042 617.641 258.043C616.323 252.977 601.487 235.797 598.99 236.446C597.862 236.739 595.774 235.115 594.346 232.84C589.806 225.59 562.082 209.442 556.617 210.863C553.787 211.599 550.18 210.843 548.596 209.184C544.337 204.715 507.684 206.212 480.195 211.977C471.902 213.715 467.911 209.354 471.28 202.238C473.68 197.166 479.297 170.286 480.645 157.415C481.034 153.719 482.158 147.163 483.145 142.846C484.133 138.529 483.879 130.947 482.585 125.998C481.29 121.048 480.969 115.393 481.868 113.431C482.77 111.468 482.36 108.035 480.962 105.802C479.563 103.57 477.349 93.8868 476.041 84.2844C473.692 67.0571 466.128 47.4419 460.445 43.8425C458.917 42.8753 457.149 40.0984 456.518 37.6741C455.176 32.512 452.524 32.7048 448.87 38.225C446.668 41.5557 446.568 41.4117 448.244 37.3054C451.31 29.7918 443.421 17.3698 435.483 17.2144C431.973 17.1439 430.111 16.7105 431.34 16.2471C433.853 15.3009 407.832 6.41212 404.832 7.19222C403.775 7.4672 399.941 5.80796 396.316 3.50608C390.325 -0.298262 387.777 -0.124618 368.461 5.42123C340.8 13.3618 332.466 16.4257 330.822 19.2479C330.08 20.5179 325.83 22.5069 321.371 23.6663C316.915 24.8251 313.516 26.7235 313.817 27.8842C314.12 29.0474 308.339 32.3493 300.974 35.2266C293.608 38.1015 286.654 41.6823 285.524 43.1841C284.394 44.6859 279.543 48.4205 274.744 51.4854C263.86 58.4385 252.13 70.132 252.936 73.2297C253.269 74.5129 250.64 77.5157 247.092 79.9023C243.544 82.2889 240.451 85.9719 240.22 88.0894C239.986 90.2051 238.211 92.3504 236.276 92.8536C234.338 93.3575 232.606 94.6915 232.421 95.8167C231.523 101.347 211.856 125.348 207.24 126.548C204.34 127.302 202.314 126.778 202.737 125.382C203.665 122.343 193.021 107.762 188.951 106.491C187.375 105.998 185.408 102.999 184.582 99.8225C183.757 96.6488 182.167 93.8963 181.046 93.7068C179.925 93.5198 176.22 89.9733 172.809 85.8276C161.169 71.6777 141.516 57.4442 135.664 58.9241C132.432 59.7409 129.792 58.8012 129.23 56.6365C128.254 52.8849 121.825 53.0534 120.844 56.8563C120.547 58.0106 120.278 57.495 120.248 55.704C120.156 50.3684 113.332 53.8004 111.875 59.9153C111.134 63.0232 109.226 65.1609 107.637 64.6671C105.944 64.1372 106.454 61.7458 108.87 58.8877C112.169 54.989 112.24 53.1929 109.231 49.9177C104.346 44.597 100.431 45.6989 102.053 51.9385C103.35 56.9267 101.044 58.4075 88.1596 60.8612C83.6015 61.7275 81.9089 63.1533 83.0195 65.1887C83.9286 66.8582 83.9981 67.5146 83.1766 66.6511C82.3526 65.7882 80.246 65.4524 78.4956 65.9075C75.4057 66.711 71.0307 62.3924 69.6826 57.2083C69.2286 55.4623 70.1832 55.2009 72.7112 56.3789C77.7495 58.7263 92.7779 53.6785 93.0483 49.548C93.1674 47.7105 92.1507 44.6389 90.7854 42.722C88.8547 40.0083 87.7191 40.0631 85.6449 42.9659C83.6433 45.7687 82.3737 46.1067 80.5253 44.3285C79.0817 42.9392 75.3256 43.2963 71.4347 45.1917C67.7857 46.9693 64.5643 47.5064 64.2733 46.3873C63.6601 44.0291 51.308 47.3221 45.5499 51.3789ZM423.536 20.6295C423.886 21.9763 425.267 22.7938 426.604 22.4461C427.941 22.0984 428.748 20.712 428.398 19.3651C428.048 18.0183 426.667 17.2008 425.33 17.5485C423.993 17.8962 423.186 19.2826 423.536 20.6295ZM76.1819 137.098C75.7055 138.66 73.2668 140.471 70.7604 141.122C65.7645 142.422 53.851 166.006 55.3264 171.68C55.8333 173.629 55.5408 176.526 54.6771 178.116C52.991 181.223 53.0828 201.968 54.8409 214.918C58.3663 240.862 59.7161 256.882 58.5456 258.888C58.1766 259.525 59.3783 262.18 61.2171 264.79C63.1245 267.494 65.6381 279.426 67.0648 292.558C68.4401 305.223 71.1766 323.333 73.1436 332.803C76.0397 346.735 75.9615 350.387 72.7299 351.933C69.9573 353.258 69.5633 355.157 71.4405 358.153C74.6004 363.198 68.4705 366.066 63.9761 361.647C59.4157 357.165 52.4194 357.649 50.1188 362.605C48.6098 365.855 45.195 367.535 38.4456 368.349C33.1961 368.982 28.5466 370.675 28.1072 372.109C27.671 373.546 23.586 378.048 19.0306 382.119C13.0068 387.5 11.1495 391.058 12.2174 395.164C13.5088 400.13 12.696 400.927 5.49952 401.769C0.995465 402.294 -4.69642 401.735 -7.15228 400.525C-18.1125 395.127 -41.5114 399.376 -54.461 409.115C-57.5504 411.437 -61.1571 413.287 -62.4762 413.225C-65.0779 413.102 -91.7368 429.307 -109.343 441.718C-115.375 445.969 -123.393 451.069 -127.161 453.047C-130.929 455.028 -137.233 459.98 -141.169 464.055C-145.107 468.127 -152.794 475.386 -158.255 480.186C-163.714 484.984 -169.867 492.025 -171.927 495.831C-175.459 502.357 -175.399 502.76 -170.88 502.869C-162.718 503.068 -143.87 500.938 -130.952 498.355C-44.0622 480.984 6.61808 468.373 38.259 456.244C53.0769 450.566 66.7995 444.948 68.7544 443.763C70.7088 442.575 78.0483 439.419 85.0605 436.751C92.0745 434.08 99.5634 430.271 101.699 428.283C106.917 423.436 124.684 419.927 134.02 421.902C139.524 423.067 142.048 425.329 143.325 430.238C145.096 437.049 153.784 446.335 157.484 445.373C158.59 445.085 160.825 438.2 162.454 430.07C164.083 421.941 167.367 411.626 169.753 407.146C172.139 402.667 174.063 396.172 174.027 392.712C173.982 388.527 176.492 384.782 181.52 381.522C185.677 378.825 188.703 375.18 188.245 373.417C186.05 364.976 217.177 343.627 240.921 337.29L256.903 333.025L247.205 330.665C241.872 329.367 236.639 329.455 235.577 330.863C234.515 332.269 226.705 334.963 218.219 336.854C208.447 339.029 202.436 341.512 201.813 343.63C201.138 345.934 198.244 346.953 192.491 346.906C183.669 346.837 179.291 340.95 175.685 324.298C174.8 320.215 169.245 301.071 163.34 281.756C157.436 262.442 147.478 228.49 141.21 206.305C130.964 170.025 128.906 164.845 120.726 154.768C115.726 148.606 110.86 143.767 109.912 144.014C108.964 144.26 105.367 141.078 101.922 136.941C96.3685 130.278 94.595 129.696 86.3512 131.839C81.2338 133.17 76.6582 135.536 76.1819 137.098ZM339.821 114.209C307.248 136.509 280.197 171.857 275.66 198.046C270.343 228.752 267.507 248.69 267.617 254.641C267.68 258.219 267.354 263.891 266.888 267.249C266.424 270.606 265.676 276.092 265.227 279.445C264.78 282.798 264.595 289.022 264.816 293.278C266.084 317.646 265.702 322.038 261.858 327.287L257.632 333.055L264.709 331.214C268.601 330.202 273.088 330.118 274.681 331.024C276.272 331.933 283.882 332.221 291.588 331.666C299.296 331.112 307.715 330.91 310.297 331.219C313.982 331.657 314.896 330.101 314.54 324C314.214 318.423 317.214 312.333 325.153 302.469C339.049 285.203 361.446 250.969 360.706 248.126C360.4 246.948 364.056 237.092 368.829 226.222C373.604 215.349 378.856 201.4 380.503 195.22C382.148 189.041 384.794 182.706 386.381 181.143C387.97 179.579 388.887 176.838 388.423 175.051C387.957 173.261 388.806 170.078 390.309 167.972C391.81 165.869 392.893 160.461 392.715 155.955C392.534 151.448 393.376 144.803 394.585 141.187C397.546 132.322 391.667 100.881 386.325 97.0071C379.932 92.374 362.058 98.9853 339.821 114.209ZM-25.3402 325.591C-25.8988 327.425 -24.977 329.743 -23.2897 330.742C-21.2434 331.953 -19.8825 331.448 -19.2044 329.224C-18.6458 327.39 -19.5675 325.073 -21.2549 324.074C-23.3011 322.862 -24.6621 323.368 -25.3402 325.591ZM460.084 308.4C455.884 310.096 452.656 312.276 452.908 313.244C453.159 314.211 448.565 317.873 442.696 321.382C428.452 329.896 399.348 356.803 400.323 360.552C400.75 362.195 399.218 365.286 396.919 367.424C391.52 372.441 392.51 376.328 398.35 373.047C401.201 371.445 403.777 371.819 405.376 374.064C406.763 376.015 408.719 376.748 409.723 375.69C410.725 374.634 412.146 376.074 412.878 378.89C413.664 381.912 412.204 385.502 409.316 387.649C404.511 391.22 404.537 391.258 410.771 389.802C419.498 387.76 427.781 393.632 427.868 401.921C427.903 405.519 429.188 408.853 430.722 409.333C434.128 410.395 434.39 420.465 431.155 426.028C429.855 428.267 429.471 432.72 430.305 435.925C431.138 439.128 430.193 443.319 428.205 445.237C421.834 451.388 427.559 450.909 442.941 444.004C451.173 440.311 459.491 436.624 461.421 435.811C463.351 435 466.42 433.329 468.241 432.097C470.062 430.865 475.023 427.486 479.267 424.592C483.51 421.695 491.62 416.951 497.289 414.047C502.957 411.143 512.316 404.704 518.084 399.737C523.855 394.77 529.866 390.37 531.447 389.959C533.027 389.548 535.174 387.366 536.223 385.112C537.272 382.855 541.135 379.544 544.809 377.755C548.483 375.965 552.262 372.781 553.203 370.681C554.145 368.582 557.246 361.893 560.097 355.818C564.824 345.742 564.868 343.785 560.609 333.463C558.043 327.241 552.058 316.382 547.31 309.331C538.899 296.836 538.34 296.505 525.362 296.312C518.035 296.201 504.344 297.949 494.935 300.195C485.527 302.442 475.554 304.513 472.773 304.797C469.992 305.083 464.283 306.704 460.084 308.4ZM260.461 430.537C255.778 437.193 255.093 440.699 257.1 447.806C260.456 459.695 269.363 472.43 273.673 471.497C275.58 471.085 280.471 470.851 284.54 470.977C288.918 471.114 293.83 469.631 296.573 467.344C299.121 465.217 305.781 460.852 311.37 457.642C322.161 451.442 333.681 441.574 340.024 433.09C343.854 427.966 343.839 427.92 337.124 424.793C333.412 423.063 323.897 421.448 315.984 421.208C308.072 420.967 298.317 420.351 294.308 419.838C290.3 419.325 282.368 419.643 276.679 420.545C268.295 421.878 265.226 423.769 260.461 430.537ZM165.46 505.38C160.676 511.686 152.788 520.061 147.932 523.991C143.075 527.923 138.164 533.161 137.016 535.632C135.868 538.106 133.863 540.405 132.562 540.743C131.262 541.081 127.389 544.734 123.958 548.858C120.527 552.981 115.182 558.784 112.078 561.751C108.975 564.717 101.493 571.96 95.455 577.843C89.4167 583.727 79.1807 592.802 72.7069 598.01C66.2338 603.22 57.0363 611.787 52.2668 617.051C47.498 622.317 42.0736 627.019 40.2139 627.503C38.3541 627.986 36.443 629.66 35.9667 631.222C35.4904 632.783 33.1124 634.578 30.6789 635.211C28.2478 635.843 25.4241 638.159 24.4026 640.359C23.3805 642.557 15.6682 650.508 7.26483 658.027C-1.13921 665.543 -12.1154 676.133 -17.1275 681.562C-22.1395 686.991 -27.5843 691.873 -29.2295 692.413C-30.8717 692.955 -31.9315 694.499 -31.5813 695.846C-31.2311 697.193 -32.5466 698.711 -34.506 699.221C-36.4631 699.73 -38.6621 702.641 -39.387 705.693C-40.115 708.742 -43.279 713.573 -46.4216 716.429C-53.5486 722.908 -67.9991 745.439 -67.142 748.735C-66.7911 750.085 -68.0316 754.297 -69.8983 758.098C-71.7651 761.898 -73.0424 765.969 -72.7368 767.145C-70.587 775.412 -24.8653 764.872 0.713753 750.212C6.29979 747.01 12.5611 743.581 14.6299 742.593C17.836 741.059 24.122 736.567 42.8176 722.445C44.6073 721.094 50.7121 715.375 56.3838 709.738C62.0555 704.101 71.0572 695.35 76.3885 690.29C81.7229 685.233 86.1706 679.76 86.2786 678.129C86.477 675.089 106.39 654.321 117.037 646.049C120.302 643.514 122.511 639.651 121.944 637.469C121.376 635.287 123.32 631.534 126.265 629.132C129.208 626.727 131.191 623.124 130.671 621.123C130.15 619.12 131.842 615.527 134.433 613.136C139.81 608.169 165.238 571.329 165.775 567.728C165.97 566.42 167.506 563.345 169.191 560.9C170.875 558.454 176.984 548.758 182.769 539.356C191.628 524.958 192.798 521.359 190.179 516.547C188.466 513.406 185.936 510.482 184.555 510.052C183.173 509.619 181.217 506.091 180.208 502.209C179.199 498.328 177.426 494.873 176.266 494.534C175.106 494.195 170.244 499.075 165.46 505.38ZM384.132 532.843C385.308 533.975 386.752 534.776 387.343 534.622C387.934 534.469 388.128 533.241 387.778 531.895C387.428 530.548 385.982 529.747 384.567 530.115C383.152 530.483 382.955 531.711 384.132 532.843Z" fill="url(#paint0_linear_3494_23282)" fill-opacity="0.7"/>
<defs>
<linearGradient id="paint0_linear_3494_23282" x1="-155.275" y1="194.29" x2="863.034" y2="1240.85" gradientUnits="userSpaceOnUse">
<stop stop-color="#F69950"/>
<stop offset="0.466346" stop-color="#F99B52" stop-opacity="0"/>
</linearGradient>
</defs>
</svg>
