<svg width="84" height="83" viewBox="0 0 84 83" fill="none" xmlns="http://www.w3.org/2000/svg">
<path fill-rule="evenodd" clip-rule="evenodd" d="M30.5764 4.58533C30.3825 4.7165 30.046 4.94394 29.8288 5.09085C29.6116 5.23776 29.3871 5.3781 29.3299 5.40286C29.2727 5.42762 28.6597 5.88593 27.9677 6.42159C26.5722 7.50144 25.3586 8.94101 25.4658 9.38931C25.5041 9.54952 25.4376 9.70407 25.318 9.73266C24.9978 9.80925 23.974 11.6905 23.951 12.2446C23.9401 12.5069 23.8156 13.2692 23.674 13.9385C23.5326 14.6078 23.4106 16.0322 23.4027 17.1037C23.3894 18.9474 23.4429 19.5488 23.8569 22.2134C23.9522 22.8261 24.0974 23.8832 24.1798 24.5625C24.3041 25.589 24.5053 27.1489 24.5878 27.726C24.6198 27.9499 23.8917 27.9748 22.9002 27.7837C22.1511 27.6393 21.6377 27.7133 20.239 28.167C19.2858 28.4763 18.098 28.9658 17.5994 29.2549C17.1007 29.544 16.3415 29.93 15.9119 30.1125C15.4825 30.2951 15.156 30.5488 15.1865 30.6764C15.217 30.8041 15.0934 30.8884 14.9116 30.864C14.4903 30.8071 12.6182 31.9094 10.6675 33.363C10.4533 33.5226 9.82801 33.9296 9.27796 34.2675C8.72791 34.6053 8.12138 35.0908 7.9301 35.3461C7.43708 36.004 6.79163 36.577 6.45183 36.6583C6.2919 36.6965 5.99957 37.0128 5.80208 37.3611C5.60459 37.7094 4.97637 38.5032 4.40608 39.1248C3.83563 39.7467 3.29677 40.3846 3.20836 40.5426C3.12001 40.7007 2.71087 41.2556 2.29893 41.7758C1.88705 42.2963 1.58203 42.8549 1.62097 43.0178C1.65991 43.1806 1.47414 43.7103 1.20803 44.1947C0.214306 46.0041 0.672228 47.7099 2.18656 47.8406C3.1636 47.9252 3.83615 48.4248 3.68761 48.9557C3.61383 49.2199 3.65452 49.343 3.80381 49.3073C3.95462 49.2713 4.084 49.6771 4.18068 50.4881C4.30227 51.5079 4.38548 51.7101 4.65802 51.6449C4.83943 51.6015 5.0861 51.7505 5.20609 51.976C5.35165 52.2499 5.6066 52.3423 5.97397 52.2545C6.27645 52.1822 6.60788 52.2069 6.71041 52.3095C6.81293 52.412 7.27521 52.4055 7.73783 52.2948C8.20045 52.1842 8.8385 52.128 9.15587 52.1697C9.47308 52.2117 10.2718 52.1781 10.9308 52.0951C15.4983 51.5205 18.6212 51.0431 18.9079 50.8759C19.0923 50.7683 19.3247 50.7615 19.424 50.8611C19.5235 50.9607 20.1065 50.8795 20.7195 50.6812C21.9629 50.2785 23.2835 50.1468 23.3487 50.4194C23.3721 50.5175 22.9295 50.9707 22.365 51.4266C21.8003 51.8826 21.2495 52.4379 21.1407 52.6606C21.032 52.8832 20.7857 53.1099 20.5934 53.1642C20.4009 53.2188 19.8235 53.6648 19.3101 54.1557C18.7966 54.6466 18.0819 55.2995 17.7221 55.6067C17.3619 55.9138 16.5903 56.7882 16.0075 57.5501C15.4244 58.3119 14.7482 59.0739 14.505 59.2434C14.2615 59.413 14.0984 59.7018 14.1422 59.885C14.1861 60.0684 14.128 60.2408 14.013 60.2683C13.7183 60.3387 12.4782 62.5192 12.5535 62.8342C12.5878 62.9776 12.4829 63.1864 12.3204 63.2985C12.1579 63.4104 12.0635 63.6631 12.1106 63.86C12.1576 64.0567 11.9921 64.6613 11.7424 65.203C11.4928 65.745 11.3018 66.5289 11.318 66.9451C11.3341 67.3616 11.2775 67.9833 11.1922 68.327C11.1069 68.6707 11.1083 69.2522 11.1951 69.6189C11.2822 69.9858 11.2836 70.4014 11.1985 70.5424C11.1132 70.6836 11.2012 71.2079 11.3939 71.7079C11.6718 72.4285 11.8875 72.6523 12.4356 72.7898C12.8155 72.8849 13.1997 72.9319 13.2892 72.8944C13.7009 72.7206 13.8271 72.8186 13.6525 73.1763C13.4988 73.491 13.5334 73.5752 13.8331 73.6158C14.0372 73.6433 14.3032 73.5653 14.4246 73.4425C14.5845 73.2806 14.6505 73.4021 14.6651 73.8845C14.676 74.2503 14.7087 74.4141 14.7377 74.2482C14.8553 73.5745 15.1974 73.9038 15.2633 74.7541C15.3216 75.5082 15.4066 75.6672 15.777 75.7145C16.021 75.7458 16.3623 75.8897 16.5352 76.0344C16.7611 76.223 16.8764 76.216 16.9438 76.0095C17.0117 75.8014 17.2539 75.7789 17.8197 75.928C18.2496 76.0415 18.6794 76.0908 18.7744 76.0375C18.8697 75.984 19.1093 76.021 19.3074 76.1194C19.5053 76.2179 19.7946 76.2104 19.9506 76.1029C20.1066 75.9953 20.3826 76.0197 20.564 76.1565C20.8045 76.3382 20.9893 76.3206 21.2462 76.0909C21.4713 75.8899 22.0635 75.7397 22.8854 75.6756C23.6461 75.6159 24.4252 75.4294 24.7906 75.2191C25.1306 75.0234 26.0194 74.7043 26.7657 74.5099C27.5117 74.3153 28.1536 74.0602 28.1921 73.9428C28.2303 73.8253 28.4978 73.6729 28.7861 73.6039C29.0745 73.5349 29.5689 73.2205 29.8849 72.9053C30.2009 72.5899 30.6537 72.3365 30.8914 72.3418C31.129 72.3474 31.5624 72.076 31.8545 71.7388C32.1465 71.4017 32.5655 71.0821 32.7857 71.029C33.0058 70.9759 33.4672 70.6318 33.8108 70.264C34.8844 69.1151 35.1984 68.8424 35.5487 68.7552C35.7358 68.7086 36.3162 68.1541 36.8388 67.5231C37.3611 66.8919 37.978 66.2637 38.2094 66.1273C38.4408 65.9906 38.9578 65.4492 39.358 64.9242C39.7584 64.3991 40.185 63.9459 40.3061 63.9169C40.4272 63.8879 40.5412 63.6527 40.5594 63.3942C40.5776 63.1356 40.7738 62.8808 40.9952 62.8278C41.2165 62.7749 41.7944 62.1429 42.2791 61.4232C42.7637 60.7035 43.3419 59.9155 43.5642 59.6717C43.7864 59.4279 44.3632 58.5494 44.8458 57.7195C45.3285 56.8896 45.9157 56.0435 46.151 55.8396C46.3861 55.6354 46.5605 55.3939 46.5387 55.3027C46.4766 55.0428 48.1312 52.2599 48.8291 51.4504C49.2115 51.0071 49.7998 50.6203 50.3312 50.4634L51.2047 50.2051L52.6726 52.8074C53.48 54.2385 54.2841 55.7391 54.4596 56.142C54.6351 56.5448 54.905 56.9752 55.0595 57.0984C55.2138 57.2219 55.5246 57.7195 55.7497 58.2043C55.9751 58.6892 56.4605 59.6899 56.8286 60.428C57.5079 61.7895 58.356 64.8277 58.4616 66.2765C58.4934 66.7137 58.6032 67.3971 58.7056 67.795C58.8079 68.1929 58.8173 68.8146 58.7265 69.1764C57.934 72.3345 57.2482 74.5634 56.9482 74.957C56.889 75.0347 56.5473 76.1401 56.1891 77.4135C55.4205 80.1444 55.5765 80.6596 57.1355 80.5423C57.7304 80.4976 58.1714 80.6123 58.3996 80.8711C58.7004 81.2117 58.6909 81.2708 58.3338 81.2845C57.8201 81.3043 57.5296 82.1936 57.9302 82.5209C58.0808 82.6439 58.4473 82.6861 58.745 82.6149C59.1845 82.5098 59.2441 82.4062 59.0619 82.0636C58.8935 81.7471 58.9326 81.6388 59.2182 81.6302C59.4455 81.6234 59.6096 81.7887 59.6252 82.04C59.6454 82.3672 59.7454 82.4106 60.0732 82.2349C60.3392 82.0923 60.52 82.1128 60.5625 82.2905C60.6592 82.6947 61.7898 82.6041 61.844 82.1879C61.8677 82.005 62.0013 81.8423 62.1408 81.8262C62.7074 81.761 62.9205 81.5989 62.8466 81.2896C62.8036 81.1101 62.9938 80.612 63.269 80.1822C63.8205 79.3216 64.498 77.6432 64.4221 77.3259C64.318 76.8905 64.8801 75.1399 65.1441 75.0768C65.2982 75.0399 65.4982 74.6023 65.5882 74.104C65.6786 73.606 65.9158 72.618 66.1153 71.9087C66.3254 71.1623 66.3757 70.585 66.2346 70.5379C65.8733 70.4173 65.8477 70.056 66.1947 69.973C66.4616 69.9092 66.5625 69.3892 66.5239 68.2768C66.4489 66.1129 66.3484 65.285 65.8915 63.0643C65.4655 60.9934 65.2821 60.4362 64.9603 60.2371C64.6743 60.0598 64.6048 59.892 64.7173 59.6507C64.9029 59.2525 63.687 56.355 62.8983 55.3161C62.6254 54.9567 62.3015 54.3582 62.1786 53.9862C62.0556 53.614 61.7283 53 61.451 52.6215C61.174 52.2429 60.9584 51.8102 60.9717 51.6598C60.9851 51.5094 60.878 51.3467 60.7337 51.2987C60.5894 51.2505 60.3884 50.8648 60.2872 50.4416C60.1062 49.6845 60.1154 49.6721 60.8488 49.6721C61.9116 49.6724 63.6286 49.1751 63.9208 48.7827C64.1108 48.5275 64.2557 48.4919 64.5366 48.6315C64.7463 48.736 64.936 48.716 64.9788 48.5851C65.02 48.4591 65.3119 48.3444 65.6277 48.3304C65.9434 48.3161 66.6366 48.0755 67.1684 47.7956C67.7002 47.5155 68.5647 47.1398 69.0896 46.9609C70.4606 46.4939 71.184 46.1262 71.135 45.9214C71.1116 45.8232 71.4476 45.6093 71.8815 45.4457C72.7148 45.1316 73.7331 44.5061 74.5445 43.8095C74.8128 43.5789 75.2594 43.2882 75.5369 43.1632C76.4946 42.732 78.7912 40.984 78.9205 40.5882C78.9656 40.4498 79.1855 40.293 79.4093 40.2395C79.6328 40.1861 79.8307 39.9308 79.8489 39.6723C79.8672 39.4137 80.0679 39.1577 80.2949 39.1035C80.5221 39.0491 80.8518 38.663 81.0276 38.245C81.2035 37.8272 81.6096 37.3164 81.9302 37.1099C82.2509 36.9034 82.5171 36.5231 82.5222 36.265C82.527 36.0071 82.6198 35.7746 82.7281 35.7487C82.8366 35.7228 82.9592 35.4335 83.0008 35.1058C83.0424 34.7781 83.1642 34.4891 83.2716 34.4634C83.4621 34.4178 83.5393 33.0973 83.3726 32.7351C83.3266 32.6349 83.3885 32.3602 83.5101 32.1245C83.6452 31.8632 83.6226 31.3677 83.4519 30.8546C83.2981 30.3918 83.2285 29.8885 83.2971 29.7362C83.6099 29.0422 82.1075 24.8881 81.3808 24.4382C81.2241 24.3412 81.061 24.1159 81.0183 23.9375C80.9102 23.4853 79.6227 21.9337 79.3999 21.987C79.2992 22.0111 79.1165 21.8632 78.9938 21.6587C78.6032 21.0069 76.1695 19.5244 75.6817 19.6411C75.4291 19.7015 75.1101 19.628 74.9723 19.478C74.602 19.0737 71.3445 19.1425 68.8933 19.6065C68.1539 19.7463 67.807 19.3521 68.1186 18.726C68.3407 18.2798 68.8864 15.9026 69.0286 14.762C69.0696 14.4345 69.1808 13.8542 69.2761 13.4726C69.3713 13.0909 69.3621 12.4173 69.2558 11.9755C69.1494 11.5337 69.1308 11.0309 69.2141 10.8582C69.2976 10.6855 69.2672 10.3799 69.1469 10.1792C69.0267 9.97854 68.847 9.11479 68.7476 8.25978C68.5691 6.72585 67.9317 4.97076 67.4333 4.64119C67.2993 4.55262 67.1471 4.30294 67.0954 4.08655C66.9852 3.6258 66.7494 3.63828 66.4152 4.12211C66.2139 4.41404 66.2053 4.40108 66.3612 4.03935C66.6466 3.37748 65.9678 2.26059 65.2631 2.23292C64.9516 2.22053 64.787 2.17879 64.897 2.13978C65.1218 2.06014 62.8266 1.22532 62.5588 1.28936C62.4644 1.31193 62.1268 1.15788 61.809 0.947133C61.2836 0.598827 61.0571 0.609796 59.332 1.06852C56.8618 1.72532 56.1163 1.98284 55.9654 2.23059C55.8974 2.34207 55.5164 2.51127 55.1185 2.60643C54.7207 2.70155 54.4155 2.86418 54.4403 2.96779C54.4651 3.07161 53.946 3.35473 53.2869 3.59737C52.6278 3.83979 52.004 4.14562 51.901 4.27701C51.798 4.4084 51.3607 4.73156 50.9292 4.99534C49.9506 5.59377 48.8885 6.61169 48.9546 6.88818C48.982 7.00272 48.7432 7.26477 48.424 7.47051C48.1048 7.67624 47.8236 7.9979 47.7994 8.18553C47.775 8.373 47.6136 8.56041 47.4409 8.60172C47.2679 8.64307 47.1118 8.75851 47.0934 8.85811C47.004 9.34764 45.2156 11.4446 44.8035 11.5431C44.5446 11.605 44.3656 11.5549 44.4057 11.4317C44.4934 11.1635 43.5737 9.84998 43.2144 9.73C43.0753 9.68355 42.906 9.41372 42.8382 9.13022C42.7704 8.84695 42.634 8.59974 42.5348 8.58096C42.4356 8.56239 42.1128 8.24097 41.8171 7.86687C40.8082 6.58998 39.0879 5.29166 38.5656 5.41285C38.2772 5.47974 38.0444 5.39168 37.9982 5.19846C37.9181 4.8636 37.3469 4.86734 37.2531 5.20332C37.2247 5.30531 37.2017 5.25905 37.2022 5.09995C37.2034 4.62598 36.5914 4.91883 36.4513 5.4593C36.3801 5.73399 36.207 5.92049 36.0667 5.87386C35.9173 5.82385 35.9667 5.61238 36.1862 5.36279C36.4861 5.02234 36.4954 4.86297 36.234 4.56686C35.8095 4.08584 35.4599 4.17684 35.5931 4.73377C35.6995 5.17901 35.4921 5.30647 34.3437 5.50185C33.9374 5.57081 33.7846 5.69447 33.8797 5.87716C33.9575 6.027 33.9625 6.08542 33.8911 6.0073C33.8194 5.92923 33.6329 5.89572 33.4767 5.93309C33.2009 5.99904 32.8199 5.60789 32.7093 5.14517C32.672 4.98932 32.7572 4.96779 32.9797 5.07681C33.423 5.29407 34.7664 4.87208 34.7976 4.50575C34.8114 4.34278 34.7265 4.06824 34.6086 3.89563C34.4419 3.65127 34.3409 3.65415 34.1516 3.9083C33.969 4.15371 33.8557 4.1815 33.6946 4.02036C33.5689 3.89446 33.2347 3.91961 32.8859 4.08113C32.5587 4.23261 32.2717 4.27467 32.2478 4.17478C32.1975 3.9643 31.0948 4.23514 30.5764 4.58533ZM64.1962 2.51531C64.225 2.63552 64.3462 2.71053 64.4655 2.68199C64.5849 2.65345 64.659 2.53174 64.6302 2.41153C64.6015 2.29131 64.4803 2.2163 64.361 2.24484C64.2416 2.27338 64.1675 2.39509 64.1962 2.51531ZM33.1468 12.251C33.1018 12.3888 32.882 12.5453 32.6583 12.5988C32.2124 12.7055 31.1132 14.779 31.2343 15.2854C31.2759 15.4594 31.2449 15.7162 31.1654 15.8558C31.0103 16.1288 30.9822 17.9712 31.1157 19.1242C31.3834 21.4343 31.4752 22.8593 31.3678 23.0354C31.3339 23.0913 31.436 23.3292 31.5947 23.5641C31.7594 23.8076 31.9617 24.8716 32.0655 26.0403C32.1655 27.1673 32.3768 28.7803 32.5349 29.6247C32.7678 30.867 32.7545 31.1911 32.4648 31.3228C32.2163 31.4356 32.1779 31.6035 32.3394 31.8729C32.6112 32.3264 32.0618 32.5703 31.6704 32.1701C31.2733 31.7641 30.6512 31.7948 30.4382 32.231C30.2985 32.5169 29.9923 32.6602 29.3916 32.7206C28.9243 32.7677 28.5084 32.9099 28.4669 33.0365C28.4257 33.1633 28.055 33.556 27.6434 33.9095C27.0991 34.3769 26.9279 34.6895 27.0156 35.0561C27.1216 35.4993 27.048 35.5687 26.4075 35.6308C26.0066 35.6696 25.5021 35.61 25.2861 35.4983C24.3223 34.9997 22.237 35.3362 21.07 36.1784C20.7916 36.3792 20.4681 36.5372 20.351 36.5294C20.1202 36.5139 17.7245 37.9064 16.1393 38.9777C15.5962 39.3447 14.8753 39.7835 14.5372 39.9526C14.1992 40.122 13.6308 40.5507 13.274 40.9056C12.9173 41.2604 12.222 41.8916 11.7286 42.3083C11.2355 42.7248 10.6768 43.3393 10.4872 43.6737C10.1621 44.2471 10.1667 44.2829 10.5678 44.3005C11.2923 44.3324 12.9697 44.1762 14.1214 43.9695C21.8678 42.5787 26.3904 41.5474 29.2214 40.5256C30.5472 40.0473 31.7756 39.5724 31.9513 39.4705C32.1269 39.3685 32.7842 39.1011 33.4115 38.8764C34.0391 38.6515 34.7108 38.3263 34.9039 38.1535C35.3757 37.7322 36.9596 37.4516 37.7852 37.6434C38.2719 37.7564 38.4921 37.9616 38.5969 38.3999C38.7423 39.0077 39.4976 39.8475 39.8278 39.7686C39.9266 39.745 40.1371 39.1375 40.2959 38.4183C40.4548 37.6993 40.7645 36.789 40.9842 36.3954C41.2039 36.0018 41.3861 35.4284 41.389 35.1211C41.3923 34.7494 41.6217 34.4212 42.0739 34.1404C42.4478 33.9082 42.7229 33.5899 42.6853 33.4325C42.5051 32.6791 45.3066 30.8376 47.4262 30.3164L48.8529 29.9656L47.9958 29.7391C47.5244 29.6145 47.0596 29.6131 46.9629 29.7363C46.8661 29.8593 46.1679 30.0849 45.411 30.238C44.5394 30.414 44.0012 30.6241 43.9422 30.811C43.8782 31.0144 43.6195 31.0999 43.1086 31.0857C42.3253 31.0641 41.9469 30.5337 41.6557 29.0487C41.5843 28.6845 41.1245 26.9747 40.6339 25.2493C40.1433 23.5238 39.3183 20.4913 38.8005 18.5103C37.954 15.2707 37.7803 14.8071 37.0715 13.8979C36.6383 13.342 36.2147 12.9038 36.13 12.924C36.0454 12.9442 35.7316 12.6554 35.4328 12.282C34.9513 11.6806 34.7949 11.6258 34.059 11.8017C33.6023 11.911 33.1918 12.1131 33.1468 12.251ZM56.5986 10.679C53.6671 12.6024 51.2031 15.6942 50.7544 18.0119C50.2286 20.7294 49.9419 22.4949 49.9412 23.0236C49.9406 23.3414 49.9017 23.8445 49.8545 24.1419C49.8074 24.4392 49.7314 24.9251 49.6856 25.2221C49.6401 25.5191 49.6128 26.0714 49.625 26.4498C49.695 28.616 49.6535 29.0053 49.3029 29.4646L48.9176 29.9695L49.5492 29.8184C49.8966 29.7354 50.2952 29.7357 50.4351 29.819C50.5748 29.9025 51.25 29.9414 51.9354 29.9055C52.6208 29.8698 53.3688 29.8666 53.5975 29.8985C53.924 29.9438 54.0079 29.8073 53.987 29.2649C53.9677 28.769 54.2448 28.2334 54.967 27.3714C56.2312 25.8625 58.2799 22.8615 58.2192 22.6077C58.1941 22.5026 58.536 21.6338 58.9788 20.6768C59.4218 19.7196 59.9126 18.4901 60.0697 17.9442C60.2266 17.3983 60.4726 16.8404 60.6163 16.7043C60.7601 16.5683 60.8464 16.3265 60.8082 16.1669C60.77 16.0072 60.851 15.726 60.9881 15.5416C61.1251 15.3575 61.2307 14.8791 61.2228 14.4787C61.2146 14.0781 61.301 13.4895 61.4146 13.1705C61.6931 12.3885 61.2259 9.58613 60.7584 9.23279C60.1987 8.81019 58.5999 9.36606 56.5986 10.679ZM23.802 28.8122C23.7491 28.9741 23.8269 29.1814 23.975 29.2731C24.1546 29.3843 24.2764 29.3418 24.3405 29.1455C24.3933 28.9836 24.3155 28.7762 24.1674 28.6846C23.9878 28.5734 23.8661 28.6159 23.802 28.8122ZM66.9388 28.1339C66.5629 28.2772 66.2725 28.4652 66.2931 28.5515C66.3138 28.6378 65.8994 28.9551 65.372 29.2563C64.0923 29.9875 61.4608 32.3261 61.5408 32.6607C61.5759 32.8074 61.4344 33.0792 61.2265 33.265C60.7383 33.7011 60.8194 34.048 61.3438 33.7668C61.5998 33.6296 61.8278 33.6672 61.9659 33.8695C62.0857 34.0451 62.258 34.1136 62.3491 34.0214C62.44 33.9294 62.5636 34.0598 62.6237 34.3111C62.6882 34.5808 62.5523 34.8971 62.292 35.0827C61.8591 35.3914 61.8613 35.3948 62.4175 35.2764C63.1961 35.1103 63.9213 35.6463 63.9146 36.3825C63.9114 36.7021 64.0197 37.0004 64.1551 37.0457C64.4557 37.1459 64.4613 38.0407 64.1643 38.529C64.045 38.7256 64.0031 39.1203 64.0715 39.4064C64.1399 39.6923 64.0486 40.0628 63.8688 40.2297C63.2923 40.7648 63.8015 40.7322 65.1795 40.146C65.917 39.8323 66.6621 39.5194 66.8349 39.4506C67.0077 39.382 67.2832 39.239 67.4471 39.1328C67.6109 39.0266 68.0574 38.7352 68.4393 38.4856C68.8212 38.2357 69.5496 37.8286 70.0581 37.5806C70.5666 37.3327 71.4089 36.7772 71.9298 36.3463C72.4509 35.9152 72.9925 35.535 73.1335 35.5013C73.2746 35.4676 73.4691 35.2775 73.5662 35.0792C73.6632 34.8806 74.012 34.5934 74.3414 34.4409C74.6709 34.2884 75.012 34.0122 75.0992 33.8273C75.1865 33.6426 75.4736 33.0541 75.7374 32.5196C76.1748 31.633 76.1821 31.4594 75.8219 30.5352C75.605 29.9782 75.0925 29.0034 74.6831 28.369C73.958 27.2447 73.909 27.2144 72.7568 27.1745C72.1064 27.1519 70.8875 27.2832 70.0481 27.4662C69.2087 27.6493 68.3194 27.8158 68.072 27.8361C67.8246 27.8567 67.3147 27.9906 66.9388 28.1339ZM48.9984 38.6311C48.5709 39.214 48.504 39.5242 48.6697 40.1588C48.947 41.2204 49.7157 42.3668 50.1001 42.2915C50.2701 42.2583 50.7049 42.246 51.066 42.2644C51.4545 42.2842 51.8933 42.161 52.1409 41.9627C52.3709 41.7783 52.9699 41.4024 53.4718 41.1271C54.441 40.5954 55.4812 39.7392 56.0593 38.9969C56.4084 38.5485 56.4072 38.5444 55.8163 38.255C55.4897 38.0949 54.6476 37.9349 53.9452 37.8997C53.2431 37.8645 52.3779 37.7927 52.0228 37.7401C51.6677 37.6876 50.9628 37.702 50.4561 37.7721C49.7092 37.8758 49.4333 38.0384 48.9984 38.6311ZM40.4313 45.1113C39.9954 45.6629 39.2803 46.3929 38.8422 46.7334C38.4041 47.074 37.9588 47.5306 37.8525 47.7481C37.7462 47.9657 37.5642 48.1664 37.4481 48.1941C37.332 48.2219 36.9817 48.5395 36.6698 48.8997C36.3579 49.2599 35.8731 49.7659 35.5923 50.0239C35.3115 50.2819 34.6345 50.9119 34.088 51.4239C33.5415 51.9359 32.6167 52.7238 32.0327 53.175C31.4487 53.6263 30.617 54.371 30.1843 54.8301C29.7516 55.2895 29.2617 55.6975 29.0957 55.7372C28.9297 55.7769 28.757 55.9222 28.712 56.0601C28.667 56.1979 28.4527 56.3531 28.2355 56.4051C28.0185 56.457 27.7637 56.6577 27.6691 56.8513C27.5745 57.0447 26.8757 57.7372 26.1164 58.3902C25.3569 59.043 24.3637 59.9642 23.9091 60.4376C23.4546 60.9109 22.9625 61.335 22.8155 61.3801C22.6687 61.4253 22.5719 61.5606 22.6006 61.6808C22.6294 61.801 22.5099 61.9336 22.335 61.9754C22.1603 62.0172 21.96 62.2719 21.8903 62.5416C21.8203 62.8111 21.5309 63.2345 21.2468 63.4827C20.6026 64.0455 19.28 66.0211 19.3503 66.3153C19.3791 66.4358 19.2616 66.8077 19.0892 67.142C18.9168 67.4762 18.7962 67.8354 18.8213 67.9404C18.9978 68.6783 23.0764 67.8222 25.3735 66.5651C25.8751 66.2905 26.4372 65.9969 26.6226 65.9128C26.91 65.7822 27.4761 65.3943 29.1609 64.1729C29.3222 64.056 29.8744 63.5589 30.3879 63.0682C30.9014 62.5775 31.7161 61.8161 32.1983 61.3761C32.6809 60.9363 33.0854 60.4581 33.0979 60.3135C33.1208 60.0439 34.9254 58.2344 35.8854 57.5185C36.1798 57.299 36.3826 56.9598 36.3361 56.7651C36.2895 56.5703 36.4687 56.2405 36.7343 56.0323C36.9999 55.8239 37.1823 55.5074 37.1396 55.3288C37.0968 55.15 37.2534 54.8339 37.4877 54.6261C37.9738 54.1944 40.2962 50.9674 40.3503 50.6485C40.3699 50.5327 40.5117 50.2624 40.6655 50.0481C40.8194 49.8339 41.3788 48.9835 41.909 48.1587C42.7209 46.8956 42.831 46.5781 42.6068 46.1462C42.4603 45.8642 42.2407 45.6002 42.1188 45.5595C41.9968 45.5187 41.8293 45.202 41.7465 44.8555C41.6636 44.5091 41.5122 44.1991 41.4098 44.167C41.3074 44.1349 40.8671 44.5597 40.4313 45.1113ZM59.8018 47.9323C59.9044 48.0348 60.0312 48.1085 60.0839 48.0959C60.1366 48.0833 60.1561 47.9746 60.1273 47.8544C60.0986 47.7342 59.9716 47.6606 59.8453 47.6908C59.719 47.721 59.6993 47.8297 59.8018 47.9323Z" fill="url(#paint0_linear_3494_23199)" fill-opacity="0.9"/>
<defs>
<linearGradient id="paint0_linear_3494_23199" x1="33.8557" y1="3.62737" x2="79.7294" y2="124.94" gradientUnits="userSpaceOnUse">
<stop offset="0.259577" stop-color="#6FAAA9"/>
<stop offset="0.718119" stop-color="#6FAAA9" stop-opacity="0"/>
</linearGradient>
</defs>
</svg>
