<?xml version="1.0" encoding="UTF-8"?>
<svg id="_Слой_1" data-name="Слой 1" xmlns="http://www.w3.org/2000/svg" viewBox="0 0 465.02 360.88">
    <defs>
        <style>
            .cls-1 {
            fill: #6a3f2c;
            }

            .cls-2 {
            fill: #d08657;
            }

            .cls-3 {
            fill: #e7a121;
            }

            .cls-4 {
            fill: #f5b07f;
            }

            .cls-5 {
            fill: #fff6e5;
            }

            .cls-6 {
            fill: #f49954;
            }

            .cls-7 {
            fill: #b16941;
            }

            .cls-8 {
            fill: #dd874b;
            }

            .cls-9 {
            fill: #e7a220;
            }

            .cls-10 {
            fill: #fbc74b;
            }

            .cls-11 {
            fill: #d15a1c;
            }
        </style>
    </defs>
    <g id="Nlo1N2.tif">
        <g>
            <path class="cls-6" d="M149.38,1.67c3.65-.52,7.55-.87,11.23-1.07l8.99-.45c8.46-.2,16.89-.2,25.35,0l40.03,4.01"/>
            <path class="cls-6" d="M234.98,4.17s48.51,7.39,71.18,14.6c67.37,19.97,142.48,62.49,154.99,136.7.1.6,2.88,18.63,2.88,18.63,0,0,.1,4.08.46,5.7.74,8.63.68,17.37,0,26-.32,1.29-.43,4.41-.42,4.58.1,1.65-1.06,15.14-1.46,15.92-.09.18-5.19,21.11-8.4,31.04-4.42,13.66-7.37,21.12-16.18,33.3-.8,1.04-1.1.79-.91-.46l-.41-.88c3.86-5.07,7.04-10.46,9.53-16.16-.24-1.67.28-5.82,0-6.67-1.44-3.17-1.09-12.05-1.37-12.77l-.67-1.04c-1.45-12.94-2.75-25.89-3.91-38.85l.47-1.16.5-.95c5.59-1.23,11.45-5.96,13.47-11.4,3.18-8.57-2.37-14.41-8.41-19.46-3.15-4.43-3.87-9.8-2.17-16.11,1.09-8.47-4.62-13.57-10.66-18.28-3.31-2.87-5.43-6.69-5.59-11.14.49-9.26.16-16.6-3.82-25.3-7.67-16.79-23.03-24.35-40.56-18.21-4.01-1.56-7.97-2.17-11.89-1.82-16.02,4.09-19.35,19.85-16.17,34.33.26,7.15-2.35,11.58-5.83,17.45-4.93,9.08,1.66,17.79,7.09,24.88,1.37,2.09,1.9,4.51,1.48,6.97-5.61,12.87-.73,28.28,14.56,30.29l.93.98.62,1.11c-1.42,4.33-2.51,8.73-3.27,13.2l-1,.74c-.08.43-.25.86-.67.88l-2,13.15c-.16,3.8-1.82,5.61-4.39,2.58l-11.55-13.54c-4.25-2.49-5.94-6.42-7.3-11-.79-1.12-.97-2.13-.55-3.01-.8-1.39-.95-2.45-.46-3.19-.78-.42-.95-1.42-.52-2.99-2.48-9.99-4.94-20-7.37-30.01-1.61.45-4.18,1.08-5.35-.3l-1.41-.94-5.47-11.93c-8.46-20.9-28.32-28.23-49.3-31.58l-1.76-1.17-1.28-.54c-1.57-3.14-1.78-6.3-1.75-9.72.01-1.64.7-12.95,1.14-13.47.14-.17.39-.24.68-.28,10.14,1.49,16.47-8.94,8.65-15.97l-.13-1.08-.56-1.14c4.69-12.54,4.5-26.94-10.94-30.31-8.75-14.91-26.25-8.62-37.31.17-11.25,3.41-7.53,10.79-3.25,19.06l.97,2.64.85.74c-.7,9.65-1.2,19.74.5,29.37,1.34,7.63,4.24,17.06,12.91,18.6l.8,1.02c1.62.18,1.02,2.29-.46,2.28l-.68,1.29c-6.98,2.4-13.98,4.75-21.01,7.04-11.34,4.66-15.64,10.4-18.97,22.09l-1.32.61c-.45,1.51-1.56.47-2.32-.4-2.62-3-7.49-15.59-6.44-19.38l1-.74c-.45-.14-.69-.44-.71-.9,3.34-5.09,7.1-13.98,1.47-18.58-4.36,1.03-6.63,1.55-11.28.58-10.07-3.76-21.98-5.3-31.16,1.57-4.38,3.27-14.47,15.64-16.73,20.81-2.83,6.49-1.45,13.6,1.15,19.93l8.38,17.99,1.19,4.74c1.09-.21,1.77.07,2.05.86,2.22.11-.12,1.68-1.91,1.3.16,3.32-.47,9.52-1.89,12.38-.23.47-.76.71-1.21.92l-.33.97c-8.31,2.17-16.29,6.01-23.85,10.04l-.91-.51c-.37.07-.82.08-1.02-.21-.73-1.07-1.11-2.26-1.47-3.52-1.7-5.97-2.87-12.95-3.45-19.09-1.01-.02-1-.48-.91-1.29-1.55.03-2.61-.46-3.19-1.45l-1.91-.77c-2.7-2.96-6.27-4.9-10.03-6.05-6.01-1.71-11.9-3.69-17.69-5.93l-.49-1.38c-1.49.7-3.85-3.4-2.4-4.23l8.33.12.78-.89,5.49.02c18.53-1.1,19.25-7.31,15.21-23.87-4.2-11.41-5.62-22.31-4.69-34.37.13-8.85-6.02-16.69-14.3-19.51-.34-.98-1-1.4-1.98-1.28-25.72-13.13-46.13,2.33-51.04,28.84-.52,10.12-2.83,18.33-8.36,26.62-7.72,20.26,9.14,24.18,25.13,24.13,1.01.36,1.19.86.46,1.67l-.38,1.01c-7.34,1.97-14.52,5.05-21.29,8.59-6.2,3.24-9.42,5.55-12.66,12.11-4.71,9.51-6.25,20.73-7.53,31.14l-1.02.97c-3.68-12.42-6.19-25.31-6.39-38.32-.08-10.66-.45-19.91-.46-29.7v-1.78C2.34,92.79,33.72,41.21,89.12,17.77c7.39-3.13,18.21-5.53,24.49-9.04,3.3-.93,33.92-6.8,35.76-7.05"/>
            <path class="cls-3" d="M174.75,206.24l1.02-.59c2.8,1.01,5.58,2.06,8.35,3.15l.22,1.09,1.82-.18c13.33,5.53,23.11,15.6,27.68,29.36l-.3,1.84,1.04,1.11c5.41,14.37,7.65,30.06,9.54,45.31.06.45-.03.92-.12,1.41s-.25.97-.42,1.44c.55.34,1.16.34,1.83,0l.38-1.01c3.43-.98,6.78-2.25,10.07-3.64l.96.55.59-.22c3.63,5.05,7.66,9.8,12.09,14.27l.1,1c.34.34.72.73.75,1.22.28,3.76-4.87,10.25-7.33,13.03s-5.25,5.83-8.48,7.19c.07.33.17.8-.05.96-8.72,6.38-16.12,9.5-27.03,4.77-1.76-.76-5.61-3.97-5.77-5.72l-1.08-.81c-4.68-8.93-8.29-19.54-9.42-29.3-.33-.31-.49-.31-.46,0l.61.25c-.82,8.88-1.68,17.99-2.59,27.35l-.76,2.05c1.14,3.86.67,9.04-.91,12.77,1.36,1.08,1.53,5.03,0,5.93,1.57,1.46-.08,4.67-1.08,6.34-2.31,3.84-8.21,7.3-12.6,7.81-22.51-2.42-49.4-11.19-70.72-20.07-1.16-2.43-1.43-7.27,0-9.58-.95-3.03-1.18-6.2-.69-9.53-1.94-.11-5.53-1.89-6.16-3.7-5.67-3.5-6.46-13.26-6.39-19.51.16-14.15.49-28.03,3.45-42.02.12-.57.37-1.11.63-1.65s.6-1.07.94-1.59c-.17-.31-.32-.63-.42-.97s-.17-.63-.11-.9c2.23-9.47,5.5-18.48,11.89-25.98,2.88-3.39,7.13-8,11.46-8.64,4.55-2.81,20.16-9.91,25.1-10.49.25-.26.51-.51.8-.7,2.1-1.39,11.38-.09,14.33.44,3.71.67,13.18,2.9,16.04,4.74.55.36.95.86,1.23,1.45Z"/>
            <path class="cls-10" d="M52.02,168.38l.99.77c.8,11.98,25.33,19.82,23.22,2.79l.88-.83c2.25,1.96,17.44,5.7,21.75,7.68,3.54,1.62,5.86,3.48,8.37,6.46l-.56.87c-4.24-.24-8.47-.13-12.68.34l-4.63,14.22-1.28.99-.72,1.17c-3.74,1.15-6.79,3.53-9.02,6.69-3.31,5.25-7.18,10.07-11.72,14.32-.92,1.64-1.98,2.76-3.18,3.36-1.16-.44-2.14-.49-2.95-.16-5.48,4.29-11.19,8.14-17.13,11.56-.54.3-.38.45.46.46,5.72-4.26,11.79-8.75,17.95-12.47,2.17,4.9,4.7,9.43,9.31,12.53,1.01-.14,1.34.14,1.8.99.89,1.64-2.03,5.57-3.04,6.92-2.73,3.65-6.58,8-10.06,10.73.39.13.39.28,0,.46l-.46.46.13,1.19c-7.53,7.35-15.6,14.75-25.09,19.45l-1.04-.57c-6.11,2.23-13.09,2.32-17.82-2.49-10.1-10.27-10.01-40.42-8.65-54.08,1.16-11.68,4.32-32.01,13.13-40.16,4.85-4.49,23.28-12.51,29.76-13.67.51-1.35,1.7-1.26,2.28,0Z"/>
            <path class="cls-7" d="M403.8,290.17c1.08,2.49-.48,7.19-2.74,8.67.41,1.54-.07,3.09-1.43,4.66-8.1,13.21-27.42,17.86-41.45,21.22l-1.32,19.87-.97.78c-4.8,1.6-10.18,3.21-15.06,4.56l-.6-.86c1.41-7.01,1.35-14.52.55-21.61-9.04,1.14-18.03,2.39-27,3.76l-1.24-.44c-1.03.38-2.06.73-3.12,1.02s-2.1.57-3.16.7c-36.85,4.7-75.72,5.77-112.81,3.64-1.07-.06-2.14-.26-3.2-.47s-2.13-.49-3.19-.79c.18-4.37.59-8.52.91-12.77l.97-.69c3.88.25,7.77.28,11.69.1l1.03,1.06c.86.16,3.75,3.63,5.64,4.63,5.79,3.08,11.87,3.16,17.94.93,2.61-.96,7.73-5.32,9.27-5.56l2.01-1.1c42.11.51,86.62-3.47,128.17-13.56,12.07-2.93,25.14-7.05,34.15-15.62l2.21-1.19c-.09-1.32,2-2.12,2.74-.91Z"/>
            <path class="cls-2" d="M94.45,247.3c-2.95,14.15-4.38,29.04-4.14,43.57.12,7.6.42,15.26,5.51,21.21l-1.44.52c-7.82-1.64-16.58-3.77-24.31-5.91-9.54-2.64-21.12-5.89-26.75-13.6l-.43.29c-3.61-4.53-7.44-9.14-9.58-14.6,7.16-2.61,20.62-14.33,26.01-20.07l.46-.46c.08-.08-.08-.37,0-.46,1.05-.64,2.05-1.36,2.99-2.15l.66.32c.34-.84,1.32-1.52,2.14-2,3.77-2.23,23.82-8.55,27.95-7.65l.94.99Z"/>
            <path class="cls-6" d="M312.55,330.77l-.06,2.19c-3.32,6.87-5.55,14.26-6.19,21.89l-1.05,1.93-1.26.88c-16.81,1.98-33.78,3.17-50.76,3.22l-1.01-.5c-1.79-21.61-24.89-21.05-41.91-20.34l-22.26,1.65-.99-.88c.17-1.89-.08-4,0-5.93,41.82,2.47,83.99,1.45,125.48-4.11Z"/>
            <path class="cls-1" d="M437.11,290.17l.91.46c-19.99,27.61-50.17,44.1-82.13,54.74l1.42-21.39c6.65-1.48,13.38-3.18,19.77-5.55,10.13-3.77,19.7-9.42,23.98-19.59l1.99-1.18c11.31-2.19,22.42-4.62,33.2-8.07l.86.58Z"/>
            <path class="cls-1" d="M187.07,340.81c15.97-.4,50.67-7.27,61.71,7.4,1.27,1.69,3.14,5.78,3.5,7.04s.68,4.17.94,5.64c-21.49.06-43.43-1.86-64.79-3.65-.56-.63-1.32-.78-2.28-.46-1.23-.11-2.42-.33-3.65-.46-.61-.28-1.25-.38-1.83,0-.15,0-.3,0-.46,0l-1.37-.46c-.6.01-1.23.05-1.83,0-.28-.47-.74-.62-1.37-.46-1.01-.05-1.64-.39-2.28-.46,6.68-3.52,12.91-5.66,13.69-14.14Z"/>
            <path class="cls-1" d="M340.84,349.93c-7.83,2.16-15.95,4.52-23.99,5.89-3.83.65-7.81,1.19-11.6.95.53-9.46,3.06-17.62,7.3-26,9.57-1.28,19.2-3.71,28.78-4.36,1.26.93,1.27,20.74-.49,23.52Z"/>
            <path class="cls-7" d="M95.82,312.07c2.19.69,4.08,2.57,6.38,3.19-.5-22.49.8-44.89,2.77-67.26l1.8-3.9-3.14,38.59c.39,14.19-.93,28.41-.97,42.6-.07,1.81-4.06.94-5.45.58-9.73-2.53-19.67-5.24-28.77-9.7-10.6-7.39-17.36-12.55-25.55-22.81-.14-1.45.3-.91.93-.23,11.05,11.8,37.16,14.3,52,18.94Z"/>
            <path class="cls-6" d="M68.44,316.18c9.23,2.55,18.36,6.43,27.72,8.55,1.72.39,4.77,1.02,6.5.58,0,3.19.32,6.43,0,9.58-13.34-5.56-22.47-10.5-34.22-18.7Z"/>
            <path class="cls-7" d="M186.16,356.77c.87-.81,2.72-.85,2.28.46-.93-.08-1.72-.41-2.28-.46Z"/>
            <path class="cls-7" d="M178.86,355.86c.34,0,1.61-1.41,1.37.46-.51-.03-1.11.13-1.37-.46Z"/>
            <path class="cls-7" d="M175.67,355.41c.12,0,1.59-1.45,1.37.46-.48-.04-.94-.26-1.37-.46Z"/>
            <path class="cls-7" d="M182.51,356.32c-.6-.06-1.22.02-1.83,0,.27-.77,1.37-.54,1.83,0Z"/>
            <path class="cls-11" d="M271.94,126.87c10.35,1.32,22.08,4.79,31.47,9.36,14.26,6.94,20.39,22.57,26.47,36.25,1,.61.52,1.21-.46,1.63-4.46.77-8.82,1.92-13.07,3.43l4.17,14.11-.68.9.58.93c-3.23,4.28-1.6,10.56.03,15.31,2.76,8.02,6.97,11.98,14.08,16.6l.37,1.38c.2.15.39.31.55.49,1.5,1.81-6.1,11.22-8.76,11.37l-1.92.83c-13.44.42-26.87.45-40.29.07-3.34.07-6.15-.69-8.44-2.26l-2.79-.23-.04-.76c3.1-4.52,3.5-12.29-1.46-15.62-3.66-2.46-19.66-6.28-24.32-7.01-6.68-1.04-9.37.03-13.6,5.34l-1.14.02c-.01.31-.05.56-.17.61-1.64.72-10.69-3.86-10.73-5.07,0-.18.17-.37.41-.56-1.15-.81-1.64-2.41-1.48-4.8-.11,2.48-.83,3.47-2.17,2.98-.44.05-.77.09-.75.12,1.12,1.2,6.63,4.4,8.41,5.36,2.07.7,3.77,1.61,5.11,2.73.66,1.5,1.61,2.83,2.85,4l-.11,1.02c1.06.76,1.06,1.22,0,1.37l-.5.87c-3.86,0,1.74,2.91,3,3.37l9.16,4.23.21,1.11c0,.38-.14.7-.46.7l-16.59.13c-.05,1.46-.45,2.4-1.2,2.82l-1.08.98c-3.95-.08-7.87.11-11.77.58l-1.3-.65c-6-16.68-13.42-23.96-29.2-31.02l-.84-.63,1.23-10.23.98-.54c.02-.4.15-.89.49-.95,5.72-1.1,6.5-3.37,7.8-9.05.49-5.67.74-11.32.76-16.94,7.77-.27,12.17-3.29,5.41-10.13-.8-1.07-.97-2.38.59-2.16,2-3.79,2.53-7.7,4.65-11.54,7.22-13.02,24.88-13.91,37.32-19.48,1.21.12,1.43,1.12.46,1.82l1.04.68c.63,15.64,26.49,11.05,28.97-.54-1.31-1.17-1.73-2.29-1.26-3.34Z"/>
            <path class="cls-11" d="M248.67,237.72c-.44,1.28-1.38,1.26-1.83,0-1.46-.13-2.29-.31-.91-1.37.9-1.2,3.08-.15,2.74,1.37Z"/>
            <path class="cls-11" d="M373.69,204.87c-11.48-.53-19.63-10.75-18.73-22.14.45-5.66,4.4-9.7,1.25-15.16-1.31-2.27-4.93-6.4-6.42-9.29-8.05-15.56,3.48-18.73,4.7-30.3.57-5.42-1.57-12.32-.85-18.64,1.15-10.25,9.96-20.26,20.8-20.61,3.2-.1,7.33,2.16,9.06,2.15.92,0,4.93-1.49,6.52-1.73,20.5-3.2,34.23,12.13,38.3,30.77,1.37,6.27-.04,10.59.57,16.3,1.2,11.09,12.82,11.56,15.66,22.2,1.88,7.02-1.69,12.71.43,18.73,1.39,3.93,7.7,7.24,9.58,10.98,3.7,7.38,1.84,14.47-4.22,19.71-2.4,2.07-6.42,4.7-9.59,4.79l-1.1-1.47c-1.51-17.08-9.43-32.51-27.98-34.77l-1.48-1.16c-2.2,1.26-6.75-.11-9.29-1-9.24-3.24-10.57-10.45-11.2-19.17-.24-3.34-.79-11.79,1.72-13.99,6.55-1.44,8.98-16.76-.21-13.8-15.33,9.2-24.9-10.96-24.33-23.8-3.51,3.21-6.63,7.38-7.03,12.24.33,7.91-.14,14.83-5.03,21.52-1.57,3.02-.35,5.11,3.67,6.28,1.72,1.21,3.04,5.13,1.51,6.62,1.51.3,1.98,4.54.91,5.47l1.06.49c1.26,9.09,6.43,10.91,14.63,7.73,3.35-.85,3.69-.22,4.96,2.49,1.06,2.28,4.03,18.16,1.51,18.53-.23.03-.47,0-.72-.04l-.66,2.75c-2.78,5.03-4.89,10.39-6.61,15.87l-1.4,1.44Z"/>
            <path class="cls-5" d="M410.19,175.22c21.71,3.13,28.08,16.52,30.57,37.4,1.5,12.58,3.43,28.55,4.11,41.05.33,1.09,1.25,9.42,1.37,12.77.33,1.28,1.09,6.54.65,8.18-.36,1.35-8.94,15.01-9.77,15.54-2.02,1.29-17.79,4.93-21.35,5.8-4.81,1.17-9.76,2.3-14.7,2.87,1.18-2.8,2.18-5.66,2.74-8.67l.7-1.07,10.36-1.68c7.91-1.83,10.75-4.03,13.09-11.97,3.63-12.28,5.79-25.85,6.82-38.54-5.26.53-22.83.68-26.51-2.07-.3-.22-.56-.5-.81-.78l.91.42v28.68l-.91.55c.01.37.02.93-.24,1.03-2.17.82-13.84,4.67-15.28,4.67l-.9-.68-.91-.61c-1.55-5.46-3.88-10.68-6.97-15.66l-.33-2.43-1.43-.7c-4.85-7.44-10.06-15.98-11.35-24.84-.17-.67-.17-1.43,0-2.28-1.07-.28-.99-1.99,0-2.28.38-4.26,2.36-10.84,3.65-15.05,2.09-6.86,4.74-14.03,8.67-20.07l.88.51c-.27,8.17,4.9,6.43,10.09,3.37,6.25-3.69,11.73-8.68,16.86-13.46Z"/>
            <path class="cls-1" d="M68.44,116.38c1.75-2.58,8.76-2.3,9.45.7,1.13,4.91-5.56,3.29-8.23,2.35-2.76.5-3.62.1-2.58-1.22"/>
            <path class="cls-1" d="M86.1,87.35c.87.52,2.37.95,3.43,1.68,15.83,10.85,9.76,20.58,11.33,35.76.95,9.24,10.93,29.21,4.38,37.06-4.72,5.66-15.56,5.32-22.21,5.17-2.18.22-4.16.06-5.93-.46-1.4-.18-1.33-3.35,0-3.65l1.08-.89c17.38-.92,20.62-23.94,19.39-37.68-.68-7.57-2.13-9.59-7.5-14.75-4.05-3.42-7.98-6.95-11.77-10.6-.83,6.37-4.42,13.82-9.87,17.39l-.46.91-.91.91c.05,1.31-.81,2.47-2.58,3.47-6.77,5.61-11.72,5.96-19.97,3.81-6.76,3.88,1.08,17.37,7.91,16.34,2.04,1.15,2.14,14.13,1.88,16.83s-.81,6.53-1.4,9.04l-.89.68c-.72.08-1.61-.12-2.28,0-.33-1.04-1.18-.88-2.03-.94-11.87-.8-26.04-.59-26.29-16.62-.15-9.46,6.43-13.93,8.21-21.48,1.35-5.71,1.34-12.08,2.9-18.08,6.46-24.82,27.46-37.4,51.31-25"/>
            <path class="cls-10" d="M173.21,84.74c-1.85,3.28-7.97,5.91-11.7,5.18l-.46,10.04c-3.09-1.04-5.86-2.68-8.63-4.37-1.34-.82-7.49-5.54-8.04-5.65-8.92-1.72-30.57,4.51-34.54-6.07-1.45-3.86-1.27-27.33-.83-32.51.63-7.34,3.4-10.12,10.72-10.72,11.64-.95,29.74-.86,41.49-.39,7.34.29,12.63,2.54,13.5,10.68.69,6.5.72,22.25.01,28.73-.12,1.1-1.02,4.15-1.54,5.08Z"/>
            <path class="cls-4" d="M228.25,76.99c-1.33-1.41-.57-8.95.6-9.68,7.02,2.8,14.7,3.77,21.91.92l9.95-4.5c1.65-.56,2.46.55,2.43,3.34,3.34,8.34,5.74,15.66,6.17,24.59.05,2.07.63.98,1.75-3.27,1.15-3.56,6.64-5.23,8.3-1.82,4.03,1.75,5.08,7.22,4.05,11.12-1.47,5.55-7.55,7.35-12.72,6.67.74,8.9-2.99,14.91,1.37,23.27,1.69,3.25,3.95,2.8.69,7.31-4.13,5.71-12.85,8.04-19.57,7.23s-8.88-4.97-9.87-11.34l1.16-.79c7.4.68,14.79-2.52,18.71-8.94-3.06,1.82-15.89,8.43-18.82,6.6l-1.05-.98c-18.42-1.64-16.1-37.38-15.06-49.72Z"/>
            <path class="cls-4" d="M68.44,116.38c3.52-4,6.74-9.07,8.46-14.13.51-1.5-.26-3.72,1.57-4.57,4.03,5.21,16.8,13.29,18.67,19.43,4.38,14.42.61,46.84-20.03,45.79l-1.04.82c-5.05-1.09-9.48-3.52-13.31-7.29,2.82,4.8,8.05,8.97,13.73,9.14l.61.97c2.15.25,3.74.41,5.93.46l-8.21.46c-.17.13,2.12,3.5,2.28,3.65.31,7.19-.71,11.64-8.87,11.41s-15.66-5.87-16.22-14.15c-.19-2.81,1.19-6.69,1.39-9.79.14-2.22.04-15.22-1.38-16.01-.55-.3-1.43.36-2.27.06-5.12-1.84-9.51-8.71-8.57-14.06,1.27-7.21,7.34-2.58,11.52-2.58,4.91,0,11-4.47,14.37-7.79-.07.21.03.63,0,.91,2.77-2.22,8.14,2.31,9.6-.2,2.25-3.86-5.92-3.96-8.24-2.54Z"/>
            <path class="cls-8" d="M178.86,136.45c-.07-.4-.05-.87.28-1.05,6.65-3.62,10.22-5.08,13.87,3.33-.93,6,3.07,14.58,6.18,19.6.56.91,1.53.85,1.58.92.03.05-.54.58-.13,1.23,1,1.55,3.09,3.3,3.56,5.14,1.48,5.73-4.55,6.68-8.91,6.4.21,7.12,1.8,23.41-6.83,26.25-1.04.34-1.88.07-2.75.21-1.12,1.66-5.87,1.71-7.3.46l-7.66-3.97c1.28,1.72,2.93,3.24,5,3.86l.38,1.02c1.45,1.31.88,5.66-1.37,6.39-10.35-3.99-21.03-7.28-32.4-5.93.91-3.01,1.71-6.74,2.24-9.85s-1.6-4.92,3.01-4.29l-.24-.46c-1.11.02-1.12-.54-.44-1.4,4.18-1.46,8.48-3.91,10.71-7.54-8.07-2.16-11.54-16.87-2.8-20.03,4.61-1.67,8.74,1.61,9.99,6.01l.38-4.74c2.16-5.71,2.56-11.28,1.21-16.72l.58-1.2c-.02-.84.14-1.45.46-1.82.06-.25.13-.45.21-.46.97-.07,8.52-.46,8.84-.15.15.15.24.37.3.61-.98-1.53,3.48-1.26,2.96-.92-.08.05-1.87-.44-.91-.91Z"/>
            <path class="cls-1" d="M147.38,185.72c-.33.09-2.64.09-2.73,0-.2-.19-.9-4.17-1.36-5.25-6.34-15.12-18.6-29.97-5.05-45.62,2.13-2.47,2.61-3.22,4.61-5.9,7.78-10.4,15.37-14.26,28.88-12.95,5.77.56,11.32,4.3,17.29,3.47,2-.28,3.31-1.91,5.63-.85,3.27,1.5,3.07,9.41,2.24,12.37-.68,2.41-3.57,5.73-3.88,7.75-2.14.2-2.31-3.26-3.86-4.58-2.89-2.46-7.27,1.47-10.29,2.3-.4.92-3.39,1.78-4.33.91-1.61.79-5.59.75-7.3,0-.67,1.29-1.25-.5-1.18-.43.9.8,1.58,2.16.95,3.17,2.75,8.39.61,10.3-.88,18.05-.11.55-.33,9.93-1.85,7.95-.31-13.61-17.16-10.6-12.95,2.68,1.34,4.22,4.08,6.78,8.38,7.58-4.22,4.4-6.32,6.82-12.21,8.57-.2.06-.07.77-.11.78Z"/>
            <path class="cls-4" d="M332.17,192.1c-1.71.06-1.71.21,0,.46,2.65-2.4,3.88,2.38,3.52,4.76,2.53,1.27,3.7,4.99,3.75,7.67.95-.13,1.56.14,1.85.8,1.07.51,2.46,1.98,2.28,3.19,2.33,3.44,2.15,6.93,4.86,10.36,1.07,1.36,2.88,2.17,3.65,3.03,4.33,4.85,8.49,9.98,12.72,14.9l1.13-.28c.91-5.29,1.69-10.67,2.75-15.93.24-1.18-.54-1.27,1.35-1.13-.07.74,0,1.53,0,2.28-.28,1.78-.28,2.54,0,2.28.24.06.62-.04.91,0,1.08,9.52,7.42,17.29,11.87,25.54,1.52,6.21-4.35,16.88-10.27,19.23-6.62,2.63-11.76-2.39-15.55-7.26-4.38-5.64-8.18-12.38-11.68-18.69-.18-.33-.25-.72-.31-1.12s-.07-.84-.06-1.27l-1.48-.74c-2.01-4.21-4.31-8.21-6.9-12-1.15-.14-1.71-.6-1.66-1.4-5.8-4.1-11.94-8.24-14.61-15.27-.65-1.7-2.73-10.71-2.77-12.32-.07-2.52,1.38-4.47,2.33-6.62.45-1.39,3.61-2.79,5.15-3.37,2.3-.87,8.26-2.78,8.92.96.18,1.04-.59,2.65-1.75,1.96Z"/>
            <path class="cls-1" d="M228.14,76.24c-1.03.18-1.5-1.69-1.88-2.45-2.1-4.14-4.96-9.46-4.03-14.18.64-3.25,5.99-4.64,8.3-6.2,10.1-6.83,19.98-12.98,32.58-5.73,3.18,1.83,4.29,5.33,5.32,6.08.66.48,4.2,1.19,5.86,2.12,10.95,6.15,8.57,20.03,4.96,29.94-4.98-2.16-6.72-.3-8.29,4.26-.45,1.3.05,4.21-1.76,2.83-1.68-1.28-1.68-10.24-2.09-12.51-.93-5.13-5.49-11.02-5.2-16.93-5.31,1.89-10.81,5.75-16.66,6.37-5.34.57-11.66.28-16.18-2.72-.62,3.02-.66,6.07-.92,9.12Z"/>
            <path class="cls-10" d="M117.26,210.8c-13.63,8.42-19.66,21.37-22.81,36.49-3.81-.44-7.34.69-10.97,1.58-5.99,1.47-14.66,4.27-20.06,7.09-.79.06-1.06-.34-.57-.92,4.08-3.92,7.38-8.26,9.89-13.01-.18-1.56.06-2.69.72-3.4l.2-.95c4.33-3.04,8.46-6.38,12.37-10.03l11.6-7.03c5.41-3.35,9.87-9.82,8.23-16.39l.9-.72c-.8-.95-.81-2.23-.04-3.83l3.48-10.9,1.13-.78c2.09,5.96,2.87,13.93,4.69,20.17.24.84,1.06,1.7,1.24,2.64Z"/>
            <path class="cls-5" d="M335.56,171.59l.5.42c1.45,10.12,5.79,20.52,7.42,30.47.25,1.52-.42,2.45-.36,3.3-.54,1.23-1.27,1.17-1.83,0-5.34.86-2.28.28-2.72-1.99-.04-.21-1.08-3.05-1.35-3.75-.59-1.5-2.2-1.91-2.32-2.35-.41-1.44.64-5.23-2.73-5.15-.4-.13-.39-.28,0-.46,2.24-2.73-.34-3.45-3-3.23-3.43.29-6.15,2.81-9.32,3.69l-4.58-15.26c.66-1.45,11.71-3.57,13.83-4.02"/>
            <path class="cls-5" d="M107.22,185.26c1.23.12,2.46.4,3.67.67.74.5.27,1.59.44,2.07-1.05,4.77-3.82,10.87-4.56,15.51l-1.29.27c-4.94-2.72-10.88-2.69-16.26-1.45l-1.15-.64,5.21-16c.99-.66,12.07-.61,13.95-.42Z"/>
            <path class="cls-8" d="M243.19,125.96c9,.8,14.13-4.35,21.89-7.53-3.7,8.53-12.72,12.9-21.89,11.64-.07-.44-.47-.7-.46-1.82,0-.43.76-1.52.46-2.28Z"/>
            <path class="cls-8" d="M343.12,205.79c.04.62,1.55,2.23.46,3.19-.61-.9-2.71-1.8-2.28-3.19.56-.09,1.24.06,1.83,0Z"/>
            <path class="cls-2" d="M326.69,238.63c1.42-.82,3.06-.98,4.9-.46,4.29.38,9.61.94,13.35,2.74,3.1,5.11,5.96,10.63,9.29,15.57,2.92,4.33,7,10.55,12.04,12.14,9.79,3.08,15.86-10.89,16.54-18.58,2.07,3.84,8.54,14.8,8.21,18.7,1.12.07,1.2.87.65,1.78s-17.45,6.09-19.87,6.79c-1.98,1.05-4.2,1.46-6.68,1.24-10.75-.57-18.54-.76-28.19,3.91-2.27,1.1-15.55,8.19-15.26,10.41,1.44.63,2.21,1.4,2.29,2.32,1.17-.23,1.19.07.46.91,1.77-.18,4.05.44,5.48,1.37.95-.27,1.71-.11,2.28.46l3.16-.58c9.66,1.43,18.75.96,27.83-2.51,11.53-1.56,23.15-2.95,34.87-4.17l3.03.41c-5.57,7.35-17.26,12.12-26,14.83-33.87,10.52-82.73,15.12-118.39,16.66-6.61.29-16.08-.97-22.15-.02,5.97-6.21,14.08-12.25,15.06-21.44l.77-.82c3.9-.53,7.55-2.22,10.96-5.04,5.46-2.44,11.52-4.11,17.25-5.55l.68-1.32c-1.92.3-2.85-2.8-1.36-3.69-1.7-1.69-4.21-2.81-7.54-3.35-.5-.63-.07-.97.7-1.21-2.48-.4-4.79-1.16-6.93-2.28l-.38-1.09c-1.93-1.11-10.07-1.68-12.09-.72-4.29,3.67-8.78,7.1-13.47,10.31l-1.36-.3c-1.82.94-9.55,3.82-11.41,4.11-.53,1.28-1.27,1.24-1.83,0-2.19-16.33-4.43-33.69-10.04-49.26,4.68-1.17,9.46-.53,14.14-.91l1.82-1.09c2.93-.57,14.38-2.4,16.34-1.74.36.12.69.32,1.01.55.61-.03,1.22.03,1.83,0l.69-.91,4.09.5c7.59-.61,15.12-.62,22.6-.04,15.53,3.64,34.72.49,50.65,1.37Z"/>
            <path class="cls-8" d="M236.81,286.07c4.05-2.09,8.34-6.11,11.73-8.68.51-.39,2.62-2.17,2.78-2.23,2.68-.99,10.87-.43,13.19,1,.25.15.05,1.08.18,1.15.57.36,1.78-.19,2.2.14.15.12-.11,1.08.07,1.24.16.14,2.82.82,4.06,1.44-.53,1.47-3.66.75-4.11-.46-7.98-1.23-7.98-1.08,0,.46,3.54,1.01,7.04,2.24,10.51,3.7l.44.86c.19.64.38,2.62.48,2.71.3.26,1.99-.17,2.25.03.18.14-1.17,2.86-1.35,2.97-.68.43-1.86.04-2.74.45-4.69,2.17-8.53,2.47-13.02,4.32s-8.61,6.83-13.91,5.94c-2.54-.43-10.86-12.29-12.78-15.05Z"/>
            <path class="cls-2" d="M191.18,292.46c1.5-.22.77,1.93,1.11,3.22,2.42,9.25,5.08,18.32,9.38,26.88-3.95-.74-9.49.79-13.69-.46.64-8.43,1.18-16.5,1.8-24.88.12-1.56,1.15-2.25.93-4.77.13-.4.28-.39.46,0Z"/>
            <path class="cls-6" d="M185.7,198.49l-1.37,11.4c-2.33-1.04-6.67-2.53-9.58-3.65-.5-1.2.77-1.32.88-1.71.26-.97.21-4.1.49-4.67-.74-1.53,1.54-2.25,2.28-.91,2.35-.32,4.6-.04,7.3-.46Z"/>
            <path class="cls-7" d="M190.72,292.46c-.22-2.58-1.27-2.29-1.66-3.64-2.74-9.57-6.2-21.82-8.49-32.62-.04-.19-2.49-2.59.34-2.52l10.27,38.78h-.46Z"/>
            <path class="cls-7" d="M225.4,290.17c-1.38,3.66,1.95,10.22,1.73,13.56-.04.66-.33,1.08-1.04,1.04-.93-.06-2.28-12.84-2.51-14.6.59-.06,1.26.09,1.83,0Z"/>
            <path class="cls-4" d="M106.77,203.51c-.15.93.65,2.43.46,3.86-1.61,12.48-11.28,14.71-20.05,20.58-2.67,1.79-11.66,10.78-13.72,10.69-1.33,1.86-5.47-2.49-6.85-4-1.46-1.6-4.17-5.49-3.19-7.41,1.4-3.93,5.78-6.84,8.65-10.4,5.24-6.51,6.65-12.53,15.99-15.15,5.86-1.64,13.57-1.67,18.71,1.82Z"/>
            <path class="cls-3" d="M63.42,227.23c1.57,3.47,2.39,5.61,5.48,8.43.99.91,3.46,2.92,4.56,2.97,1.21,6.44-5.46,11.3-9.37,15.73-.47.53-.94.54-.67,1.6-1.3.68-1.97,1.8-3.65,1.82,2.08-2.26,12.1-13.84,12.33-15.73.39-3.1-.67-1.6-1.51-2.16-3.8-2.56-8.39-7.98-9-12.67-5.99,3.44-11.35,9.25-17.79,11.86-.65.18-.77.17-.46-.46,3.11-3.13,8.62-6.15,12.58-8.86,1.79-1.22,5.86-6.16,7.49-2.55Z"/>
            <path class="cls-3" d="M36.96,214.91c.04-4.1-.03-8.22,0-12.32l1.37.28-.92,24.82c-.15-4.23-.3-8.49-.46-12.77Z"/>
            <path class="cls-9" d="M44.96,238.22c-.09.55-6.88,5.04-7.36,5.36-2.13.58-13.23,9.66-14.08,9.67-.38,0-.77-.04-1.16-.03-.72-.6,7.09-6.06,8.08-6.75l12.91-7.85"/>
            <path class="cls-9" d="M37.41,227.68c0,4.56,0,9.13,0,13.68-.68.46-1.04-.46-.46-.91.06-8.51-.08-17.04,0-25.54.84,4.07.45,8.61.46,12.77Z"/>
            <path class="cls-3" d="M59.32,258.7l.46-.46c-.15.16-.31.3-.46.46Z"/>
            <path class="cls-4" d="M391.03,268.74l16.43-5.02v-29.65c9.27,1.86,18.8,3.19,28.29,1.83.02.68.04,1.36,0,2.04-.67,10.29-4.46,30.03-7.53,39.91-3.47,11.18-14.41,10.31-24.4,12.33-1.38.28-1.39.67-2.74.91-11.1,2.02-21.91,2.5-33.02,3.71-5.56.61-11.39,3.51-16.96,4.03-6.01.56-12.93-.25-18.92-.9l.09-1.04c7.83-3.82,7.04-3.63-2.37.59-1.67.78-4.17-.62-5.48-1.37l-.46-.91c-.26-.19-2.89-1.08-3.15-2.09-.91-3.49,18.48-13.14,21.78-14.18,8.86-2.77,18.09-.58,27.2-1.55,2.41-2.03,20.46-6.48,21.18-7.34.23-.28.03-.9.07-1.29Z"/>
            <path class="cls-4" d="M232.7,219.01c1.42-2.12,5.1-5.67,7.55-6.36,4.96-1.4,16.67,2.2,21.83,3.72,2.55.75,7.4,1.94,9.86,3.33,5.52,3.13,5.76,12.42,1.83,17.1.87-.18,1.57.29,2.28.46-7.48.46-15.09.75-22.59.96-1.57.04-3.03-.57-4.79-.5-.76-.74-1.83-.92-2.74-1.37-2.31-1.13-12.42-5.53-13.52-6.55-2.04-1.89-1.15-3.36,1.66-3.03.4-.29.4-.75,0-1.37-1.3-.74-3.95-3.64-2.74-5.02.07-.62.53-1.08,1.37-1.37Z"/>
            <path class="cls-4" d="M245.93,236.35c.08.03.14,1.25.91,1.37-6.41.32-12.77,1.76-19.16,2.28-.05-.77-.06-3.42.77-3.67s16.65-.25,17.49.02Z"/>
            <path class="cls-6" d="M334.91,226.77c.48.34,1.76.11,2.49.93,2.04,2.27,5.7,10.17,7.55,13.21-6.04-.57-12.21-1.95-18.25-2.28,3.04-3.7,7.67-6.72,8.21-11.86Z"/>
            <path class="cls-1" d="M299.31,162.91c-1.57,16.85-1.77,34.19,2.8,50.57.61.42,10.84-1.92,12.53-2.18.52-.08,2.73-.53,2.47.64-2.62,1.81-6.09,1.21-8.83,1.67-9.95,1.64-19.81,3.57-29.95,4.04v-1.36s22.35-2.29,22.35-2.29c-3.37-14.99-5.11-31.33-3.18-46.74.16-1.25.16-4.46,1.81-4.34Z"/>
            <path class="cls-1" d="M217.18,162.45l3.65,44.24c-1.28.15-.72-.07-.9-.68-2.14-7.29-3.36-22.63-3.69-30.54-.13-3.14-.43-9.5.02-12.35.09-.6.23-1.37.91-.67Z"/>
            <path class="cls-1" d="M218.56,212.17c1.18-.76,2.91.87,3.65,1.82.58,1.84,8.12,5.18,10.49,5.02-.11.16.23,1-.08,1.31-.26.26-1.22-.02-1.29.06-6.05-1.27-11.43-6.99-16.64-9.14-.83-.34-15.64-3.18-13.48-5,6.1,2.08,11.75,2.36,17.34,5.93Z"/>
            <path class="cls-1" d="M234.07,225.4c3.9,2.21,10.23,3.28,14.41,4.98.69.28,1.56.76,1.57,1.63-.28,1.35-14.95-5.12-15.97-5.24v-1.37Z"/>
            <path class="cls-6" d="M218.56,212.17c1.77-.6.68-6.04,2.7-4.54.55.4.58,5.19.95,6.36-1.69.18-2.51-1.09-3.65-1.82Z"/>
            <path class="cls-4" d="M360,150.13c-.28-1.46-.39-3.65-.96-4.74-1.5-2.85-7.44-1.57-5.39-7.68.99-2.94,4.22-6.33,4.88-10.73,1.48-9.93-2.12-12.41,5.16-21.64l4.53-4.48c-2.38,9.56,5.08,30.1,17.46,27.72,2.78-.54,8.81-5.57,11.41-.68s.52,9.43-3,12.95c-.59.59-2.13.72-2.6,1.29-1.63,1.96-.91,15.56-.32,18.57,2.26,11.49,8.77,13.02,19.03,14.5-.07.86-.36,1.39-.95,2.01-4.26,4.47-16.13,14.29-22.08,14.89-4.3.44-5.09-3.92-4.8-7.33,2.27-2.49-1.03-18.45-2.52-20.07-1.05-1.14-6.47,1.21-8.2,1.37-8.11.75-9.11-3.95-10.73-10.49l.3-.98c2.43-.53,5.37-1.67,6.06-4.3l-6.55.64-.73-.84Z"/>
            <path class="cls-1" d="M360,150.13l8.21-.91c.45,3.77-4.04,5.9-7.3,6.39-.55-2.24-.54-3.55-.91-5.47Z"/>
            <path class="cls-6" d="M370.04,224.49s-.12.58-.45.46l.45-2.74v2.28Z"/>
            <path class="cls-8" d="M77.11,166.56c-.95-.11-3.02-.14-4.21-.58-5.41-1.97-10.83-6.66-12.22-12.42l7.83,6.31c2.63,1.53,5.5,2.88,8.6,3.03v3.65Z"/>
            <path class="cls-5" d="M140.83,57.24c.52.55.53,2.38,1.52,2.58,1.17-6.72,12.52-7.72,13.26-.25.74,7.53-8.59,14.6-13.55,19.36-5.18-4.18-17.33-14.85-12.64-22.19,2.32-3.63,8.89-2.21,11.42.5Z"/>
            <path class="cls-1" d="M255.97,106.35c-2.02,7.63-12.43,12.3-17.33,4.32-.3-1.57,4.71-.14,5.69-.18,4.76-.19,7.58-2,11.64-4.14Z"/>
            <path class="cls-1" d="M258.06,77.8c1.24.48,4.61,3.37,2.17,4.32-1.71.67-7.43-3.66-10.19-2.23-.68-3.99,5.64-3,8.03-2.08Z"/>
            <path class="cls-1" d="M238.51,77.72c4.46,3.98-8.16,3.14-9.92,3.53-.16-3.4,8.23-5.04,9.92-3.53Z"/>
            <path class="cls-1" d="M243.12,88.63c1.51,2.71-1.79,8.37-4.48,9.73-.03,1.11,7.63,3.16,6.38,4.33-1.18.05-7.64-3.02-7.78-3.5-.76-2.63,2.85-3.08,3.71-5.36.7-1.87.36-3.82.42-5.73.14-.17,1.64.35,1.75.53Z"/>
            <path class="cls-1" d="M255.97,87.64c1.84.37,1.81,3.46-.43,3.46-3.23,0-2.52-4.05.43-3.46Z"/>
            <path class="cls-1" d="M233.27,90.72c-2.11-2.06,2.03-4.58,3.32-2.17,1.14,2.14-1.79,3.67-3.32,2.17Z"/>
            <path class="cls-1" d="M84.73,147.24c.49-.11,3.97-2.58,4.7-2.12-3.56,9.26-11.26,10.03-15.51.69.79-1.04.61-.44,1.14-.25,3.39,1.22,5.83,2.51,9.67,1.68Z"/>
            <path class="cls-1" d="M85.78,123.68c-.03,2.53-.3,6.23,1.35,8.33.92,1.17,2.69.79,2.75,2.8.05,1.76-8.11,7.35-7.24,3.97.85-.55,5.41-3.49,5.41-3.92,0-.34-3.09-2.66-3.52-5.59-.15-1.05-.55-5.4,1.24-5.58Z"/>
            <path class="cls-1" d="M90.68,114.21c4.59-.8,5.5,2.46,2.61,3.06-.43.09-5.16.49-5.42.41-2.74-.8,1.45-3.24,2.81-3.48Z"/>
            <path class="cls-1" d="M94.3,127.2c-.03.1-1.33,1.48-1.81.99-5.6-6.21,4.51-10.51,1.81-.99Z"/>
            <path class="cls-1" d="M73.4,123.75c.94.49,1.39,5.01.77,5.88-4.62,2.79-3.6-7.34-.77-5.88Z"/>
            <path class="cls-1" d="M193.4,184.74c-4.94.18-8.3-4.69-8.61-9.06,3.92,3.35,11.66,2.1,8.61,9.06Z"/>
            <path class="cls-1" d="M189.66,143.9c.44.31,1.37,2.19,1.06,2.58-4.12-.35-6.41,4.56-9.84,3.23-1.44-1.99,5.21-8.39,8.79-5.81Z"/>
            <path class="cls-7" d="M176.12,199.86c-3.66-.66-6.75-4.49-7.99-7.74,2.91,2.08,6.23,3.51,9.28,5.33.7.42,1.31-.2.99,1.5-.65.09-2,.33-2.28.91Z"/>
            <path class="cls-8" d="M178.86,136.45l.91.91c-.96-.5-2.76.92-2.96.92h-9.35c.38,1.11,1.05,2.07-.46,1.82-.39-1.2-1.54-2.22-1.36-3.65.16-.18,1.31.91,1.59.91h7.3c.22,0,3.82-.77,4.33-.91Z"/>
            <path class="cls-1" d="M188.44,161.99c-2.43,2.18-3.51-5.17-2.73-5.93,2.44-2.4,4.03,4.77,2.73,5.93Z"/>
            <path class="cls-1" d="M333.54,205.33c-2.3,1.67-4.07,3.78-3.65,6.85-2.44.69-1.36-3.26-.45-4.79,1.24-2.09,4.82-4.08,7.3-3.87.35,2-.56,1.12-.91,1.37-.58.6-.88,1.36-.91,2.28-.05.79-.1,1.98,0,2.74.39.16.7.47.91.91.19.56,1.5,3.17.23,3.18-.62,0-1.35-2.16-1.6-2.73l-.46-.46c-.55-1.91-.71-3.57,0-5.47h-.46Z"/>
            <path class="cls-1" d="M334.9,199.86c.46,2.22-2.77,1.96-4.26,2.81-2.06,1.18-3.61,2.8-4.63,4.95l-1.37,5c-2.4-6.06,4.57-12.09,10.25-12.77Z"/>
            <path class="cls-1" d="M332.17,196.2c-.23.45-6.85,2.74-8.5,5.18l-2.45,4.86c-1.22-4.49,5.52-10.17,9.47-10.86.77-.13,1.69.38,1.47.82Z"/>
            <path class="cls-1" d="M332.17,192.1v.46c-.43.01-7.82,2.11-8.29,2.31-.63.27-4.8,6.47-4.94,4.29,2.06-4.95,6.22-6.08,11.01-7.26.89-.22,1.37-.45,2.22.2Z"/>
            <path class="cls-7" d="M335.82,204.87l-.91,2.28c.04-.54-.12-2.12,0-2.28.08-.11.76.11.91,0Z"/>
            <path class="cls-7" d="M334.91,209.89c1.42-.2.71.31.91.91-1.26.14-.81-.06-.91-.91Z"/>
            <polygon class="cls-7" points="333.54 205.33 334.22 204.87 333.99 205.33 333.54 205.33"/>
            <path class="cls-7" d="M334.45,211.26c-.05-.11-.4-.26-.46-.46l.46.46Z"/>
            <path class="cls-11" d="M328.06,256.42c.29-.18,1.26-.6,1.37-.45.36,6.68.22,13.41.92,20.07.13.25.21.48.13.61-.39.64-9.67,6.39-10.27,6.39-10.22-1.01-20.52-2.1-30.68-3.59-.41-.06-.79-.33-1.15-.67-.25-1.28-.32-16.71-.03-17.54.26-.47.94-.27,1.4-.25l1.75-.82,18.42,2.43c8.12.9,10.52-.91,16.34-6.05l1.82-.12Z"/>
            <path class="cls-5" d="M268.21,257.86c1.22,2.07-1.84,3.47-3.17,4.21-6.6,3.67-23.15,8.74-29.57,3.67-3.96-3.13-1.05-5.17,2.17-6.99,6.63-3.76,16.54-5.21,24-3.66.74.15,6.39,2.47,6.57,2.78Z"/>
            <path class="cls-6" d="M328.06,256.42c-6.44,4.05-6.89,7.84-15.73,7.29-7.18-.45-15.37-2.47-22.6-2.73,2.89-3.28,7.81-5.55,11.66-7.73,7.21.76,15.24.82,22.35,1.78,1.19.16,2.97,1.14,4.31,1.39Z"/>
            <path class="cls-7" d="M330.34,276.03c.02.16.74.52.38,1.28-.45.96-9.85,6.36-11.09,6.51l-30.13-3.69c-1.05-.09-.98-.56-1.14-1.37,10.76.48,21.06,3.08,31.73,3.68l10.25-6.42Z"/>
            <path class="cls-1" d="M323.95,295.19l16.88-7.75v1.36s-16.42,7.3-16.42,7.3c-.38-.22-.4-.87-.46-.91Z"/>
            <path class="cls-1" d="M329.89,297.47s-.14-.76.06-.84c4.09-1.69,7.88-4.08,12.26-5.09.16.83-.4,1.14-.95,1.55-.76.56-8.08,4.43-9.09,4.83-1.12.44-1.73.77-2.28-.46Z"/>
            <path class="cls-1" d="M271.08,280.97c.69.4,4.83,1.08,6.13,1.87,1.63.99.62,1.75.66,1.86-3.66-1.67-7.13-2.69-10.95-3.66-.08-.02.04-.89,0-.9-.4-.13-.39-.28,0-.46"/>
            <path class="cls-1" d="M278.74,288.4c2.3,3.1-7.23-.76-7.99-.91-1.76-.35-7.41-.34-8.12-.58-.86-.3-.79-1.05-.72-1.74.89-.81,16.25,2.45,16.83,3.24Z"/>
            <path class="cls-1" d="M266.92,279.68v1.36c-2.72-.64-7.18-.42-9.59-2.5-.21-1.18,2.42-.73,2.94-.65,1.89.28,4.73,1.36,6.64,1.8Z"/>
            <path class="cls-1" d="M103.56,210.36l.47,1.81-15.51,3.65c-.14-.91.54-1.37,1.26-1.7,3.68-1.71,9.87-2.19,13.78-3.76Z"/>
            <path class="cls-1" d="M102.2,204.88c.04.63.14.88-.31,1.39-.43.48-11.58,2.7-12.01,2.26-.06-.07-.06-1.75,0-1.82.44-.45,10.68-.94,12.32-1.83Z"/>
            <path class="cls-1" d="M99.46,217.19c.3.29-.04.95-.35,1.35-.57.74-8.11,2.92-9.69,2.75-1.3-.98,9.63-4.49,10.04-4.1Z"/>
            <path class="cls-1" d="M339.92,283.79c1.36,1.21-6.1,3.5-6.47,3.69-1.65.87-9.65,6.45-10.86,5.43-.22-.99.52-1.02,1.06-1.44,1.56-1.23,15.38-8.47,16.27-7.67Z"/>
            <path class="cls-1" d="M251.86,226.31l-1.82.26-15.97-5.49c.06-.74,2.65-.54,3.18-.44,1.16.23,15.25,4.66,14.61,5.67Z"/>
            <path class="cls-1" d="M252.32,219.03s.05,1.31,0,1.35c-.47.49-12.52-3.09-13.2-3.44-.58-.3-1.06-.85-.93-1.57,1.75.54,13.64,3.12,14.14,3.66Z"/>
            <path class="cls-11" d="M372.32,124.59c-.28.3-7.78-1.23-7.26-2.92.96-3.13,9.31.72,7.26,2.92Z"/>
            <path class="cls-1" d="M365.88,128.75c.31.21.72,3.29.2,3.95-2.15,3.93-4.22-6.75-.2-3.95Z"/>
            <path class="cls-5" d="M302.05,270.1c.25.1.94-.23,1.3.08s-.49,1.67.98,1.29l1.37-2.28v3.19c.89-.94,2.69-3.16,2.3-.23-.03.2-.93.24-.96.5-.15,1.27,1.76,2.36.26,3.38l-1.14-2.27c-.79,2.59-2.31,1.04-4.1.91-1.84-.74-.78-3.58,0-4.56Z"/>
            <path class="cls-5" d="M293.38,273.75c-.15-.17-.1-4.34.04-4.52,1.13-1.51,5.62.98,4.02,3.77-.8,1.39-3.57,1.29-4.06.76Z"/>
            <path class="cls-5" d="M311.97,271.6c2.13,1.82.06,6.31-2.89,4.03-2.08-1.61-.2-6.68,2.89-4.03Z"/>
            <path class="cls-5" d="M301.14,269.65l.46,1.36c-.44.07-.97-.08-1.37,0-2.24.48.54,3.21-2.28,3.65l.46-5.47c.96-.13,1.83.28,2.74.46Z"/>
            <path class="cls-5" d="M315.74,272.38c.44.48.47,5.74-2.28,4.56.28-.72.8-6.17,2.28-4.56Z"/>
            <path class="cls-1" d="M251.41,261.44h-.46c-.29.02-.63.03-.91,0-1.19.28-1.64.13-1.37-.46,1-.32,7.07-1.91,7.52-1.83,3.52.68-4.23,2.23-4.78,2.28Z"/>
            <path class="cls-7" d="M248.67,260.98c.26.61.87.4,1.37.46l-3.65.91c-.31-1.3,1.45-1.1,2.28-1.37Z"/>
            <path class="cls-7" d="M250.95,261.44h.46c-.32.03-.4,0-.46,0Z"/>
            <path class="cls-11" d="M296.12,270.1c.09.1.09,2.64,0,2.74-1.82,1.99-1.82-4.73,0-2.74Z"/>
            <path class="cls-11" d="M311.18,272.38c.09.1.09,2.64,0,2.74-1.82,1.99-1.82-4.73,0-2.74Z"/>
        </g>
    </g>
</svg>