<?xml version="1.0" encoding="UTF-8"?>
<svg id="_Слой_1" data-name="Слой 1" xmlns="http://www.w3.org/2000/svg" viewBox="0 0 508.5 250.28">
    <defs>
        <style>
            .cls-1 {
            fill: #723a1f;
            }

            .cls-2 {
            fill: #eeaf44;
            }

            .cls-3 {
            fill: #fef7e8;
            }

            .cls-4 {
            fill: #c45128;
            }

            .cls-5 {
            fill: #fce4ba;
            }

            .cls-6 {
            fill: #8d512e;
            }

            .cls-7 {
            fill: #433023;
            }

            .cls-8 {
            fill: #f1ac7e;
            }

            .cls-9 {
            fill: #9f4f24;
            }

            .cls-10 {
            fill: #4e6985;
            }

            .cls-11 {
            fill: #c26b38;
            }

            .cls-12 {
            fill: #d7aa65;
            }

            .cls-13 {
            fill: #f5bd94;
            }

            .cls-14 {
            fill: #f4c154;
            }

            .cls-15 {
            fill: #db783d;
            }
        </style>
    </defs>
    <path class="cls-15" d="M447.42,70.66c16.8,5.5,36.82,17.8,44.76,34.16,9.59,19.74,15,66.28,16.13,88.73.09,1.85.39,12.29-.02,12.78-.25.31-5.54-4.09-6.43-4.59-4.51-2.53-21.11-8.74-25.8-8.69-1.23.01-8.64,3.84-11.2,4.7-13.53,4.54-36.49,9.8-50.09,6.81-1.35-5.11-2.52-10.4-3.53-15.86-.77-.94-1.36-2.12-1.76-3.52-1.69-.27-1.59-.96,0-1.76,4.1-3.04,8.63-5.56,13.6-7.54-.86.55-1.52.63-2.13-.38-4.12-3.71-6.69-11.85-6.18-17.62-1.05-2.13-1.35-2.13-.88,0,3.84,7.6-7.65,20.98-13.95,24.81-2.68,1.63-19.18,8.98-20.85,8.55-.49-.13-.94-.42-1.38-.76l-1.98-.69c-2.01-6.11-8.51-8.77-14.2-10.52l-.59-2c1.32-1.36,3.33-3.5,3.53-5.29l.43-1.85c9.22-7.29,17.71-16.71,19.82-28.71l1.81-1.15c6.12-16.64,6.99-35.41,18.95-49.35,3-3.49,6.87-6.82,11.05-8.79,2.03-.9,3.96.73,5.77,4.89,5.68,6.52,22.79-7.68,23.22-14.94l1.89-1.4Z"/>
    <path class="cls-5" d="M82.11,89.16c11.41,2.49,16.25,7.28,20.73,17.63,2.9,6.71,5.38,14.76,7.27,21.85.42,1.58-.59,3.32,2,2.81,2.57,1.16,2.24,9.13,0,10.57-5.03,5.13-4.73,5.43.88.88-.16-.39-.28-.78-.27-1.16.04-1.11,15.69-10.88,18.88-11.34l2.57,1.05c3.62,4.39,7.57,9.63,10.55,14.76.09.15-.31.58-.85,1.1.49.62.83,1.44.41,2.07-5.21,7.75-10.72,15.55-17.62,22.21l-4.86,2.15c-3.32.48-5.55,2.19-8.45,2.58-4.64.62-10.36.52-14.06-2.58l-7.93-7.93c-1.66.74-2.84,11.73-3.98,14.09l-.76.85,6.22,3.43c2.34,1.1-3.17,18.48-3.83,19.25-2.99,3.48-31.44-4.41-36.05-6.14-6.62-2.49-9.8-4.42-15.24-8.75-.08-.07,1.17.85.23,1.93-7.04.31-13.82,3.55-20.53,5.49-2.47.38-16.63,9.41-17.41,8.6-.3-.32.83-2.88.91-3.94,1.49-20.96,5.15-48.79,10.08-69.22,2.34-9.73,7.61-23.33,13.73-31.22.76-.97,6.54-7.4,7.05-7.5.85-3.26,4.53-2.17,6.18,0-.08-1.93.77-1.51,1.76,0,1.71,0,3.64.35,5.79,1.07,3.6-1.59,6.08-1.65,7.44-.19.2-1.68,1.09-1.39,2.65.88.46-.58,1.09-1.18,1.72-1.02,3.99,1.06,5.59,1.06,9.75-.74.22-.81.51-.79.88,0l1.56-1.48c4.98,2.76,8.48,2.08,10.49-2.05h2.06Z"/>
    <path class="cls-2" d="M160.64,68.9c.71.06,1.44.32,1.74.99,5.56,12.22,22.62,18.06,28.02,2.8l2-.27c-1.63-1.2-.99-1.9.88-1.76.14-2.32.99-2.2,1.76,0,38.55,10.1,41.07,42.55,49.41,75.76l-1.11.81c-10.41-.4-20.84-.01-30.58,3.43-.57,5.39-1.19,10.73-1.84,16.02-2.47.17-5.11-.25-7.55-.05-1.19.1-2.4.93-2.6.93h-17.65c-5.03,0-12.59,1.32-18.09,1.76-1.08-.92-2.2-1.91-3.34-2.96-11.49-3.11-11.26-12.13-10.78-21.7l2.19-2.8,17.07-7.08c-.57-.36-.22-.88,1.04-1.57.69-.87,1.87-1.45,3.53-1.76-1.91-1.21-1.51-3.43.88-3.52-1.16-.75-.86-1.33.88-1.76-1.14-.5-2.03-1.38-2.65-2.64-2.38-.36-2.15-.82,0-1.76-3.51-2.06-7.86-1.78-13.03.84-2.82.86-4.95.58-6.38-.84-1.34-1.35-1.1-3.93.71-7.73-6.73,5.09-13.04,10.81-19.1,16.67l-1.91-.13v.88c-7.09,1.93-13.17,6.23-18.96,10.62-.76.58-1.98.63-2.22.83-1.21,1.14-1.69.63-.88-.88-.56-3.16-.12-7.48,0-10.57.46-11.43,3.4-31.93,10.6-40.95,8.74-10.96,24.24-19.09,37.93-21.6Z"/>
    <path class="cls-10" d="M308.83,72.88l-2.97-.14c-6.74,1.95-13.45,3.88-20.11,5.78l-.69,1.83c-.1.07,0,1.31-.9,2.14-2.48,2.27-5.15,3.8-7.41,6.74-6.08,7.89-9.6,28.99-11.74,39.37-1.4,6.77-2.3,13.71-3.77,20.46,7.52,3.25,16.76,3.75,24.71,1.76.15-.88.45-.85.88,0,2,2.82,5.62,3.31,10.86,1.46l3.25.3c-.46.69-.17.99.88.88l-1.62,1.14-.14,11.88,1.76,1.08,49.41,3.52-.94-1.5c-8.8-3.3-16.14-8.25-22.02-14.83l-1.75-.41-.09-2.14c-5.68-2.17-10.54-4.47-15.03-8.64-4.13-.51-7.62-1.91-10.47-4.2.16-1.04-1.1-1.56-1.76-.88-.12-1.48-1.11-2.24-2.95-2.28-.98-2.58-5.77-20.63-4.71-21.44.63-.48,15.17-.77,15.86-.32l1.32,9.43,1.95.5,1.32,1.9c7.93,2.38,14.84,7.36,20.74,14.94,1.36.98,2.22.71,2.65-.98.58.13,1.04.3,1.1.55.33,1.4-6.35,12.53-8.06,13.85-.61,3.95,20.69,14.74,24.6,16.43,2.93.54,8.67,1.28,11.47.88,1.05-.15,1.33-.24,2.22-.83,2.07-1.36,10.54-10.19,12.27-12.45,3.06-3.98,7.72-13.49,7.57-18.43-.21-6.97-3.83-22.75-5.72-29.97-3.39-12.93-9.8-25.06-22.52-30.82-1.59-2.8-6.77-5.31-9.94-3.38-4.1,3.14-7.6,4.2-12.53,2.56l-1.35,1.7c-.61-.55-1.5-1.17-2.08-.83-9.14,5.33-18.06,7.87-21.56-5.05"/>
    <path class="cls-14" d="M220.65,149.95c20.28-1.02,40.98.55,61.05,2.86,1.99.23,5.31,1.07,5.13,3.3,1.59-.17,1.72.39.4,1.66-.35,25.29-.48,50.58-.4,75.87,2.16,1.02,1.26,1.94-.88,2.64-8.33.63-26.34-3.18-35.65-4.5-12.53-1.77-25.15-3.81-37.59-6.08l-.9-.61c-.17-24.65-.04-49.3.39-73.93.29-1.65.77-2.72,1.74-1.29,3.11-.97,5.35-.95,6.71.06Z"/>
    <path class="cls-15" d="M99.76,31.02l-1.93.76-4.98-5.59c-2.81-1.17-4.33-2.79-4.56-4.86l-.93-.26c-.65,10.84-9.5,22.32-20.13,24.64-16.24-7.82-16.6,17.34-2.15,16.62l1.14,1.29c1.67.49,1.68,1.26,0,1.76-3.14,9.48-1.59,18.14.88,27.31-.12.17.36,1.22-.55,1.81-2.08,1.35-5.93,1.93-8.36,1.35-1.2-.29-2-1.22-2.56-1.39-1.1-1.27-1.98-1.56-2.65-.88-3.18.1-5.93,3.5-11.27,1.09-1.17-.53-1.83-1.91-1.97-1.97-2.66-1.64-4-6.68-3.53-9.69-.93-2.03-1.22-1.74-.88.88,1.42,2.9,2.3,5.83,2.65,8.81-1.6-.11-4.79-.28-6.18,0-2.24-3.02-5.59-4.33-7.8-7.63-9.57-14.29,3.39-23.27,9.94-34.73,7.9-13.81,5.24-27.96,21.07-37.11,10.38-6,25.92-5.18,36.52,0,7.4,3.62,9.57,8.44,9.05,16.44-.05.74-.83,1.25-.84,1.35Z"/>
    <path class="cls-7" d="M358.3,79.47c-.42-.19-1.69-.06-2.64-.41-1.47-.54-3.28-2.22-4.72-2.06-2.15.23-5.19,3.47-8.28,4.03-3.59.65-6.39-.88-8.19-.68-4.51.53-6.84-6.23-7-10.39-.17-4.53,1.21-17.14,5.32-18.75,11.06,1.29,10.12-17.22-1.29-10.73-3.61-.05-9.21-3.52-10.27-6.82,6.79,5.83-11.02,5.74-12.21,3.21-2.42-5.14,9.31-6.69,12.21-3.21-5.45-2.03-11.4-6.28-12.89-12.19-4.23,1.8-8.09,4.58-10.75,8.33,9.68,2.09,6.6,7.58-2.2,6.71-1.22,11.25-2.49,28.85,11.48,32.18l1.12,1.97c2.65.17,2.99,1.25.84,2.35-6.54,1.99-13.75,4.86-20.24,6.95-1.07.35-3.4.29-3.54.4-9.92-10.37-3.42-19.1-.44-29.95,5.64-20.51,5.6-44.57,32.61-46.73,12.98-1.04,21.27,2.42,27.99,13.54,5.96,9.86,5.94,19.71,9.75,29.91,4.13,11.06,15.77,20.6,3.33,32.35Z"/>
    <path class="cls-6" d="M407.71,19.57c.07-.81.46-1.83,1.14-1.82,7.04.06,16.73,1.59,19.08,9.31-.66,6.31-.02,12.02,1.91,17.11,13.26-7.71,19.69.08,14.91,13.8l1.78,7.42c.17.21.86,4.47.88,5.29.16,4.71-5.24,11.61-8.89,14.47s-11.08,6.82-15.81,4.47c-2.86-1.42-3.63-5.83-6.18-7.48.05-1.46-.08-2.94,0-4.4q1.53-1.37,0,0c-4.14,1.34-6.7,2.79-11.06.03-4.82-3.04-4.88-9.31-5.7-14.13.4-1.27,3.78-1.52,5.45-1.6.29-.02-5.4,1.33-5.45-.16-1.52-2.07-.29-5.02-1.31-7.06s-5.84-2.27-5.8-4.82c.03-1.72,2.94-3.39,3.98-4.9,3.56-5.15,3.31-10.33,5.35-15.8,1.16-3.11,5.43-7.92,5.72-9.7Z"/>
    <path class="cls-13" d="M164.17,59.21c-.48-1.61-.34-3.65.42-6.11-11.45-.51-11.95-19.83.32-19.33,7.79,4.3,9.62-3.49,10.4-9.69,3.32-.53,5.52-2.4,6.59-5.62l2.36-.11c2.29,1.52,5.46,1.51,9.51-.03,3.23,4.87,4.65,4.36,9.23,1.42,3.18-.18,6.75,5.89,7.04,8.64-2.45,11.54,2.27,26.75-6.68,36.06-2.26,2.35-6.42,3.38-8.32,6.23-.51-.13-1.26.14-1.76,0-1.38.64-1.68,1.23-.88,1.76-1.89,4.74-2.17,7.58-7.46,9.73-4.95,2.01-8.19,1.68-13.08-.24-4.47-1.76-11.81-7.82-11.23-13.02.23-2.04,2.39-5.04,3.12-7.06.35-.98.2-2.06.41-2.63Z"/>
    <path class="cls-13" d="M99.76,31.02c-.33,5.58.74,12.91,4.02,17.57.81,1.15,3.75,3.39,3.89,4.06.57,2.54-4.91,2.66-5.76,3.87s-.26,4.48-.39,6.22c-1.51,2.26-4.19,2.55-8.04.85.42,2.53,3.67,2.72,5.88,2.78l1.28,1.66c-.51,2.81-.43,6.87-3.19,8.71s-10.5,2.55-13.58,1.86c-2.63-1.12-2.92-.83-.88.88-.42,2.56-.18,7.33-.88,9.69-.07.23-2.37,3.68-2.67,3.95-3.97,3.55-8.23-.08-11.45-.42-4.29-8.46-4.48-18.11-1.76-27.31.04-.58-.07-1.2,0-1.76l-1.52-1.27c-14.54-.27-13.2-24.33,2.63-16.6,10.43-2.51,18.83-13.26,20-23.86l.95-.55c.19.28,4.41,2.35,5.72,3.54,2.26,2.05,3.3,4.56,5.75,6.15Z"/>
    <path class="cls-6" d="M377.71,190.48l-.19,1.81c9.31-4.13,18.88-7.42,28.73-9.87l2.34,1.02c.29-.54.59-.54.88,0,.02.59-.03,1.18,0,1.76.76,1.25,1.06,2.43.88,3.52,2.06,4.58,4.52,11.34,2.65,15.86-9.28,4.59-8.84,3.71-18.89,5.37-6.6,1.09-15.75,5.66-21.93,4.11-.47-.12-5.32-2.18-5.57-2.36-2.17-1.62-.39-3.42-.83-4.5-1.21-2.91-2.59-.48-3.7-.17-4.95,1.37-4.15-2.43-5.1-2.43-.88,0-2.69,5.57-4.86,6.59-.82.39-8.4,1.54-8.76,1.27s-.35-2.71-1.14-3.29-2.71.04-3.23-1.6c-.94-2.99.58-8.32,1.78-11.24,4.54-11.08,12.97-11.66,20.18-19.06,6.86,1.91,15.29,5.43,16.77,13.21Z"/>
    <path class="cls-7" d="M210.06,28.38c-.88-1.01-2.81-2.41-3.5-3.29-1.17-1.47-1.51-4.27-3.03-3.69-3.14,1.2-4.71,4.75-9.35.33-.88-.84-.68-1.81-.91-2.16s-4.04,2.88-8.19,1.59c-.81-.25-2.07-1.93-2.37-1.59-.4.46-.5,3.25-2.14,4.47-1.53,1.14-3.73.6-4.02.83-.48.39,1.15,7.33-4.48,10.94-4.71,3.02-5.18-1.01-9.03-.26-5.89,1.16-6.77,8.57-3.69,13.05,2.87,4.17,6.98,2.22,7.46,2.68.37.36-.99,5.2-1.31,6.21-.3.93-1.25,1.47-1.34,1.71l-4.64-5.94c-6.25-.84-4.74-3.54-6.14-7.53-1.19-3.36-2.7-1.86-2.46-8.14.21-5.37.04-2.47-1.37-6.54-2.34-6.69,2.63-7.38,2.98-9.4.25-1.44-1.41-2.61-.07-5.4,1.22-2.54,3.94-2.22,5.06-3.77,2.27-3.15,1.17-6.31,7.27-7.73,6.93-1.61,2.59-.68,6.46-3.23,5.47-3.62,10.9.3,15.41.29,2.17,0,4.06-1.16,7.02-.72,3.16.47,5.48,4.14,6.2,4.18,1.4.07,2.56-2.82,6.88-.5,3.11,1.67,2.2,3.8,3.47,6.22,1.07,2.04,2.9,2.77,3.31,5.52.74,5.02-2.48,7.03-3.5,11.85Z"/>
    <path class="cls-7" d="M446.54,65.38c-.07-.08-1.26.41-1.75-.61-.4-.82-1.64-5.11-1.75-6.07-.54-4.88,4.27-9.3,0-14.04-5.56-6.16-10.62,3.38-14.18.94-4.06-2.79-2.08-13.36-2.57-17.7-.77-6.85-12.91-8.8-18.58-8.32.46-2.74-.78-6.1,2.01-8.56,3.82-3.37,17.09-4.22,22.26-3.78,9.35.8,21.04,5.45,25.88,13.8,8.95,15.43-.45,32.78-11.33,44.35Z"/>
    <path class="cls-2" d="M301.82,153.48c.65,3.51-.04,10.09,0,14.1.15,17.12-.88,34.11-.88,51.1,2.9.95,2.62,9.97,0,11.45-4.89,1.95-8.91,5.71-15,6.17.5-.8.82-1.69.88-2.64-.4-25.86-.24-51.47.5-76.85.51-.55,12.83-3.95,14.5-3.32Z"/>
    <path class="cls-5" d="M222.41,236.29c-8.37,6.2-18.71,10.72-28.86,12.9-10.92-1.51-22.72-3.62-32.91-8.49-.14-.44-.12-2.26.08-2.56l30.48-12.16,28.17,6.73c1.77.7,3.01,1.51,3.03,3.58Z"/>
    <path class="cls-13" d="M132.41,204.57c-.93-.62-1.5-.27-1.76.88-4.37,1.4-3.3,3.11-9.31,2.68-9.12-.65-23.03-3.91-31.28-3.56l-1.78-1.1c-.34-.86,5.55-15.32,7.07-16.52,10.74.07,21.24-1.13,31.21,3.63,1.52.73,8.44,5.02,8.94,6.05.57,1.17.27,2.55.66,3.75.32,1.02,1.74,1.86,1.55,2.85-.38,1.96-4.22,1.04-5.3,1.34Z"/>
    <path class="cls-2" d="M150.05,144.67c.42,5.11,1.23,10.2,2.45,15.27,2.92,3.23,6.62,5.94,11.11,8.13l-.32,1.27c-13.72,1.15-27.86,2.42-41.47,4.4,4.12-3.75,7.92-7.58,11.46-11.9,3.1-3.78,7.63-11.96,10.6-14.53-1.03-2.08-.15-2.67,2.65-1.76.08-2.67,2.12-3.02,3.53-.88Z"/>
    <path class="cls-12" d="M37.99,190.48c-9.49-8.9-16.88-31.96-19.22-44.68-.28-1.55-.24-3.09-.19-4.65,1.19.22,1.86,1.59,2.22,2.62,2.18,6.32,3.21,14.34,5.46,20.98,7.78,22.93,15.26,29.53,38.88,35.18,5.76,1.38,17.04,3.75,22.59,2.93,1.11-.17,3.55-12.74,4.97-14.63.65-2.97-1.35-3.93-3.62-5.14-4.7-2.5-27.63-10.55-28.95-12.5-.73-1.08-2.01-9.24-2.5-11.6-1.64-7.97-2.96-16.09-5.05-24.03-1.3-4.95-4.01-9.77-3.99-14.95,2.47-.43,1.46.53,1.97,1.95,4.09,11.32,6.7,23.11,9.26,34.85.74,3.41.53,8.5,2.48,11.62,2.32,3.7,20.12,9,25.11,11.49,1.1.55,6.65,3.56,7.08,3.96.93.87,1.02,1.91.87,3.09-.58,4.49-5.71,12.04-5.29,17.62-.53.02-1.66.95-3.06.92-11.56-.27-40.6-7.13-49-15.01Z"/>
    <path class="cls-2" d="M261.24,149.07c8.21.62,16.45,1.01,24.71,1.76.29-.76.59-.76.88,0,2.09.18,3.85.72,5.73.89,2.79.25,6.24-.89,8.39.87-4.49,1.41-8.99,2.92-13.49,4.56l-.63-1.03c-1.39-.14-4.36-1.54-6.61-1.77-19.69-1.96-39.94-2.92-59.57-4.4l.41-1.24c7.69-1.58,15.5-2.05,23.42-1.4,3.39-.45,12.65,1.45,16.77,1.76Z"/>
    <path class="cls-11" d="M210.94,166.69c-.37-14.56,2.69-25.47,3.54-39.19.18-2.92-.62-18.23,0-18.95.99-1.15,1.69-.14,1.76,1.31.31,6.19.41,14.17.04,20.32-.17,2.91-3.36,18.22-2.69,18.9.49.49,11.34-2.47,13.67-2.65,5.56-.44,11.6.33,17.21,0v.88c-.15.02-.82.92-2.12.93-7.15.06-15.08-1.11-21.71,1.71-1.37-.1-7.86.64-7.98,1.38l.04,74.39-1.81-.51c.26-11.14-.19-22.31,0-33.45.15-8.82.27-16.26.04-25.07Z"/>
    <path class="cls-5" d="M300.94,218.67c2.48-.47,17.34,2.76,17.65,3.97.44,1.72-.73,1.27-1.77,1.71-5.3,2.23-10.85,3.76-15.88,5.77v-11.45Z"/>
    <path class="cls-12" d="M222.41,236.29c0,1-.08,1.5-.87,2.19-1.44,1.27-9.4,4.88-11.74,5.92-4.99,2.22-10.81,4.24-16.04,5.88-8.63-1.65-17.59-3.18-26.05-5.62-2.03-.59-6.37-1.76-7.06-3.97,5.82,1.8,11.68,3.5,17.63,4.86,10.93,2.51,14.65,4.31,25.6-.03,6.21-2.46,12.34-6.61,18.54-9.24Z"/>
    <path class="cls-11" d="M165.06,169.33c-.58.05-1.18-.05-1.76,0-1.54-3.1-5.8-3.44-8.39-5.28-6.48-4.59-4.61-12.41-4.84-19.39.29-.76.59-.76.88,0,2.21,6.46-1,13.43,5.34,18.01,2.87,2.08,8.2,2.54,8.78,6.66Z"/>
    <path class="cls-9" d="M101.52,62.74c-.17,2.3-.53,3.33-.88,5.29-2.68.41-7.83-.31-8.67-3.24-1.69-5.88.99-2.8,4.02-2.25,1.84.33,3.68.23,5.53.2Z"/>
    <path class="cls-11" d="M132.41,204.57c-.19.05-.94.62-1.76.88-.83-4.57-7.05-5.13-10.59-6.65-.64-.27-3.33-.8-1.76-2.16.64-.55,14.9,3.85,14.12,7.93Z"/>
    <path class="cls-1" d="M414.77,204.57c-.33-.07-1.6-.08-1.76,0,.04-5.41-1.41-10.66-2.65-15.86.25-.77.55-.76.88,0,1.99,5.03,3.72,10.33,3.53,15.86Z"/>
    <path class="cls-7" d="M399.77,61.85c3.03-.41,6.72-2.29,9.71-1.32-1.19,3.68-6.7,3.04-9.71,3.08-.09-.55.06-1.19,0-1.76Z"/>
    <path class="cls-7" d="M335.36,140.26c.15-.36,2.3-1.69,3.04-1.71l13.72,2.59c.34-10.17-2.26-20.21-1.76-30.41.07-1.44.78-2.46,1.76-1.31l1.83,32.53c2.29.33,4.55.84,6.73,1.68,1.42.54,3.48.74,2.91,2.79-4.72-.89-9.2-3.13-13.89-4.18-1.49-.33-10.62-1.98-11.17-1.86-.83.17-7.35,12.42-8.47,14.44.04,1.9,5.37,5.8,7.13,6.97,4.14,2.75,9.62,4.33,13.46,6.65.69.42,1.17,2.26,2.36,2.66-.55-.1-1.25.12-1.76,0-6.12-1.36-19.58-10.84-24.49-15.23-.44-.39-.11-1.38-.22-1.51-.27-.67-.05-1.17.28-1.75.99-1.76,6.25-10.95,6.73-11.42.51-.49,1.1-.81,1.82-.93Z"/>
    <path class="cls-11" d="M83.88,78.59c-.13.37-.86.74-.88.88l-5.28-3.97c2.42-.72,4.85,2.79,6.16,3.09Z"/>
    <path class="cls-9" d="M420.95,175.5c3.47-1.67,9.11-4.02,12.76-5.32,2.8-1,15.91-3.85,16.85-5.2.27-.38,1.2-7.92,1.28-9.29.54-8.46,0-17.01.96-25.47.81-7.24,2.17-16.22,5.66-22.55,1.85-.28,1.49.4.93,1.81-2.9,7.34-4.01,13.69-4.92,21.52l-1.76,33.05c3.87-.18,7-.23,10.59,1.36.66.29,3.27.73,1.76,2.16-.25.23-4.31-1.72-6.59-1.81-13.79-.57-36.07,12.51-48.99,17.67-.25.1-.63-.1-.88,0-.47-.64-.97-1.4-.79-2.14s11.92-8.79,13.14-5.79Z"/>
    <path class="cls-9" d="M413.89,157.88c-.06-.29-1.05-1.43-1.35-2.59-2.94-11.58-5.99-23.04-7.4-34.94-.19-1.61-.98-3,1.23-3,.86,0,2.03,15.02,2.41,16.99,1.34,6.92,3.97,16.68,5.98,23.54-.25.77-.55.76-.88,0Z"/>
    <path class="cls-9" d="M397.12,162.28c-.73.68-3.27-1.76-4.4-2.21-1.29-.51-2.87-.66-4.24-1.09-1.51-.47-2.34.41-1.94-1.98,1.52-.64,12.77,3.25,10.58,5.28Z"/>
    <path class="cls-9" d="M476.53,190.48c.96.96-.8,2.72-1.76,1.76s.8-2.72,1.76-1.76Z"/>
    <path class="cls-9" d="M411.24,188.71h-.88c-.29-1.23-.8-1.83-.88-3.52,1.04.83,1.29,2.31,1.76,3.52Z"/>
    <path class="cls-9" d="M492.42,127.93c2.03,2.38-3.99,36.44-5.36,41.77-1.75,6.8-3.87,16.13-10.09,19.88l5.29-9.69c4.19-13.78,7.22-28.3,8.4-42.71.21-2.6-.14-5.33-.01-7.95.07-1.44.77-2.46,1.76-1.31Z"/>
    <path class="cls-12" d="M92.69,162.28c-1.6.08-1.86.42-1.78-1.33.19-4.11,3.63-10.51,4.38-15.02,1.28-7.68,1.06-17.37-.44-25.01-.71-3.61,1.57-2.16,2.27,1.27,2.77,13.56.38,27.33-4.43,40.09Z"/>
    <path class="cls-9" d="M67.99,92.69c-.26-.03-.86-.04-.88,0-3.93-8.55-5.13-18.66-.88-27.31-.31,4.86-1.38,11.83-.9,16.32.39,3.62,2.6,7.22,2.66,10.99Z"/>
    <path class="cls-15" d="M134.17,130.57l2.28-.4c4.04,4.37,8.18,9.77,10.08,15.38-.15.07-2.52,1.65-2.65,1.76-1.18-3.93-9.39-12.8-9.71-15.86-.03-.25-.06-.67,0-.88Z"/>
    <path class="cls-12" d="M112.99,142.9c-1.63,1.33-3.78,4.44-5.74,6.17-3.42,3.01-4.34,2.09-1.32-1.32,1.78-2.01,3.98-4.17,6.18-5.73.03.15.75.51.88.88Z"/>
    <path class="cls-9" d="M39.76,92.69c-.3-.14-1.21.04-1.76,0-2.04-2.83-2.05-5.72-2.65-8.81-.49-1.33-.42-1.58.88-.88.43,3.89,2.12,6.19,3.53,9.69Z"/>
    <path class="cls-9" d="M55.64,94.45c-.6-.19-2.51-.89-2.65-.88-.16-1.8-1.36-3.1-1.73-4.88-.17-.81-.63-3.3.84-3.04l3.54,8.81Z"/>
    <path class="cls-13" d="M134.17,130.57c.31-1.04,1.79-2.32,2.63-3.1,2.5-2.33,15.79-14.29,17.61-15.02,1.64-.66,2.71-1.18,2.73.95.04,3.2-1.86,5.07-2.67,8.36q-1.55,3.85,0,0c1.68-.54,5.12-.59,7.26-1.12,4.29-1.06,10.93-5.19,12.15,1.12-.86,1-.86,1.59,0,1.76,2.6-.16,3.11-.31,2.65,2.64-2.29,1.02-2.59,1.61-.88,1.76-.31,1.14-.02,2.26-.88,3.52-6.98,1.69-8.16,2.28-3.53,1.76.4,2.71.04,2.12-1.72,3.09-5.82,3.19-12.43,5.84-18.57,8.36-.25.1-.63-.11-.88,0-1,.43-2.63.44-3.53.88-2,.47-1.84-1.08-2.62-2.19-3-4.31-5.58-9.64-9.74-12.78Z"/>
    <path class="cls-11" d="M146.52,110.31c-2.37,2.78-1.59-6.66-2.16-7.09.07-2.03-5.34-11.79-4.89-12.29,1.57-1.74,4.79,5.97,5.09,6.8.8,2.17,3.09,11.24,1.96,12.57Z"/>
    <path class="cls-11" d="M193.29,70.66c.19.84-.73,1.39-.88,1.76-3.31-.48-7.04-1.24-10.03-2.76-.71-.36-8.11-4.77-6.56-5.73.8-.5,9.01,5.02,10.38,5.44,2.14.65,4.69.64,7.09,1.29Z"/>
    <path class="cls-11" d="M176.53,126.17c-.17,1.07-.81,1.51-.88,1.76-3.98-.21-7.64,1.34-11.39,2.29-1.01.26-2.69.74-1.84-.96.78-1.58,11.8-3.32,14.11-3.09Z"/>
    <path class="cls-11" d="M173.88,121.76c.1.53-.07,1.2,0,1.76-3.65.22-7.84,1.37-11.42,2.26-1.08.27-2.41.99-1.82-.94.35-1.14,11.26-3.07,13.24-3.09Z"/>
    <path class="cls-11" d="M174.76,131.45c-1.12,1.63-2.17,1.22-3.53,1.76-1.62.64-3.16,1.41-4.92,1.7-.87.14-4.08.75-3.9-.81,4.06-.98,8.04-2.93,12.35-2.65Z"/>
    <path class="cls-8" d="M308.54,70.72c-17.02-2.15-16.42-23.43-14.66-36.18,1.46-.27,7.7.58,7.95-.44.56-2.36-4.7-2.16-5.73-2.22-.91-.05-2,.12-1.33-1.29.19-.41,3.78-4.77,4.37-5.33,1.21-1.17,9.56-7.16,10.62-5.69.14.19.31,2.75,1.36,4.38,2.34,3.62,7.5,6.29,10.11,9.72-.84-.69-13.68-.13-10.59,2.64.39.35,10.19.34,10.59,0,.1-.09.1-2.56,0-2.64,2.9.69,6.56,4.81,9.41,5.12,1.88.21,3.3-2.56,7.4-1.21,6.73,2.21,4.88,13.86-1.55,15.3-1.39.31-3.97-.13-4.58.27-.81.53-3.02,16.66-2.71,18.8.52,3.5,3.33,5.75,5.25,8.41-.94.11-2.14,1.93-3.23,2.51-10.39,5.5-20.94,3.03-22.36-9.55l-.34-2.59Z"/>
    <path class="cls-8" d="M310.65,124.4c10.9.74,14.08,7.16,21.16,13.67,1.07.98,1.86,2.23,3.54,2.19-.19.44.17,1.69-.38,2.69-1.23,2.25-2.83,5.19-4.17,7.3-.79,1.24-2.5,4.38-4.27,4.11-.73-.85-7.84-3.31-9.98-4.57s-4.46-3.86-5.94-4.64c-2.98-1.56-9.11-.87-9.67-5.76,6.86.99,6.27.41-1.76-1.76-3.71-.19-1.24-5.61,1.76-3.52,13.76.87,13.76.58,0-.88-4.09,4.66-6.02-5.69-3.61-8.25,1.4-1.48,12.71-3.84,13.31-.56Z"/>
    <path class="cls-3" d="M299.18,138.5c-1.27-.41-3.62.03-4.48-1.45-1.08-1.85-4.75-17.63-5.02-20.38s-.29-3.54,2.84-3.77c2.29-.17,15-.9,16.24.17.88.76,1.18,9.34,1.89,11.33-1.94-.13-11.51.78-12.25,1.86-.33.49-.27,4.7,0,5.54.49,1.53,2.15,1.13,2.54,1.41.81.28.8.57,0,.88-.61.82-2.46,1.16-1.76,3.52.77.25.76.54,0,.88Z"/>
    <path class="cls-11" d="M300.94,152.59c.29.24.77.27.88.88-1.77.66-14.06,3.33-14.16,4.05-.32,2.28-.75,5.55-.88,7.8-1.31,22.26,1.56,46.14.04,68.32v-77.53c2.68.27,10.52-3.93,14.12-3.52Z"/>
    <path class="cls-7" d="M285.94,150.83c-6.28-13.95-5.23-30.25-2.2-44.93,2.13-.39,1.38,1.72,1.23,3-1.03,8.97-2.58,17.19-1.68,26.53.5,5.24,3.32,10.11,3.54,15.41-.29-.03-.59.03-.88,0Z"/>
    <path class="cls-11" d="M299.18,137.62l14.13,2.19c2.5,1.87-1.86,1.52-4.02,1.37-2.8-.2-5.65-1.05-8.34-1.8-.16-.04-.9-.6-1.76-.88v-.88Z"/>
    <path class="cls-11" d="M308.83,72.88c.13-.04.32-.12.76-.25,3.02-.89,10.63-1.22,12.79-5.18-5.2,2.16-9.29,3.84-13.83,3.27"/>
    <path class="cls-4" d="M257.63,188.83c.15.15-.09,4.56,1.83,2.53.51-.54.19-3.27,2.66-2.64-.29,1.54.41,8.33,0,8.81-.09.1-2.56.11-2.64,0-.42-.57.66-3.24-.45-3.53-1.9-.5-1.11.95-1.52,1.97s-1.79,2.29-2.44,1.55c-.39-.44.28-6.49,0-7.93-3.05.64-1.19,6.39-1.76,7.05-.09.1-2.56.1-2.64,0-.43-.5.43-6.54,0-7.05-.14-.17-3.13,1.48-4.38.92-1.47,5.15,3.19,2.17,3.5,6.13-1.32-.25-4.37.47-5.19-.1-1.23-.84-1.77-7.07.77-8.28.54-.26,6.06-1.29,6.67-1.26,1.07.04,1.85,1.08,2.87,1.48.86.34,2.42,0,2.74.34Z"/>
    <path class="cls-4" d="M260.35,206.34c.17.17.32,2.3-.54,2.69-5.93,2.73-11.71,3.57-17.98,1.26-1.64-.61-8.26-4.48-6.19-6.59.72-.73,7.54,3.99,10.21,4.34,2.14.28,5.69.3,7.82,0,1.44-.2,6.01-2.37,6.67-1.7Z"/>
    <path class="cls-4" d="M230.35,183.42c.46.53-.68,6.17.45,6.17,2.53,0,.85-2.81,1.45-4.72.34-1.08,2.02-1.99,2.51-1.45.42.47.54,11.2-1.33,12.32-2.53.48-.66-2.35-1.42-3.41-.38-.53-3.55-.48-4.18-2.44-.27-.85-.33-6.24-.12-6.48.09-.1,2.56-.1,2.64,0Z"/>
    <path class="cls-4" d="M264.07,189.8c.54-.66,2.62-1.08,3.58-.94,6.53.97,2.59,12.09-2.49,8.71-2.45-1.63-2.77-5.74-1.09-7.77Z"/>
    <path class="cls-4" d="M238.3,193.13c-.2,1.85,3.03.43,3.52.88,2.32,2.13-6.62,5.11-6.23-2.19.21-3.85,2.65-5.71,6.26-3.56,2.71,1.61-.91,5.61-3.55,4.88Z"/>
    <path class="cls-9" d="M66.23,63.62c-13.68,2-18.04-22.14-3.15-20.21,4.73.61,4.75,3.26,10.17-.54s11.8-12,13.09-18.65c.27-1.42.02-5.32.2-5.53,1.99-2.3,1.66,2.49,1.76,2.64-.61,6.85-4.76,15.1-10.14,19.39-.98.78-9.25,5.87-9.91,6.04-1.83.46-3.3-1.38-5.15-1.63-10.62-1.47-8.78,13.79-2.44,15.69,1.59.47,6.15-.13,6.45.16.55.52-.83,2.24-.88,2.64Z"/>
    <path class="cls-11" d="M35.34,83.88c-.07-.35-1.84-2.55-.88-3.52,1.91-1.93,1.66,1.68,1.76,2.64l-.88.88Z"/>
    <path class="cls-7" d="M413.88,38.95c-.38.39-5.46-2.6-6.13-3.12-.73-.56-2.63-2.29-1.8-3.04,1.3-1.18,10.18,3.82,7.94,6.16Z"/>
    <path class="cls-1" d="M416.53,77.71c.16-2.93.94-1.25,3.26-2.45l6.43-3.29c-1.72,1.74-4.21,4.1-6.43,5.05-1.36.59-2.39.4-3.26.68Z"/>
    <path class="cls-7" d="M409.47,40.71c.45.45,0,4.02-1.33,4.4-4.91,1.38-1.09-6.79,1.33-4.4Z"/>
    <path class="cls-1" d="M433.3,59.21c.24-2,3.19.12,4.67-.12,1.01-.17,3.03-1.86,3.27-1.63,2.76,2.64-6.83,3.02-7.93,1.76Z"/>
    <path class="cls-7" d="M199.47,55.69c1.81,1.51-3.81,3.55-5.52,3.36-1.51-.17-7.64-3.57-7.7-4.68-.17-3.51,6.49,2.09,7.54,2.23,1.66.22,5.09-1.4,5.68-.9Z"/>
    <path class="cls-11" d="M199.46,36.3c1.55,6.73,6.81,13.68-4.41,13.21.43-2.35,4.85-1.25,5.24-3.14.29-1.41-2.33-6.72-2.58-8.77-.22-1.75.29-1.36,1.75-1.3Z"/>
    <path class="cls-7" d="M191.53,28.38c.11.07.1,2.55,0,2.64-.28.25-4.49-.13-5.76-.01-1.14.1-4.42,1.31-4.83.89-.1-.1-.47-2.36.58-2.64,1.5-.4,4.2-1.44,5.28-1.52.49-.03,4.53.52,4.74.64Z"/>
    <path class="cls-7" d="M207.36,29.32c.16.25.14,2.48.05,2.58-.47.48-5.59-1.52-7.06-.88-2.22-4.3,6.51-2.5,7.02-1.7Z"/>
    <path class="cls-7" d="M188.88,35.43c1.03,1.01,1.1,4.91-1.31,4.4-2.92-.62-.34-6.01,1.31-4.4Z"/>
    <path class="cls-7" d="M205.17,35.43c1.03,1.01,1.1,4.91-1.31,4.4-2.92-.62-.34-6.01,1.31-4.4Z"/>
    <path class="cls-11" d="M178.29,66.26c-.87.89-3.55-1.71-2.64-2.64s3.55,1.71,2.64,2.64Z"/>
    <path class="cls-1" d="M93.58,37.19c.43,2.34-.47,1.53-1.78,2.14-.95.45-4.93,2.57-5.27,2.26-1.5-1.39,4.83-6.08,7.05-4.4Z"/>
    <path class="cls-11" d="M66.23,53.04c-.8.8-2.88-1.55-3.61-2.15-.41-.34-3.23-.85-1.68-2.25.97-.88,6.57,3.12,5.29,4.4Z"/>
    <path class="cls-7" d="M94.46,44.24c.2.2.74,5.21-1.31,4.4-3.11-1.23-.09-5.79,1.31-4.4Z"/>
    <path class="cls-1" d="M367.13,207.21c-.56-2.31.76-1.51,1.67-2.26,3.45-2.85,7.27-4.48,11.32-6.35l6.41-1.52c-6.3,3.7-13.41,5.85-19.39,10.14Z"/>
    <path class="cls-1" d="M347.71,208.98c.86-5.27,2.86-11.12,6.62-14.96l-4.62,12.12-2,2.84Z"/>
    <path class="cls-1" d="M356.54,203.69c.26-2.48,1.33-6.49,3.52-7.93-.22,2.63-1,6.57-3.52,7.93Z"/>
    <path class="cls-1" d="M345.06,205.46c-1.48-.04-1.91.57-1.59-1.15.28-1.53.76-4.47,2.47-5.03l-.88,6.17Z"/>
    <path class="cls-1" d="M362.71,185.2c.24.23-3.27,3.88-3.52,4.87l-3.53,3.05,1.73-3.98,5.32-3.94Z"/>
    <path class="cls-1" d="M352.12,189.6c.67.64-3.1,3.57-3.24,3.78-.96,1.48-.59,4.38-2.93,5.02-.32-2.55,1.52-4.39,2.67-6.39,1.06-.09,2.18-3.67,3.5-2.41Z"/>
    <path class="cls-1" d="M369.77,185.19c1.04,1.04-1.75,3.5-3.53,2.63.22-1.2,2.79-3.37,3.53-2.63Z"/>
    <path class="cls-1" d="M363.59,191.36c.9.87-1.71,3.54-2.64,2.64s1.71-3.54,2.64-2.64Z"/>
    <path class="cls-1" d="M389.18,194.88c.96.96-.8,2.72-1.76,1.76s.8-2.72,1.76-1.76Z"/>
    <path class="cls-3" d="M420.95,175.5c-2.65,1.27-6.91,3.58-9.44,5.11-1.24.75-2.37,1.36-2.92,2.82-7.21,2.76-12.1,3.24-19.01,5.25-6.46,1.88-13.09,6.27-19.38,8.84l3.94-4.87c1.01-.58,2.6-1.82,3.57-2.16,8.59-3.04,17.4-5.67,24.72-11.88,4.13-3.5,12.61-15.33,11.45-20.72h.88c1.71,5.86,4.76,11.6,6.18,17.62Z"/>
    <path class="cls-12" d="M368.44,198.41c.57,0,.57.88,0,.88s-.57-.88,0-.88Z"/>
    <path class="cls-12" d="M366.68,199.29c.57,0,.57.88,0,.88s-.57-.88,0-.88Z"/>
    <path class="cls-2" d="M190.64,238.05c-.56-1.42-5.92-2.75.38-5.34,2.37-.97,9.56-.48,11.09.94.19.18.09,2.02-.39,2.68-1.4,1.93-8.63,1.86-11.08,1.71Z"/>
    <path class="cls-8" d="M190.64,238.05c.18.46.29,1.69-.45,1.77-2.33.26-6.66-1.57-9.07-2.44-1.42-.51-2.38.5-1.95-1.97,3.94,1.06,7.28,2.38,11.47,2.64Z"/>
    <path class="cls-11" d="M126.23,203.7c.44,3.67-2.48.56-4.16.18-2.57-.6-6.72.14-8.2-2.82,4.26.3,8.41,1.08,12.35,2.65Z"/>
    <path class="cls-11" d="M116.53,193.11c-.03-1.7,3.7-.86,4.65-.67,2.55.51,6.01,1.71,7.69,3.77l-12.34-3.1Z"/>
    <path class="cls-11" d="M135.05,201.05c-.8.8-2.88-1.55-3.61-2.15-.41-.34-3.23-.85-1.68-2.25.97-.88,6.57,3.12,5.29,4.4Z"/>
    <path class="cls-11" d="M154.47,121.76c-.23.93,0,2.17-.41,3.53-.32,1.07-4.13,8.76-5.76,7.04-.58-.61,5.18-7.56,4.91-9.63.29-.43.77-.78,1.26-.94Z"/>
    <path class="cls-9" d="M313.29,55.69c.49.49-.44,3.06-.98,3.86-2.35,3.53-9.8,3.23-11.26-.9-1.22-3.46,3.58-1.84,6.52-2.08,1.16-.09,5.16-1.44,5.72-.89Z"/>
    <path class="cls-11" d="M306.23,40.71c.59.67-2.68,6.79-2.65,8.42.03,2.06,4.39,2.38,2.65,3.91-.2.18-5.07-.73-5.29-.88-.5-.34,2.63-8.52,3.13-9.69.28-.65.79-3.31,2.17-1.75Z"/>
    <path class="cls-7" d="M298.75,38.07c2.97-.63,2.97,5.91,0,5.28-1.83-.39-1.83-4.89,0-5.28Z"/>
    <path class="cls-7" d="M314.45,38.52c2.97-.63,2.97,5.91,0,5.28-1.83-.39-1.83-4.89,0-5.28Z"/>
    <path class="cls-11" d="M337.12,42.48c.65.53-3.34,2.85-3.52,2.64-1.07-1.28,2.26-3.66,3.52-2.64Z"/>
    <path class="cls-11" d="M318.59,129.7c-.04,1.46.58,1.92-1.14,1.58-6.02-1.18-12.29-.57-18.28-2.02,1.25-1.87,2.02-1.03,3.51-.93,5.34.37,10.68.34,15.9,1.37Z"/>
    <path class="cls-11" d="M300.94,133.21c1.87-.35,14.77.55,15,1.33.61,2.04-1.88,1.33-3.01,1.23l-12-1.68c.05-.07.04-.86,0-.88Z"/>
    <path class="cls-14" d="M268.29,191.35c.14.17.14,4.25,0,4.41-.09.1-2.56.1-2.64,0-.14-.17-.14-4.25,0-4.41.09-.1,2.56-.1,2.64,0Z"/>
    <path class="cls-14" d="M240.94,189.6c.5.4-1.91,2.49-2.64,1.75-1.41-1.42,1.66-2.54,2.64-1.75Z"/>
    <path class="cls-5" d="M196.82,234.53c2.82,2.12-4.66,1.81-5.29.86.47-2.5,4.31-1.6,5.29-.86Z"/>
</svg>