<svg xmlns="http://www.w3.org/2000/svg" width="24" height="24" viewBox="0 0 24 24" fill="none">
  <circle cx="12" cy="12" r="12" fill="#29A9EA"/>
  <path d="M5.4 11.86c3.7-1.62 6.17-2.68 7.41-3.17 3.53-1.47 4.26-1.72 4.74-1.73.11 0 .36.03.52.16.13.11.17.25.19.35.02.1.04.34.02.52-.18 1.92-1 6.59-1.41 8.73-.17.89-.5 1.19-.82 1.22-.7.06-1.23-.46-1.9-.9-1.06-.69-1.66-1.12-2.69-1.8-1.19-.78-.42-1.21.26-1.91.18-.19 3.26-2.98 3.32-3.23.01-.03.01-.15-.06-.2-.07-.05-.17-.03-.24-.02-.1.02-1.7 1.08-4.8 3.2-.45.31-.86.47-1.23.46-.4-.01-1.18-.23-1.76-.42-.71-.23-1.28-.36-1.23-.78.03-.22.33-.44.92-.68Z" fill="#fff"/>
</svg>

