<svg width="1065" height="232" viewBox="0 0 1065 232" fill="none" xmlns="http://www.w3.org/2000/svg">
<path d="M830.518 94.7771C834.616 94.4538 836.67 95.2284 836.547 97.0493C836.51 97.5873 836.795 98.2255 837.181 98.4666C837.744 98.819 837.798 99.2866 837.463 100.857C836.496 105.394 822.042 142.128 820.643 143.604C820.41 143.851 820.035 144.764 819.809 145.633C819.396 147.222 816.103 154.266 813.244 159.676C812.274 161.511 810.994 163.156 809.761 164.152C807.785 165.748 804.812 167.288 803.832 167.222C803.536 167.203 802.688 167.62 801.946 168.149C800.352 169.289 800.671 169.262 799.179 168.386C798.509 167.994 797.121 167.615 796.094 167.543C794.128 167.407 793.739 166.892 795.081 166.203C795.739 165.865 795.617 165.803 794.4 165.857C793.206 165.911 792.845 165.737 792.538 164.961C792.274 164.293 791.887 164.045 791.279 164.154C788.798 164.598 776.828 147.699 773.003 138.352C767.948 125.995 766.881 120.276 769.151 117.699C771.287 115.273 777.82 113.733 784.15 114.164C788.548 114.463 792.124 115.612 792.527 116.854C792.64 117.199 793.087 117.505 793.522 117.534C793.958 117.564 795.22 118.41 796.327 119.414C797.435 120.418 798.486 121.249 798.665 121.262C798.843 121.274 800.096 119.791 801.45 117.967C806.519 111.137 812.02 105.383 818.038 100.618C822.701 96.9248 826.637 95.0828 830.518 94.7771ZM825.464 111.918C825.354 111.798 830.215 99.218 824.353 103.161C820.236 107.218 813.817 115.483 810.416 120.121C805.913 126.262 804.612 129.856 806.847 133.445C806.571 133.215 807.016 134.292 806.661 134.471C806.297 134.654 806.217 135.237 806.402 136.36C806.522 137.084 806.684 137.617 806.903 137.911L806.916 138.413C806.265 139.916 805.743 140.107 804.758 139.093C803.788 138.095 802.719 138.165 803.634 139.167C803.901 139.46 804.1 139.975 804.078 140.311C804.045 140.796 803.866 140.754 803.209 140.102C802.754 139.651 802.368 139.48 802.352 139.722C802.335 139.964 802.013 140.252 801.636 140.362C801.166 140.498 798.424 134.401 794.843 131.001C789.608 125.208 784.363 122.15 784.363 122.15C784.344 122.145 780.312 120.993 778.163 122.271C776.624 123.187 776.244 125.528 776.398 126.378C776.821 128.729 779.862 135.522 783.065 141.272C785.732 146.06 787.24 148.162 790.923 152.228C797.067 159.009 799.923 161.58 807.095 160.863C811.943 160.379 819.734 129.329 820.084 128.375C820.433 127.428 824.347 115.406 825.115 113.5C825.416 112.75 825.573 112.039 825.464 111.918Z" fill="url(#paint0_linear_3668_23131)" fill-opacity="0.9"/>
<path fill-rule="evenodd" clip-rule="evenodd" d="M544.576 141.585C544.383 141.717 544.046 141.944 543.829 142.091C543.612 142.238 543.387 142.378 543.33 142.403C543.273 142.428 542.66 142.886 541.968 143.422C540.572 144.501 539.359 145.941 539.466 146.389C539.504 146.55 539.438 146.704 539.318 146.733C538.998 146.809 537.974 148.691 537.951 149.245C537.94 149.507 537.816 150.269 537.674 150.939C537.533 151.608 537.411 153.032 537.403 154.104C537.389 155.947 537.443 156.549 537.857 159.213C537.952 159.826 538.097 160.883 538.18 161.562C538.304 162.589 538.505 164.149 538.588 164.726C538.62 164.95 537.892 164.975 536.9 164.784C536.151 164.639 535.638 164.713 534.239 165.167C533.286 165.476 532.098 165.966 531.599 166.255C531.101 166.544 530.342 166.93 529.912 167.112C529.483 167.295 529.156 167.549 529.187 167.676C529.217 167.804 529.093 167.888 528.912 167.864C528.49 167.807 526.618 168.909 524.667 170.363C524.453 170.523 523.828 170.93 523.278 171.267C522.728 171.605 522.121 172.091 521.93 172.346C521.437 173.004 520.792 173.577 520.452 173.658C520.292 173.697 520 174.013 519.802 174.361C519.605 174.709 518.976 175.503 518.406 176.125C517.836 176.747 517.297 177.385 517.208 177.543C517.12 177.701 516.711 178.256 516.299 178.776C515.887 179.296 515.582 179.855 515.621 180.018C515.66 180.181 515.474 180.71 515.208 181.195C514.214 183.004 514.672 184.71 516.187 184.841C517.164 184.925 517.836 185.425 517.688 185.956C517.614 186.22 517.655 186.343 517.804 186.307C517.955 186.271 518.084 186.677 518.181 187.488C518.302 188.508 518.385 188.71 518.658 188.645C518.839 188.602 519.086 188.75 519.206 188.976C519.352 189.25 519.607 189.342 519.974 189.254C520.276 189.182 520.608 189.207 520.71 189.309C520.813 189.412 521.275 189.405 521.738 189.295C522.2 189.184 522.839 189.128 523.156 189.17C523.473 189.212 524.272 189.178 524.931 189.095C529.498 188.52 532.621 188.043 532.908 187.876C533.092 187.768 533.325 187.761 533.424 187.861C533.523 187.961 534.106 187.88 534.719 187.681C535.963 187.278 537.283 187.147 537.349 187.419C537.372 187.518 536.929 187.971 536.365 188.427C535.8 188.883 535.249 189.438 535.141 189.661C535.032 189.883 534.786 190.11 534.593 190.164C534.401 190.219 533.824 190.665 533.31 191.156C532.797 191.647 532.082 192.3 531.722 192.607C531.362 192.914 530.59 193.788 530.007 194.55C529.424 195.312 528.748 196.074 528.505 196.243C528.262 196.413 528.098 196.702 528.142 196.885C528.186 197.068 528.128 197.241 528.013 197.268C527.718 197.339 526.478 199.519 526.553 199.834C526.588 199.978 526.483 200.186 526.32 200.298C526.158 200.41 526.064 200.663 526.111 200.86C526.158 201.057 525.992 201.661 525.742 202.203C525.493 202.745 525.302 203.529 525.318 203.945C525.334 204.362 525.277 204.983 525.192 205.327C525.107 205.671 525.108 206.252 525.195 206.619C525.282 206.986 525.284 207.401 525.198 207.542C525.113 207.684 525.201 208.208 525.394 208.708C525.672 209.428 525.887 209.652 526.436 209.79C526.816 209.885 527.2 209.932 527.289 209.894C527.701 209.721 527.827 209.819 527.653 210.176C527.499 210.491 527.533 210.575 527.833 210.616C528.037 210.643 528.303 210.565 528.425 210.442C528.585 210.281 528.65 210.402 528.665 210.885C528.676 211.25 528.709 211.414 528.738 211.248C528.855 210.574 529.197 210.904 529.263 211.754C529.322 212.508 529.407 212.667 529.777 212.714C530.021 212.746 530.362 212.89 530.535 213.034C530.761 213.223 530.876 213.216 530.944 213.009C531.012 212.801 531.254 212.779 531.82 212.928C532.25 213.041 532.679 213.091 532.774 213.038C532.87 212.984 533.109 213.021 533.307 213.119C533.505 213.218 533.795 213.21 533.951 213.103C534.107 212.995 534.383 213.02 534.564 213.157C534.805 213.338 534.989 213.321 535.246 213.091C535.471 212.89 536.063 212.74 536.885 212.676C537.646 212.616 538.425 212.429 538.791 212.219C539.131 212.023 540.019 211.704 540.766 211.51C541.512 211.315 542.154 211.06 542.192 210.943C542.23 210.825 542.498 210.673 542.786 210.604C543.075 210.535 543.569 210.221 543.885 209.905C544.201 209.59 544.654 209.337 544.891 209.342C545.129 209.347 545.562 209.076 545.855 208.739C546.146 208.402 546.566 208.082 546.786 208.029C547.006 207.976 547.467 207.632 547.811 207.264C548.884 206.115 549.198 205.842 549.549 205.755C549.736 205.709 550.316 205.154 550.839 204.523C551.361 203.892 551.978 203.264 552.209 203.127C552.441 202.991 552.958 202.449 553.358 201.924C553.758 201.399 554.185 200.946 554.306 200.917C554.427 200.888 554.541 200.653 554.559 200.394C554.578 200.136 554.774 199.881 554.995 199.828C555.216 199.775 555.794 199.143 556.279 198.423C556.764 197.704 557.342 196.915 557.564 196.672C557.786 196.428 558.363 195.549 558.846 194.719C559.328 193.89 559.916 193.043 560.151 192.84C560.386 192.635 560.561 192.394 560.539 192.303C560.477 192.043 562.131 189.26 562.829 188.45C563.211 188.007 563.8 187.62 564.331 187.463L565.205 187.205L566.673 189.807C567.48 191.239 568.284 192.739 568.46 193.142C568.635 193.545 568.905 193.975 569.059 194.098C569.214 194.222 569.525 194.719 569.75 195.204C569.975 195.689 570.461 196.69 570.829 197.428C571.508 198.789 572.356 201.828 572.462 203.276C572.493 203.714 572.603 204.397 572.706 204.795C572.808 205.193 572.817 205.815 572.727 206.176C571.934 209.335 571.248 211.563 570.948 211.957C570.889 212.035 570.547 213.14 570.189 214.413C569.421 217.144 569.577 217.66 571.135 217.542C571.73 217.498 572.171 217.612 572.4 217.871C572.7 218.212 572.691 218.271 572.334 218.285C571.82 218.304 571.53 219.194 571.93 219.521C572.081 219.644 572.447 219.686 572.745 219.615C573.184 219.51 573.244 219.406 573.062 219.064C572.894 218.747 572.933 218.639 573.218 218.63C573.445 218.623 573.61 218.789 573.625 219.04C573.645 219.367 573.745 219.411 574.073 219.235C574.339 219.092 574.52 219.113 574.563 219.291C574.659 219.695 575.79 219.604 575.844 219.188C575.868 219.005 576.001 218.842 576.141 218.826C576.707 218.761 576.921 218.599 576.847 218.29C576.804 218.11 576.994 217.612 577.269 217.182C577.82 216.322 578.498 214.643 578.422 214.326C578.318 213.89 578.88 212.14 579.144 212.077C579.298 212.04 579.498 211.602 579.588 211.104C579.679 210.606 579.916 209.618 580.115 208.909C580.325 208.162 580.376 207.585 580.235 207.538C579.873 207.417 579.848 207.056 580.195 206.973C580.462 206.909 580.563 206.389 580.524 205.277C580.449 203.113 580.348 202.285 579.891 200.064C579.466 197.993 579.282 197.436 578.96 197.237C578.674 197.06 578.605 196.892 578.717 196.651C578.903 196.253 577.687 193.355 576.898 192.316C576.625 191.957 576.302 191.358 576.179 190.986C576.056 190.614 575.728 190 575.451 189.621C575.174 189.243 574.958 188.81 574.972 188.66C574.985 188.509 574.878 188.347 574.734 188.299C574.589 188.25 574.388 187.865 574.287 187.442C574.106 186.684 574.115 186.672 574.849 186.672C575.912 186.672 577.629 186.175 577.921 185.783C578.111 185.527 578.256 185.492 578.537 185.632C578.746 185.736 578.936 185.716 578.979 185.585C579.02 185.459 579.312 185.344 579.628 185.33C579.943 185.316 580.637 185.075 581.168 184.796C581.7 184.515 582.565 184.14 583.09 183.961C584.461 183.494 585.184 183.126 585.135 182.921C585.112 182.823 585.448 182.609 585.882 182.446C586.715 182.132 587.733 181.506 588.544 180.809C588.813 180.579 589.259 180.288 589.537 180.163C590.495 179.732 592.791 177.984 592.921 177.588C592.966 177.45 593.186 177.293 593.409 177.24C593.633 177.186 593.831 176.931 593.849 176.672C593.867 176.414 594.068 176.158 594.295 176.103C594.522 176.049 594.852 175.663 595.028 175.245C595.203 174.827 595.61 174.316 595.93 174.11C596.251 173.903 596.517 173.523 596.522 173.265C596.527 173.007 596.62 172.775 596.728 172.749C596.837 172.723 596.959 172.434 597.001 172.106C597.042 171.778 597.164 171.489 597.272 171.463C597.462 171.418 597.539 170.097 597.373 169.735C597.327 169.635 597.388 169.36 597.51 169.124C597.645 168.863 597.623 168.368 597.452 167.855C597.298 167.392 597.228 166.889 597.297 166.736C597.61 166.042 596.107 161.888 595.381 161.438C595.224 161.341 595.061 161.116 595.018 160.937C594.91 160.485 593.623 158.934 593.4 158.987C593.299 159.011 593.117 158.863 592.994 158.659C592.603 158.007 590.169 156.524 589.682 156.641C589.429 156.701 589.11 156.628 588.972 156.478C588.602 156.074 585.344 156.143 582.893 156.606C582.154 156.746 581.807 156.352 582.119 155.726C582.341 155.28 582.886 152.903 583.029 151.762C583.07 151.434 583.181 150.854 583.276 150.473C583.371 150.091 583.362 149.417 583.256 148.975C583.149 148.534 583.131 148.031 583.214 147.858C583.298 147.686 583.267 147.38 583.147 147.179C583.027 146.979 582.847 146.115 582.748 145.26C582.569 143.726 581.932 141.971 581.433 141.641C581.299 141.553 581.147 141.303 581.095 141.087C580.985 140.626 580.749 140.638 580.415 141.122C580.214 141.414 580.205 141.401 580.361 141.039C580.647 140.377 579.968 139.261 579.263 139.233C578.952 139.221 578.787 139.179 578.897 139.14C579.122 139.06 576.827 138.225 576.559 138.289C576.464 138.312 576.127 138.158 575.809 137.947C575.284 137.599 575.057 137.61 573.332 138.069C570.862 138.725 570.116 138.983 569.965 139.231C569.897 139.342 569.516 139.511 569.118 139.606C568.721 139.702 568.416 139.864 568.44 139.968C568.465 140.072 567.946 140.355 567.287 140.597C566.628 140.84 566.004 141.146 565.901 141.277C565.798 141.408 565.361 141.732 564.929 141.995C563.951 142.594 562.888 143.612 562.955 143.888C562.982 144.003 562.743 144.265 562.424 144.471C562.105 144.676 561.824 144.998 561.799 145.186C561.775 145.373 561.614 145.56 561.441 145.602C561.268 145.643 561.112 145.759 561.093 145.858C561.004 146.348 559.216 148.445 558.804 148.543C558.545 148.605 558.366 148.555 558.406 148.432C558.493 148.163 557.574 146.85 557.214 146.73C557.075 146.684 556.906 146.414 556.838 146.13C556.77 145.847 556.634 145.6 556.535 145.581C556.436 145.562 556.113 145.241 555.817 144.867C554.808 143.59 553.088 142.292 552.566 142.413C552.277 142.48 552.044 142.392 551.998 142.198C551.918 141.864 551.347 141.867 551.253 142.203C551.225 142.305 551.202 142.259 551.202 142.1C551.203 141.626 550.591 141.919 550.451 142.459C550.38 142.734 550.207 142.92 550.067 142.874C549.917 142.824 549.967 142.612 550.186 142.363C550.486 142.022 550.495 141.863 550.234 141.567C549.81 141.086 549.46 141.177 549.593 141.734C549.7 142.179 549.492 142.306 548.344 142.502C547.937 142.571 547.785 142.694 547.88 142.877C547.957 143.027 547.963 143.085 547.891 143.007C547.819 142.929 547.633 142.896 547.477 142.933C547.201 142.999 546.82 142.608 546.709 142.145C546.672 141.989 546.757 141.968 546.98 142.077C547.423 142.294 548.766 141.872 548.798 141.506C548.811 141.343 548.726 141.068 548.609 140.896C548.442 140.651 548.341 140.654 548.152 140.908C547.969 141.154 547.856 141.182 547.695 141.02C547.569 140.894 547.235 140.92 546.886 141.081C546.559 141.233 546.272 141.275 546.248 141.175C546.197 140.964 545.095 141.235 544.576 141.585ZM578.196 139.515C578.225 139.636 578.346 139.711 578.466 139.682C578.585 139.653 578.659 139.532 578.63 139.412C578.601 139.291 578.48 139.216 578.361 139.245C578.242 139.273 578.167 139.395 578.196 139.515ZM547.147 149.251C547.102 149.389 546.882 149.545 546.658 149.599C546.212 149.705 545.113 151.779 545.234 152.285C545.276 152.459 545.245 152.716 545.165 152.856C545.01 153.129 544.982 154.971 545.116 156.124C545.383 158.434 545.475 159.859 545.368 160.035C545.334 160.091 545.436 160.329 545.595 160.564C545.759 160.808 545.962 161.872 546.065 163.04C546.165 164.167 546.377 165.78 546.535 166.625C546.768 167.867 546.754 168.191 546.465 168.323C546.216 168.436 546.178 168.604 546.339 168.873C546.611 169.326 546.062 169.57 545.67 169.17C545.273 168.764 544.651 168.795 544.438 169.231C544.299 169.517 543.992 169.66 543.392 169.721C542.924 169.768 542.508 169.91 542.467 170.036C542.426 170.163 542.055 170.556 541.643 170.91C541.099 171.377 540.928 171.69 541.016 172.056C541.122 172.499 541.048 172.569 540.407 172.631C540.007 172.67 539.502 172.61 539.286 172.498C538.322 172 536.237 172.336 535.07 173.178C534.792 173.379 534.468 173.537 534.351 173.529C534.12 173.514 531.724 174.906 530.139 175.978C529.596 176.345 528.875 176.784 528.537 176.953C528.199 177.122 527.631 177.551 527.274 177.906C526.917 178.26 526.222 178.892 525.729 179.308C525.235 179.725 524.677 180.339 524.487 180.674C524.162 181.247 524.167 181.283 524.568 181.3C525.292 181.332 526.97 181.176 528.121 180.969C535.868 179.579 540.39 178.547 543.221 177.526C544.547 177.047 545.776 176.572 545.951 176.471C546.127 176.368 546.784 176.101 547.412 175.876C548.039 175.651 548.711 175.326 548.904 175.154C549.376 174.732 550.96 174.452 551.785 174.643C552.272 174.756 552.492 174.962 552.597 175.4C552.742 176.008 553.498 176.848 553.828 176.769C553.927 176.745 554.137 176.137 554.296 175.418C554.455 174.699 554.764 173.789 554.984 173.395C555.204 173.002 555.386 172.428 555.389 172.121C555.392 171.749 555.622 171.421 556.074 171.14C556.448 170.908 556.723 170.59 556.685 170.433C556.505 169.679 559.307 167.838 561.426 167.316L562.853 166.966L561.996 166.739C561.524 166.615 561.06 166.613 560.963 166.736C560.866 166.859 560.168 167.085 559.411 167.238C558.539 167.414 558.001 167.624 557.942 167.811C557.878 168.014 557.619 168.1 557.109 168.086C556.325 168.064 555.947 167.534 555.656 166.049C555.584 165.685 555.124 163.975 554.634 162.249C554.143 160.524 553.318 157.491 552.801 155.51C551.954 152.271 551.78 151.807 551.072 150.898C550.638 150.342 550.215 149.904 550.13 149.924C550.045 149.944 549.732 149.655 549.433 149.282C548.951 148.681 548.795 148.626 548.059 148.802C547.602 148.911 547.192 149.113 547.147 149.251ZM570.599 147.679C567.667 149.602 565.203 152.694 564.754 155.012C564.229 157.729 563.942 159.495 563.941 160.024C563.941 160.341 563.902 160.845 563.854 161.142C563.807 161.439 563.731 161.925 563.686 162.222C563.64 162.519 563.613 163.071 563.625 163.45C563.695 165.616 563.653 166.005 563.303 166.465L562.918 166.969L563.549 166.818C563.897 166.735 564.295 166.736 564.435 166.819C564.575 166.902 565.25 166.941 565.935 166.905C566.621 166.87 567.369 166.867 567.598 166.899C567.924 166.944 568.008 166.807 567.987 166.265C567.968 165.769 568.245 165.233 568.967 164.371C570.231 162.862 572.28 159.861 572.219 159.608C572.194 159.503 572.536 158.634 572.979 157.677C573.422 156.72 573.913 155.49 574.07 154.944C574.227 154.398 574.473 153.84 574.616 153.704C574.76 153.568 574.846 153.326 574.808 153.167C574.77 153.007 574.851 152.726 574.988 152.542C575.125 152.358 575.231 151.879 575.223 151.479C575.215 151.078 575.301 150.49 575.415 150.17C575.693 149.388 575.226 146.586 574.758 146.233C574.199 145.81 572.6 146.366 570.599 147.679ZM537.802 165.812C537.749 165.974 537.827 166.181 537.975 166.273C538.155 166.384 538.276 166.342 538.34 166.146C538.393 165.984 538.315 165.776 538.167 165.685C537.988 165.573 537.866 165.616 537.802 165.812ZM580.939 165.134C580.563 165.277 580.272 165.465 580.293 165.552C580.314 165.638 579.899 165.955 579.372 166.256C578.092 166.988 575.461 169.326 575.541 169.661C575.576 169.807 575.434 170.079 575.227 170.265C574.738 170.701 574.819 171.048 575.344 170.767C575.6 170.63 575.828 170.667 575.966 170.869C576.086 171.045 576.258 171.114 576.349 171.021C576.44 170.929 576.564 171.06 576.624 171.311C576.688 171.581 576.552 171.897 576.292 172.083C575.859 172.391 575.861 172.395 576.417 172.276C577.196 172.11 577.921 172.646 577.915 173.382C577.911 173.702 578.02 174 578.155 174.046C578.456 174.146 578.461 175.041 578.164 175.529C578.045 175.726 578.003 176.12 578.072 176.406C578.14 176.692 578.049 177.063 577.869 177.23C577.292 177.765 577.802 177.732 579.18 177.146C579.917 176.832 580.662 176.519 580.835 176.451C581.008 176.382 581.283 176.239 581.447 176.133C581.611 176.027 582.057 175.735 582.439 175.486C582.821 175.236 583.55 174.829 584.058 174.581C584.567 174.333 585.409 173.777 585.93 173.346C586.451 172.915 586.992 172.535 587.134 172.501C587.275 172.468 587.469 172.278 587.566 172.079C587.663 171.881 588.012 171.593 588.341 171.441C588.671 171.288 589.012 171.012 589.099 170.827C589.187 170.643 589.474 170.054 589.737 169.52C590.175 168.633 590.182 168.459 589.822 167.535C589.605 166.978 589.092 166.003 588.683 165.369C587.958 164.245 587.909 164.214 586.757 164.175C586.106 164.152 584.888 164.283 584.048 164.466C583.209 164.649 582.319 164.816 582.072 164.836C581.825 164.857 581.315 164.991 580.939 165.134ZM562.998 175.631C562.571 176.214 562.504 176.524 562.67 177.159C562.947 178.22 563.716 179.367 564.1 179.292C564.27 179.258 564.705 179.246 565.066 179.264C565.455 179.284 565.893 179.161 566.141 178.963C566.371 178.778 566.97 178.402 567.472 178.127C568.441 177.595 569.481 176.739 570.059 175.997C570.408 175.549 570.407 175.544 569.816 175.255C569.49 175.095 568.648 174.935 567.945 174.9C567.243 174.864 566.378 174.793 566.023 174.74C565.668 174.688 564.963 174.702 564.456 174.772C563.709 174.876 563.433 175.038 562.998 175.631ZM554.431 182.111C553.995 182.663 553.28 183.393 552.842 183.733C552.404 184.074 551.959 184.531 551.852 184.748C551.746 184.966 551.564 185.166 551.448 185.194C551.332 185.222 550.982 185.54 550.67 185.9C550.358 186.26 549.873 186.766 549.592 187.024C549.312 187.282 548.635 187.912 548.088 188.424C547.542 188.936 546.617 189.724 546.033 190.175C545.449 190.626 544.617 191.371 544.184 191.83C543.752 192.289 543.262 192.698 543.096 192.737C542.93 192.777 542.757 192.922 542.712 193.06C542.667 193.198 542.453 193.353 542.235 193.405C542.018 193.457 541.764 193.658 541.669 193.851C541.575 194.045 540.876 194.737 540.116 195.39C539.357 196.043 538.364 196.964 537.909 197.438C537.455 197.911 536.963 198.335 536.815 198.38C536.669 198.425 536.572 198.561 536.601 198.681C536.629 198.801 536.51 198.934 536.335 198.975C536.16 199.017 535.96 199.272 535.89 199.542C535.82 199.811 535.531 200.235 535.247 200.483C534.603 201.046 533.28 203.021 533.35 203.315C533.379 203.436 533.262 203.808 533.089 204.142C532.917 204.476 532.796 204.835 532.821 204.94C532.998 205.678 537.076 204.822 539.373 203.565C539.875 203.291 540.437 202.997 540.623 202.913C540.91 202.782 541.476 202.394 543.161 201.173C543.322 201.056 543.874 200.559 544.388 200.068C544.901 199.578 545.716 198.816 546.198 198.376C546.681 197.936 547.085 197.458 547.098 197.313C547.121 197.044 548.925 195.234 549.885 194.518C550.18 194.299 550.383 193.96 550.336 193.765C550.289 193.57 550.469 193.24 550.734 193.032C551 192.824 551.182 192.507 551.14 192.329C551.097 192.15 551.253 191.834 551.488 191.626C551.974 191.194 554.296 187.967 554.35 187.648C554.37 187.533 554.512 187.262 554.666 187.048C554.819 186.834 555.379 185.984 555.909 185.159C556.721 183.896 556.831 183.578 556.607 183.146C556.46 182.864 556.241 182.6 556.119 182.56C555.997 182.519 555.829 182.202 555.746 181.856C555.664 181.509 555.512 181.199 555.41 181.167C555.307 181.135 554.867 181.56 554.431 182.111ZM573.802 184.932C573.904 185.035 574.031 185.108 574.084 185.096C574.137 185.083 574.156 184.975 574.127 184.854C574.099 184.734 573.972 184.661 573.845 184.691C573.719 184.721 573.699 184.83 573.802 184.932Z" fill="url(#paint1_linear_3668_23131)" fill-opacity="0.9"/>
<path d="M322.979 127.689C320.842 139.798 315.864 154.401 312.588 173.087C311.762 177.668 309.775 191.58 305.974 188.986C305.214 185.713 304.514 183.633 304.32 181.584C303.772 176.077 304.178 171.134 305.357 166.772C307.523 158.522 309.363 150.885 311.13 144.179C311.346 143.429 311.452 142.58 311.67 141.924C311.376 141.773 303.125 153.687 292.817 150.521C279.767 146.814 276.736 120.824 277.357 117.221C277.468 116.587 277.656 115.976 278.069 115.543C278.971 114.713 280.701 114.905 281.537 116.098C282.183 116.961 282.329 117.779 282.558 118.62C283.183 121.258 286.557 136.994 294.613 141.047C302.668 145.101 311.485 131.228 314.228 127.322C314.762 126.406 315.034 125.376 315.377 124.389C315.616 123.802 315.676 123.119 316.081 122.642C316.813 121.797 318.215 121.801 319.798 122.471C321.379 123.084 322.723 124.378 322.961 125.598C323.111 126.34 323.008 127.031 322.973 127.689L322.979 127.689Z" fill="#673C28"/>
<path d="M336.482 141.952C335.297 146.851 334.438 151.886 333.414 156.895C333.168 158.518 333.149 160.356 333.009 162.438C337.073 162.796 340.948 163.215 344.923 163.556C347.502 163.862 349.904 164.758 352.011 166.477C352.469 166.895 352.735 167.464 353.283 167.899C351.448 170.16 348.981 170.832 346.359 170.78C343.041 170.714 339.788 170.216 336.437 169.791C334.985 169.566 333.616 169.359 331.815 169.086C331.042 175.888 330.03 182.476 329.572 189.498C332.63 189.526 335.352 189.506 338.04 189.65C342.07 189.649 346.039 189.473 350.042 189.643C351.521 189.696 353.095 190.284 354.471 191.022C356.88 192.442 356.839 194.446 354.55 195.675C353.409 196.29 351.957 196.59 350.549 196.642C343.793 196.746 337.058 196.685 330.411 196.628C328.843 196.565 327.391 196.34 325.851 196.105C324.057 195.832 322.535 194.283 322.23 192.313C322.156 191.077 322.171 189.851 322.279 188.553C322.777 182.408 323.381 176.197 323.962 170.069C324.049 168.942 323.804 167.678 323.46 166.487C322.944 165.267 322.843 164.202 323.847 163.395C325.132 162.448 325.169 161.058 325.376 159.688C326.426 153.372 327.383 147.121 328.775 140.853C330.694 132.299 334.991 129.98 343.004 131.994C347.471 133.113 351.763 134.293 356.319 135.429C358.517 135.939 360.56 136.339 362.576 136.91C365.287 137.502 367.195 139.364 367.066 141.363C366.776 143.246 364.709 144.767 361.98 144.264C357.126 143.35 352.146 142.148 347.33 140.974C345.214 140.475 343.126 139.804 341.001 139.394C337.875 138.653 337.224 138.903 336.494 141.946L336.482 141.952Z" fill="#673C28"/>
<path d="M379.942 150.563C374.357 158.466 371.445 167.22 372.486 177.012C372.728 180.025 373.567 183.132 375.337 185.857C377.849 189.48 381.583 190.837 385.71 189.627C388.629 188.85 390.901 187.179 393.085 185.498C395.268 183.816 397.667 182.432 400.001 180.949C400.58 180.601 401.374 180.544 402.566 180.2C402.605 183.97 401.964 187.023 399.749 189.489C395.637 194.028 390.459 197.006 384.233 197.628C378.195 198.195 373.565 195.822 369.809 191.136C366.374 186.67 365.052 181.566 364.752 176.09C364.22 164.101 367.786 153.348 375.335 144.078C379.351 138.999 384.485 135.756 391.187 135.464C397.628 135.134 402.871 137.511 406.308 143.114C407.442 144.862 407.98 147.047 408.453 149.133C408.702 149.784 408.544 150.811 408.269 151.469C407.895 152.198 407.14 153.131 406.499 153.298C405.887 153.294 404.864 152.522 404.372 151.744C402.812 149.931 401.302 147.775 399.455 146.088C395.232 142.203 389.661 141.963 385.03 145.376C383.145 146.842 381.303 148.573 379.948 150.557L379.942 150.563Z" fill="#673C28"/>
<path d="M468.119 147.695C466.122 148.431 463.957 149.057 461.956 149.099C456.125 149.061 450.407 148.767 444.498 148.636C443.373 148.6 442.07 148.536 440.856 148.489C439.744 153.765 438.57 158.865 437.743 163.906C435.891 175.023 433.878 189.17 432.115 200.298C431.776 202.523 431.102 204.712 429.607 206.377C428.2 208.047 426.815 207.985 425.716 206.116C424.56 203.983 424.219 201.597 424.561 199.277C425.654 191.823 426.996 181.343 428.259 173.904C429.704 165.614 431.487 157.454 433.114 149.096C433.146 148.837 433.082 148.573 433.057 148.043C432.025 147.928 431.081 147.825 430.049 147.71C425.463 147.459 420.882 147.126 416.404 146.626C414.848 146.537 413.318 146.194 411.891 145.685C410.381 145.165 409.666 143.78 409.827 142.317C409.988 140.854 410.96 140.003 412.391 139.641C413.185 139.552 414.057 139.563 414.762 139.471C423.167 139.883 431.483 140.292 439.81 140.605C447.26 141.003 454.626 141.301 462.098 141.522C464.614 141.626 466.803 142.307 468.597 144.165C470.241 145.832 470.116 146.946 468.119 147.682L468.119 147.695Z" fill="#673C28"/>
<path d="M510.86 153.898C510.526 160.558 510.187 167.299 509.676 173.95C509.185 182.508 508.428 191.054 507.682 199.517C507.51 201.852 507.327 204.269 506.812 206.505C506.404 208.22 505.727 210.018 504.803 211.543C503.593 213.751 502.041 213.605 500.913 211.313C499.789 208.934 499.531 206.584 499.707 204.166C500.18 198.552 500.735 192.942 501.115 187.413C501.324 186.384 501.188 185.421 501.235 184.214C493.172 184.349 485.281 184.568 477.14 184.61C476.871 187.111 476.528 189.438 476.354 191.684C476.12 195.663 476.061 199.556 475.741 203.36C475.371 206.381 474.651 209.298 474.021 212.307C473.916 212.91 473.804 213.512 473.437 214.02C472.899 214.519 472.266 215.273 471.655 215.338C471.221 215.406 470.383 214.687 470.225 214.16C469.444 211.879 468.752 209.603 468.397 207.419C468.05 205.065 468.144 202.643 468.23 200.393C468.384 196.239 468.885 192.102 469.132 187.864C469.202 186.05 469.793 184.077 468.479 182.207C468.233 181.935 468.446 180.818 468.891 180.404C470.063 179.232 469.942 177.846 470.162 176.47C471.52 165.604 472.972 154.654 474.415 143.882C474.557 142.413 475.046 140.961 475.778 139.863C477.248 137.668 479.832 137.935 480.781 140.395C481.172 141.447 481.298 142.752 481.169 143.961C480.8 149.143 480.182 154.237 479.553 159.406C478.88 165.878 478.122 172.263 477.511 179.257C485.575 179.122 493.457 179.074 501.693 179.036C501.703 178.688 501.902 178.007 501.934 177.223C502.872 168.339 503.732 159.361 504.578 150.555C504.785 149.697 504.814 148.831 505.017 148.062C505.518 146.262 506.587 145.523 508.053 145.576C509.522 145.718 510.529 146.623 510.722 148.362C510.907 150.278 510.929 152.008 510.86 153.911L510.86 153.898Z" fill="#673C28"/>
<path d="M661.699 149.131C660.334 150.439 658.709 151.173 656.902 151.412C650.378 152.262 643.766 153.126 637.242 153.983C636.386 154.098 635.353 154.23 634.069 154.399C634.076 155.789 634.087 156.749 634.092 157.526C635.014 166.277 636.025 174.762 636.871 183.528C637.528 190.404 638.098 197.377 638.75 204.341C638.846 205.722 638.774 207.209 638.442 208.644C638.362 209.265 637.511 210.157 636.909 210.323C636.306 210.489 635.274 210.103 634.926 209.536C634.32 208.748 633.883 207.672 633.783 206.639C631.6 191.088 629.417 175.538 627.322 159.973C627.048 158.268 626.952 156.369 627.024 154.618C627.072 149.999 629.206 147.807 633.498 147.161C633.838 147.115 634.097 147.084 634.443 147.038C642.169 146.027 649.982 144.918 657.711 143.995C658.825 143.849 659.944 143.879 660.892 144.185C663.474 144.894 663.75 146.947 661.705 149.124L661.699 149.131Z" fill="#673C28"/>
<path d="M710.036 155.333C711.32 164.695 710.056 173.67 706.588 182.185C704.949 186.027 702.993 189.579 700.09 192.345C693.106 199.075 684.054 198.797 677.415 191.35C674.598 188.189 672.993 184.444 671.455 180.596C670.37 177.722 669.387 174.909 668.287 171.948C663.67 160.845 666.62 145.994 675.21 137.989C678.017 135.155 681.557 133.41 686.568 132.444C691.852 131.51 697.307 133.275 701.931 138.029C706.554 142.776 709.211 148.79 710.036 155.333ZM697.365 143.147C694.417 139.749 690.959 138.302 686.884 139.088C683.061 139.83 679.823 141.776 677.83 145.601C676.677 147.852 675.507 150.457 674.574 152.93C673.863 155.183 673.153 157.436 674.594 159.891C674.894 160.54 674.808 161.439 674.701 162.25C675.095 164.73 675.401 167.23 675.723 169.37C676.287 171.82 676.676 173.858 677.242 175.866C678.64 179.913 680.008 183.797 682.588 187.09C686.798 192.005 691.25 192.202 695.57 187.665C696.785 186.196 697.965 184.557 698.932 182.696C702.749 175.082 704.144 166.786 703.321 157.95C702.764 152.329 700.892 147.219 697.372 143.14L697.365 143.147Z" fill="#673C28"/>
<path d="M765.241 166.924C764.183 172.084 761.493 176.393 757.943 180.11C753.466 184.411 748.264 187.194 742.313 188.738C737.372 190.03 732.926 188.98 728.265 185.572C730.387 184.783 731.845 184.167 733.546 183.482C728.641 167.39 724.991 150.991 721.907 134.723C721.572 134.447 721.448 134.304 721.197 134.361C719.935 134.669 718.528 134.746 717.736 133.331C716.945 131.923 717.499 130.539 718.47 129.41C720.036 127.781 721.74 126.382 723.429 124.902C723.536 124.609 723.957 124.504 724.126 124.462C728.554 124.717 732.242 122.305 736.36 122.011C739.555 121.941 742.666 121.545 745.768 121.85C752.463 122.619 755.437 127.867 752.986 134.255C751.578 137.984 749.083 140.911 746.615 143.919C745.623 144.966 744.673 146.176 743.338 147.661C744.935 147.623 745.9 147.568 746.907 147.684C748.628 147.8 750.328 147.83 751.988 148.049C762.102 149.678 767.184 156.992 765.241 166.917L765.241 166.924ZM731.303 148.383C732.276 147.615 732.757 147.401 733.182 146.943C736.374 143.576 739.52 140.406 742.392 136.85C743.66 135.475 744.778 133.863 745.697 132.123C746.95 129.592 746.433 128.555 743.642 128.078C739.258 127.279 734.967 127.969 730.807 129.161C730.008 129.534 729.378 129.864 728.408 130.279C729.402 136.187 730.278 141.946 731.309 148.377L731.303 148.383ZM750.013 155.31C744.413 154.628 738.947 155.605 733.182 157.548C734.986 165.66 736.624 173.46 738.464 181.748C741.175 181.532 743.425 180.537 745.491 179.496C751.053 176.711 755.65 172.919 757.428 166.693C759.416 160.234 756.729 156.167 750.013 155.316L750.013 155.31Z" fill="#673C28"/>
<path d="M896.491 113.121C893.085 121.306 886.83 126.534 878.521 129.372C874.515 130.636 870.53 130.933 866.256 127.857C867.352 135.133 869.504 144.608 865.987 151.583C864.939 150.528 864.06 149.967 863.75 149.141C862.567 146.175 861.016 143.098 860.513 140.021C857.547 124.451 854.52 106.35 851.908 90.8102C851.7 89.5266 851.552 88.0583 851.883 86.8692C852.591 84.212 854.686 83.6063 857.026 85.0666C857.396 85.1841 857.521 85.4212 857.905 85.6268C858.002 85.7003 858.274 85.7444 858.547 85.7884C862.331 83.1591 866.581 81.2388 871.149 80.2331C881.959 78.2135 892.441 83.3522 896.732 93.0031C899.665 99.7174 899.269 106.448 896.491 113.127L896.491 113.121ZM882.008 87.6684C875.372 84.6238 865.493 88.0677 861.465 92.4084C860.351 93.6413 860.374 94.8662 860.61 96.3198C862.157 104.754 863.614 113.196 865.234 121.533C865.345 122.219 865.544 122.884 865.737 123.555C866.276 123.644 866.645 123.761 867.073 123.688C869.382 123.311 871.87 122.992 874.252 122.519C883.741 120.449 890.388 112.793 891.224 103.361C891.738 96.2613 888.259 90.5138 882.008 87.6684Z" fill="#673C28"/>
<path d="M956.468 140.391C956.409 141.1 955.665 142.223 955.089 142.452C954.32 142.786 953.419 142.346 952.797 141.969C952.19 141.409 951.802 140.483 951.577 139.8C950.958 138.192 950.345 136.576 950.11 134.933C947.243 120.89 944.459 106.927 941.592 92.8775C941.481 91.92 941.168 91.2453 940.803 89.9654C939.916 91.7173 939.351 92.9119 938.886 94.0979C934.687 104.513 930.687 114.816 926.226 125.079C923.458 131.664 920.152 137.952 916.842 144.328C915.955 146.08 914.447 147.455 912.504 147.287C910.48 146.95 909.172 145.85 909.055 143.838C908.841 140.697 908.619 137.734 908.594 134.569C908.09 122.409 907.859 110.306 907.643 98.0312C907.515 92.684 907.373 87.514 907.347 82.1644C907.356 80.9325 907.661 79.4092 908.226 78.2145C909.146 76.0197 910.945 75.6737 912.125 77.2311C913.121 78.7171 913.824 80.4059 913.778 82.1693C914.475 96.599 914.699 111.065 915.102 125.609C915.255 128.315 915.219 131.045 915.283 133.76C915.472 133.743 915.556 133.823 915.84 133.797C916.176 133.063 916.811 132.125 917.263 131.205C919.797 125.169 922.239 119.224 924.77 113.276C928.25 104.773 931.712 96.5426 935.373 88.1996C936.085 86.2876 937.165 84.4301 938.401 82.9921C940.792 79.9537 943.867 79.9247 945.407 82.7685C946.144 84.0143 946.488 85.4779 946.839 86.935C948.266 94.6137 949.693 102.299 951.116 110.066C952.749 118.694 954.649 127.384 956.277 136.101C956.443 137.493 956.609 138.878 956.487 140.385L956.468 140.391Z" fill="#673C28"/>
<path d="M1011.81 74.486C1009.93 75.4845 1007.87 76.4052 1005.89 76.7176C1000.11 77.4742 994.404 77.97 988.533 78.6466C987.412 78.7617 986.113 78.881 984.903 78.9983C984.526 84.3764 984.056 89.5862 983.931 94.6994C983.625 105.969 983.567 120.259 983.342 131.521C983.313 133.77 982.944 136.034 981.693 137.883C980.531 139.73 979.15 139.857 977.802 138.159C976.366 136.203 975.698 133.882 975.725 131.544C975.785 124.007 975.679 113.442 975.917 105.906C976.216 97.4981 976.864 89.1699 977.331 80.6692C977.325 80.4103 977.231 80.1536 977.13 79.638C976.088 79.6628 975.141 79.6854 974.1 79.7165C969.523 80.097 964.938 80.3893 960.437 80.509C958.879 80.6345 957.316 80.5011 955.837 80.1952C954.27 79.8914 953.368 78.6179 953.332 77.1407C953.297 75.6697 954.133 74.696 955.503 74.1391C956.276 73.9439 957.139 73.8349 957.829 73.648C966.212 72.9052 974.501 72.1711 982.794 71.3421C990.227 70.7168 997.569 70.0052 1005 69.1968C1007.5 68.9604 1009.76 69.3297 1011.8 70.9236C1013.66 72.3449 1013.68 73.4749 1011.81 74.4734L1011.81 74.486Z" fill="#673C28"/>
<path d="M1061.87 120.878C1058.76 130.97 1048.96 137.318 1037.98 136.588C1033.32 136.13 1028.87 134.732 1024.81 132.568C1024.55 132.643 1024.28 132.719 1024.2 132.803C1023.84 133.046 1023.74 133.307 1023.39 133.461C1021.24 135.186 1019.08 134.839 1018.07 132.28C1017.6 131.135 1017.57 129.657 1017.63 128.361C1018.38 112.621 1019.24 94.2885 1020.35 78.4769C1020.48 75.3659 1021.65 72.1228 1022.48 69.0333C1022.68 68.1756 1023.5 67.5183 1024.41 66.3406C1028.73 72.8451 1027.71 82.5085 1027.48 89.8666C1031.36 86.3065 1035.35 86.1294 1039.48 86.9092C1048.06 88.7453 1054.89 93.1938 1059.25 100.917C1062.8 107.218 1063.98 113.854 1061.87 120.872L1061.87 120.878ZM1047.88 127.913C1053.75 124.35 1056.52 118.226 1055.17 111.24C1053.23 101.969 1045.71 95.1557 1036.05 94.2297C1033.63 94.0408 1031.12 94.0185 1028.79 93.9225C1028.35 93.9013 1028 94.0612 1027.47 94.2127C1027.36 94.8977 1027.24 95.589 1027.21 96.2781C1026.59 104.745 1026.15 113.302 1025.61 121.861C1025.55 123.334 1025.67 124.55 1026.93 125.645C1031.44 129.473 1041.66 131.725 1047.89 127.919L1047.88 127.913Z" fill="#673C28"/>
<path d="M49.5396 82.4141C49.7487 83.6349 49.2091 84.768 48.0288 85.1457C47.0845 85.375 45.803 85.3278 45.1218 84.768C43.9954 83.8642 43.0377 82.549 42.2553 81.2C39.6923 75.9189 33.1162 61.9978 30.4722 56.7369C27.2752 50.3429 23.9973 43.9691 20.7329 37.6763C20.2068 36.6241 19.4176 35.6394 18.6959 34.54C18.4396 34.6007 18.1833 34.6681 18.008 34.7086C17.4617 36.9344 16.8074 39.0927 16.369 41.3791C14.0758 53.2027 10.1841 76.3101 7.97856 88.1134C7.64133 90.4673 7.11524 92.774 5.3751 94.5614C4.94343 95.0335 4.49154 95.4112 3.87102 95.8361C2.83908 96.4499 1.90156 96.315 1.32826 95.0942C-0.0746482 92.7133 -0.229777 90.2043 0.235609 87.6413C1.335 82.1038 4.03964 65.2757 5.05809 59.7653C6.29238 53.2903 7.41875 46.748 8.6328 40.1853C9.11842 37.7033 9.7929 35.2684 10.5348 32.7257C10.9462 31.4442 11.5533 30.2031 12.1603 28.9688C14.494 24.7669 19.1209 23.998 22.5877 27.4243C24.3952 29.2521 26.2028 31.4442 27.4101 33.7846C31.6863 42.0064 35.8343 50.4373 39.8542 58.7198C41.4189 62.1529 46.8754 74.0844 48.1839 77.5781C48.7774 79.2508 49.1484 80.7954 49.5463 82.4208L49.5396 82.4141Z" fill="#673C28"/>
<path d="M53.7082 32.8263C54.295 37.932 55.246 43.0445 56.0284 48.2042C56.3656 49.85 56.9929 51.6103 57.5864 53.6472C61.5995 52.5613 65.4507 51.5968 69.3762 50.5244C71.9527 49.9107 74.5629 49.9174 77.1798 50.8279C77.7666 51.0708 78.2185 51.5159 78.893 51.7385C77.9352 54.5443 75.8107 56.0551 73.2881 56.9319C70.0911 58.0313 66.8064 58.699 63.4543 59.4747C61.984 59.7715 60.6013 60.0547 58.787 60.4257C60.4394 67.2041 61.7951 73.8612 63.8253 80.7408C66.766 79.6954 69.3559 78.7174 71.9864 77.908C75.8376 76.4916 79.5742 74.9201 83.4659 73.6791C84.9026 73.207 86.6157 73.2205 88.1872 73.4363C90.993 73.9421 91.6608 75.8779 89.9004 77.8608C89.0236 78.8523 87.7421 79.6482 86.4134 80.1945C79.9856 82.6766 73.5174 84.9833 67.1437 87.2697C65.6261 87.7621 64.149 88.0589 62.5977 88.3759C60.7834 88.7468 58.787 87.8026 57.7955 86.0219C57.2896 84.8619 56.8714 83.6883 56.5207 82.4068C54.8345 76.3568 53.2225 70.1988 51.6308 64.1353C51.3138 63.0292 50.6393 61.9095 49.8907 60.8911C48.9666 59.9063 48.5012 58.9216 49.169 57.7952C50.066 56.4396 49.6074 55.0906 49.3308 53.7079C48.1168 47.2937 46.8285 40.9806 45.9585 34.4922C44.7849 25.6364 48.0763 21.9065 56.4533 21.0095C61.1206 20.5104 65.6396 20.1327 70.3946 19.6133C72.6811 19.33 74.772 18.9928 76.8966 18.8309C79.6956 18.4397 82.1777 19.5594 82.7577 21.5086C83.1422 23.4106 81.6988 25.5959 78.9132 26.0748C73.9491 26.9044 68.7624 27.5114 63.7443 28.0847C61.5455 28.3545 59.313 28.4489 57.1345 28.7996C53.8835 29.1908 53.3507 29.663 53.7217 32.8263H53.7082Z" fill="#673C28"/>
<path d="M125.741 16.8547C124.365 18.2037 122.72 18.9726 120.878 19.2356C114.241 20.1799 107.517 21.1376 100.88 22.0886C100.003 22.21 98.9578 22.3652 97.6494 22.5473C97.6763 23.9637 97.6966 24.9417 97.7101 25.7375C98.7555 34.6473 99.8886 43.2806 100.846 52.2039C101.595 59.2049 102.256 66.3003 103.005 73.3891C103.119 74.792 103.059 76.3095 102.742 77.7799C102.667 78.4139 101.811 79.3312 101.197 79.5133C100.59 79.6886 99.5311 79.3042 99.1669 78.7376C98.5397 77.9418 98.081 76.8491 97.9731 75.7969C95.5653 59.9738 93.1574 44.1574 90.8439 28.3208C90.5472 26.5874 90.419 24.6516 90.473 22.871C90.473 18.1632 92.6178 15.9037 96.9816 15.1955C97.3324 15.1483 97.5954 15.1078 97.9394 15.0606C105.797 13.941 113.749 12.7202 121.613 11.6883C122.747 11.5264 123.886 11.5399 124.858 11.8501C127.502 12.5381 127.805 14.629 125.741 16.875V16.8547Z" fill="#673C28"/>
<path d="M177.461 68.3109C176.044 69.3968 174.365 69.444 172.854 68.2434C172.18 67.5892 171.593 66.9282 171.006 66.1795C164.005 57.3642 157.105 48.623 150.118 39.983C149.726 39.5716 149.43 39.1534 148.863 38.6678C147.049 40.3202 145.14 41.8917 143.595 43.6117C143.022 44.1917 142.86 45.4395 142.934 46.4107C143.13 52.0628 143.481 57.5193 143.582 63.1781C143.73 66.0851 143.427 68.9449 143.137 71.8923C143.11 72.6949 142.651 73.5245 142.051 74.9005C140.897 73.7539 140.041 73.0254 139.447 72.2768C137.647 69.68 136.352 66.8607 136.095 63.6975C135.798 60.0013 135.481 56.1366 135.36 52.427C135.272 38.1821 136.062 23.9508 138.105 9.80031C138.24 8.19506 138.557 6.66401 138.982 5.30157C139.616 3.30513 140.688 2.33389 141.848 2.41483C143.184 2.48227 143.98 3.56818 144.061 5.68602C143.987 10.205 143.717 14.5688 143.555 19.0945C143.319 23.8024 143.083 28.6046 142.934 33.3057C143.204 33.3731 143.299 33.4541 143.494 33.7036C144.317 32.928 145.153 32.3277 145.808 31.66C154.373 23.7079 161.698 14.7037 168.841 5.62532C169.32 4.96434 169.691 4.14148 170.453 3.63562C170.952 3.23768 171.721 2.91394 172.281 3.2242C172.82 3.35909 173.34 4.28986 173.38 4.81595C173.38 5.87487 173.117 7.04846 172.577 8.06691C171.357 10.468 170.136 12.8692 168.537 15.0342C164.052 20.8886 159.392 26.7498 154.724 32.5301C154.158 33.1978 153.402 33.6969 152.741 34.2837C161.658 42.7686 168.78 52.0156 176.24 61.0603C176.935 61.9776 177.623 62.8072 178.236 63.8189C179.16 65.4241 178.769 67.1373 177.447 68.3041L177.461 68.3109Z" fill="#673C28"/>
<path d="M223.317 27.0936C222.96 36.7183 220.113 45.5067 215.142 53.452C212.822 57.02 210.232 60.244 206.833 62.5169C198.638 68.0476 189.6 66.1793 184.238 57.5393C181.965 53.8702 181.014 49.8301 180.144 45.6956C179.557 42.62 179.065 39.6253 178.478 36.462C175.794 24.5104 181.358 10.1104 191.394 3.58147C194.706 1.22081 198.564 0.0944387 203.771 1.24593e-05C209.241 -0.00673227 214.407 2.72488 218.218 8.30278C222.022 13.8807 223.641 20.3826 223.317 27.1003V27.0936ZM212.735 12.6329C210.367 8.70072 207.157 6.64357 202.921 6.71777C198.948 6.78521 195.36 8.17463 192.683 11.6684C191.131 13.7255 189.499 16.1402 188.13 18.4603C187.024 20.5984 185.911 22.7365 186.929 25.4546C187.118 26.1561 186.869 27.0464 186.619 27.8423C186.579 30.3985 186.444 32.9615 186.396 35.1738C186.531 37.73 186.565 39.8479 186.781 41.959C187.476 46.2689 188.164 50.4101 190.173 54.167C193.539 59.846 197.97 60.824 203.11 57.0267C204.587 55.7655 206.064 54.3288 207.352 52.6292C212.526 45.6551 215.379 37.5682 216.1 28.5572C216.525 22.8107 215.547 17.361 212.728 12.6464L212.735 12.6329Z" fill="#673C28"/>
<path d="M302.987 32.3882C301.605 41.9185 297.834 50.3562 292.04 57.7214C289.356 61.0263 286.436 63.9535 282.807 65.8421C274.066 70.4622 265.284 67.6362 260.88 58.4768C259.012 54.5918 258.499 50.4708 258.074 46.2688C257.824 43.146 257.649 40.1177 257.406 36.9072C256.017 24.7329 263.092 11.0209 273.762 5.59812C277.31 3.60842 281.269 2.90022 286.456 3.36561C291.899 3.93891 296.742 7.21011 299.932 13.1657C303.122 19.1213 304.033 25.7581 302.994 32.3949L302.987 32.3882ZM294.01 16.8821C292.081 12.7206 289.107 10.3329 284.884 9.95521C280.932 9.59774 277.209 10.596 274.174 13.7795C272.413 15.6613 270.532 17.8803 268.92 20.0453C267.591 22.0553 266.255 24.0584 266.977 26.871C267.092 27.5927 266.748 28.4425 266.41 29.2114C266.093 31.7542 265.689 34.2835 265.406 36.4755C265.264 39.0318 265.075 41.1429 265.062 43.2674C265.291 47.6313 265.534 51.813 267.132 55.7654C269.871 61.7682 274.174 63.2184 279.691 59.9876C281.296 58.895 282.915 57.6202 284.385 56.0689C290.273 49.6884 293.976 41.959 295.656 33.0694C296.694 27.4038 296.303 21.8799 294.003 16.8888L294.01 16.8821Z" fill="#673C28"/>
<path d="M350.55 69.5174C346.193 79.3647 335.516 84.6121 324.495 82.5685C319.835 81.55 315.498 79.6008 311.64 76.9231C311.363 76.9703 311.087 77.0108 310.985 77.085C310.594 77.2873 310.466 77.5369 310.088 77.6583C307.701 79.1489 305.569 78.5351 304.841 75.8305C304.504 74.6164 304.652 73.1191 304.861 71.8106C307.505 55.974 310.567 37.5204 313.569 21.65C314.162 18.2912 314.054 14.3455 314.075 12.801C314.149 8.12686 318.681 9.78606 326.849 11.1283C326.849 11.1283 343.738 13.7722 352.931 15.3437C354.266 15.5596 355.541 15.944 356.539 16.551C359.298 18.0618 358.968 20.146 355.919 21.6163C353.936 22.4527 351.832 22.6483 349.673 22.3043L322.559 17.9337C322.108 17.6504 321.602 17.6572 321.049 17.8325C321.345 23.2958 320.158 29.1502 319.43 34.0401C323.78 30.8971 327.841 31.1938 331.928 32.4821C340.399 35.3688 346.78 40.6837 350.267 49.0202C353.106 55.8189 353.518 62.6782 350.537 69.5309L350.55 69.5174ZM344.925 58.9619C344.062 49.3507 337.276 41.5537 327.605 39.4561C325.176 38.9773 322.64 38.6535 320.286 38.2758C319.848 38.2084 319.477 38.323 318.924 38.4107C318.722 39.0919 318.526 39.7799 318.411 40.4746C316.772 48.9662 315.295 57.5792 313.737 66.172C313.501 67.6559 313.474 68.9036 314.614 70.1581C318.728 74.576 328.798 78.0765 335.557 74.9604C341.924 72.0534 345.458 66.1922 344.925 58.9552V58.9619Z" fill="#673C28"/>
<path d="M422.308 100.517C415.624 102.75 417.83 98.8107 418.747 97.111C419.583 95.2832 419.988 92.9697 419.826 90.9328C419.826 90.8789 419.813 90.8249 419.806 90.771L416.535 90.11C416.197 90.0425 415.948 89.9953 415.611 89.9279C415.348 89.8739 415.084 89.8267 414.821 89.7727C411.206 89.0915 407.571 88.3698 403.942 87.6346C400.307 86.9197 372.579 81.362 365.005 79.8512C364.668 79.7838 364.418 79.7366 364.081 79.6691C359.879 78.7451 357.862 76.4991 358.011 72.0341C358.011 70.3209 358.193 68.4661 358.537 66.8069C361.369 51.2401 364.425 34.9448 367.635 17.8671C367.797 16.7003 368.337 15.5065 369.045 14.6364C369.456 14.0159 370.603 13.6382 371.244 13.8608C371.884 14.0901 372.748 15.1693 372.795 15.8842C373.058 17.5434 373.038 19.2363 372.835 20.7876C371.669 28.5036 370.623 36.0847 369.51 43.3892C368.121 52.4879 366.61 61.0537 365.207 69.6869C365.16 70.4558 365.106 71.3866 365.018 72.7423C366.293 72.9986 367.312 73.2009 368.161 73.3695C373.942 74.5229 379.789 75.683 385.583 76.8363C385.684 75.3323 385.913 73.7607 386.278 72.3241C389.758 56.8854 393.488 40.725 397.4 23.789C397.609 22.6289 398.202 21.4486 398.951 20.592C399.389 19.9715 400.563 19.6005 401.197 19.8299C401.831 20.0592 402.661 21.1316 402.681 21.8398C402.876 23.4855 402.789 25.1649 402.526 26.7027C401.042 34.358 399.686 41.8716 398.27 49.1222C396.503 58.1467 394.641 66.645 392.881 75.2041C392.8 75.9663 392.705 76.8903 392.571 78.2325C393.238 78.3674 393.839 78.482 394.378 78.59C394.871 78.6844 395.316 78.7788 395.72 78.8597C401.737 80.0603 407.82 81.2676 413.85 82.4682C414.295 82.5559 414.747 82.6435 415.192 82.738C415.732 82.8459 416.332 82.9605 417 83.0954C417.189 81.76 417.317 80.8427 417.418 80.0873C417.762 71.2449 425.397 39.2075 425.856 31.3499C425.984 29.7851 426.308 28.1529 426.901 26.6623C427.09 25.9945 428.142 25.2931 428.803 25.3268C429.464 25.3605 430.489 26.1699 430.752 26.9253C431.252 28.0315 431.528 29.3871 431.447 30.5742C431.029 48.2117 424.723 63.8527 424.392 79.9254C424.392 81.443 424.244 83.055 423.981 84.5388C425.822 84.9368 427.468 85.7664 428.277 87.5065C429.68 88.734 425.546 98.3925 422.322 100.524L422.308 100.517Z" fill="#673C28"/>
<path d="M479.78 89.8606C478.451 90.8993 478.431 92.147 478.282 93.6444C477.972 97.7991 477.668 101.947 477.095 106.055C476.805 107.882 476.07 109.643 474.95 111.073C473.338 113.319 471.005 112.853 470.087 110.203C469.703 109.245 469.521 108.146 469.575 107.262C469.602 104.854 469.905 102.399 470.182 100.119C470.485 97.1314 470.681 94.2109 471.025 90.96C461.265 89.3952 451.593 87.8439 441.753 86.2656C440.856 88.5319 439.979 90.6295 439.17 92.9092C438.441 94.6696 437.699 96.5176 437.045 98.3792C436.667 99.0334 436.269 99.863 435.736 100.403C434.354 101.792 432.465 101.306 432.236 99.3909C432.067 97.6642 432.445 95.8499 432.971 94.2379C433.706 91.3174 434.691 88.5251 435.716 85.4765C434.361 84.458 431.905 84.1545 432.587 81.578C433.369 78.9341 435.925 79.703 438.185 78.9881C440.175 74.3949 442.151 69.8827 444.208 65.3907C447.142 59.3407 450.285 53.1355 453.468 47.2136C454.871 44.5832 456.659 42.3642 458.372 40.044C459.276 38.8502 460.26 37.7575 461.454 36.9616C464.82 34.3717 468.421 34.7696 471.153 37.798C473.46 40.1317 474.566 43.2612 475.517 46.2694C477.372 53.0883 478.066 59.9072 478.37 66.9217C478.748 71.8117 478.667 76.796 478.842 81.8343C478.795 83.2575 478.829 84.6941 480.056 85.9621C481.371 87.2436 481.304 88.7544 479.793 89.8538L479.78 89.8606ZM471.173 82.7584C471.194 81.5106 471.511 80.6675 471.403 79.6693C471.234 73.4776 471.167 67.2118 470.62 61.1348C470.229 56.3325 469.372 51.6382 468.327 47.0045C468.024 44.9879 467.261 43.0791 465.535 41.5548C463.498 42.5665 462.317 44.3471 461.252 45.9659C456.821 52.4071 453.482 59.2867 450.319 66.2C448.383 70.4492 446.44 74.7861 444.437 79.4669C453.381 80.5461 462.149 81.5915 471.167 82.7719L471.173 82.7584Z" fill="#673C28"/>
<path d="M539.645 45.6347C537.628 46.4306 535.443 47.132 533.399 47.2197C527.457 47.3209 521.623 47.1725 515.6 47.1792C514.453 47.1657 513.124 47.1387 511.883 47.1185C510.885 52.521 509.806 57.7415 509.091 62.9079C507.486 74.2795 505.786 88.747 504.262 100.125C503.979 102.405 503.338 104.651 501.861 106.384C500.471 108.125 499.055 108.091 497.888 106.216C496.66 104.071 496.249 101.643 496.539 99.2823C497.47 91.6607 498.576 80.9501 499.675 73.342C500.943 64.8639 502.555 56.5004 504.005 47.9481C504.026 47.6851 503.965 47.4153 503.918 46.8757C502.866 46.7813 501.894 46.7003 500.842 46.6059C496.161 46.4643 491.487 46.235 486.914 45.837C485.323 45.7898 483.758 45.4728 482.294 44.9939C480.743 44.5083 479.974 43.1121 480.109 41.6148C480.237 40.1242 481.202 39.2272 482.652 38.8225C483.461 38.7146 484.345 38.7011 485.066 38.5864C493.639 38.8023 502.124 39.0046 510.615 39.1193C518.217 39.3351 525.73 39.4565 533.345 39.497C535.908 39.5442 538.154 40.1782 540.036 42.0262C541.749 43.6787 541.655 44.8253 539.631 45.6212L539.645 45.6347Z" fill="#673C28"/>
<path d="M587.269 90.6016C584.504 101.009 574.785 107.861 563.582 107.571C558.82 107.295 554.233 106.047 550.004 104.003C549.741 104.091 549.472 104.179 549.384 104.266C549.033 104.529 548.939 104.792 548.588 104.968C546.464 106.816 544.258 106.546 543.118 103.983C542.592 102.837 542.504 101.332 542.511 100.01C542.639 83.9513 542.781 65.2481 543.26 49.1012C543.266 45.9245 544.339 42.5723 545.047 39.4023C545.229 38.5187 546.025 37.8173 546.909 36.583C551.569 43.0377 550.922 52.9187 550.996 60.4189C554.8 56.6351 558.86 56.2911 563.096 56.9184C571.918 58.4427 579.054 62.6919 583.796 70.3809C587.66 76.6535 589.144 83.3645 587.276 90.5948L587.269 90.6016ZM580.059 81.0578C577.698 71.6961 569.78 65.0593 559.899 64.5062C557.43 64.4118 554.867 64.4927 552.487 64.486C552.041 64.486 551.691 64.6613 551.165 64.8367C551.077 65.5449 550.982 66.2463 550.982 66.9545C550.692 75.6013 550.585 84.3357 550.382 93.0701C550.382 94.5675 550.551 95.8085 551.873 96.8674C556.628 100.584 567.123 102.466 573.308 98.3378C579.142 94.473 581.718 88.1262 580.059 81.0645V81.0578Z" fill="#673C28"/>
<path d="M603.356 59.1307C599.572 68.2428 598.634 77.5978 601.872 87.1011C602.789 90.0418 604.313 92.9488 606.688 95.2555C609.999 98.2974 614.012 98.81 617.843 96.6854C620.575 95.2555 622.457 93.0904 624.251 90.9254C626.045 88.7671 628.122 86.8516 630.105 84.8551C630.604 84.3762 631.38 84.1469 632.486 83.5399C633.37 87.2832 633.417 90.46 631.764 93.4074C628.696 98.8437 624.21 102.965 618.16 104.981C612.279 106.897 607.146 105.582 602.364 101.757C597.953 98.0883 595.491 93.3063 593.96 87.9307C590.743 76.1274 591.883 64.6344 597.306 53.7282C600.159 47.7793 604.543 43.402 611.139 41.6079C617.472 39.834 623.219 41.0211 627.886 45.8234C629.404 47.3072 630.436 49.3576 631.367 51.3271C631.764 51.9206 631.839 52.9728 631.71 53.6945C631.501 54.5038 630.962 55.6032 630.362 55.9135C629.755 56.0484 628.567 55.5088 627.9 54.8478C625.937 53.3909 623.954 51.5901 621.742 50.3288C616.67 47.4151 611.085 48.4268 607.234 52.8514C605.683 54.7331 604.246 56.8645 603.342 59.1375L603.356 59.1307Z" fill="#673C28"/>
<path d="M675.686 41.6151C676.523 51.3343 677.184 60.9186 678.148 70.341C678.647 75.6356 679.497 80.6199 680.205 85.7796C680.381 87.6209 680.556 89.5432 680.138 91.6003C679.767 94.1431 677.177 95.4718 675.673 93.7789C674.958 92.9493 674.358 91.7352 674 90.5077C673.353 87.1623 672.773 83.6888 672.274 80.1748C672.112 79.3654 671.808 78.7786 671.565 77.9085C670.277 78.9944 669.286 79.824 668.227 80.9437C664.065 85.3547 656.275 92.9156 651.851 97.9674C649.092 100.922 646.219 103.383 643.312 104.368C643.231 103.64 643.049 102.938 643.076 102.264C643.406 98.9049 644.667 95.8023 647.257 93.1314C651.412 88.5854 658.973 81.2539 663.128 76.8698C661.334 76.5056 659.904 76.3775 658.447 76.1684C648.31 74.1854 640.31 68.7829 636.095 58.2814C630.699 44.9875 638.907 32.5367 653.213 31.2552C658.966 30.7629 664.139 31.9499 668.881 34.0813C669.744 34.4927 670.749 34.7895 671.626 34.6681C673.859 34.6141 674.776 35.0862 675.235 37.5076C675.525 38.9172 675.572 40.2797 675.7 41.6219L675.686 41.6151ZM667.363 39.9357C662.541 37.6357 657.442 36.9073 651.756 38.8296C645.247 40.9137 641.76 47.2537 644.067 53.587C644.951 56.1905 646.414 58.7468 647.999 60.7769C653.166 67.1372 663.398 70.2128 670.722 68.4052C670.763 67.9601 670.79 67.434 670.749 67.0158C670.392 59.1312 669.967 51.395 669.623 43.6048C669.522 41.6961 668.928 40.6574 667.363 39.9357Z" fill="#673C28"/>
<defs>
<linearGradient id="paint0_linear_3668_23131" x1="837.163" y1="101.146" x2="779.493" y2="205.013" gradientUnits="userSpaceOnUse">
<stop offset="0.248627" stop-color="#CE9CFF"/>
<stop offset="0.806553" stop-color="#CE9CFF" stop-opacity="0"/>
</linearGradient>
<linearGradient id="paint1_linear_3668_23131" x1="547.856" y1="140.627" x2="593.729" y2="261.94" gradientUnits="userSpaceOnUse">
<stop offset="0.259577" stop-color="#6FAAA9"/>
<stop offset="0.718119" stop-color="#6FAAA9" stop-opacity="0"/>
</linearGradient>
</defs>
</svg>
