<svg width="786" height="150" viewBox="0 0 786 150" fill="none" xmlns="http://www.w3.org/2000/svg">
<path d="M45.7189 61.3762C43.5804 73.4912 38.6006 88.1005 35.3232 106.796C34.4969 111.378 32.5089 125.297 28.7059 122.702C27.9455 119.427 27.245 117.346 27.0509 115.297C26.5027 109.787 26.9096 104.841 28.0886 100.478C30.2557 92.2235 32.0962 84.5836 33.864 77.8743C34.08 77.1235 34.1862 76.2741 34.4044 75.618C34.1101 75.467 25.856 87.3863 15.5429 84.2191C2.48679 80.5105 -0.546 54.508 0.0760323 50.9037C0.187324 50.2691 0.375011 49.6579 0.788115 49.2247C1.69102 48.3943 3.42085 48.5869 4.25816 49.7804C4.90433 50.6434 5.05018 51.4615 5.27875 52.3029C5.904 54.9423 9.28041 70.6862 17.3396 74.7412C25.3988 78.7962 34.2193 64.917 36.9638 61.0094C37.4981 60.093 37.7706 59.0627 38.1137 58.075C38.3525 57.488 38.4121 56.804 38.8178 56.3267C39.5497 55.4814 40.9528 55.486 42.536 56.1561C44.1178 56.7694 45.4631 58.0645 45.7007 59.2848C45.8511 60.027 45.7475 60.7183 45.7126 61.3763L45.7189 61.3762Z" fill="#673C28"/>
<path d="M59.228 75.6463C58.0428 80.5469 57.1831 85.5852 56.1585 90.5957C55.9128 92.2194 55.8933 94.0588 55.7533 96.1413C59.819 96.4996 63.6966 96.9192 67.6734 97.2606C70.2527 97.5658 72.6566 98.4629 74.764 100.182C75.2227 100.601 75.489 101.17 76.0365 101.605C74.2008 103.867 71.7331 104.539 69.1093 104.488C65.7899 104.421 62.5361 103.924 59.1829 103.498C57.7304 103.273 56.3604 103.066 54.5592 102.793C53.7858 109.598 52.7735 116.188 52.315 123.214C55.3744 123.242 58.0976 123.222 60.7869 123.366C64.8188 123.365 68.7896 123.189 72.7939 123.359C74.274 123.412 75.8489 124 77.2252 124.738C79.6352 126.16 79.5944 128.164 77.3044 129.394C76.1626 130.009 74.7099 130.309 73.3018 130.361C66.5424 130.465 59.8042 130.405 53.1546 130.348C51.5859 130.284 50.1333 130.06 48.5921 129.825C46.7971 129.551 45.2751 128.001 44.9691 126.031C44.8955 124.794 44.9105 123.567 45.0187 122.269C45.517 116.121 46.1212 109.907 46.702 103.776C46.789 102.649 46.544 101.385 46.1997 100.192C45.684 98.9719 45.5828 97.9063 46.5874 97.0988C47.873 96.1519 47.9094 94.7607 48.117 93.3907C49.1673 87.0714 50.1245 80.8175 51.5173 74.5469C53.437 65.9888 57.736 63.6683 65.7529 65.6831C70.2223 66.8027 74.5161 67.9834 79.0743 69.1199C81.273 69.6301 83.3174 70.0301 85.3343 70.6014C88.0469 71.1941 89.9555 73.0572 89.8261 75.0573C89.536 76.9411 87.4678 78.4628 84.7384 77.959C79.8822 77.0444 74.899 75.8422 70.0808 74.6677C67.9645 74.1682 65.8757 73.4975 63.7488 73.0868C60.622 72.3459 59.9707 72.5953 59.2405 75.6397L59.228 75.6463Z" fill="#673C28"/>
<path d="M102.709 84.2615C97.121 92.1675 94.2074 100.926 95.2494 110.722C95.4918 113.737 96.3304 116.845 98.1016 119.571C100.615 123.196 104.35 124.554 108.48 123.344C111.4 122.566 113.673 120.894 115.857 119.212C118.042 117.53 120.442 116.145 122.777 114.662C123.356 114.313 124.151 114.256 125.343 113.912C125.383 117.684 124.741 120.738 122.525 123.205C118.411 127.746 113.231 130.726 107.002 131.348C100.961 131.915 96.3292 129.542 92.5713 124.853C89.1345 120.385 87.8123 115.279 87.5113 109.8C86.9794 97.8058 90.5468 87.0471 98.0992 77.7735C102.118 72.6917 107.254 69.4476 113.959 69.1554C120.403 68.8251 125.648 71.2029 129.087 76.8087C130.221 78.5575 130.76 80.7439 131.233 82.8307C131.482 83.482 131.324 84.5096 131.049 85.1671C130.674 85.8964 129.919 86.8307 129.278 86.9976C128.665 86.9933 127.642 86.2213 127.15 85.4431C125.59 83.6286 124.079 81.4716 122.231 79.784C118.006 75.8969 112.432 75.6567 107.799 79.0721C105.913 80.5388 104.071 82.27 102.715 84.255L102.709 84.2615Z" fill="#673C28"/>
<path d="M190.926 81.3918C188.928 82.1281 186.762 82.7548 184.76 82.7961C178.926 82.758 173.206 82.4643 167.294 82.3332C166.168 82.2968 164.865 82.2331 163.651 82.1861C162.538 87.4642 161.364 92.5668 160.536 97.6105C158.683 108.733 156.669 122.886 154.905 134.019C154.567 136.245 153.892 138.435 152.396 140.101C150.988 141.772 149.603 141.71 148.503 139.84C147.346 137.706 147.005 135.319 147.348 132.998C148.441 125.54 149.784 115.056 151.048 107.613C152.493 99.3186 154.277 91.1555 155.905 82.7938C155.936 82.534 155.873 82.2701 155.848 81.7398C154.815 81.6254 153.871 81.5214 152.838 81.407C148.251 81.1559 143.667 80.8226 139.187 80.3225C137.631 80.2332 136.099 79.8904 134.672 79.3809C133.162 78.8607 132.446 77.4748 132.607 76.0111C132.768 74.5475 133.74 73.6965 135.172 73.3338C135.967 73.2454 136.839 73.2562 137.545 73.1636C145.953 73.5765 154.273 73.9852 162.604 74.2989C170.057 74.6966 177.427 74.9952 184.902 75.2155C187.42 75.3199 189.61 76.0009 191.405 77.8604C193.049 79.5275 192.924 80.6427 190.926 81.3791L190.926 81.3918Z" fill="#673C28"/>
<path d="M233.687 87.5979C233.352 94.2604 233.014 101.005 232.502 107.659C232.011 116.221 231.254 124.771 230.507 133.238C230.335 135.574 230.153 137.992 229.637 140.229C229.229 141.945 228.552 143.743 227.627 145.269C226.416 147.478 224.864 147.332 223.735 145.04C222.611 142.659 222.352 140.308 222.529 137.889C223.002 132.273 223.557 126.66 223.937 121.128C224.147 120.099 224.01 119.135 224.057 117.927C215.99 118.062 208.096 118.282 199.951 118.324C199.682 120.827 199.339 123.154 199.165 125.402C198.931 129.382 198.872 133.276 198.552 137.082C198.181 140.105 197.461 143.023 196.831 146.034C196.725 146.637 196.613 147.24 196.246 147.748C195.708 148.247 195.075 149.001 194.464 149.067C194.029 149.134 193.191 148.414 193.033 147.887C192.252 145.606 191.559 143.328 191.204 141.144C190.857 138.788 190.951 136.366 191.037 134.114C191.191 129.958 191.693 125.82 191.939 121.58C192.01 119.764 192.601 117.791 191.286 115.92C191.04 115.648 191.253 114.531 191.698 114.115C192.871 112.944 192.75 111.556 192.97 110.18C194.329 99.3093 195.781 88.3545 197.225 77.5768C197.366 76.1073 197.856 74.6547 198.589 73.5567C200.059 71.3604 202.644 71.6275 203.594 74.0885C203.985 75.1409 204.111 76.446 203.982 77.6562C203.612 82.8407 202.994 87.9363 202.365 93.1081C201.692 99.5828 200.934 105.971 200.323 112.969C208.39 112.834 216.275 112.785 224.515 112.747C224.526 112.399 224.725 111.718 224.756 110.934C225.695 102.045 226.556 93.0634 227.401 84.2527C227.609 83.3946 227.638 82.5281 227.841 81.7586C228.342 79.9583 229.411 79.2187 230.879 79.2723C232.348 79.4142 233.356 80.3192 233.549 82.0589C233.733 83.9756 233.756 85.7067 233.687 87.6105L233.687 87.5979Z" fill="#673C28"/>
<path d="M384.596 82.8282C383.23 84.1373 381.605 84.8711 379.797 85.11C373.27 85.9605 366.655 86.8257 360.128 87.6824C359.271 87.7976 358.238 87.9296 356.953 88.0993C356.961 89.4894 356.971 90.4497 356.977 91.2269C357.899 99.9829 358.91 108.471 359.757 117.242C360.414 124.121 360.984 131.097 361.636 138.064C361.732 139.446 361.66 140.933 361.328 142.369C361.248 142.99 360.397 143.883 359.794 144.049C359.192 144.215 358.159 143.828 357.81 143.262C357.204 142.473 356.767 141.397 356.667 140.363C354.483 124.805 352.299 109.248 350.203 93.6758C349.929 91.9697 349.833 90.0698 349.905 88.3175C349.953 83.6967 352.088 81.5036 356.382 80.8579C356.722 80.8119 356.981 80.7805 357.327 80.7343C365.057 79.7225 372.874 78.6139 380.606 77.6905C381.721 77.5439 382.84 77.5742 383.789 77.8802C386.372 78.5897 386.648 80.6434 384.602 82.8217L384.596 82.8282Z" fill="#673C28"/>
<path d="M432.955 89.0334C434.24 98.4001 432.974 107.379 429.505 115.898C427.865 119.741 425.909 123.295 423.004 126.063C416.017 132.795 406.961 132.518 400.319 125.067C397.501 121.905 395.895 118.158 394.356 114.308C393.27 111.433 392.287 108.619 391.186 105.656C386.568 94.5483 389.519 79.6902 398.113 71.681C400.921 68.8462 404.463 67.0999 409.476 66.1337C414.762 65.199 420.22 66.9651 424.846 71.7211C429.471 76.4708 432.129 82.487 432.955 89.0334ZM420.278 76.8412C417.328 73.4419 413.869 71.9949 409.792 72.7807C405.968 73.5227 402.728 75.4704 400.734 79.2969C399.58 81.5489 398.41 84.1551 397.476 86.6293C396.765 88.8834 396.054 91.1374 397.497 93.593C397.797 94.2431 397.711 95.1426 397.604 95.954C397.997 98.4346 398.303 100.936 398.626 103.077C399.19 105.528 399.58 107.567 400.146 109.575C401.544 113.625 402.913 117.51 405.494 120.805C409.706 125.722 414.16 125.919 418.482 121.38C419.698 119.91 420.879 118.271 421.846 116.409C425.665 108.791 427.06 100.492 426.236 91.6516C425.679 86.0278 423.807 80.9155 420.285 76.8347L420.278 76.8412Z" fill="#673C28"/>
<path d="M488.186 100.629C487.127 105.792 484.436 110.103 480.884 113.821C476.405 118.124 471.201 120.909 465.246 122.453C460.304 123.746 455.855 122.696 451.192 119.287C453.316 118.497 454.773 117.881 456.476 117.196C451.568 101.096 447.917 84.689 444.831 68.4136C444.496 68.1372 444.373 67.9948 444.121 68.0513C442.858 68.3594 441.451 68.4372 440.659 67.0215C439.867 65.6121 440.422 64.2275 441.393 63.0984C442.96 61.4686 444.664 60.0694 446.354 58.5883C446.461 58.2951 446.882 58.1902 447.052 58.1483C451.481 58.4031 455.171 55.9897 459.291 55.6958C462.487 55.626 465.6 55.2297 468.704 55.535C475.402 56.3046 478.377 61.5549 475.925 67.9455C474.516 71.676 472.02 74.6044 469.551 77.6144C468.559 78.6618 467.608 79.8725 466.272 81.3578C467.87 81.3198 468.835 81.2652 469.843 81.3803C471.565 81.4973 473.265 81.5264 474.926 81.746C485.045 83.3758 490.129 90.693 488.185 100.623L488.186 100.629ZM454.231 82.0804C455.205 81.3115 455.687 81.0978 456.112 80.639C459.305 77.2705 462.453 74.099 465.326 70.5423C466.595 69.166 467.713 67.5532 468.632 65.8124C469.886 63.2799 469.369 62.2432 466.577 61.7662C462.191 60.9668 457.897 61.6567 453.736 62.849C452.936 63.2219 452.305 63.5529 451.336 63.9678C452.329 69.8783 453.206 75.6398 454.237 82.0739L454.231 82.0804ZM472.951 89.0099C467.348 88.328 461.879 89.305 456.112 91.2496C457.916 99.3653 459.555 107.169 461.396 115.461C464.108 115.244 466.359 114.249 468.426 113.208C473.991 110.421 478.59 106.628 480.369 100.398C482.358 93.9366 479.67 89.8675 472.951 89.0163L472.951 89.0099Z" fill="#673C28"/>
<path d="M619.496 46.8019C616.089 54.991 609.83 60.2209 601.518 63.0603C597.51 64.3248 593.523 64.6219 589.247 61.5448C590.343 68.8242 592.496 78.303 588.978 85.2814C587.929 84.2257 587.05 83.6652 586.74 82.8384C585.557 79.871 584.005 76.7924 583.502 73.7141C580.534 58.1374 577.505 40.0279 574.892 24.4807C574.685 23.1965 574.536 21.7275 574.868 20.5379C575.575 17.8795 577.672 17.2734 580.013 18.7344C580.383 18.852 580.508 19.0892 580.892 19.2949C580.989 19.3685 581.262 19.4125 581.534 19.4566C585.321 16.826 589.572 14.9048 594.142 13.8987C604.958 11.8782 615.444 17.0193 619.738 26.6746C622.672 33.392 622.276 40.1255 619.496 46.8082L619.496 46.8019ZM605.006 21.3375C598.367 18.2914 588.483 21.7369 584.454 26.0796C583.339 27.3131 583.362 28.5386 583.599 29.9928C585.146 38.4306 586.604 46.8768 588.225 55.218C588.336 55.9042 588.535 56.5693 588.728 57.2409C589.267 57.3292 589.636 57.4468 590.064 57.3734C592.375 56.9962 594.863 56.6778 597.247 56.204C606.741 54.1328 613.39 46.4732 614.227 37.0371C614.74 29.9343 611.261 24.1841 605.006 21.3375Z" fill="#673C28"/>
<path d="M679.501 74.0848C679.442 74.794 678.697 75.9176 678.121 76.1462C677.352 76.4805 676.451 76.0406 675.829 75.6636C675.221 75.1029 674.833 74.1769 674.608 73.4934C673.988 71.884 673.375 70.2682 673.14 68.6243C670.271 54.5746 667.487 40.605 664.618 26.549C664.507 25.591 664.194 24.916 663.828 23.6355C662.941 25.3882 662.375 26.5834 661.911 27.7699C657.71 38.1898 653.708 48.4974 649.244 58.7656C646.475 65.3533 643.168 71.6441 639.857 78.0236C638.969 79.7762 637.46 81.1519 635.516 80.9833C633.492 80.646 632.183 79.5459 632.066 77.5327C631.852 74.3907 631.629 71.4257 631.605 68.2602C631.1 56.0944 630.869 43.9852 630.653 31.705C630.525 26.3554 630.383 21.183 630.357 15.8309C630.366 14.5984 630.671 13.0744 631.236 11.8792C632.157 9.68336 633.957 9.33722 635.137 10.8953C636.133 12.382 636.837 14.0716 636.791 15.8358C637.488 30.2722 637.712 44.745 638.115 59.2958C638.268 62.0032 638.232 64.7342 638.297 67.4501C638.486 67.4329 638.57 67.5131 638.854 67.4874C639.19 66.7526 639.825 65.8148 640.277 64.8941C642.813 58.8554 645.256 52.9074 647.788 46.9573C651.27 38.4504 654.733 30.2157 658.396 21.8689C659.108 19.956 660.189 18.0976 661.425 16.659C663.817 13.6192 666.894 13.5902 668.435 16.4353C669.172 17.6817 669.517 19.1459 669.867 20.6037C671.295 28.286 672.723 35.9746 674.146 43.7454C675.78 52.377 677.681 61.0718 679.31 69.792C679.476 71.1847 679.642 72.571 679.519 74.078L679.501 74.0848Z" fill="#673C28"/>
<path d="M734.864 8.14896C732.985 9.14792 730.928 10.069 728.945 10.3816C723.162 11.1385 717.454 11.6346 711.58 12.3115C710.458 12.4267 709.159 12.546 707.949 12.6633C707.571 18.0439 707.101 23.2562 706.976 28.3717C706.669 39.6468 706.612 53.9431 706.387 65.21C706.358 67.4605 705.989 69.7253 704.737 71.5752C703.574 73.4229 702.193 73.5505 700.844 71.8511C699.408 69.8946 698.739 67.5722 698.766 65.2333C698.827 57.6926 698.72 47.1225 698.958 39.5838C699.257 31.1717 699.906 22.8397 700.373 14.335C700.367 14.076 700.273 13.8192 700.172 13.3034C699.13 13.3282 698.182 13.3507 697.14 13.3818C692.561 13.7625 687.974 14.0549 683.471 14.1747C681.913 14.3003 680.349 14.1669 678.869 13.8608C677.301 13.5569 676.398 12.2828 676.363 10.8049C676.328 9.33322 677.165 8.35908 678.535 7.80193C679.308 7.6066 680.171 7.49758 680.862 7.31052C689.249 6.56746 697.542 5.83298 705.839 5.00361C713.275 4.37798 720.62 3.66604 728.052 2.85725C730.555 2.62074 732.82 2.99026 734.855 4.58493C736.715 6.00682 736.742 7.13738 734.863 8.13634L734.864 8.14896Z" fill="#673C28"/>
<path d="M784.952 54.5625C781.836 64.6595 772.034 71.0101 761.052 70.2792C756.39 69.8214 751.94 68.4232 747.875 66.2575C747.611 66.3333 747.348 66.4091 747.261 66.4933C746.907 66.7356 746.806 66.9971 746.455 67.1508C744.304 68.8767 742.147 68.5299 741.131 65.9693C740.662 64.824 740.633 63.3459 740.691 62.049C741.441 46.3017 742.306 27.9606 743.409 12.1417C743.543 9.02924 744.717 5.78463 745.541 2.69371C745.748 1.83563 746.56 1.17803 747.474 -0.00019897C751.793 6.50732 750.778 16.1752 750.549 23.5366C754.427 19.9749 758.423 19.7977 762.549 20.5779C771.137 22.4148 777.973 26.8654 782.328 34.5918C785.878 40.8965 787.066 47.5354 784.952 54.5562L784.952 54.5625ZM770.957 61.6006C776.832 58.0356 779.599 51.9092 778.251 44.9202C776.305 35.6451 768.787 28.8282 759.121 27.9017C756.703 27.7128 754.187 27.6905 751.853 27.5944C751.416 27.5732 751.066 27.7332 750.539 27.8848C750.422 28.57 750.306 29.2617 750.278 29.9512C749.658 38.4215 749.211 46.9826 748.676 55.5457C748.616 57.0196 748.74 58.2364 749.992 59.3315C754.513 63.161 764.728 65.4142 770.964 61.6068L770.957 61.6006Z" fill="#673C28"/>
</svg>
