<svg width="495" height="193" viewBox="0 0 495 193" fill="none" xmlns="http://www.w3.org/2000/svg">
<path d="M115.643 145.24C115.606 145.631 115.385 146.197 114.858 146.137C114.134 146.057 113.41 145.976 112.683 145.896C111.723 149.88 110.622 154.595 109.905 158.299C108.187 167.045 106.28 178.182 104.633 186.937C104.317 188.689 103.725 190.406 102.48 191.69C101.305 192.986 100.18 192.906 99.321 191.413C98.4224 189.705 98.1893 187.813 98.5144 185.992C99.5449 180.125 100.836 171.873 102.008 166.026C103.29 159.765 105.102 151.567 106.544 145.213C98.8579 144.358 91.1754 143.506 83.4898 142.651C82.5084 146.686 81.4871 150.589 80.7388 154.46C79.0213 163.207 77.1137 174.343 75.4668 183.096C75.1509 184.848 74.559 186.564 73.3139 187.852C72.1393 189.145 71.0137 189.068 70.155 187.575C69.2564 185.867 69.0233 183.975 69.3484 182.154C70.3789 176.286 71.67 168.037 72.8416 162.188C74.1757 155.67 75.7797 149.254 77.264 142.686C77.402 141.542 77.0861 140.743 77.0401 140.308C76.7611 139.9 76.5249 139.483 76.3378 139.119C76.0403 138.538 75.7122 137.665 75.7766 136.992C75.8134 136.601 76.0342 136.035 76.5617 136.095C88.317 137.4 100.069 138.705 111.825 140.013C113.346 140.183 114.462 141.929 115.072 143.115C115.373 143.697 115.698 144.57 115.634 145.243L115.643 145.24Z" fill="#673C28"/>
<path d="M160.481 152.052C162.018 159.368 161.469 166.505 159.11 173.398C157.985 176.512 156.586 179.412 154.378 181.742C149.066 187.407 141.712 187.654 135.931 182.129C133.48 179.784 131.978 176.914 130.527 173.961C129.493 171.75 128.546 169.586 127.497 167.31C123.163 158.799 124.767 146.938 131.309 140.182C133.431 137.804 136.213 136.246 140.231 135.224C144.469 134.213 148.99 135.325 152.989 138.833C156.991 142.337 159.469 146.938 160.484 152.052L160.481 152.052ZM149.554 143.1C146.981 140.573 144.101 139.61 140.835 140.442C137.771 141.223 135.247 142.924 133.833 146.041C133.017 147.874 132.208 149.99 131.582 151.986C131.125 153.798 130.668 155.613 131.972 157.473C132.251 157.967 132.223 158.68 132.18 159.329C132.628 161.263 133.011 163.218 133.388 164.89C133.974 166.791 134.4 168.38 134.968 169.932C136.317 173.052 137.633 176.041 139.899 178.503C143.58 182.159 147.195 182.088 150.462 178.285C151.369 177.066 152.24 175.71 152.924 174.194C155.617 167.992 156.307 161.385 155.169 154.463C154.418 150.058 152.63 146.134 149.557 143.097L149.554 143.1Z" fill="#673C28"/>
<path d="M215.191 147.492C217.558 155.511 213.706 163.938 205.913 168.2C202.54 169.91 198.89 170.906 195.158 171.227C195.014 171.391 194.866 171.555 194.842 171.648C194.707 171.964 194.756 172.175 194.584 172.434C193.888 174.506 192.266 175.203 190.438 173.954C189.607 173.4 188.935 172.434 188.395 171.552C181.912 160.818 174.352 148.32 168.074 137.386C166.719 135.092 164.633 132.8 163.86 131.87C161.514 129.054 165.139 127.788 170.825 124.527C170.825 124.527 182.516 117.709 188.947 114.073C189.873 113.54 190.852 113.132 191.769 112.998C194.228 112.53 195.093 113.933 193.983 116.317C193.198 117.801 192.008 118.964 190.511 119.828L171.678 130.702C171.257 130.759 170.948 131.015 170.702 131.393C173.677 134.496 175.947 138.566 177.998 141.835C179.053 137.806 181.694 135.962 184.85 134.698C191.511 132.204 198.139 132.195 204.533 135.425C209.75 138.063 213.51 141.937 215.187 147.489L215.191 147.492ZM206.346 144.008C200.902 138.718 192.759 137.455 185.767 141.013C184.037 141.934 182.317 143.004 180.685 143.948C180.381 144.124 180.213 144.38 179.921 144.708C180.148 145.215 180.375 145.718 180.664 146.189C184.006 152.057 187.506 157.91 190.944 163.801C191.554 164.803 192.18 165.553 193.52 165.735C198.295 166.319 206.251 163.396 208.796 158.187C211.207 153.294 210.372 148.049 206.349 144.011L206.346 144.008Z" fill="#673C28"/>
<path d="M246.995 104.47C249.863 111.396 250.648 118.512 249.605 125.706C249.078 128.966 248.237 132.066 246.495 134.745C242.321 141.247 235.136 142.776 228.422 138.353C225.576 136.476 223.567 133.916 221.592 131.267C220.166 129.273 218.835 127.312 217.378 125.256C211.539 117.642 210.917 105.698 216.1 97.9055C217.747 95.1936 220.194 93.1762 223.954 91.4656C227.935 89.7312 232.587 90.0322 237.172 92.7798C241.757 95.5274 245.048 99.619 246.995 104.47ZM234.587 97.5777C231.587 95.5423 228.576 95.1013 225.518 96.49C222.65 97.7922 220.482 99.911 219.669 103.225C219.209 105.171 218.802 107.394 218.556 109.468C218.443 111.331 218.329 113.193 219.955 114.796C220.32 115.234 220.427 115.941 220.504 116.584C221.304 118.408 222.043 120.265 222.724 121.841C223.653 123.608 224.368 125.095 225.211 126.523C227.119 129.357 228.965 132.066 231.649 134.092C235.945 137.045 239.491 136.342 241.999 132.03C242.665 130.671 243.272 129.187 243.662 127.575C245.161 121.004 244.615 114.382 242.211 107.775C240.656 103.576 238.169 100.024 234.584 97.5777L234.587 97.5777Z" fill="#673C28"/>
<path d="M303.165 119.796C303.29 120.75 302.821 121.608 301.87 121.864C301.113 122.013 300.089 121.933 299.564 121.477C298.693 120.741 297.976 119.695 297.396 118.622C295.528 114.453 290.741 103.459 288.806 99.3023C286.469 94.2482 284.061 89.2089 281.669 84.2323C281.283 83.4008 280.688 82.6111 280.148 81.741C279.942 81.7827 279.734 81.8214 279.596 81.8482C279.087 83.5528 278.495 85.2008 278.068 86.959C275.854 96.0392 271.993 113.815 269.849 122.883C269.506 124.695 269.009 126.465 267.561 127.794C267.202 128.143 266.831 128.426 266.319 128.736C265.479 129.18 264.734 129.046 264.317 128.08C263.277 126.191 263.237 124.245 263.691 122.275C264.749 118.023 267.457 105.078 268.445 100.837C269.641 95.8603 270.754 90.83 271.935 85.7848C272.401 83.8806 273.02 82.0151 273.695 80.0692C274.066 79.0887 274.591 78.15 275.115 77.2113C277.115 74.0316 280.826 73.5846 283.478 76.3471C284.859 77.8222 286.229 79.5775 287.113 81.4251C290.253 87.9275 293.283 94.5908 296.215 101.132C297.35 103.841 301.306 113.252 302.232 116.002C302.649 117.317 302.898 118.523 303.162 119.796L303.165 119.796Z" fill="#673C28"/>
<path d="M355.794 75.8478C354.196 76.4915 352.46 77.0577 350.832 77.1501C346.093 77.305 341.441 77.2574 336.635 77.3408C335.718 77.3468 334.66 77.3408 333.673 77.3408C332.943 81.5426 332.154 85.6015 331.648 89.6096C330.511 98.4424 329.339 109.674 328.272 118.513C328.072 120.283 327.594 122.032 326.435 123.391C325.346 124.756 324.22 124.747 323.267 123.311C322.258 121.663 321.899 119.788 322.104 117.953C322.748 112.031 323.494 103.72 324.279 97.8107C325.183 91.2248 326.361 84.7224 327.41 78.0769C327.425 77.8743 327.37 77.6627 327.33 77.2484C326.487 77.1918 325.714 77.1382 324.874 77.0786C321.138 77.0279 317.406 76.9087 313.756 76.6554C312.487 76.6375 311.235 76.414 310.061 76.0594C308.819 75.6988 308.19 74.629 308.273 73.4697C308.355 72.3105 309.113 71.6072 310.266 71.2764C310.907 71.1841 311.616 71.1632 312.186 71.0649C319.025 71.1245 325.794 71.1781 332.568 71.1632C338.632 71.2377 344.627 71.2407 350.7 71.1781C352.745 71.1811 354.546 71.6489 356.067 73.0555C357.456 74.3161 357.392 75.2041 355.791 75.8478L355.794 75.8478Z" fill="#673C28"/>
<path d="M390.22 126.083C389.045 126.721 388.877 127.674 388.576 128.801C387.825 131.945 387.076 135.086 386.126 138.164C385.672 139.529 384.88 140.79 383.822 141.752C382.28 143.278 380.492 142.646 380.096 140.509C379.912 139.732 379.903 138.867 380.053 138.197C380.369 136.355 380.909 134.514 381.406 132.8C382.007 130.547 382.522 128.336 383.191 125.886C375.692 123.529 368.258 121.193 360.692 118.815C359.704 120.445 358.763 121.944 357.843 123.598C357.055 124.858 356.242 126.184 355.497 127.531C355.122 127.99 354.705 128.577 354.218 128.926C352.957 129.823 351.528 129.23 351.58 127.737C351.657 126.396 352.178 125.052 352.792 123.878C353.73 121.729 354.846 119.709 356.027 117.492C355.086 116.55 353.187 116.026 354.037 114.136C354.975 112.205 356.898 113.096 358.766 112.819C360.894 109.535 363.001 106.317 365.176 103.119C368.23 98.8337 371.463 94.459 374.695 90.2989C376.124 88.4483 377.802 86.9643 379.437 85.3938C380.295 84.5862 381.203 83.865 382.246 83.4031C385.215 81.8207 388.002 82.5538 389.784 85.1971C391.318 87.2593 391.808 89.7863 392.186 92.2032C392.814 97.6477 392.529 102.949 391.91 108.358C391.609 112.146 390.934 115.957 390.456 119.831C390.244 120.913 390.097 122.018 390.91 123.136C391.79 124.274 391.554 125.422 390.226 126.083L390.22 126.083ZM384.307 119.625C384.476 118.672 384.825 118.064 384.865 117.286C385.491 112.524 386.202 107.717 386.515 103C386.791 99.2777 386.693 95.5795 386.435 91.9081C386.441 90.3287 386.073 88.7761 384.902 87.4023C383.172 87.9358 382.025 89.1576 380.989 90.2691C376.71 94.6736 373.239 99.5489 369.902 104.466C367.859 107.488 365.795 110.578 363.645 113.928C370.561 115.814 377.342 117.659 384.304 119.631L384.307 119.625Z" fill="#673C28"/>
<path d="M422.8 110.924C420.405 114.154 418.218 117.581 415.906 120.94C415.222 122.054 414.646 123.392 413.9 124.873C416.848 126.345 419.638 127.806 422.527 129.242C424.377 130.234 425.91 131.605 426.965 133.491C427.183 133.935 427.207 134.427 427.487 134.91C425.413 136.016 423.349 135.774 421.393 134.958C418.918 133.918 416.621 132.585 414.228 131.277C413.201 130.681 412.235 130.121 410.965 129.385C408.297 134.129 405.519 138.647 403.019 143.65C405.313 144.583 407.368 145.376 409.349 146.288C412.382 147.489 415.425 148.538 418.384 149.858C419.485 150.335 420.488 151.238 421.298 152.185C422.678 153.94 422.031 155.398 419.93 155.612C418.881 155.719 417.697 155.511 416.621 155.126C411.499 153.192 406.451 151.136 401.461 149.119C400.302 148.606 399.274 148.01 398.186 147.378C396.919 146.642 396.25 145.06 396.621 143.522C396.947 142.595 397.33 141.704 397.811 140.787C400.072 136.442 402.427 132.076 404.746 127.767C405.154 126.968 405.356 125.97 405.463 124.998C405.448 123.955 405.699 123.145 406.702 122.85C407.957 122.543 408.414 121.533 408.99 120.594C411.72 116.285 414.354 111.999 417.326 107.827C421.393 102.144 425.337 101.724 430.753 105.583C433.774 107.735 436.638 109.875 439.723 112.062C441.223 113.09 442.637 113.99 443.977 115.009C445.839 116.249 446.701 118.183 445.992 119.601C445.198 120.892 443.171 121.389 441.275 120.209C437.902 118.094 434.519 115.733 431.256 113.442C429.817 112.446 428.45 111.338 426.977 110.402C424.849 108.93 424.282 108.918 422.8 110.927L422.8 110.924Z" fill="#673C28"/>
<path d="M482.625 165.085C478.564 170.106 474.369 174.955 470.348 179.916C468.646 181.94 466.588 183.245 463.662 183.591C463.037 181.15 463.429 178.945 464.822 177.133C466.193 175.226 467.68 173.393 469.229 171.599C473.308 166.673 477.31 161.863 481.233 156.919C483.165 154.553 484.824 152.092 486.363 149.311C485.839 149.466 485.213 149.642 484.707 149.893C478.04 153.415 471.412 156.881 464.782 160.344C463.656 161.017 462.313 161.634 461.049 162.138C458.443 163.011 455.652 160.907 455.845 158.252C456.007 156.884 456.369 155.477 456.651 154.187C458.645 147.115 460.439 139.838 461.414 132.525C461.583 131.652 461.577 130.913 461.589 130.019C461.473 129.944 461.295 129.831 461.138 129.813C459.669 131.741 457.927 133.574 456.578 135.576C450.518 144.311 444.694 152.947 438.673 161.625C437.901 162.769 437.149 163.762 436.22 164.641C435.892 165.004 434.818 165.219 434.466 164.995C434.055 164.733 433.754 163.806 433.926 163.425C434.306 162.114 434.821 160.725 435.435 159.563C441.86 148.039 449.095 137.189 457.464 126.902C458.7 125.319 460.093 123.752 461.488 122.432C463.874 120.515 466.788 121.311 467.34 124.36C467.686 126.216 467.566 128.263 467.545 130.296C467.284 136.67 465.929 142.922 464.398 149.061C463.981 150.676 463.564 152.291 463.132 154.306C464.279 153.728 464.996 153.287 465.775 152.882C472.326 149.532 478.938 146.218 485.624 142.791C486.906 142.136 488.464 141.575 490.022 141.259C493.512 140.702 495.561 142.904 494.865 146.305C494.543 147.655 493.871 149.025 493.178 150.301C490.255 155.635 486.406 160.463 482.622 165.082L482.625 165.085Z" fill="#673C28"/>
<path d="M41.4089 75.7935C32.5916 83.47 18.4011 85.1985 7.98908 79.891C6.35444 79.0864 4.91299 78.2311 3.29981 79.7837C2.60977 80.4274 1.5793 80.2635 0.852452 79.5573C0.0611971 78.9732 -0.276174 78.0106 0.263597 77.206C1.27567 75.719 0.926068 74.3571 0.367899 72.8015C-0.0215967 71.6512 -0.343641 70.3847 0.729768 68.9305C1.84304 69.3745 2.95634 69.8215 4.35177 70.34C5.7656 68.2868 7.27143 66.3616 8.37245 64.2965C12.4391 57.0639 16.3801 49.7629 20.3701 42.4886C19.3549 42.8045 18.2324 43.2902 16.9689 44.0502C14.4755 45.5521 12.4391 48.0523 10.8443 50.3946C10.1021 51.4853 8.40004 51.2946 7.94614 50.0638C7.93388 50.034 7.92469 50.0073 7.91548 49.9804C7.54439 48.9702 7.58118 47.8497 8.05348 46.8812C9.70959 43.4959 12.4575 40.6648 15.8127 38.7934C18.027 37.5567 20.8976 36.5226 23.7038 36.3438C23.9859 35.7895 24.265 35.2442 24.5686 34.7107C25.5469 33.2833 26.4823 32.7707 27.5956 33.2177C28.9021 33.6111 29.0708 34.7197 29.0524 35.8819C29.0984 36.2216 29.0862 36.5256 29.0033 36.9517C29.7149 37.2557 30.365 37.5298 31.0827 37.6818C36.2626 39.4609 40.5348 42.5512 44.1047 46.5892C51.7688 55.5769 50.5574 67.8308 41.4089 75.7994L41.4089 75.7935ZM39.2866 49.3785C36.7717 46.455 33.6282 44.2111 29.9418 42.7687C29.1689 42.429 28.3286 42.2115 27.3932 42.0178C22.3267 53.1303 16.4414 63.5634 9.59306 73.7134C18.76 79.3665 32.5946 77.1345 39.2467 69.303C44.2426 63.2386 44.3132 55.3743 39.2896 49.3785L39.2866 49.3785Z" fill="#673C28"/>
<path d="M94.0519 93.3976C93.003 94.2171 92.9999 95.1827 92.8956 96.3419C92.6932 99.5633 92.4939 102.782 92.0829 105.97C91.8682 107.389 91.307 108.763 90.4268 109.88C89.1663 111.635 87.2955 111.299 86.538 109.257C86.2221 108.521 86.0657 107.669 86.0994 106.984C86.0994 105.118 86.3141 103.214 86.5073 101.444C86.7159 99.1252 86.8416 96.8604 87.0809 94.3363C79.2818 93.2248 71.5532 92.1221 63.6867 91.0017C62.9936 92.7688 62.3189 94.3989 61.6963 96.178C61.1351 97.5488 60.5615 98.9882 60.0586 100.436C59.7672 100.949 59.4575 101.596 59.0373 102.019C57.9485 103.107 56.4366 102.755 56.2342 101.274C56.0808 99.9388 56.363 98.5292 56.7678 97.2717C57.3229 95.0009 58.0804 92.8284 58.8656 90.4504C57.7738 89.6726 55.814 89.464 56.3293 87.4644C56.9242 85.4052 58.9729 85.9744 60.767 85.4022C62.3035 81.8202 63.8308 78.3067 65.4256 74.8022C67.7043 70.0818 70.1394 65.2452 72.6174 60.6202C73.7093 58.564 75.1077 56.8296 76.451 55.0148C77.1595 54.079 77.9293 53.2208 78.88 52.598C81.5359 50.5567 84.4096 50.8279 86.6208 53.1493C88.4855 54.9373 89.4025 57.3482 90.1876 59.6696C91.7394 64.9353 92.3681 70.21 92.684 75.6456C93.0367 79.4272 93.0245 83.2953 93.2177 87.1932C93.1931 88.2958 93.2391 89.4073 94.2297 90.3788C95.2909 91.3593 95.2572 92.5304 94.0611 93.3946L94.0519 93.3976ZM87.1146 87.9859C87.1176 87.0203 87.3599 86.3618 87.2618 85.587C87.0624 80.7891 86.9398 75.9346 86.4429 71.2321C86.078 67.519 85.345 63.8863 84.4648 60.3073C84.201 58.7488 83.5723 57.2766 82.1799 56.1114C80.5668 56.919 79.6436 58.3077 78.8125 59.5713C75.35 64.6075 72.7616 69.9745 70.3111 75.3624C68.8145 78.6733 67.3087 82.0526 65.763 85.7032C72.9057 86.4452 79.9105 87.1664 87.1115 87.9859L87.1146 87.9859Z" fill="#673C28"/>
<path d="M146.051 88.429C145.106 92.4878 142.849 95.8463 139.905 98.728C136.197 102.054 131.922 104.167 127.061 105.29C123.025 106.232 119.427 105.329 115.695 102.563C117.434 101.976 118.624 101.508 120.022 100.996C116.299 88.2115 113.606 75.2036 111.371 62.3031C111.101 62.0825 111.003 61.9633 110.797 62.008C109.767 62.2315 108.623 62.2673 108.003 61.1408C107.384 60.0144 107.856 58.9297 108.666 58.0565C109.963 56.796 111.374 55.7201 112.772 54.5758C112.864 54.3464 113.208 54.2719 113.346 54.2421C116.94 54.5162 119.979 52.6656 123.328 52.5017C125.923 52.5017 128.459 52.2335 130.977 52.5285C136.406 53.2467 138.736 57.4337 136.639 62.4431C135.433 65.3665 133.36 67.6373 131.299 69.9737C130.477 70.7842 129.683 71.7229 128.576 72.8762C129.873 72.8762 130.658 72.8464 131.477 72.9507C132.872 73.0699 134.256 73.1206 135.599 73.3202C143.791 74.7715 147.799 80.6273 146.057 88.432L146.051 88.429ZM118.777 73.2427C119.578 72.6497 119.976 72.4918 120.326 72.1372C122.973 69.5326 125.582 67.0741 127.978 64.3146C129.03 63.2447 129.968 61.9931 130.738 60.6342C131.799 58.6525 131.394 57.83 129.134 57.4098C125.582 56.7065 122.086 57.1834 118.685 58.0595C118.029 58.3426 117.51 58.5929 116.716 58.9058C117.428 63.5874 118.041 68.1469 118.774 73.2427L118.777 73.2427ZM133.872 79.0151C129.33 78.3863 124.874 79.0687 120.157 80.5111C121.488 86.9479 122.69 93.1345 124.052 99.7055C126.257 99.5803 128.107 98.8293 129.799 98.0426C134.363 95.9327 138.163 93.0093 139.712 88.1221C141.435 83.056 139.319 79.8018 133.875 79.0181L133.872 79.0151Z" fill="#673C28"/>
<path d="M195.406 60.7732C195.096 62.0457 195.707 62.8116 196.36 63.786C198.24 66.4442 200.123 69.1024 201.819 71.8619C202.549 73.1106 202.975 74.5261 202.99 75.9356C203.11 78.0723 201.423 78.9276 199.531 77.7713C198.816 77.381 198.154 76.8028 197.743 76.2426C196.559 74.7734 195.523 73.1434 194.556 71.6325C193.25 69.6806 191.919 67.821 190.508 65.6873C183.657 69.4749 176.867 73.2298 169.957 77.0531C170.531 78.862 171.033 80.5487 171.665 82.3248C172.092 83.7404 172.552 85.2184 173.073 86.6608C173.168 87.2389 173.334 87.9332 173.269 88.5203C173.101 90.0312 171.684 90.654 170.586 89.611C169.62 88.6514 168.948 87.37 168.47 86.1393C167.47 84.0175 166.688 81.854 165.801 79.5087C164.449 79.5474 162.771 80.5547 161.91 78.6713C161.075 76.6926 163.05 75.9177 164.099 74.392C163.041 70.649 162.017 66.9657 161.054 63.2526C159.858 58.1687 158.717 52.9 157.739 47.7743C157.297 45.5006 157.3 43.2953 157.211 41.0633C157.177 39.9011 157.242 38.7657 157.591 37.7048C158.392 34.5072 160.83 33.0023 164.041 33.5089C166.642 33.8009 168.893 35.1539 170.984 36.5157C175.545 39.7372 179.378 43.5188 183.071 47.6134C185.745 50.3818 188.183 53.4394 190.806 56.3956C191.483 57.2777 192.226 58.1269 193.621 58.2998C195.078 58.4369 195.792 59.3816 195.397 60.7792L195.406 60.7732ZM186.509 60.657C185.899 59.8941 185.675 59.2296 185.107 58.6782C181.912 55.0158 178.741 51.261 175.367 47.8548C172.726 45.1459 169.85 42.7232 166.887 40.4285C165.694 39.3587 164.262 38.5749 162.431 38.4885C161.67 40.0888 161.824 41.7368 161.971 43.2298C162.431 49.2703 163.793 55.0486 165.274 60.7583C166.194 64.2628 167.148 67.827 168.24 71.6295C174.34 67.9432 180.317 64.3224 186.512 60.66L186.509 60.657Z" fill="#673C28"/>
<path d="M245.316 46.7015C245.479 47.2379 245.246 48.278 244.875 48.6147C244.387 49.0826 243.577 49.011 242.998 48.9067C242.375 48.6683 241.805 48.0962 241.437 47.6581C240.498 46.6449 239.563 45.6347 238.9 44.4874C232.616 34.9513 226.424 25.4509 220.143 15.9178C219.781 15.2443 219.343 14.839 218.693 13.9957C218.533 15.5393 218.457 16.5794 218.447 17.5866C218.309 26.4522 218.288 35.1837 217.905 44.0135C217.73 49.6548 217.064 55.2274 216.417 60.8656C216.258 62.4093 215.515 63.8516 213.991 64.2808C212.36 64.6086 211.044 64.1645 210.369 62.7192C209.29 60.4633 208.253 58.3416 207.312 56.0201C203.371 47.2022 199.657 38.3515 195.903 29.3667C194.244 25.4628 192.624 21.6931 191.036 17.7565C190.68 16.8476 190.471 15.6377 190.548 14.5977C190.606 12.7173 191.87 11.9514 193.216 12.7649C194.406 13.5755 195.434 14.6215 195.912 15.9357C200.656 26.3688 205.06 36.9687 209.621 47.5717C210.529 49.5236 211.302 51.5441 212.139 53.5288C212.274 53.4632 212.366 53.496 212.571 53.3977C212.614 52.7599 212.82 51.8898 212.89 51.0822C213.05 45.9118 213.16 40.8398 213.341 35.738C213.497 28.4846 213.715 21.4338 214.046 14.249C214.028 12.6368 214.304 10.959 214.819 9.55245C215.742 6.635 218.067 5.73801 220.067 7.39491C220.99 8.10415 221.68 9.08159 222.37 10.059C225.698 15.3158 229.028 20.5696 232.377 25.892C236.137 31.7865 240.121 37.6512 243.902 43.6142C244.436 44.5917 244.967 45.5691 245.313 46.7105L245.316 46.7015ZM196.939 8.44985C195.933 7.96708 196.446 6.3936 196.817 5.7082C197.237 4.93339 198.313 3.91125 199.292 4.3821C200.614 5.01684 201.935 5.59199 203.334 5.83635C203.904 5.9347 204.469 5.97043 205.048 5.95851C205.079 5.95851 205.094 5.95851 205.113 5.95851C205.134 5.95255 205.152 5.94959 205.192 5.94065C205.33 5.91383 205.468 5.89595 205.606 5.86615C205.833 5.81847 206.051 5.74397 206.275 5.6784C206.287 5.67542 206.29 5.67542 206.303 5.67244C206.318 5.6635 206.324 5.66053 206.342 5.64861C206.444 5.59199 206.554 5.54728 206.655 5.49364C206.781 5.42808 206.904 5.35359 207.026 5.28207C207.048 5.27015 207.054 5.26715 207.069 5.25821C207.272 5.10623 207.471 4.95724 207.661 4.79036C207.79 4.67712 208.403 4.0364 208.008 4.48341C208.446 3.98872 208.885 3.50296 209.29 2.97848C209.514 2.68942 209.731 2.3944 209.946 2.0964C209.998 2.0219 210.059 1.93547 210.09 1.89672C210.188 1.75368 210.286 1.60768 210.385 1.46463C210.845 0.788168 211.857 -0.406811 212.856 0.138535C213.786 0.645141 213.451 2.18282 212.979 2.88015C211.142 5.59794 209.069 8.59287 205.815 9.81171C202.834 10.9292 199.641 9.74911 196.942 8.4528L196.939 8.44985Z" fill="#673C28"/>
</svg>
