<svg width="681" height="113" viewBox="0 0 681 113" fill="none" xmlns="http://www.w3.org/2000/svg">
<path d="M49.5835 82.4872C49.7928 83.7091 49.2528 84.8432 48.0714 85.2212C47.1263 85.4508 45.8437 85.4035 45.1618 84.8432C44.0345 83.9386 43.0759 82.6222 42.2928 81.2721C39.7275 75.9863 33.1456 62.0528 30.4993 56.7872C27.2994 50.3875 24.0186 44.0081 20.7512 37.7097C20.2247 36.6566 19.4349 35.671 18.7125 34.5706C18.456 34.6314 18.1995 34.6989 18.024 34.7394C17.4771 36.9671 16.8223 39.1274 16.3835 41.4158C14.0883 53.2498 10.1931 76.3778 7.98564 88.1916C7.6481 90.5476 7.12155 92.8563 5.37986 94.6452C4.94782 95.1178 4.49552 95.4958 3.87445 95.9211C2.84159 96.5354 1.90324 96.4004 1.32943 95.1785C-0.0747144 92.7955 -0.229981 90.2843 0.235818 87.719C1.33618 82.1767 4.04322 65.3336 5.06258 59.8183C6.29796 53.3376 7.42533 46.7894 8.64046 40.221C9.12651 37.7367 9.80158 35.2997 10.5442 32.7547C10.956 31.472 11.5635 30.2299 12.1711 28.9945C14.5068 24.7888 19.1378 24.0193 22.6077 27.4486C24.4169 29.2781 26.2261 31.472 27.4344 33.8145C31.7144 42.0437 35.8661 50.4821 39.8895 58.7719C41.4557 62.208 46.917 74.1501 48.2266 77.6469C48.8207 79.3211 49.192 80.867 49.5903 82.4939L49.5835 82.4872Z" fill="#673C28"/>
<path d="M53.7558 32.8554C54.3431 37.9657 55.295 43.0827 56.0781 48.247C56.4156 49.8942 57.0434 51.6561 57.6375 53.6948C61.6541 52.608 65.5088 51.6426 69.4377 50.5692C72.0165 49.9549 74.629 49.9617 77.2483 50.873C77.8356 51.1161 78.2879 51.5616 78.963 51.7844C78.0044 54.5927 75.8779 56.1048 73.3531 56.9824C70.1533 58.0828 66.8657 58.7511 63.5106 59.5274C62.0389 59.8245 60.655 60.108 58.8391 60.4793C60.493 67.2638 61.8499 73.9267 63.8819 80.8124C66.8252 79.7661 69.4175 78.7872 72.0502 77.9771C75.9049 76.5595 79.6448 74.9866 83.54 73.7444C84.9779 73.2719 86.6925 73.2854 88.2655 73.5014C91.0737 74.0077 91.7421 75.9452 89.9801 77.9299C89.1025 78.9222 87.8199 79.7188 86.49 80.2656C80.0566 82.7499 73.5827 85.0586 67.2032 87.3471C65.6843 87.8399 64.2059 88.137 62.6532 88.4543C60.8373 88.8255 58.8391 87.8804 57.8467 86.0983C57.3404 84.9371 56.9219 83.7625 56.5709 82.4799C54.8832 76.4245 53.2698 70.2611 51.6766 64.1922C51.3593 63.0851 50.6842 61.9644 49.9349 60.9451C49.0101 59.9595 48.5443 58.9739 49.2126 57.8465C50.1104 56.4896 49.6514 55.1395 49.3746 53.7556C48.1595 47.3356 46.8701 41.017 45.9992 34.5228C44.8246 25.6591 48.119 21.926 56.5033 21.0281C61.1748 20.5286 65.6978 20.1505 70.4571 19.6307C72.7456 19.3472 74.8383 19.0097 76.9648 18.8476C79.7663 18.4561 82.2506 19.5767 82.8311 21.5277C83.2159 23.4314 81.7713 25.6186 78.9832 26.0979C74.0147 26.9282 68.8234 27.5358 63.8009 28.1096C61.6001 28.3796 59.3657 28.4742 57.1852 28.8252C53.9313 29.2167 53.398 29.6893 53.7693 32.8554H53.7558Z" fill="#673C28"/>
<path d="M125.853 16.8697C124.476 18.2198 122.829 18.9894 120.986 19.2527C114.343 20.1978 107.613 21.1564 100.97 22.1082C100.092 22.2297 99.0461 22.385 97.7365 22.5673C97.7635 23.9849 97.7837 24.9638 97.7972 25.7604C98.8436 34.6781 99.9777 43.319 100.936 52.2502C101.686 59.2574 102.347 66.3592 103.097 73.4542C103.211 74.8583 103.151 76.3772 102.833 77.8489C102.759 78.4834 101.902 79.4015 101.287 79.5838C100.68 79.7593 99.6199 79.3745 99.2554 78.8075C98.6276 78.0109 98.1685 76.9173 98.0605 75.8642C95.6505 60.027 93.2405 44.1966 90.925 28.3459C90.628 26.611 90.4997 24.6735 90.5537 22.8913C90.5537 18.1793 92.7004 15.9178 97.0682 15.209C97.4192 15.1617 97.6825 15.1212 98.0268 15.074C105.891 13.9534 113.85 12.7315 121.722 11.6986C122.856 11.5366 123.997 11.5501 124.969 11.8606C127.615 12.5492 127.919 14.6419 125.853 16.8899V16.8697Z" fill="#673C28"/>
<path d="M177.618 68.3714C176.2 69.4583 174.52 69.5056 173.007 68.3039C172.332 67.6491 171.745 66.9876 171.158 66.2382C164.15 57.415 157.244 48.6661 150.251 40.0184C149.859 39.6067 149.562 39.1881 148.995 38.7021C147.179 40.356 145.269 41.9289 143.723 43.6503C143.149 44.2309 142.987 45.4798 143.061 46.4519C143.257 52.109 143.608 57.5703 143.709 63.2342C143.858 66.1437 143.554 69.006 143.264 71.9561C143.237 72.7594 142.778 73.5898 142.177 74.9669C141.022 73.8193 140.165 73.0902 139.571 72.3409C137.769 69.7418 136.472 66.92 136.216 63.754C135.919 60.0546 135.602 56.1864 135.48 52.4735C135.392 38.216 136.182 23.972 138.228 9.809C138.363 8.20233 138.68 6.66992 139.105 5.30628C139.74 3.30806 140.813 2.33596 141.974 2.41697C143.311 2.48448 144.108 3.57134 144.189 5.69107C144.114 10.214 143.844 14.5818 143.682 19.1115C143.446 23.8235 143.21 28.63 143.061 33.3352C143.331 33.4027 143.426 33.4838 143.621 33.7335C144.445 32.9572 145.282 32.3564 145.937 31.6881C154.51 23.729 161.842 14.7168 168.991 5.63031C169.47 4.96874 169.841 4.14515 170.604 3.63885C171.104 3.24056 171.873 2.91652 172.434 3.22706C172.974 3.36207 173.493 4.29367 173.534 4.82022C173.534 5.88009 173.271 7.05471 172.731 8.07407C171.509 10.4773 170.287 12.8806 168.687 15.0476C164.198 20.9072 159.533 26.7735 154.861 32.5589C154.294 33.2272 153.538 33.7268 152.877 34.3141C161.801 42.8065 168.93 52.0617 176.396 61.1144C177.092 62.0325 177.78 62.8629 178.394 63.8755C179.319 65.4821 178.928 67.1968 177.605 68.3647L177.618 68.3714Z" fill="#673C28"/>
<path d="M223.516 27.1176C223.158 36.7509 220.309 45.5471 215.334 53.4994C213.012 57.0706 210.419 60.2974 207.017 62.5724C198.815 68.108 189.769 66.238 184.402 57.5904C182.127 53.918 181.175 49.8743 180.304 45.7361C179.717 42.6578 179.224 39.6605 178.637 36.4944C175.95 24.5321 181.519 10.1193 191.565 3.58464C194.879 1.22189 198.741 0.0945225 203.952 1.24703e-05C209.427 -0.00673824 214.598 2.7273 218.412 8.31014C222.22 13.893 223.84 20.4007 223.516 27.1244V27.1176ZM212.924 12.6441C210.554 8.70844 207.341 6.64947 203.101 6.72372C199.125 6.79123 195.534 8.18188 192.854 11.6787C191.301 13.7377 189.668 16.1545 188.297 18.4767C187.19 20.6167 186.076 22.7567 187.096 25.4772C187.285 26.1793 187.035 27.0704 186.785 27.867C186.745 30.4255 186.609 32.9908 186.562 35.205C186.697 37.7635 186.731 39.8832 186.947 41.9962C187.642 46.3099 188.331 50.4549 190.343 54.215C193.711 59.8991 198.146 60.878 203.291 57.0773C204.769 55.8149 206.247 54.377 207.537 52.6758C212.715 45.6956 215.57 37.6015 216.292 28.5825C216.718 22.8309 215.739 17.3764 212.917 12.6576L212.924 12.6441Z" fill="#673C28"/>
<path d="M303.256 32.4169C301.872 41.9557 298.098 50.4008 292.3 57.7726C289.613 61.0805 286.69 64.0103 283.058 65.9005C274.309 70.5247 265.519 67.6961 261.111 58.5287C259.241 54.6403 258.728 50.5156 258.303 46.3099C258.053 43.1843 257.878 40.1532 257.635 36.9399C256.244 24.7549 263.325 11.0307 274.005 5.60308C277.556 3.61162 281.519 2.9028 286.71 3.3686C292.158 3.94241 297.005 7.2165 300.198 13.1774C303.391 19.1383 304.302 25.781 303.263 32.4237L303.256 32.4169ZM294.271 16.897C292.34 12.7318 289.363 10.3421 285.137 9.96404C281.181 9.60626 277.455 10.6054 274.417 13.7917C272.655 15.6751 270.771 17.8961 269.158 20.0631C267.828 22.0748 266.492 24.0798 267.214 26.8948C267.329 27.6172 266.984 28.4678 266.647 29.2373C266.33 31.7824 265.924 34.3139 265.641 36.5079C265.499 39.0664 265.31 41.1793 265.297 43.3058C265.526 47.6735 265.769 51.859 267.369 55.8149C270.11 61.823 274.417 63.2744 279.939 60.0408C281.546 58.9472 283.166 57.6713 284.637 56.1187C290.531 49.7325 294.237 41.9962 295.918 33.0987C296.957 27.4281 296.566 21.8993 294.264 16.9038L294.271 16.897Z" fill="#673C28"/>
<path d="M350.861 69.5791C346.5 79.4351 335.814 84.6872 324.783 82.6417C320.118 81.6223 315.778 79.6714 311.916 76.9913C311.639 77.0386 311.363 77.0791 311.261 77.1534C310.87 77.3559 310.742 77.6057 310.364 77.7272C307.974 79.2191 305.841 78.6048 305.111 75.8977C304.774 74.6826 304.922 73.1839 305.132 71.8743C307.778 56.0236 310.843 37.5537 313.847 21.6692C314.441 18.3074 314.333 14.3582 314.353 12.8123C314.427 8.13407 318.964 9.79474 327.139 11.1381C327.139 11.1381 344.043 13.7844 353.244 15.3573C354.581 15.5734 355.857 15.9581 356.856 16.5657C359.617 18.0779 359.286 20.1638 356.235 21.6355C354.25 22.4726 352.144 22.6684 349.983 22.3241L322.846 17.9496C322.393 17.6661 321.887 17.6728 321.333 17.8483C321.63 23.3164 320.442 29.176 319.713 34.0703C324.067 30.9245 328.131 31.2215 332.222 32.5109C340.701 35.4002 347.087 40.7198 350.578 49.0636C353.42 55.8684 353.831 62.7338 350.848 69.5926L350.861 69.5791ZM345.231 59.0142C344.367 49.3944 337.576 41.5906 327.895 39.4911C325.465 39.0118 322.927 38.6878 320.571 38.3098C320.132 38.2422 319.76 38.357 319.207 38.4448C319.004 39.1266 318.809 39.8152 318.694 40.5105C317.053 49.0096 315.575 57.6303 314.016 66.2307C313.779 67.7159 313.752 68.9647 314.893 70.2204C319.011 74.6421 329.09 78.1457 335.854 75.0269C342.227 72.1173 345.764 66.251 345.231 59.0074V59.0142Z" fill="#673C28"/>
<path d="M422.683 100.606C415.993 102.841 418.2 98.8983 419.118 97.1971C419.955 95.3677 420.36 93.0522 420.198 91.0135C420.198 90.9595 420.185 90.9055 420.178 90.8515L416.904 90.1899C416.567 90.1224 416.317 90.0751 415.979 90.0076C415.716 89.9536 415.453 89.9064 415.189 89.8524C411.571 89.1705 407.932 88.4482 404.3 87.7124C400.662 86.9968 372.91 81.4342 365.329 79.9221C364.991 79.8546 364.741 79.8073 364.404 79.7398C360.198 78.8149 358.18 76.567 358.328 72.098C358.328 70.3833 358.51 68.5269 358.855 66.8662C361.69 51.2855 364.748 34.9758 367.961 17.883C368.123 16.7151 368.663 15.5202 369.372 14.6494C369.784 14.0283 370.932 13.6503 371.573 13.8731C372.214 14.1026 373.078 15.1827 373.126 15.8983C373.389 17.559 373.369 19.2534 373.166 20.8061C371.998 28.5289 370.952 36.1167 369.838 43.4277C368.447 52.5344 366.935 61.1078 365.531 69.7487C365.484 70.5183 365.43 71.4499 365.342 72.8068C366.618 73.0633 367.637 73.2659 368.488 73.4346C374.273 74.589 380.126 75.7501 385.925 76.9045C386.026 75.3991 386.256 73.8262 386.62 72.3883C390.104 56.9359 393.837 40.7612 397.752 23.8101C397.962 22.649 398.556 21.4676 399.305 20.6103C399.744 19.9892 400.918 19.6179 401.553 19.8475C402.188 20.077 403.018 21.1503 403.038 21.8592C403.234 23.5063 403.146 25.1873 402.883 26.7264C401.398 34.3885 400.041 41.9088 398.623 49.1658C396.854 58.1983 394.991 66.7042 393.229 75.2708C393.148 76.0336 393.054 76.9585 392.919 78.3019C393.587 78.4369 394.188 78.5517 394.728 78.6597C395.221 78.7542 395.666 78.8487 396.071 78.9297C402.093 80.1313 408.182 81.3397 414.217 82.5413C414.663 82.6291 415.115 82.7169 415.561 82.8114C416.101 82.9194 416.702 83.0341 417.37 83.1691C417.559 81.8325 417.687 80.9144 417.788 80.1583C418.133 71.3081 425.775 39.2423 426.234 31.3777C426.362 29.8115 426.686 28.1778 427.28 26.6859C427.469 26.0176 428.522 25.3155 429.184 25.3493C429.845 25.383 430.871 26.1931 431.135 26.9492C431.634 28.0563 431.911 29.4132 431.83 30.6013C431.411 48.2545 425.099 63.9094 424.769 79.9963C424.769 81.5152 424.62 83.1286 424.357 84.6138C426.2 85.0121 427.847 85.8424 428.657 87.5841C430.061 88.8128 425.923 98.4798 422.696 100.613L422.683 100.606Z" fill="#673C28"/>
<path d="M480.205 89.9403C478.875 90.9799 478.855 92.2288 478.706 93.7274C478.396 97.8859 478.092 102.038 477.518 106.149C477.228 107.978 476.492 109.74 475.372 111.171C473.758 113.419 471.422 112.953 470.504 110.3C470.12 109.342 469.937 108.241 469.991 107.357C470.018 104.947 470.322 102.49 470.599 100.208C470.903 97.2175 471.098 94.2945 471.443 91.0406C461.674 89.4745 451.994 87.9218 442.145 86.3421C441.247 88.6104 440.369 90.7099 439.559 92.9916C438.83 94.7535 438.087 96.6032 437.433 98.4664C437.055 99.1212 436.656 99.9516 436.123 100.492C434.739 101.882 432.849 101.396 432.619 99.479C432.451 97.7509 432.829 95.9349 433.355 94.3215C434.091 91.3984 435.077 88.6036 436.103 85.5523C434.746 84.533 432.289 84.2292 432.97 81.6504C433.753 79.0041 436.312 79.7737 438.573 79.0581C440.565 74.4609 442.543 69.9447 444.602 65.4487C447.538 59.3933 450.684 53.1826 453.871 47.2555C455.275 44.6227 457.064 42.4017 458.778 40.0795C459.683 38.8846 460.669 37.791 461.863 36.9944C465.232 34.4021 468.837 34.8004 471.571 37.8315C473.88 40.1673 474.987 43.2996 475.939 46.3104C477.795 53.1354 478.49 59.9604 478.794 66.9811C479.172 71.8754 479.091 76.8641 479.267 81.9069C479.22 83.3313 479.253 84.7692 480.482 86.0384C481.798 87.321 481.731 88.8332 480.219 89.9335L480.205 89.9403ZM471.591 82.8318C471.612 81.5829 471.929 80.7391 471.821 79.7399C471.652 73.5428 471.584 67.2714 471.038 61.189C470.646 56.3825 469.789 51.684 468.742 47.0462C468.439 45.0278 467.676 43.1173 465.948 41.5917C463.909 42.6043 462.728 44.3865 461.661 46.0066C457.226 52.4536 453.884 59.3393 450.718 66.2588C448.781 70.5117 446.836 74.8524 444.831 79.5374C453.783 80.6175 462.559 81.6639 471.584 82.8453L471.591 82.8318Z" fill="#673C28"/>
<path d="M540.124 45.6752C538.105 46.4717 535.918 47.1738 533.873 47.2616C527.925 47.3628 522.086 47.2143 516.058 47.2211C514.91 47.2076 513.58 47.1806 512.338 47.1603C511.339 52.5676 510.259 57.7927 509.543 62.9637C507.936 74.3454 506.235 88.8257 504.71 100.214C504.426 102.496 503.785 104.744 502.306 106.479C500.916 108.221 499.498 108.187 498.33 106.31C497.101 104.163 496.69 101.733 496.98 99.3703C497.912 91.742 499.019 81.0219 500.119 73.4071C501.388 64.9214 503.002 56.5505 504.453 47.9906C504.473 47.7274 504.413 47.4573 504.365 46.9173C503.312 46.8228 502.34 46.7418 501.287 46.6473C496.602 46.5055 491.924 46.276 487.347 45.8777C485.754 45.8304 484.187 45.5131 482.722 45.0338C481.17 44.5478 480.4 43.1504 480.535 41.6517C480.664 40.1598 481.629 39.262 483.08 38.8569C483.89 38.7489 484.775 38.7354 485.497 38.6207C494.077 38.8367 502.57 39.0392 511.069 39.154C518.677 39.37 526.197 39.4915 533.819 39.532C536.384 39.5793 538.632 40.2138 540.515 42.0635C542.23 43.7174 542.136 44.8651 540.11 45.6616L540.124 45.6752Z" fill="#673C28"/>
<path d="M587.791 90.6819C585.023 101.098 575.295 107.957 564.082 107.667C559.316 107.39 554.726 106.141 550.493 104.096C550.23 104.183 549.96 104.271 549.872 104.359C549.521 104.622 549.426 104.885 549.075 105.061C546.949 106.911 544.741 106.641 543.6 104.075C543.074 102.928 542.986 101.422 542.993 100.099C543.121 84.0257 543.263 65.306 543.742 49.1448C543.749 45.9652 544.822 42.6101 545.531 39.4373C545.713 38.5529 546.51 37.8508 547.394 36.6155C552.059 43.0759 551.411 52.9657 551.485 60.4725C555.293 56.6853 559.357 56.341 563.596 56.9689C572.426 58.4945 579.568 62.7475 584.314 70.4433C588.182 76.7214 589.667 83.4384 587.797 90.6752L587.791 90.6819ZM580.574 81.1297C578.211 71.7597 570.286 65.117 560.396 64.5634C557.925 64.4689 555.36 64.5499 552.977 64.5432C552.532 64.5432 552.181 64.7187 551.654 64.8942C551.566 65.603 551.472 66.3051 551.472 67.0139C551.181 75.6683 551.073 84.4105 550.871 93.1527C550.871 94.6513 551.04 95.8935 552.363 96.9533C557.122 100.673 567.626 102.556 573.817 98.425C579.656 94.5568 582.235 88.2044 580.574 81.1364V81.1297Z" fill="#673C28"/>
<path d="M603.891 59.1832C600.104 68.3034 599.166 77.6666 602.406 87.1784C603.324 90.1217 604.85 93.0312 607.226 95.34C610.541 98.3846 614.557 98.8976 618.392 96.7711C621.126 95.34 623.009 93.173 624.805 91.006C626.601 88.8458 628.68 86.9286 630.665 84.9304C631.164 84.4511 631.941 84.2216 633.048 83.614C633.932 87.3606 633.979 90.5402 632.325 93.4903C629.254 98.9314 624.765 103.056 618.709 105.075C612.823 106.992 607.685 105.675 602.899 101.848C598.484 98.1753 596.02 93.389 594.488 88.0087C591.267 76.195 592.408 64.6917 597.836 53.7758C600.691 47.8217 605.079 43.4405 611.682 41.6448C618.021 39.8694 623.772 41.0575 628.444 45.864C629.963 47.3492 630.995 49.4014 631.927 51.3726C632.325 51.9666 632.4 53.0198 632.271 53.7421C632.062 54.5522 631.522 55.6525 630.921 55.9631C630.314 56.0981 629.125 55.558 628.457 54.8965C626.493 53.4383 624.508 51.6359 622.294 50.3735C617.217 47.4572 611.628 48.4698 607.773 52.8982C606.22 54.7817 604.782 56.9149 603.878 59.1899L603.891 59.1832Z" fill="#673C28"/>
<path d="M676.286 41.652C677.123 51.3798 677.785 60.9726 678.75 70.4033C679.25 75.7027 680.1 80.6914 680.809 85.8557C680.985 87.6987 681.16 89.6226 680.742 91.6816C680.37 94.2266 677.778 95.5565 676.273 93.8621C675.557 93.0317 674.956 91.8166 674.599 90.588C673.95 87.2396 673.37 83.763 672.87 80.2459C672.708 79.4358 672.405 78.8485 672.162 77.9776C670.872 79.0645 669.88 79.8948 668.82 81.0155C664.655 85.4304 656.858 92.998 652.429 98.0543C649.668 101.011 646.792 103.475 643.883 104.461C643.802 103.732 643.62 103.03 643.647 102.354C643.977 98.9926 645.24 95.8873 647.832 93.214C651.99 88.664 659.558 81.326 663.716 76.938C661.921 76.5735 660.49 76.4452 659.031 76.236C648.885 74.2512 640.879 68.8439 636.66 58.3331C631.259 45.0274 639.475 32.5656 653.793 31.283C659.551 30.7901 664.729 31.9783 669.475 34.1115C670.339 34.5233 671.345 34.8203 672.222 34.6988C674.457 34.6448 675.375 35.1174 675.834 37.5409C676.124 38.9518 676.171 40.3154 676.3 41.6588L676.286 41.652ZM667.956 39.9711C663.129 37.6691 658.026 36.94 652.335 38.864C645.82 40.95 642.33 47.2956 644.639 53.6346C645.523 56.2403 646.988 58.7989 648.575 60.8308C653.746 67.1968 663.986 70.2751 671.318 68.4659C671.358 68.0203 671.385 67.4938 671.345 67.0752C670.987 59.1837 670.562 51.4406 670.217 43.6435C670.116 41.7331 669.522 40.6934 667.956 39.9711Z" fill="#673C28"/>
</svg>
