<svg width="278" height="322" viewBox="0 0 278 322" fill="none" xmlns="http://www.w3.org/2000/svg">
<path d="M155.355 167.042C155.881 145.496 155.472 126.384 152.608 107.342C151.62 100.762 148.625 96.5364 142.351 94.1626C128.443 88.8848 117.55 79.4011 107.964 68.3153C92.2884 50.1877 91.0647 29.5277 97.8235 7.62468C99.5921 1.90288 102.609 -0.25017 109.478 1.48506C125.13 5.4547 131.806 18.527 140.018 29.8578C150.947 44.9449 153.57 63.2986 157.527 80.9137C163.825 108.89 166.953 137.194 163.477 165.932C162.923 170.527 163.336 175.243 164.434 180.088C167.661 164.29 170.633 148.437 174.159 132.703C180.181 105.87 190.997 81.7599 212.452 63.2026C220.027 56.653 225.655 47.9036 232.593 40.5738C241.288 31.3897 246.085 32.3779 251.452 43.9777C256.655 55.215 263.067 66.0035 263.567 78.9405C264.815 111.318 239.4 140.1 204.67 145.341C198.811 146.221 192.968 147.366 186.962 145.602C182.976 144.435 180.92 146.269 180.253 150.678C177.937 165.796 175.428 180.895 172.594 195.921C171.19 203.381 174.095 210.196 174.612 217.327C175.472 229.236 175.873 241.185 176.284 253.117C176.486 258.925 178.367 260.278 183.992 257.837C199.62 251.076 216.051 246.276 231.075 237.951C238.508 233.832 242.174 235.464 245.827 243.368C250.64 253.765 253.645 264.757 254.949 276.158C255.237 278.671 255.741 281.873 253.108 283.21C250.493 284.537 246.903 283.321 245.342 281.529C242.288 278.026 240.086 279.454 236.724 280.741C205.347 292.729 174.565 306.352 142.232 315.734C140.01 316.378 137.769 317.057 135.694 318.054C123.637 323.803 123.4 323.757 116.476 312.049C104.817 292.322 105.663 289.8 126.497 280.083C138.005 274.718 149.944 270.518 162.02 266.752C167.586 265.015 168.696 262.618 166.168 257.154C161.606 247.279 162.64 236.274 161.453 225.772C158.94 203.49 151.405 183.028 141.153 163.348C137.736 156.784 134.176 154.035 125.93 157.469C105.298 166.051 83.9118 165.148 62.6968 159.092C55.5051 157.037 48.5035 154.296 41.4025 151.898C13.5251 142.479 5.18408 119.245 0.68991 93.5641C-0.482207 86.8771 2.2119 85.5762 8.62131 88.6559C11.8216 90.1957 15.3784 89.9939 18.5604 89.3134C34.4445 85.902 49.5406 90.0171 64.3704 94.4298C83.8976 100.244 103.681 105.901 119.565 119.846C132.406 131.115 141.644 145.176 150.475 159.569C151.649 161.481 152.91 163.341 155.337 167.068L155.355 167.042ZM99.3897 156.148C107.738 155.471 115.946 154.539 123.784 151.515C129.053 149.485 130.578 146.836 126.454 141.827C119.488 133.369 112.183 125.34 102.865 119.436C86.7069 109.19 68.3323 104.539 50.3703 98.8952C42.671 96.4752 34.7151 95.41 26.5992 95.6828C14.2668 96.1083 13.2279 97.3338 16.0537 108.72C16.9929 112.489 17.7996 116.319 19.0123 120.002C20.8958 125.717 23.424 131.137 28.5532 134.761C49.8052 149.795 73.7484 155.837 99.3897 156.148ZM254.183 81.6087C255.949 69.3498 248.227 59.5292 243.681 48.6493C241.624 43.7263 239.278 44.4308 236.692 47.706C232.542 52.9691 228.594 58.3924 224.689 63.8424C217.893 73.3317 208.579 80.6697 201.601 89.7964C192.276 102.015 188.096 117.022 184.023 131.783C182.765 136.337 184.41 137.592 189.049 137.407C199.542 136.985 209.711 135.204 219.032 130.403C238.707 120.272 255.12 107.491 254.183 81.6087ZM115.986 292.143C117.839 296.025 119.836 299.652 121.346 303.478C123.937 309.991 127.542 311.508 134.514 308.874C164.212 297.683 194.169 287.208 223.962 276.273C241.921 269.689 241.64 269.581 237.353 251.391C236.125 246.183 234.176 246.741 230.432 248.377C220.746 252.629 211.042 256.872 201.14 260.593C172.925 271.205 144.614 281.552 115.986 292.134L115.986 292.143ZM103.709 27.4482C103.678 48.7331 123.531 76.3898 143.44 84.0834C147.397 85.6114 148.733 84.723 147.728 80.3896C142.871 59.4814 138.059 38.6001 122.484 22.3498C118.345 18.0365 113.846 11.4386 108.279 13.3078C103.056 15.0651 104.543 23.1377 103.709 27.4482Z" fill="url(#paint0_linear_3494_23153)" fill-opacity="0.5"/>
<path d="M137.606 235.849C128.95 228.532 121.182 229.389 112.416 235.207C102.819 241.574 93.2004 248.513 81.1592 249.998C74.7994 250.786 68.2222 251.238 64.5132 244.866C60.9171 238.689 63.744 232.685 67.4708 227.515C73.2701 219.463 81.7229 215.396 91.3126 214.58C107.427 213.205 121.831 218.152 134.346 228.362C136.174 229.856 138.51 231.583 137.615 235.858L137.606 235.849ZM115.648 225.664C108.196 224.285 103.234 222.952 98.1864 222.526C88.2221 221.692 79.1315 224.001 72.6787 232.348C70.51 235.159 68.4506 238.632 70.3142 242.347C72.2299 246.168 76.1814 244.982 79.3337 244.751C93.3073 243.739 102.988 234.465 115.64 225.664L115.648 225.664Z" fill="url(#paint1_linear_3494_23153)" fill-opacity="0.5"/>
<path d="M219.252 197.495C218.84 188.021 222.411 182.577 226.812 177.845C236.874 167.015 249.158 160.307 264.21 159.77C270.944 159.531 276.127 164.179 277.133 170.723C278.273 178.097 273.497 180.113 267.688 181.329C256.812 183.598 245.96 185.982 235.075 188.242C229.513 189.398 223.848 190.235 219.243 197.504L219.252 197.495ZM234.138 180.702C245.274 179.043 255.847 175.054 267.034 173.668C270.461 173.245 270.163 170.723 268.226 168.611C266.044 166.233 263.164 166.546 260.292 166.947C250.046 168.384 241.656 173.456 234.138 180.711L234.138 180.702Z" fill="url(#paint2_linear_3494_23153)" fill-opacity="0.5"/>
<defs>
<linearGradient id="paint0_linear_3494_23153" x1="204.089" y1="-25.8666" x2="39.8284" y2="301.937" gradientUnits="userSpaceOnUse">
<stop offset="0.0381614" stop-color="#FBBB6E"/>
<stop offset="1" stop-color="#FBBB6E" stop-opacity="0"/>
</linearGradient>
<linearGradient id="paint1_linear_3494_23153" x1="204.089" y1="-25.8666" x2="39.8284" y2="301.937" gradientUnits="userSpaceOnUse">
<stop offset="0.0381614" stop-color="#FBBB6E"/>
<stop offset="1" stop-color="#FBBB6E" stop-opacity="0"/>
</linearGradient>
<linearGradient id="paint2_linear_3494_23153" x1="204.089" y1="-25.8666" x2="39.8284" y2="301.937" gradientUnits="userSpaceOnUse">
<stop offset="0.0381614" stop-color="#FBBB6E"/>
<stop offset="1" stop-color="#FBBB6E" stop-opacity="0"/>
</linearGradient>
</defs>
</svg>
