<svg width="268" height="425" viewBox="0 0 268 425" fill="none" xmlns="http://www.w3.org/2000/svg">
<path fill-rule="evenodd" clip-rule="evenodd" d="M41.4394 363.876C56.7083 382.701 79.1955 397.304 106.814 406.329C121.289 411.058 131.935 413.545 153.749 417.292C191.92 423.849 205.447 425.3 223.205 424.745C242.686 424.135 259.04 421.584 272.434 417.066C281.052 414.159 286.549 411.441 292.644 407.074C300.816 401.218 305.038 395.506 307.215 387.358C308.708 381.769 308.352 381.204 305.741 385.018C304.559 386.747 301.804 390.099 299.619 392.468C294.445 398.081 283.818 405.382 275.12 409.301C252.54 419.474 221.154 423.299 186.082 420.152C175.005 419.159 152.652 415.271 141.419 412.384C97.4191 401.078 61.0875 381.364 42.855 358.904C37.0845 351.795 29.5645 339.896 27.0601 333.911C22.1927 322.28 21.3344 309.573 24.7144 299.192C26.8493 292.636 32.0148 286.288 37.8673 283.025L40.8112 281.385L43.7307 283.162C77.3474 303.628 100.44 311.796 122.886 311.16C134.905 310.819 147.999 307.563 155.33 303.091C162.701 298.595 166.199 292.041 165.032 284.913C164.561 282.036 164.049 280.89 161.816 277.72C158.806 273.448 156.449 271.507 149.205 267.34C128.349 255.342 102.834 250.917 77.7966 254.955C65.6422 256.916 52.0568 261.605 42.5473 267.122C40.1572 268.509 38.6661 269.03 37.4989 268.886C34.0921 268.467 29.122 263.709 20.9178 253.012C15.8732 246.434 15.2066 245.338 12.2288 238.726C-2.19255 206.705 2.02384 176.894 24.4801 152.102C29.9494 146.064 42.8651 136.325 51.8025 131.502C64.6076 124.59 78.1495 120.141 93.9108 117.667C104.905 115.941 113.363 115.478 122.499 116.101C134.489 116.92 132.736 116.22 140.993 123.489C167.712 147.007 189.301 160.121 210.475 165.692C231.744 171.288 259.742 168.098 266.942 159.257C269.247 156.427 270.05 152.956 269.393 148.662C268.838 145.038 268.648 144.632 266.124 141.69C255.306 129.085 242.389 121.272 222.888 115.536C213.105 112.659 194.703 109.537 176.682 107.697C167.805 106.791 158.353 105.801 155.679 105.497C153.005 105.194 147.356 104.939 143.127 104.932C131.471 104.91 131.76 105.049 124.907 96.1531C117.048 85.9508 109.851 72.9396 106.145 62.2344C104.266 56.8069 102.342 44.4301 102.517 38.8969C103.38 11.6075 121.864 -11.2673 155.973 -27.2597C185.111 -40.9219 223.534 -46.1553 257.315 -41.0631C265.52 -39.8265 265.734 -39.8292 262.933 -41.1409C249.69 -47.3388 234.015 -50.7888 216.982 -51.2523C208.918 -51.4716 203.348 -51.0892 194.327 -49.6946C159.297 -44.2807 129.909 -27.7189 111.812 -3.1916C95.5965 18.7856 92.5066 46.2382 103.313 72.3249C106.281 79.4883 108.273 83.0808 114.549 92.5832C119.992 100.825 120.923 102.484 120.735 103.613C120.478 105.149 123.102 104.495 95.9639 109.778C75.0756 113.843 55.5219 118.584 48.7458 121.224C39.0558 125.001 29.3904 131.692 22.137 139.645C12.987 149.678 5.51836 164.973 2.24565 180.377C-1.94857 200.121 0.374025 222.758 8.54743 241.79C11.7029 249.138 21.1364 262.768 27.0292 268.494C29.2292 270.631 31.2591 272.974 31.5407 273.701C32.1466 275.265 31.2296 277.208 28.3687 280.423C27.2162 281.718 25.1945 284.734 23.8759 287.126C12.2731 308.17 18.5677 335.677 41.4394 363.876ZM49.6234 279.014C53.4341 282.209 61.8341 286.559 75.8931 292.618C98.1646 302.215 113.456 305.59 128.798 304.294C139.749 303.37 146.439 301.06 152.788 296.013C156.901 292.743 160.681 288.088 161.057 285.829C161.347 284.093 157.947 278.816 155.072 276.54C150.441 272.874 128.637 266.285 112.759 263.753C87.4298 259.714 69.5911 262.392 46.9615 273.631C45.4309 274.391 45.3824 274.533 46.2511 275.707C46.7639 276.4 48.2817 277.888 49.6234 279.014ZM148.914 122.661C166.784 139.371 187.512 151.421 208.353 157.216C220.019 160.46 233.933 161.42 244.853 159.734C250.557 158.854 257.715 156.816 259.436 155.582C261.64 154.003 264.546 150.384 264.791 148.913C265.314 145.778 263.54 144.475 249.666 137.804C227.059 126.934 222.864 125.606 200.284 122.177C179.216 118.977 161.37 116.95 145.795 115.985L142.405 115.775L143.361 117.07C143.887 117.782 146.386 120.298 148.914 122.661Z" fill="url(#paint0_linear_3494_23184)" fill-opacity="0.7"/>
<defs>
<linearGradient id="paint0_linear_3494_23184" x1="289.5" y1="-4.83916" x2="77.0859" y2="421.33" gradientUnits="userSpaceOnUse">
<stop offset="0.404973" stop-color="#B7DBCA"/>
<stop offset="1" stop-color="#B7DBCA" stop-opacity="0"/>
</linearGradient>
</defs>
</svg>
