<svg width="230" height="288" viewBox="0 0 230 288" fill="none" xmlns="http://www.w3.org/2000/svg">
<path d="M199.104 -6.95788C213.374 -12.0028 221.409 -11.172 222.681 -4.52361C223.057 -2.55917 224.67 -0.542323 226.266 -0.0426331C228.602 0.687334 229.238 2.3126 229.523 8.26621C230.345 25.4543 213.472 170.902 209.887 177.523C209.288 178.629 208.81 182.259 208.824 185.592C208.849 191.678 203.759 220.068 198.679 242.18C196.955 249.682 193.949 256.796 190.5 261.539C184.974 269.134 175.846 277.474 172.299 278.168C171.232 278.377 168.608 280.678 166.466 283.282C161.867 288.881 162.978 288.479 156.846 286.754C154.098 285.982 148.805 285.938 145.084 286.655C137.965 288.031 136.1 286.554 140.222 282.81C142.244 280.974 141.753 280.868 137.476 282.215C133.54 283.456 132.024 283.286 130.348 281.205L129.716 280.38C128.24 278.559 126.707 278.159 124.776 279.064C116.369 283.011 57.9159 233.745 35.5307 203.847C5.93885 164.322 -3.23135 144.819 2.41695 133.426C7.73582 122.7 29.5207 110.988 52.4388 106.531C68.3588 103.435 82.1563 104.164 84.7561 108.236C85.4791 109.365 87.3581 110.039 88.9336 109.732C90.5097 109.426 95.7935 111.264 100.676 113.815C105.559 116.367 110.081 118.352 110.725 118.227C111.37 118.1 114.434 111.596 117.534 103.77C129.14 74.466 143.293 48.6171 160.214 25.8212C173.327 8.15523 185.59 -2.18246 199.104 -6.95788ZM197.246 59.3119C196.746 58.9562 202.202 9.26291 185.067 28.955C174.239 47.4087 159.179 83.1402 151.444 102.996C141.203 129.292 139.954 143.411 151.275 154.165C150.077 153.604 152.673 157.044 151.578 158.02C150.456 159.023 150.72 161.191 152.436 165.042C153.543 167.526 154.617 169.284 155.672 170.132L156.189 171.919C155.288 177.926 153.612 179.107 149.158 176.406C144.769 173.744 141.029 175.008 145.225 177.735C146.452 178.532 147.647 180.189 147.882 181.417C148.222 183.19 147.544 183.206 144.595 181.492C142.552 180.306 141.02 180.058 141.189 180.942C141.358 181.826 140.483 183.166 139.247 183.918C137.703 184.852 122.223 165.583 106.293 156.78C82.2297 140.967 60.7033 134.97 60.7033 134.97C60.599 134.968 45.1994 134.669 38.7678 141.284C34.1545 146.028 35.005 154.781 36.3494 157.684C40.0667 165.716 57.2644 187.196 74.059 204.783C88.0444 219.429 95.3818 225.539 112.304 236.628C140.525 255.123 153.099 261.641 177.931 252.27C194.716 245.936 193.234 127.158 193.583 123.432C193.932 119.706 196.556 72.8815 197.492 65.3164C197.86 62.3412 197.749 59.639 197.246 59.3119Z" fill="url(#paint0_linear_3494_23167)" fill-opacity="0.3"/>
<defs>
<linearGradient id="paint0_linear_3494_23167" x1="228.742" y1="9.61903" x2="119.199" y2="435.993" gradientUnits="userSpaceOnUse">
<stop offset="0.330223" stop-color="#CE9CFF"/>
<stop offset="0.635491" stop-color="#CE9CFF" stop-opacity="0"/>
</linearGradient>
</defs>
</svg>
