<svg width="286" height="277" viewBox="0 0 286 277" fill="none" xmlns="http://www.w3.org/2000/svg">
<path fill-rule="evenodd" clip-rule="evenodd" d="M110.159 -12.1607C109.448 -11.6756 108.214 -10.8344 107.417 -10.2911C106.621 -9.74776 105.798 -9.22872 105.588 -9.13714C105.378 -9.04556 103.13 -7.35055 100.593 -5.36945C95.4752 -1.37572 91.0249 3.94842 91.418 5.60641C91.5585 6.19895 91.3146 6.77053 90.8762 6.87627C89.7017 7.15953 85.9474 14.1173 85.8629 16.1665C85.8229 17.1367 85.3666 19.9559 84.8474 22.4313C84.3289 24.9065 83.8812 30.1746 83.8526 34.1375C83.8037 40.9562 83.9997 43.1805 85.5179 53.0354C85.8675 55.3013 86.4 59.2109 86.7021 61.7232C87.158 65.5196 87.8959 71.2889 88.1984 73.4234C88.3157 74.2514 85.6455 74.3433 82.0096 73.6366C79.2626 73.1027 77.38 73.3764 72.2511 75.0544C68.7553 76.1983 64.3996 78.0085 62.5711 79.0776C60.7426 80.1468 57.9585 81.5746 56.383 82.2494C54.8086 82.9248 53.6111 83.8631 53.723 84.3352C53.8349 84.8073 53.3814 85.1192 52.7148 85.0287C51.17 84.8184 44.3049 88.8952 37.1514 94.2714C36.366 94.8616 34.073 96.3666 32.0559 97.6163C30.0388 98.8659 27.8146 100.661 27.1132 101.605C25.3053 104.039 22.9384 106.158 21.6923 106.459C21.1058 106.6 20.0338 107.77 19.3096 109.058C18.5854 110.346 16.2816 113.282 14.1903 115.581C12.0985 117.881 10.1224 120.24 9.79823 120.824C9.47424 121.409 7.97387 123.461 6.46328 125.385C4.95287 127.31 3.83434 129.376 3.97714 129.979C4.11993 130.581 3.43867 132.54 2.46283 134.331C-1.18122 141.023 0.498015 147.332 6.05119 147.816C9.63408 148.128 12.1004 149.976 11.5556 151.94C11.2851 152.917 11.4343 153.372 11.9818 153.24C12.5348 153.107 13.0092 154.608 13.3638 157.607C13.8097 161.379 14.1148 162.126 15.1142 161.885C15.7795 161.725 16.684 162.276 17.124 163.11C17.6578 164.123 18.5927 164.465 19.9399 164.14C21.0491 163.872 22.2645 163.964 22.6405 164.343C23.0165 164.723 24.7117 164.698 26.4081 164.289C28.1046 163.88 30.4444 163.672 31.6082 163.826C32.7714 163.982 35.7005 163.857 38.117 163.55C54.8666 161.425 66.3185 159.66 67.3697 159.041C68.0459 158.643 68.898 158.618 69.2621 158.987C69.6271 159.355 71.7649 159.055 74.0129 158.321C78.5725 156.832 83.4153 156.345 83.6543 157.353C83.7403 157.716 82.1171 159.392 80.0471 161.078C77.9763 162.765 75.9564 164.818 75.5577 165.642C75.159 166.465 74.2558 167.303 73.5505 167.504C72.8446 167.706 70.7273 169.356 68.8444 171.171C66.9615 172.987 64.3408 175.402 63.0211 176.538C61.7004 177.673 58.871 180.908 56.7336 183.725C54.5953 186.543 52.1157 189.361 51.2237 189.988C50.331 190.615 49.7329 191.683 49.8936 192.361C50.0544 193.039 49.8413 193.676 49.4196 193.778C48.339 194.039 43.7913 202.103 44.0675 203.268C44.1933 203.798 43.8085 204.571 43.2128 204.985C42.6169 205.399 42.2707 206.334 42.4434 207.062C42.6159 207.79 42.0087 210.026 41.0932 212.029C40.1779 214.033 39.4774 216.933 39.537 218.472C39.596 220.012 39.3883 222.312 39.0756 223.583C38.7628 224.854 38.768 227.004 39.0863 228.361C39.4055 229.718 39.4108 231.255 39.0986 231.776C38.7859 232.299 39.1085 234.238 39.8153 236.087C40.8342 238.752 41.6252 239.58 43.6351 240.088C45.0284 240.44 46.4374 240.614 46.7653 240.475C48.2752 239.832 48.7381 240.195 48.0977 241.517C47.5342 242.681 47.661 242.993 48.7599 243.143C49.5083 243.245 50.4839 242.956 50.9289 242.502C51.5154 241.903 51.7574 242.353 51.8111 244.137C51.8509 245.49 51.971 246.095 52.0771 245.482C52.5083 242.99 53.7628 244.208 54.0046 247.353C54.2184 250.142 54.5302 250.73 55.8882 250.905C56.783 251.021 58.0347 251.553 58.6688 252.088C59.4971 252.785 59.92 252.759 60.1671 251.996C60.4162 251.226 61.3041 251.143 63.379 251.695C64.9557 252.114 66.5316 252.296 66.8803 252.1C67.2296 251.902 68.1083 252.038 68.8348 252.402C69.5605 252.767 70.6214 252.739 71.1933 252.341C71.7653 251.944 72.7776 252.034 73.4427 252.54C74.3246 253.212 75.0024 253.146 75.9442 252.297C76.7698 251.554 78.9414 250.998 81.9556 250.761C84.745 250.54 87.6022 249.85 88.9421 249.073C90.1888 248.349 93.448 247.169 96.1848 246.45C98.9206 245.73 101.274 244.786 101.415 244.353C101.555 243.918 102.536 243.354 103.594 243.099C104.651 242.844 106.465 241.681 107.623 240.515C108.782 239.349 110.442 238.412 111.314 238.431C112.186 238.452 113.775 237.448 114.846 236.201C115.916 234.954 117.453 233.772 118.261 233.576C119.068 233.38 120.76 232.107 122.02 230.747C125.957 226.497 127.108 225.489 128.393 225.166C129.079 224.994 131.207 222.943 133.124 220.61C135.039 218.275 137.301 215.952 138.15 215.447C138.998 214.942 140.894 212.94 142.362 210.998C143.83 209.056 145.395 207.379 145.839 207.272C146.283 207.165 146.7 206.295 146.767 205.339C146.834 204.383 147.554 203.44 148.365 203.245C149.177 203.049 151.296 200.711 153.073 198.05C154.851 195.388 156.971 192.473 157.786 191.572C158.601 190.67 160.716 187.421 162.486 184.352C164.256 181.283 166.409 178.153 167.272 177.399C168.134 176.644 168.774 175.751 168.694 175.414C168.466 174.452 174.534 164.16 177.093 161.166C178.495 159.526 180.653 158.096 182.601 157.516L185.805 156.56L191.187 166.185C194.148 171.478 197.097 177.027 197.741 178.517C198.384 180.007 199.374 181.599 199.94 182.055C200.506 182.511 201.646 184.352 202.471 186.145C203.298 187.938 205.078 191.639 206.428 194.369C208.919 199.404 212.029 210.641 212.416 215.999C212.533 217.616 212.935 220.144 213.311 221.615C213.686 223.087 213.721 225.386 213.388 226.724C210.481 238.404 207.966 246.648 206.866 248.103C206.649 248.391 205.396 252.479 204.083 257.188C201.264 267.288 201.836 269.194 207.553 268.76C209.735 268.595 211.352 269.019 212.189 269.976C213.292 271.236 213.257 271.454 211.947 271.505C210.064 271.578 208.999 274.867 210.468 276.078C211.02 276.533 212.364 276.689 213.456 276.425C215.067 276.037 215.286 275.653 214.618 274.387C214 273.216 214.143 272.816 215.191 272.783C216.024 272.758 216.626 273.37 216.683 274.299C216.757 275.51 217.124 275.67 218.326 275.02C219.301 274.493 219.965 274.568 220.12 275.226C220.475 276.72 224.621 276.385 224.82 274.846C224.906 274.17 225.396 273.568 225.908 273.509C227.986 273.267 228.767 272.668 228.496 271.524C228.339 270.86 229.036 269.018 230.045 267.428C232.068 264.245 234.552 258.038 234.274 256.864C233.892 255.254 235.953 248.78 236.922 248.546C237.486 248.41 238.22 246.791 238.55 244.949C238.881 243.107 239.751 239.453 240.483 236.83C241.253 234.069 241.438 231.934 240.92 231.76C239.596 231.313 239.502 229.977 240.774 229.67C241.753 229.434 242.123 227.511 241.981 223.397C241.706 215.394 241.338 212.332 239.662 204.119C238.1 196.46 237.427 194.399 236.247 193.663C235.199 193.007 234.944 192.387 235.356 191.494C236.037 190.022 231.578 179.305 228.686 175.463C227.685 174.134 226.497 171.92 226.047 170.545C225.596 169.168 224.395 166.897 223.379 165.497C222.363 164.097 221.572 162.497 221.621 161.94C221.67 161.384 221.277 160.782 220.748 160.605C220.219 160.427 219.482 159 219.111 157.435C218.447 154.635 218.481 154.589 221.17 154.589C225.068 154.59 231.364 152.751 232.436 151.3C233.132 150.356 233.664 150.224 234.694 150.741C235.463 151.127 236.158 151.053 236.315 150.569C236.466 150.103 237.537 149.679 238.695 149.627C239.852 149.574 242.395 148.684 244.345 147.649C246.295 146.613 249.465 145.224 251.39 144.562C256.417 142.835 259.07 141.475 258.891 140.717C258.805 140.354 260.037 139.563 261.628 138.958C264.684 137.796 268.418 135.483 271.393 132.907C272.377 132.054 274.015 130.979 275.033 130.516C278.544 128.922 286.967 122.457 287.441 120.993C287.606 120.481 288.412 119.901 289.233 119.704C290.052 119.506 290.778 118.562 290.845 117.605C290.912 116.649 291.648 115.703 292.481 115.502C293.314 115.301 294.523 113.873 295.168 112.327C295.812 110.782 297.302 108.893 298.478 108.129C299.653 107.365 300.63 105.959 300.648 105.004C300.666 104.05 301.006 103.19 301.403 103.095C301.801 102.999 302.251 101.929 302.403 100.717C302.556 99.505 303.002 98.4359 303.396 98.3409C304.095 98.1724 304.378 93.2885 303.767 91.9489C303.598 91.5784 303.825 90.5623 304.271 89.6907C304.766 88.7243 304.683 86.8916 304.058 84.994C303.494 83.2823 303.238 81.4211 303.49 80.8579C304.637 78.2909 299.127 62.9274 296.463 61.2636C295.888 60.9048 295.29 60.0714 295.133 59.4117C294.737 57.7392 290.016 52.0008 289.198 52.1979C288.829 52.287 288.159 51.74 287.709 50.9837C286.277 48.573 277.352 43.0904 275.563 43.5218C274.637 43.7452 273.467 43.4735 272.962 42.9185C271.604 41.4232 259.659 41.678 250.67 43.3938C247.958 43.911 246.687 42.4529 247.829 40.1374C248.643 38.4874 250.645 29.6954 251.166 25.4769C251.316 24.2656 251.724 22.1195 252.074 20.708C252.423 19.2966 252.389 16.8051 251.999 15.1711C251.609 13.5371 251.541 11.6777 251.846 11.0392C252.153 10.4004 252.041 9.27018 251.6 8.52791C251.159 7.78564 250.5 4.59111 250.136 1.42895C249.481 -4.24419 247.144 -10.7353 245.316 -11.9541C244.825 -12.2817 244.267 -13.2051 244.077 -14.0054C243.673 -15.7095 242.808 -15.6633 241.583 -13.8739C240.844 -12.7942 240.813 -12.8422 241.385 -14.18C242.431 -16.6279 239.942 -20.7586 237.358 -20.8609C236.215 -20.9068 235.612 -21.0611 236.015 -21.2054C236.839 -21.4999 228.423 -24.5874 227.441 -24.3506C227.095 -24.2671 225.857 -24.8369 224.691 -25.6163C222.765 -26.9045 221.934 -26.8639 215.608 -25.1674C206.549 -22.7382 203.816 -21.7858 203.263 -20.8696C203.013 -20.4572 201.616 -19.8315 200.157 -19.4795C198.698 -19.1278 197.579 -18.5262 197.67 -18.1431C197.761 -17.7591 195.857 -16.712 193.44 -15.8146C191.023 -14.918 188.736 -13.787 188.358 -13.301C187.98 -12.8151 186.377 -11.6199 184.794 -10.6443C181.206 -8.43107 177.311 -4.66641 177.553 -3.64381C177.654 -3.22022 176.778 -2.25102 175.608 -1.49012C174.437 -0.729228 173.406 0.460383 173.317 1.15434C173.228 1.84769 172.636 2.5408 172.002 2.69356C171.368 2.84651 170.795 3.27345 170.728 3.64182C170.4 5.45231 163.842 13.2077 162.331 13.5721C161.382 13.8011 160.725 13.6158 160.872 13.1599C161.194 12.1679 157.821 7.31016 156.504 6.86644C155.994 6.69463 155.372 5.69668 155.124 4.64821C154.875 3.60055 154.375 2.68626 154.011 2.61678C153.648 2.54811 152.464 1.35939 151.38 -0.0242181C147.68 -4.74669 141.371 -9.54843 139.456 -9.10021C138.398 -8.85282 137.545 -9.1785 137.375 -9.89311C137.082 -11.1316 134.987 -11.1177 134.643 -9.87512C134.539 -9.49793 134.455 -9.66903 134.456 -10.2574C134.461 -12.0104 132.216 -10.9273 131.703 -8.92842C131.441 -7.91251 130.807 -7.22273 130.292 -7.3952C129.744 -7.58016 129.926 -8.36226 130.731 -9.28536C131.83 -10.5445 131.865 -11.1339 130.906 -12.229C129.349 -14.0081 128.067 -13.6715 128.555 -11.6117C128.946 -9.96506 128.185 -9.49363 123.974 -8.77106C122.484 -8.51599 121.924 -8.05867 122.272 -7.38301C122.558 -6.82882 122.576 -6.61277 122.314 -6.90169C122.051 -7.19041 121.367 -7.31433 120.794 -7.17616C119.783 -6.93224 118.386 -8.37887 117.98 -10.0902C117.844 -10.6666 118.156 -10.7462 118.972 -10.343C120.598 -9.53951 125.524 -11.1002 125.638 -12.455C125.689 -13.0578 125.378 -14.0731 124.945 -14.7115C124.334 -15.6153 123.964 -15.6046 123.27 -14.6647C122.6 -13.757 122.184 -13.6543 121.594 -14.2502C121.133 -14.7158 119.907 -14.6228 118.628 -14.0255C117.428 -13.4652 116.376 -13.3097 116.288 -13.6791C116.104 -14.4576 112.06 -13.4559 110.159 -12.1607ZM233.446 -19.8165C233.551 -19.3719 233.995 -19.0945 234.433 -19.2001C234.871 -19.3056 235.142 -19.7558 235.037 -20.2004C234.932 -20.645 234.487 -20.9224 234.05 -20.8168C233.612 -20.7113 233.34 -20.2612 233.446 -19.8165ZM119.585 16.19C119.42 16.6998 118.614 17.2787 117.793 17.4766C116.158 17.871 112.128 25.5398 112.572 27.4128C112.724 28.0563 112.61 29.0059 112.319 29.5222C111.75 30.532 111.647 37.3459 112.136 41.6102C113.118 50.1537 113.455 55.424 113.061 56.0754C112.937 56.2822 113.311 57.1619 113.893 58.0309C114.497 58.9313 115.239 62.8664 115.62 67.1887C115.986 71.357 116.761 77.3224 117.341 80.4455C118.195 85.0399 118.146 86.2387 117.084 86.7256C116.172 87.1428 116.032 87.7638 116.624 88.7602C117.621 90.4376 115.606 91.3396 114.171 89.8595C112.715 88.358 110.433 88.4715 109.652 90.0845C109.14 91.1421 108.017 91.6718 105.814 91.8955C104.101 92.0695 102.576 92.5954 102.423 93.0637C102.272 93.5326 100.913 94.985 99.4034 96.2926C97.4073 98.0208 96.7797 99.1772 97.1011 100.533C97.4898 102.172 97.22 102.429 94.8711 102.659C93.401 102.802 91.5511 102.582 90.7591 102.168C87.2245 100.325 79.5775 101.569 75.2982 104.684C74.2772 105.426 73.0909 106.011 72.6617 105.982C71.8153 105.924 63.03 111.075 57.217 115.037C55.2254 116.394 52.5818 118.017 51.3421 118.642C50.1026 119.269 48.018 120.854 46.7099 122.167C45.4016 123.479 42.8518 125.813 41.0427 127.355C39.2342 128.895 37.1854 131.168 36.4902 132.404C35.298 134.525 35.3151 134.658 36.7858 134.723C39.4427 134.841 45.5939 134.263 49.8172 133.498C78.2239 128.355 94.8085 124.54 105.19 120.762C110.052 118.993 114.556 117.236 115.201 116.859C115.845 116.482 118.255 115.493 120.556 114.662C122.857 113.83 125.32 112.628 126.028 111.989C127.758 110.43 133.567 109.393 136.594 110.102C138.379 110.52 139.187 111.279 139.571 112.9C140.104 115.148 142.874 118.254 144.085 117.962C144.447 117.874 145.219 115.628 145.801 112.968C146.384 110.309 147.519 106.942 148.325 105.486C149.131 104.031 149.799 101.91 149.809 100.773C149.822 99.3987 150.663 98.1849 152.321 97.1465C153.692 96.2877 154.701 95.1103 154.563 94.5283C153.902 91.7418 164.176 84.9313 171.948 83.0037L177.18 81.706L174.037 80.8685C172.309 80.4077 170.604 80.4026 170.249 80.8582C169.895 81.313 167.334 82.1475 164.558 82.7135C161.362 83.3647 159.389 84.1416 159.172 84.833C158.938 85.5852 157.989 85.9012 156.116 85.8488C153.243 85.769 151.855 83.8074 150.788 78.315C150.526 76.9681 148.84 70.6448 147.04 64.2632C145.241 57.8816 142.216 46.6663 140.317 39.3397C137.213 27.3581 136.576 25.6435 133.977 22.2811C132.388 20.2252 130.835 18.6044 130.525 18.6792C130.214 18.7541 129.063 17.6856 127.968 16.3047C126.202 14.0804 125.628 13.8778 122.93 14.5286C121.255 14.9325 119.75 15.6801 119.585 16.19ZM205.584 10.3764C194.834 17.4899 185.799 28.9245 184.153 37.4965C182.225 47.5468 181.174 54.0765 181.171 56.0316C181.169 57.2073 181.026 59.068 180.853 60.1678C180.681 61.2674 180.402 63.0643 180.234 64.1628C180.067 65.2611 179.967 67.3038 180.012 68.7031C180.268 76.7147 180.116 78.1547 178.831 79.8535L177.417 81.7206L179.734 81.1619C181.008 80.8547 182.469 80.856 182.982 81.1639C183.495 81.4727 185.971 81.6165 188.484 81.4838C190.997 81.352 193.74 81.3399 194.579 81.4581C195.777 81.6257 196.084 81.1207 196.007 79.1147C195.937 77.2807 196.953 75.2999 199.601 72.1119C204.237 66.531 211.75 55.4322 211.527 54.4936C211.435 54.1048 212.689 50.8916 214.313 47.3525C215.937 43.8123 217.737 39.265 218.313 37.2459C218.889 35.227 219.791 33.1635 220.317 32.6604C220.845 32.1572 221.161 31.2631 221.021 30.6729C220.881 30.082 221.178 29.0421 221.681 28.3602C222.183 27.6793 222.57 25.9101 222.542 24.4292C222.512 22.9477 222.828 20.7707 223.245 19.5908C224.266 16.6987 222.553 6.33433 220.839 5.02755C218.786 3.46459 212.923 5.52041 205.584 10.3764ZM85.3165 77.4403C85.1229 78.0391 85.4082 78.8061 85.9512 79.1451C86.6098 79.5563 87.0563 79.3991 87.2913 78.6732C87.485 78.0744 87.1997 77.3074 86.6566 76.9684C85.998 76.5572 85.5516 76.7144 85.3165 77.4403ZM243.503 74.9318C242.124 75.4617 241.059 76.1569 241.135 76.4763C241.211 76.7956 239.691 77.9688 237.757 79.083C233.064 81.7873 223.414 90.4362 223.708 91.6738C223.836 92.2162 223.318 93.2216 222.555 93.9088C220.765 95.5217 221.062 96.8045 222.985 95.7647C223.924 95.2572 224.76 95.3964 225.267 96.1443C225.706 96.7939 226.338 97.0473 226.672 96.7062C227.005 96.366 227.458 96.8481 227.679 97.7777C227.915 98.7753 227.417 99.9449 226.463 100.631C224.875 101.773 224.883 101.786 226.923 101.348C229.778 100.734 232.437 102.716 232.413 105.439C232.401 106.621 232.798 107.724 233.294 107.891C234.397 108.262 234.418 111.571 233.328 113.377C232.891 114.104 232.737 115.564 232.988 116.622C233.239 117.68 232.904 119.05 232.245 119.667C230.131 121.646 231.998 121.526 237.051 119.357C239.756 118.198 242.488 117.04 243.122 116.786C243.756 116.532 244.766 116.003 245.367 115.61C245.967 115.218 247.605 114.14 249.005 113.217C250.405 112.293 253.077 110.787 254.941 109.87C256.806 108.953 259.895 106.898 261.805 105.305C263.716 103.71 265.702 102.304 266.219 102.179C266.736 102.055 267.45 101.352 267.806 100.618C268.162 99.8839 269.441 98.8216 270.649 98.2577C271.857 97.6937 273.108 96.6724 273.428 95.9885C273.748 95.3054 274.801 93.1286 275.768 91.1519C277.372 87.8731 277.399 87.2307 276.078 83.813C275.282 81.753 273.403 78.1477 271.902 75.8015C269.243 71.6433 269.063 71.5311 264.838 71.3836C262.453 71.3 257.983 71.7857 254.905 72.4623C251.827 73.1397 248.566 73.7552 247.658 73.8305C246.751 73.9066 244.881 74.4019 243.503 74.9318ZM177.714 113.755C176.146 115.911 175.901 117.058 176.509 119.405C177.525 123.331 180.344 127.571 181.754 127.293C182.377 127.17 183.972 127.124 185.296 127.192C186.721 127.266 188.33 126.81 189.238 126.077C190.081 125.395 192.278 124.004 194.118 122.986C197.672 121.02 201.487 117.853 203.607 115.108C204.887 113.45 204.882 113.434 202.716 112.364C201.518 111.772 198.43 111.18 195.854 111.05C193.28 110.92 190.107 110.654 188.805 110.46C187.503 110.265 184.918 110.319 183.059 110.578C180.32 110.962 179.309 111.563 177.714 113.755ZM146.297 137.721C144.699 139.761 142.077 142.461 140.47 143.72C138.864 144.98 137.231 146.669 136.841 147.473C136.451 148.278 135.784 149.02 135.358 149.123C134.932 149.226 133.648 150.4 132.504 151.732C131.36 153.065 129.582 154.936 128.553 155.89C127.523 156.844 125.04 159.175 123.036 161.068C121.032 162.961 117.641 165.876 115.499 167.544C113.358 169.214 110.308 171.968 108.721 173.666C107.134 175.364 105.338 176.874 104.729 177.021C104.12 177.167 103.487 177.705 103.322 178.214C103.157 178.724 102.371 179.298 101.575 179.49C100.779 179.682 99.8444 180.425 99.4977 181.141C99.1508 181.856 96.5884 184.417 93.8036 186.832C91.0187 189.247 87.3765 192.654 85.7096 194.404C84.0426 196.155 82.2382 197.723 81.699 197.89C81.1608 198.058 80.8058 198.558 80.9112 199.002C81.0166 199.447 80.5785 199.937 79.9371 200.092C79.2966 200.246 78.5618 201.188 78.3062 202.186C78.0496 203.183 76.9883 204.749 75.9466 205.667C73.5842 207.748 68.734 215.055 68.992 216.143C69.0976 216.588 68.6667 217.964 68.0345 219.2C67.4022 220.436 66.9601 221.765 67.0521 222.153C67.6992 224.882 82.6558 221.716 91.0795 217.066C92.9191 216.051 94.98 214.965 95.66 214.654C96.7139 214.171 98.7898 212.736 104.968 208.219C105.56 207.787 107.585 205.948 109.468 204.134C111.351 202.319 114.338 199.503 116.107 197.876C117.876 196.249 119.36 194.48 119.405 193.945C119.489 192.948 126.107 186.256 129.627 183.608C130.707 182.797 131.451 181.542 131.28 180.822C131.109 180.102 131.766 178.882 132.741 178.112C133.714 177.341 134.383 176.17 134.227 175.51C134.07 174.849 134.644 173.68 135.503 172.911C137.286 171.315 145.802 159.38 146.001 158.2C146.072 157.772 146.592 156.772 147.157 155.98C147.721 155.187 149.772 152.043 151.716 148.992C154.694 144.32 155.097 143.146 154.275 141.549C153.738 140.506 152.933 139.529 152.486 139.379C152.039 139.228 151.424 138.057 151.12 136.775C150.817 135.494 150.261 134.348 149.886 134.229C149.51 134.11 147.896 135.681 146.297 137.721ZM217.331 148.154C217.707 148.534 218.172 148.806 218.365 148.76C218.559 148.713 218.63 148.311 218.525 147.867C218.419 147.422 217.953 147.15 217.49 147.261C217.027 147.373 216.955 147.775 217.331 148.154Z" fill="url(#paint0_linear_3494_23176)" fill-opacity="0.7"/>
<defs>
<linearGradient id="paint0_linear_3494_23176" x1="122.184" y1="-15.7036" x2="292.928" y2="431.999" gradientUnits="userSpaceOnUse">
<stop offset="0.135926" stop-color="#B7DBCA"/>
<stop offset="0.576923" stop-color="#B7DBCA" stop-opacity="0"/>
</linearGradient>
</defs>
</svg>
