<svg width="1920" height="2212" viewBox="0 0 1920 2212" fill="none" xmlns="http://www.w3.org/2000/svg">
<g clip-path="url(#clip0_3494_23160)">
<path d="M608.039 733.347C616.521 728.156 624.679 722.22 633.052 716.819C692.405 678.279 754.724 650.398 821 637.841C855.151 631.303 888.718 629.771 921.218 635.467C966.004 643.34 1002.36 663.922 1029.07 699.255C1050.4 727.56 1062.14 760.992 1069.24 797.02C1076.59 834.538 1079 873.34 1078.32 912.759C1077.63 952.973 1075.36 993.415 1074.61 1033.69C1073.73 1079.03 1072.79 1124.42 1073.69 1169.5C1074.51 1209.66 1081.35 1248.1 1094.84 1284C1105.48 1312.21 1119.69 1337.93 1140.35 1358.98C1165.98 1385.08 1196.76 1403.75 1232.07 1415.83C1266.38 1427.6 1302.4 1434.08 1339.77 1436.24C1381.23 1438.66 1423.12 1437.9 1465.47 1433.96C1871.16 1381.67 2154.88 934.063 2154.88 934.063L2126.82 909.392C1870.67 1345.25 1478.15 1400.27 1477.59 1400.58C1472.3 1401.91 1468.3 1403.45 1464.38 1403.8C1411.89 1408.36 1359.91 1409.33 1309.34 1402.13C1277.55 1397.63 1247.22 1389.7 1219.15 1376.06C1179.64 1356.96 1149.01 1328.53 1130.28 1287.79C1119.45 1264.36 1112.41 1239.19 1108.18 1212.81C1101.9 1174.06 1100.8 1134.11 1101.83 1093.85C1102.9 1050.98 1105.71 1007.91 1106.28 965.168C1106.81 924.128 1106.57 883.202 1104.75 842.618C1103.1 805.29 1096.11 769.359 1083.31 735.912C1050.78 650.844 987.356 606.919 894.067 603.196C859.705 601.844 825.074 606.925 790.323 616.04C727.175 632.613 667.918 661.577 611.379 699.256C607.361 701.932 603.394 704.884 599.651 707.916C592.277 713.851 584.573 719.382 576.925 724.961C499.429 781.239 276.655 948.267 -19.3239 1264.7L2.39918 1293.23C2.39918 1293.23 223.718 1027.18 607.984 733.298L608.039 733.347Z" fill="#FFE6BD"/>
</g>
<defs>
<clipPath id="clip0_3494_23160">
<rect width="1691.2" height="1426.24" fill="white" transform="translate(-24 1270.02) rotate(-48.6733)"/>
</clipPath>
</defs>
</svg>
